<svg xmlns="http://www.w3.org/2000/svg" width="2000" height="500" viewBox="0 0 2000 500"><radialGradient id="a" cx="181.373" cy="88.385" r="157.49" fx="187.472" fy="189.965" gradientTransform="matrix(.919 -.3943 .457 1.065 -15.22 120.798)" gradientUnits="userSpaceOnUse"><stop offset=".088" stop-color="#F89C1E"/><stop offset=".612" stop-color="#EF5024"/></radialGradient><path d="M301.6 218.3c10.1-6.7 22-17.5 17-29.7s-17-30.8-11.1-41.9c5.9-11 28.9-24.9 30.6-38.1.9-6.6-2.3-8-2.3-8s.2 7.5-4.1 11.9-8.1 7.8-23.4 13.2c-15.2 5.5-22.7 16.5-24.8 30s-.7 21.8-4.2 27.1c-3.6 5.4-17.6 9.7-26.5 2.5-8.8-7.3-7.2-22.4-2.9-30 4.2-7.6 14.9-14.5 15.2-24.3.4-9.8-9.6-16.1-12.3-16.1-.6 7.5-1.2 14-4 14.8-9.3 2.7-19.5-11.7-20.7-15.3s-5.3-20.1 6.6-27.1c-18.6.1-19.3 15.1-17.3 27.9 2 12.8 7.3 33-3.1 35.7s-11.6-9.4-13.9-23c-3.3-19.1-23.9-27.2-53.7-34.1-17.2-4-39.7-39.1-13.3-85.9-5.8 2.3-33.4 22.1-29.2 58.3s13 58.1 9.7 64.1-7.3 8.2-11.7 6.9c-4.8-1.5-17.4-19.2-18.9-26.8-5 12.5.6 25.3 11.5 39.8 10.9 14.5 44.9 32.3 52.3 40.6 7.4 8.3 14.3 16.3 8.9 21-9.5 8.1-15.1-9.4-27.8-8.7-10.3.6-10.9 7.1-10.9 9.7 6.6.5 18.8-.5 29.4 22.6 10.6 23.1-4.7 20-15.7 17.1s-20.1-27.2-27.2-29.6c-7.1-2.4-19.6 1.8-31 3-11.4 1.3-18.4-4.7-22.7-13.3-2.3 8.4 6.4 21.1 20.1 26.4 13.7 5.3 23.5 1 31.4 8.4s12.1 17 10.4 44.6c-1.8 27.6 93.4-64 93.4-64l90.2-1.8 6-7.9z" fill="url(#a)" stroke="#941E1F" stroke-width="4" stroke-miterlimit="10"/><path d="M226.5 203.4c-2.2-8.5-4.6-20.8-4.6-20.8s-7.8 6-13.9 6.9-15.8-4.3-20.9-14.1c-5.1-9.8-9.9-24.4-9.9-24.4s.2 9.7-4.4 11.8c-4.5 2-17-9.6-17-9.6s1.9 12.1 10.1 22 15.9 13.6 19.7 21.2c3.8 7.6 1.2 19.8 1.2 19.8l39.7-12.8z" fill="#F8EB32"/><path d="M373.2 297.2c-4.4-16.2-11.9-31.6-22.4-45.1-24.9-32.1-64.4-50.3-104.7-50.5-41.5-.2-81.4 19.9-106.2 53-15.9 21.2-24.3 47.4-24.5 73.8.2 40.9 20.7 78.9 53.8 102.7 33.8 24.3 78.2 30.8 117.8 18.6 39.2-12.1 71.2-43 84.3-81.9 7.7-22.9 8.1-47.5 1.9-70.6z" fill="#941D1F"/><radialGradient id="b" cx="281.13" cy="259.516" r="217.71" gradientUnits="userSpaceOnUse"><stop offset=".123" stop-color="#EBF7FD"/><stop offset=".728" stop-color="#EA5E24"/></radialGradient><path d="M371.4 327.7c0 67.4-56.3 122-125.8 122s-125.9-54.6-125.9-122 56.3-122 125.9-122c69.4 0 125.8 54.6 125.8 122z" fill="url(#b)"/><radialGradient id="c" cx="280.812" cy="273.726" r="203.664" gradientUnits="userSpaceOnUse"><stop offset=".11" stop-color="#DBEAF7"/><stop offset=".731" stop-color="#D82B28"/></radialGradient><path d="M119.4 326.8c0 67.4 56.3 122 125.9 122 69.5 0 125.8-54.6 125.8-122 0-29.2-10.6-55.9-28.2-76.9 2.7 7.6 5.3 15.2 6.9 23.1 2.6 12.3-1.4 22.8-8.9 32.3-5.6 7.2-9.6 15.9-15.9 22.3-1.1 1.1-2.3 2-3.7 2.7-2.3-1.8-3.1 8.5-27.2 33.1-13.4 13.4-35.1 5.4-38.9 3.7-14.3-6.4-25.5-12.5-40.3-20.4-13.1-7-13.6-19.9-26.9-26.5-10-5-23.2-10.3-22.6-22.9.2-5.4-2.7-8.8-6.5-10.2-.1-1.3-.1-2.6-.1-4 .2-12.5 4.8-25.2 10.2-36.3 1.6-3.2 1.6-6.3.6-9 2.8-4.4 5.4-8.9 7.6-13.7-34.8 21.8-57.8 59.6-57.8 102.7z" fill="url(#c)"/><path d="M246 450.7c64.2 0 117.1-46.6 124.8-106.8-1.1 3-2.1 6.1-3.1 9.2-2.3 7.1-7.9 11.8-12.8 17.2-9.5 10.3-16.5 22.8-25.5 33.5-21.6 25.8-56 32.5-88.2 27.3-17.6-2.9-34.1-9.7-50.5-16.2-7-2.8-13.4-5.6-18.5-11.2-4.7-5.2-8.1-11.5-12.8-16.8-4.1-4.5-9.1-8.1-13.4-12.4-5.2-5.2-7.4-13.2-10.1-19.9-4.3-10.5-9-20.7-15.8-29.5 0 1.2-.1 2.4-.1 3.7.2 69.8 56.5 121.9 126 121.9z" fill="#B01F24"/><radialGradient id="d" cx="348.484" cy="216.85" r="263.889" gradientTransform="matrix(1 0 0 1.0974 0 -45.9)" gradientUnits="userSpaceOnUse"><stop offset=".104" stop-color="#FFF"/><stop offset=".672" stop-color="#FBC7AA"/></radialGradient><path d="M305.4 251.2c-21.1-16.5-61.7-22.5-84.4-7.9-7.9 5.1-8.5 14.1-5.2 21-.2.5-.4 1-.6 1.6-4.9 15.2 6.5 31 18.4 36.9 13.1 6.4 27.6 7.7 41.6 9.7 14.3 2 34.5-6.6 42.3-20.2 9.5-16.5.6-31.2-12.1-41.1z" fill="url(#d)"/><radialGradient id="e" cx="263.342" cy="249.34" r="162.603" gradientUnits="userSpaceOnUse"><stop offset=".276" stop-color="#F05641"/><stop offset=".431" stop-color="#EB533F"/><stop offset=".614" stop-color="#DD4B3A"/><stop offset=".81" stop-color="#C53E31"/><stop offset="1" stop-color="#A72D26"/></radialGradient><path d="M161.6 318.7s-.5-.1-.9-.2l-.2-1-.3-1.5c-1.1-5.8-5.5-8.7-11.1-12.2-5.5-3.5-14.1-3.7-19.9-3.2.3-.9.5-1.8.5-2.7 0-1.3-.3-2.6-.8-3.8-.7-1.7-2.1-2.9-3.8-3.4-3.9 11.7-6 24.2-6 37.2 0 7.4.7 14.6 2 21.6 0 0 .1 0 .1.1-.1-.1 1.4 1.3 1.9 1.7.5.7 2.6 4.1 3 16.3v.4c3.6 9.9 8.4 19.2 14.3 27.8 1.7.8 3.5 1.2 5.4.8 2.3-.5 6.3-2.5 6.5-10.1.2-8.7 1.2-15.5 1.5-17.2.2-.6 1.5-3.4 6.1-8.2 15-15.8 15.6-22.4 16.1-28.4l.1-1.2.1-1c.2-8.6-9.8-10.8-14.6-11.8zm-34.7-14c.4-.4.5-.8.8-1.2-.2.4-.4.8-.8 1.2z" fill="url(#e)"/><radialGradient id="f" cx="263.342" cy="248.397" r="162.603" gradientUnits="userSpaceOnUse"><stop offset=".276" stop-color="#F05641"/><stop offset=".431" stop-color="#EB533F"/><stop offset=".614" stop-color="#DD4B3A"/><stop offset=".81" stop-color="#C53E31"/><stop offset="1" stop-color="#A72D26"/></radialGradient><path d="M137.9 290.1c1.8-1 3-2.8 3.4-4.8l.1-1.2c0-.8-.2-1.6-.4-2.4 2.8-1.3 4.2-4 5.1-5.8 0 .1 1-1.9 1.2-2.3 2.1-3.2 5.9-5.7 9.3-8 3.3-2.1 6.3-4.1 8.4-6.9 1.6-2.1 2.4-4.3 2.4-6.6 0-4-2.5-6.8-3.8-8.3l-.9-1.1c-1.1-2.2-2.5-3.7-4.2-4.7-14.7 13.5-26 30.4-32.6 49.4.6.4 1.4.9 1.4.9 2.1 1.6 6.2 4.3 10.6 1.8z" fill="url(#f)"/><radialGradient id="g" cx="264.286" cy="249.339" r="162.604" gradientUnits="userSpaceOnUse"><stop offset=".276" stop-color="#F05641"/><stop offset=".431" stop-color="#EB533F"/><stop offset=".614" stop-color="#DD4B3A"/><stop offset=".81" stop-color="#C53E31"/><stop offset="1" stop-color="#A72D26"/></radialGradient><path d="M300.6 236.4c-3 2.6-3.5 6.7-3.6 8.1v1.1c0 2.7.9 5.2 2.7 7 2.3 2.4 5.7 3.5 10.2 3.4.4.5.6 1.1 1.1 1.6 0 .3-.1 1-.1 1l-.1 2.9c0 2.5.4 5.1 1.1 7.9 1.4 5.1 5.8 8.8 12 10.1 5.8 1.2 15.8.4 19.3-4.1 1.4-1.8 2.2-3.9 2.2-5.9 0-.7-.1-1.4-.3-2.1 1.8 1.1 3.6 2.4 5.5 4l1.3 1.2c1.9 1.7 4.7 2.1 6.9.9-14-27.3-38.3-48.8-67.9-59.7-1.9 2.4-3 5.6-3 9.2v.4c.2 7.6 6.7 11.2 12.7 13z" fill="url(#g)"/><radialGradient id="h" cx="264.286" cy="249.34" r="162.604" gradientUnits="userSpaceOnUse"><stop offset=".276" stop-color="#F05641"/><stop offset=".431" stop-color="#EB533F"/><stop offset=".614" stop-color="#DD4B3A"/><stop offset=".81" stop-color="#C53E31"/><stop offset="1" stop-color="#A72D26"/></radialGradient><path d="M371.8 323.7c-.7-1.5-1.8-3-3.5-4.7-7.5-7.2-15.9-4.5-18.1-3.6-.2.1-3.7 1.1-7.7-.7.1 0 .1.1.2.2-.8-.5-1.9-1.1-3.5-1.9-3.2-2-5.3-2.7-13.8-3-6.5-.2-12.4 2.6-16.6 7.9-3.7 4.7-5.6 10.7-5.6 17.2 0 3 .4 6.1 1.2 9.3 5 19.4 21 16.8 22.8 16.5 3.5-.5 5.1 2.7 5.7 4.1.3 1.3.4 8.9-1.2 13.7-1.9 5.7-.6 10 .4 13.5.4 1.5.9 3 1.1 4.6.3 2.4 1.8 7.6 8.8 9.9 18.7-21.3 30-48.9 30-79-.1-1.3-.2-2.7-.2-4z" fill="url(#h)"/><radialGradient id="i" cx="264.287" cy="249.339" r="162.605" gradientUnits="userSpaceOnUse"><stop offset=".276" stop-color="#F05641"/><stop offset=".431" stop-color="#EB533F"/><stop offset=".614" stop-color="#DD4B3A"/><stop offset=".81" stop-color="#C53E31"/><stop offset="1" stop-color="#A72D26"/></radialGradient><path d="M199.9 239.7c4.7-4 5.2-9.8 5.5-13.2l.1-1.1c.4-3.7-.5-6.7-2.5-9-.9-1-1.9-1.7-2.9-2.2-13.4 5.1-25.7 12.4-36.3 21.4-.7 1.2-1 2.3-1.1 3v.8c0 3.6 2.5 5.9 4 7.3-.1 0 .7.7.7.7 1.8 1.9 4.6 2.7 7.7 2 2.8-.6 6.1-2.7 7.9-5.8.1 0 .3-.1.5-.1 7.2.6 12.7-.7 16.4-3.8zm-16.7 3.2l-.1.1c.1-.3.3-.5.4-.8-.1.5.1.3-.3.7z" fill="url(#i)"/><radialGradient id="j" cx="264.287" cy="249.334" r="162.608" gradientUnits="userSpaceOnUse"><stop offset=".276" stop-color="#F05641"/><stop offset=".431" stop-color="#EB533F"/><stop offset=".614" stop-color="#DD4B3A"/><stop offset=".81" stop-color="#C53E31"/><stop offset="1" stop-color="#A72D26"/></radialGradient><path d="M306.7 419.9c.1 0-2.5-.8-2.5-.8.1 0 .3.1.4.2-4.6-2.3-22.9-1.7-28.7 1-3.1 1.4-15.3 2.1-21.1 2.5l-4 .2c-9.3.6-13.6 3.4-18.3 8.2-3 3.1-3.8 3.9-13.3 3.9-7 0-11.9-2.4-15.5-4.2-1.8-.9-3.2-1.6-4.8-2-4.1-1-8.9.5-12.7 3.7-.6.5-1 1.1-1.4 1.8 18.1 9.7 38.9 15.3 61 15.3 27.3 0 52.6-8.5 73.3-22.8-.1-.2-.3-.5-.5-.7-2.9-3.5-8.1-5.1-11.9-6.3z" fill="url(#j)"/><path d="M277.4 423.3c-3.7 1.7-15.3 2.4-22.3 2.8l-4 .2c-8.2.6-11.9 2.9-16.1 7.2-3.4 3.5-4.8 4.9-15.8 4.9-7.8 0-13.3-2.8-17-4.6-1.6-.8-2.9-1.4-4-1.7-3-.7-6.7.4-9.6 3-.6.6-1 1.4-.9 2.3.1.9.7 1.6 1.4 2 17.8 8.5 36.9 12.9 56.9 12.9 24.8 0 48.9-6.9 69.7-20 .6-.4 1.1-1.1 1.2-1.8.1-.7-.1-1.5-.6-2.1-2.5-2.8-7.1-4.3-10.5-5.3l-2.6-.9c-3.5-1.7-20.5-1.3-25.8 1.1zM186.5 218.1c-1.3.5-2.6 1.1-3.6 1.3-.2.1-.5.1-.7.3-4.8 2.7-9.3 5.6-13.6 8.7-.7.5-1 1.3-1 2.1v.3c.1.9.7 1.7 1.6 2 .9.4 1.5.6 2.1.8-.6.4-1.4 1-2.7 1.8-1.9 1.1-2.5 2.5-2.6 3.5v.4c0 2.1 1.7 3.7 2.9 4.8l.8.8c.6.7 2 1.7 4.6 1.2 2.4-.5 5.3-2.4 6.1-5 .2-.3 1.5-.8 2.7-.9 6.7.5 11.5-.5 14.6-3.2 3.7-3.1 4-7.6 4.3-10.9l.1-1.1c.3-2.7-.3-4.9-1.7-6.4-2.1-2.3-5.3-2.3-7.3-2.3-2.2 0-4.5.9-6.6 1.8zM152.7 242.2c-11.3 11.6-20 24.9-26.1 39.7-.5 1.2.1 2.6 1.2 3.2l2.2 1.4c2 1.3 4.5 3 7.2 1.5.9-.5 1.5-1.4 1.7-2.4v-.6c0-1.8-1.3-3.4-2.6-5 .7-.1 1.5-.1 2.4-.1 2.9 0 4.2-2.5 5.3-4.6l1.4-2.5c2.4-3.9 6.7-6.6 10.4-9 3-1.9 5.8-3.8 7.5-6.1 1.2-1.7 1.7-3.2 1.7-4.5 0-2.7-1.8-4.7-2.9-6-.6-.6-1.1-1.2-1.3-1.7-1.4-2.8-3.2-4-6.2-4-.8-.1-1.4.2-1.9.7zm-28.5 51.5c-1.1.1-2 .8-2.3 1.9l-1.2 4.7c0 .2-.1.4-.1.6 0 .1.1.2.1.4-.2.3-.4.5-.5.8l-.9 4.9v.4c0 .5.2 1 .4 1.4 0 0 .2.4.4.6-.5.9-1 1.9-1.5 3-.1.2-.1.4-.1.6-.6 5.1-.9 9.9-.9 14.7 0 3.4.2 7 .5 10.9 0 .3.1.6.2.9 1.7 3.6 4.1 5.6 6.1 7.3l2.2 2c1.3 1.5 3.4 5.9 3.9 18.5.3 7.6 2.9 14 4.5 17.1 0 .1 5.9 9.7 11.1 8.6 2.4-.5 3.7-2.8 3.8-6.8.3-9.8 1.5-17.1 1.6-18.1.2-.5 1.6-4 6.9-9.6 14.2-14.9 14.7-20.9 15.2-26.3l.1-1.2v-.7c0-5.7-7.5-7.3-12.1-8.3-.9-.2-2.2-.5-2.6-.6-.6-.3-.8-1.1-1.2-3.4l-.3-1.5c-.8-4.3-4.3-6.5-9.6-9.9-5.9-3.8-17.4-3-22.1-2.1-.4-.8-.7-1.5-.7-2v-.1c1.2-1.3 1.9-2.8 1.9-4.5 0-.8-.2-1.7-.5-2.5-.1-1.1-1.2-1.8-2.3-1.7zM295.4 214c-1.9 1.3-4.1 4-4.1 8.9v.4c.2 8.5 12.2 10.6 17.3 11.4l1.3.2c1 .2 1.3.3 1.3 3.6v.5c-.4-.1-.8-.2-1.1-.4l-.7-.3c-1.5-.5-4-1.3-6.2.1-2.2 1.4-2.7 4.3-2.8 6.3-.2 2.7.8 4.4 1.7 5.4 1.8 1.8 4.6 2.6 8.8 2.3h.8c.3.7.9 1.7 1.9 2.9.6.7.8 1.2.8 2 0 .4 0 .8-.1 1.4-.1.8-.1 1.6-.1 2.6 0 1.8.2 4.1 1 7 1.1 3.9 4.4 6.6 9.4 7.6 5.4 1.1 13.7 0 15.9-2.9.8-1 1.5-2.3 1.5-3.8 0-1.6-.8-3.4-2.9-5.3l-1.4-1c-1.1-.7-1.6-1.1-1.6-2.1v-.4c.4 0 1 .1 1.5.3.1.1.3.1.5.1 5.3 1 9.8 3.4 14.8 7.8l1.3 1.2c.9.9 2.4.9 3.3.1 1-.8 1.3-2.2.6-3.3-13.5-23.4-34.9-42.3-60.2-53.2-.8 0-1.8.1-2.5.6zM311.5 320c-4.7 5.9-6.1 14.5-3.8 23.6 4.2 16.2 16.9 14.4 18.8 14 5-.7 8.2 2.8 9.5 6.3.6 1.6.7 10.4-1.2 16-1.6 4.7-.6 8.1.4 11.5.4 1.6.9 3.2 1.2 5.1.3 2.4 2 6.6 9.3 7.7.9.1 1.8-.2 2.4-.9 15.6-19.8 24.6-43.5 26.1-68.4.1-1.1-.8-2.2-1.8-2.6l-1.5-.6c-1.1-.6-1.1-.6-1.2-2-.1-1.9-.2-4.8-3.8-8.2-6.3-6.1-13.5-3.3-14.6-2.8-.2 0-4.8 1.5-10.1-.8l-3.6-1.9c-2.6-1.6-4-2.3-12.2-2.5-5.5-.2-10.4 2.1-13.9 6.5z" fill="#941D1F"/><radialGradient id="k" cx="252.312" cy="436.741" r="44.823" gradientUnits="userSpaceOnUse"><stop offset=".094" stop-color="#C89572"/><stop offset=".607" stop-color="#D4CD94"/></radialGradient><path d="M302 424.5c-2.5-1.2-18.7-1.1-23.6 1.1-4.9 2.2-19.7 2.7-27.1 3.2-7.4.5-10.6 2.5-14.4 6.5-3.9 4-6 5.7-17.6 5.7-11.6 0-18.4-5.6-21.6-6.4-2.3-.5-5.2.5-7.4 2.4 16.8 8.1 35.7 12.6 55.8 12.6 25.2 0 48.6-7.2 68.3-19.6-2.9-3.1-10.3-4.4-12.4-5.5z" fill="url(#k)"/><radialGradient id="l" cx="328.044" cy="226.061" r="420.059" gradientUnits="userSpaceOnUse"><stop offset=".094" stop-color="#C89572"/><stop offset=".607" stop-color="#D4CD94"/></radialGradient><path d="M174.1 232.3c1.9 1.3-1.2 3.5-4.4 5.4-3.2 1.9.2 4 1.7 5.6 1.3 1.4 5.6-.5 6.4-3 .8-2.4 5.1-2.7 5.1-2.7 16.6 1.3 16-7.3 16.6-12.9.5-5.6-3.2-5.9-6.4-5.9-2.9 0-6.7 2.4-9.8 3.1-4.6 2.6-9.1 5.4-13.3 8.5 1.9.8 3.5 1.4 4.1 1.9z" fill="url(#l)"/><radialGradient id="m" cx="328.044" cy="226.063" r="420.059" gradientUnits="userSpaceOnUse"><stop offset=".094" stop-color="#C89572"/><stop offset=".607" stop-color="#D4CD94"/></radialGradient><path d="M158.1 323.7c-2.2-1.1-2.2-3.7-2.8-6.8-.6-3.1-3.1-4.8-8.4-8.2-5.3-3.4-16.6-2.5-20.5-1.7-.4.1-.9.3-1.3.6-.7-1-2.1-3.2-2.2-5.1l-.9 4.8c.4.7.8 1.4 1.1 2.1-.7 1-1.4 2.3-2 3.9-.6 4.7-.9 9.5-.9 14.4 0 3.6.2 7.1.5 10.7 2.2 4.6 5.9 6.3 7.9 8.8 3.1 3.7 4.2 12.1 4.5 20.1.3 7.9 3.4 14.4 4.2 16.1.8 1.7 9.8 13.6 10.1 2.8.3-10.7 1.7-18.6 1.7-18.6s1.1-4 7.6-10.7c14.7-15.4 14-20.6 14.6-26 .6-5.5-10.9-6.1-13.2-7.2zm-33.7-27.4c-.4 1.5-.8 3.1-1.1 4.6l.3-.3c1.2-1.3 1.4-2.9.8-4.3zm11.5-10.5c2-1.1-2.8-5.1-3.4-6.5-.6-1.4 3.1-2 6.2-2 2 0 2.5-2.8 4.5-5.9 4.7-7.5 14.6-10.7 18-15.3 3.4-4.5-1.4-6.8-2.8-9.6-1-2-1.9-2.6-3.9-2.6-10.9 11.2-19.6 24.4-25.5 38.9 2.9 1.6 5.1 4.1 6.9 3z" fill="url(#m)"/><radialGradient id="n" cx="328.045" cy="226.062" r="420.061" gradientUnits="userSpaceOnUse"><stop offset=".094" stop-color="#C89572"/><stop offset=".607" stop-color="#D4CD94"/></radialGradient><path d="M338.5 258.5c5.4 1 10.4 3.4 16 8.4.5.5 1 .9 1.4 1.3-13.3-23-34-41.4-59-52.1-2.1 1.5-3.1 3.9-3 7.1.2 7.3 13.6 8.6 16.6 9.2 3 .6 3.4 2.5 3.3 6.5 0 4-2.5 2.8-5.2 1.9-2.7-.9-5.2-1.4-5.6 4.2-.4 4.4 3.5 5.2 7.8 4.9 4.3-.3 1.6.2 4.8 3.7 3.2 3.6-.2 5.4 2.2 14.1 2.4 8.7 18.8 6.4 20.8 3.9 2-2.5.3-4.3-1.1-5.6-1.4-1.3-4.1-1.9-3.8-5.7.1-3.7 4.8-1.8 4.8-1.8z" fill="url(#n)"/><radialGradient id="o" cx="328.047" cy="226.062" r="420.063" gradientUnits="userSpaceOnUse"><stop offset=".094" stop-color="#C89572"/><stop offset=".607" stop-color="#D4CD94"/></radialGradient><path d="M369.7 334c-5-2.5 0-5.3-5.6-10.7-5.6-5.3-12-2.2-12-2.2s-5.6 2-12-.8-3.6-3.9-14.8-4.2c-11.2-.3-19 11.8-15.1 27 3.9 15.2 15.9 12.1 15.9 12.1 5.9-.8 10.3 2.8 12.3 7.9.9 2.3.8 11.8-1.1 17.7-2 5.9.8 9.3 1.7 15.5.4 3.3 3.3 5 7.2 5.5 14.8-18.8 24.1-41.8 25.5-66.9-.7-.4-1.3-.6-2-.9z" fill="url(#o)"/><path d="M246 449.7c25.2 0 48.6-7.2 68.3-19.6-2.9-3.3-10.2-4.6-12.3-5.6-.3-.1-.8-.3-1.4-.4-17.5 7.5-37.6 9.1-57 6.3-2.6 1.1-4.6 2.7-6.8 4.9-3.9 4-6 5.7-17.6 5.7-11.6 0-18.4-5.6-21.6-6.4-2.3-.5-5.2.5-7.4 2.4 16.9 8.2 35.8 12.7 55.8 12.7zM148.1 375.3c-.7-.6-1.3-1.2-2-1.9-5.2-5.2-7.4-13.2-10.1-19.9-4.3-10.5-9-20.7-15.8-29.5 0 1.2-.1 2.4-.1 3.7 0 3.6.2 7.1.5 10.7 2.2 4.6 5.9 6.3 7.9 8.8 3.1 3.7 4.2 12.1 4.5 20.1.3 7.9 3.4 14.4 4.2 16.1.8 1.7 9.8 13.6 10.1 2.8.2-4.2.5-7.9.8-10.9zM346.1 401.6c13.2-16.7 21.9-36.8 24.7-58.8-1.1 3.1-2.1 6.1-3.1 9.2-2.3 7.1-7.9 11.8-12.8 17.2-6.3 6.9-11.5 14.7-17 22.3.4 1.3.7 2.8 1 4.4.5 3.5 3.4 5.2 7.2 5.7z" fill="#C0936C"/><g><path d="M222.7 269.2c-1.8-.5-3.7-1-5.5-1.4-6.1-1.3-9.8 1.2-10.5 7.4-6.3 32.8 23.6 56.7 53.4 50.1 19.3-2 30.8-19.8 33.3-37.2.5-3.4-.5-7.8-1.2-11.5-6.1 3-12.2 5.2-18.8 5.8-1.4.5-2.3 1.2-2.8 2.9-5.9 18.6-5.3 30.3-18.2 16.5.4-.7 1.5-3.3 2.1-3.6 4.5-2.1 2.5-6.2.6-10.4-2-4.4-25.2-11.7-29.9-9.3-2 1-3.3 1.3-3.4-.2-.3-3.1 1.3-6 .9-9.1z" fill="#FFF"/><path d="M268.6 278.9c6.3-.8 19 10.5 25 7.7 3.6-1.6-2.2-17.2-3.7-20.8-7.1-17-19.8-26.7-38.2-27.8-16.8-1-29.5 6.5-38.7 20.4-1.1 1.7-1.3 2.5 1.3 2.7 8.8.6 16.5 4.6 24.2 8.4 7.7 3.7 15.4 7.3 24.2 7.7 1.8 0 3.7 1.7 5.9 1.7zM238.8 274.6c.4 3.1-1.2 6-1 9.1.1 1.5.1 2.5 2.1 1.4 4.7-2.4 9.6-.7 11.6 3.8 1.9 4.2-.1 9-4.6 11.1-.7.3-1.5.4-1.9 1.1 12.8 13.8 35.6 8.2 41.5-10.4.5-1.7 1.4-2.4 2.8-2.9-2.4-.5-3.2 1.2-3.9 2.9-.8 1.2-1.1 2.3-1.8 3.3-3 4.7-10.5 7.1-15.9 5.1-5.7-2.2-10-8.7-8.8-14.4-1.5-2.1-4-2.6-6.2-3.7-4.5-2.2-9.1-4.7-13.9-6.4z" fill="#DF2026"/><path d="M259 284.7c-1.2 5.7 3.1 12.2 8.8 14.4 5.4 2.1 12.9-.4 15.9-5.1.7-1 1.3-1.9 1.8-3.3.1-.5 1.1-1.6.4-1.6-8.9-2.4-16.7-3.5-26.2-4.4-.3-.1-.5 0-.7 0z" fill="#721111"/></g><path d="M298.3 273.9c3.3 29.8-17.4 54.9-46.5 58-29.6 3.1-53.7-18.2-57.2-45.3-3.8-29.4 18.2-56.7 46.6-58.7 29-3.3 54 17.8 57.1 46zM206.8 275.7c-3.4 30.6 23.8 57.7 52.8 48 15-5.3 25.4-13 29.9-24.4 1.3-3.2 1.7-5.1 1.8-9.1m-.7-7.2c-4.2-28.1-20.4-43.3-38.9-44.4-16.8-1-29.5 6.5-38.7 20.4" fill="#941D1F"/><path d="M196.1 351.1c-2.2 4.7-3.3 7.1-5.4 12 .8 6.2 1.2 9.3 2 15.4 2.1 5.5 3.1 8.3 5.2 13.9 2.8 1.9 4.3 2.9 7.2 5.1 4-2.4 6.1-3.5 10.4-5.4 6.5-3.8 9.9-5.4 16.8-8 8-4.6 12.2-6.5 20.7-9.5 6.3-1 9.5-1.2 15.8-1.3 7.8-.6 11.7-.5 19.4.3 8-1.5 12-1.8 19.8-1.6 4.3-2.4 6.4-3.4 10.6-5.2 1.3-2.3 1.9-3.5 3.2-5.7-.3-2.2-.4-3.3-.7-5.4-.8-3.6-1.2-5.4-2.1-9-1.6-4.1-2.4-6.1-4-10.2-1-1.7-2.4-2.9-6.6-3.7-2.2-.1-3.2-.2-5.4-.2-4.9-.3-7.4-.4-12.4-.1-9.1-.3-19.1.9-27.9 3.3-3.9.6-5.8.9-9.6 1.8-8.5-.1-12.7.3-20.9 1.8-7.7 0-11.4.4-18.7 1.7-7.3 3.4-10.8 5.4-17.4 10z" fill="#DF2026"/><path d="M213.4 376.8c.9 4.8 1.4 7.1 2.3 11.9 4.2-1.2 6.3-1.7 10.7-2.4 8.4-4.6 18.3-8.4 27.7-10.5 9.8-2 14.9-2.5 24.8-2.2 7.5-.7 11.3-.7 18.7 0 5.2-1.8 7.8-2.5 12.8-3.6-.3-2.3-.4-3.5-.7-5.8-1.1-1.3-1.7-2-2.8-3.3-3.1-1-4.7-1.5-7.9-2.3-11.5-1.8-21-2.4-32.7-1.9-8.8.3-13.2.9-21.8 2.9-8.5 1.8-17.6 5.1-25.3 9.1-1.7 1.1-2.6 1.7-4.3 2.9-.6 2.1-.9 3.1-1.5 5.2z" fill="#FFF"/><path d="M201.1 347.7c.5 6.9.7 10.3 1.2 17.1 1.7 1.1 2.6 1.6 4.3 2.7 5.9-2.7 9-3.9 15.4-5.6 13.9-6.6 29.2-10.9 44.6-11.3 9.5.3 14.3 1 23.7 3.3 7.1.4 10.6 1 17.5 2.7.2-1.5.3-2.3.5-3.8l-4-11.5c-.7-1.7-1-2.5-1.7-4.2-.9-1.7-1.3-2.6-2.2-4.3-2.4-.5-3.6-.7-6.1-1.1-9.5-.2-19.9 1.3-29 4-4.9.6-7.4 1-12.3 2.1-8.6-.3-18 .5-26.5 2.5-7.1.4-10.5.8-17.1 2.4-3.4 1.7-5 2.8-8.3 5z" fill="#FFF"/><path d="M202.7 352.5c2.8-.2 13.4-3.1 22.6-4.4 9.2-1.3 17.4-1.6 30.6-3s17.7-6.3 29.3-6.6c11.6-.3 17.7-1.3 17.5-1.3-.1 0-.4-1.2-1.1-2.4-.7-1.2-1.3-2.8-1.1-2.6.3.3-19.9.7-19.9.7l-23.2 4.2-22.7 2.3-21.9 2.2-10.5 5 .4 5.9z" fill="#B9C5B8"/><path d="M301.9 335.5s1 1.5 1.8 3.1c.7 1.4 3.7 8.6 4.1 10 1 2.7 1.6 4.1 2.6 6.9 0 0 3 5.5-7.2 3-30.9-7.5-60.8-3.9-89.8 8-9.7 4-12.2 3.7-13.4-1-1.2-4.7-1.2-11.7-1.2-11.7 0-1.6-1.2-.4-1.2-.4-5.1 7.1-4.8 18.8-1.2 25.9 1.8 3.6 4.9 14 13.6 10.5 0 0 2-.3 2.7-1.3v-.1c-.6-4.9-.9-7.3-1.5-12.2 0 0-.3-5.1 3.7-7.5 14.4-8.5 32.6-12 49.3-13.1 13.9-.9 34.2-1.6 44.2 5.5 2.1 1.5 1.5 4.3 1.5 4.3s-.4-2.8-2.8-3.8c-12.2-5.2-29-4.4-43-3.3-15.8 1.3-33.2 4.7-46.6 12.7-2.1 1.3-1.5 3.4-1.5 3.4.9 3.8 1.4 5.7 2.3 9.5.1 1 .9 1.5 1.8 1.1 12.1-4.6 23.2-13.3 36-15.2 15.3-2.3 32 2.2 47.5 0 6.9-1 13.3-3.5 16.3-8.3 3.1-4.8-5.3-26.3-4.8-24.7 1.8 5.1 8.4 20.3 8.6 23.6.2 3.2-1.2 7.6-3.8 10.4-2.6 2.8-7.6 5.6-21 9.2-13.1 3.5-27.6-3.5-40-1.3-12.4 2.2-25.6 8.7-37.4 14.9-13.3 7-25.7 9.2-29.3-8.5-2.2-10.9-7.4-21.8-.8-32.8 6-9.9 16.7-15.3 28.1-15.5 10.4-.2 21.5 1.5 31.2-.1 18.5-3.2 41.4-9.2 59.2-3.6.7.2-16.3.1-20.8.6-12.4 1.3-24.9 4.3-36.9 6.1-15.8 2.3-34.9 1.8-48.3 9.2-1.1.6-.3 7.6.2 11.1.2 1.5 1.1 2.4 2.5 2.4 1 0 2.4-.3 4-1.1 15-7.4 32-11.4 48.6-11.6 14.9-.2 31.1 3.6 44.3 5.3 4.9.6 2.9-6 2.1-8.7-.9-3.5-3.7-10.9-3.7-10.9z" fill="#721111"/><g><path d="M902.4-357.7c.5-.8 1.2-1 2.1-.9-.4.8-1.1 1-1.9 1.1l-.2-.2zM789.4-357.7c-.3.3-.6.7-1 1 .4-.3.7-.6 1-1zM789.5-357.6c.1-.1.1-.3.2-.4-.1.1-.2.2-.2.4-.1-.1 0 0 0 0zM904.5-358.7l.4-.4c0 .1 0 .2-.1.3-.1 0-.2.1-.3.1z" fill="#CA000B"/><radialGradient id="p" cx="676.975" cy="154.561" r="157.49" fx="683.073" fy="256.142" gradientTransform="matrix(.919 -.3943 .457 1.065 -.916 245.705)" gradientUnits="userSpaceOnUse"><stop offset=".088" stop-color="#F89C1E"/><stop offset=".612" stop-color="#EF5024"/></radialGradient><path d="M801.6 218.3c10.1-6.7 22-17.5 17-29.7s-17-30.8-11.1-41.9c5.9-11 28.9-24.9 30.6-38.1.9-6.6-2.3-8-2.3-8s.2 7.5-4.1 11.9-8.1 7.8-23.4 13.2-22.7 16.5-24.8 30-.7 21.8-4.2 27.1c-3.6 5.4-17.6 9.7-26.5 2.5s-7.2-22.4-2.9-30c4.2-7.6 14.9-14.5 15.2-24.3.4-9.8-9.6-16.1-12.3-16.1-.6 7.5-1.2 14-4 14.8-9.3 2.7-19.5-11.7-20.7-15.3-1.2-3.6-5.3-20.1 6.6-27.1-18.6.1-19.3 15.1-17.3 27.9 2 12.8 7.3 33-3.1 35.7-10.4 2.7-11.6-9.4-13.9-23-3.3-19.1-23.9-27.2-53.7-34.1-17.2-4-39.7-39.1-13.3-85.9-5.8 2.3-33.4 22.1-29.2 58.3 4.1 36.2 13 58.1 9.7 64.1s-7.3 8.2-11.7 6.9c-4.8-1.5-17.4-19.2-18.9-26.8-5 12.5.6 25.3 11.5 39.8 10.9 14.5 44.9 32.3 52.3 40.6 7.4 8.3 14.3 16.3 8.9 21-9.5 8.1-15.1-9.4-27.8-8.7-10.3.6-10.9 7.1-10.9 9.7 6.6.5 18.8-.5 29.4 22.6 10.6 23.1-4.7 20-15.7 17.1s-20.1-27.2-27.2-29.6c-7.1-2.4-19.6 1.8-31 3-11.4 1.3-18.4-4.7-22.7-13.3-2.3 8.4 6.4 21.1 20.1 26.4 13.7 5.3 23.5 1 31.4 8.4s12.1 17 10.4 44.6c-1.8 27.6 93.4-64 93.4-64l90.2-1.8 6-7.9z" fill="url(#p)" stroke="#941E1F" stroke-width="4" stroke-miterlimit="10"/><path d="M726.5 203.4c-2.2-8.5-4.6-20.8-4.6-20.8s-7.8 6-13.9 6.9-15.8-4.3-20.9-14.1c-5.1-9.8-9.9-24.4-9.9-24.4s.2 9.7-4.4 11.8c-4.5 2-17-9.6-17-9.6s1.9 12.1 10.1 22 15.9 13.6 19.7 21.2c3.8 7.6 1.2 19.8 1.2 19.8l39.7-12.8z" fill="#F8EB32"/><path d="M873.2 297.2c-4.4-16.2-11.9-31.6-22.4-45.1-24.9-32.1-64.4-50.3-104.7-50.5-41.5-.2-81.4 19.9-106.2 53-15.9 21.2-24.3 47.4-24.5 73.8.2 40.9 20.7 78.9 53.8 102.7 33.8 24.3 78.2 30.8 117.8 18.6 39.2-12.1 71.2-43 84.3-81.9 7.7-22.9 8.1-47.5 1.9-70.6z" fill="#941D1F"/><radialGradient id="q" cx="781.13" cy="259.516" r="217.71" gradientUnits="userSpaceOnUse"><stop offset=".123" stop-color="#EBF7FD"/><stop offset=".728" stop-color="#EA5E24"/></radialGradient><path d="M871.4 327.7c0 67.4-56.3 122-125.8 122s-125.9-54.6-125.9-122 56.3-122 125.9-122c69.4 0 125.8 54.6 125.8 122z" fill="url(#q)"/><radialGradient id="r" cx="780.812" cy="273.726" r="203.664" gradientUnits="userSpaceOnUse"><stop offset=".11" stop-color="#DBEAF7"/><stop offset=".731" stop-color="#D82B28"/></radialGradient><path d="M619.4 326.8c0 67.4 56.3 122 125.9 122 69.5 0 125.8-54.6 125.8-122 0-29.2-10.6-55.9-28.2-76.9 2.7 7.6 5.3 15.2 6.9 23.1 2.6 12.3-1.4 22.8-8.9 32.3-5.6 7.2-9.6 15.9-15.9 22.3-1.1 1.1-2.3 2-3.7 2.7-2.3-1.8-3.1 8.5-27.2 33.1-13.4 13.4-35.1 5.4-38.9 3.7-14.3-6.4-25.5-12.5-40.3-20.4-13.1-7-13.6-19.9-26.9-26.5-10-5-23.2-10.3-22.6-22.9.2-5.4-2.7-8.8-6.5-10.2-.1-1.3-.1-2.6-.1-4 .2-12.5 4.8-25.2 10.2-36.3 1.6-3.2 1.6-6.3.6-9 2.8-4.4 5.4-8.9 7.6-13.7-34.8 21.8-57.8 59.6-57.8 102.7z" fill="url(#r)"/><path d="M746 450.7c64.2 0 117.1-46.6 124.8-106.8-1.1 3-2.1 6.1-3.1 9.2-2.3 7.1-7.9 11.8-12.8 17.2-9.5 10.3-16.5 22.8-25.5 33.5-21.6 25.8-56 32.5-88.2 27.3-17.6-2.9-34.1-9.7-50.5-16.2-7-2.8-13.4-5.6-18.5-11.2-4.7-5.2-8.1-11.5-12.8-16.8-4.1-4.5-9.1-8.1-13.4-12.4-5.2-5.2-7.4-13.2-10.1-19.9-4.3-10.5-9-20.7-15.8-29.5 0 1.2-.1 2.4-.1 3.7.2 69.8 56.5 121.9 126 121.9z" fill="#B01F24"/><radialGradient id="s" cx="848.484" cy="216.85" r="263.889" gradientTransform="matrix(1 0 0 1.0974 0 -45.9)" gradientUnits="userSpaceOnUse"><stop offset=".104" stop-color="#FFF"/><stop offset=".672" stop-color="#FBC7AA"/></radialGradient><path d="M805.4 251.2c-21.1-16.5-61.7-22.5-84.4-7.9-7.9 5.1-8.5 14.1-5.2 21-.2.5-.4 1-.6 1.6-4.9 15.2 6.5 31 18.4 36.9 13.1 6.4 27.6 7.7 41.6 9.7 14.3 2 34.5-6.6 42.3-20.2 9.5-16.5.6-31.2-12.1-41.1z" fill="url(#s)"/><radialGradient id="t" cx="763.342" cy="249.34" r="162.603" gradientUnits="userSpaceOnUse"><stop offset=".276" stop-color="#F05641"/><stop offset=".431" stop-color="#EB533F"/><stop offset=".614" stop-color="#DD4B3A"/><stop offset=".81" stop-color="#C53E31"/><stop offset="1" stop-color="#A72D26"/></radialGradient><path d="M661.6 318.7s-.5-.1-.9-.2l-.2-1-.3-1.5c-1.1-5.8-5.5-8.7-11.1-12.2-5.5-3.5-14.1-3.7-19.9-3.2.3-.9.5-1.8.5-2.7 0-1.3-.3-2.6-.8-3.8-.7-1.7-2.1-2.9-3.8-3.4-3.9 11.7-6 24.2-6 37.2 0 7.4.7 14.6 2 21.6 0 0 .1 0 .1.1-.1-.1 1.4 1.3 1.9 1.7.5.7 2.6 4.1 3 16.3v.4c3.6 9.9 8.4 19.2 14.3 27.8 1.7.8 3.5 1.2 5.4.8 2.3-.5 6.3-2.5 6.5-10.1.2-8.7 1.2-15.5 1.5-17.2.2-.6 1.5-3.4 6.1-8.2 15-15.8 15.6-22.4 16.1-28.4l.1-1.2.1-1c.2-8.6-9.8-10.8-14.6-11.8zm-34.7-14c.4-.4.5-.8.8-1.2-.2.4-.4.8-.8 1.2z" fill="url(#t)"/><radialGradient id="u" cx="763.342" cy="248.397" r="162.603" gradientUnits="userSpaceOnUse"><stop offset=".276" stop-color="#F05641"/><stop offset=".431" stop-color="#EB533F"/><stop offset=".614" stop-color="#DD4B3A"/><stop offset=".81" stop-color="#C53E31"/><stop offset="1" stop-color="#A72D26"/></radialGradient><path d="M637.9 290.1c1.8-1 3-2.8 3.4-4.8l.1-1.2c0-.8-.2-1.6-.4-2.4 2.8-1.3 4.2-4 5.1-5.8 0 .1 1-1.9 1.2-2.3 2.1-3.2 5.9-5.7 9.3-8 3.3-2.1 6.3-4.1 8.4-6.9 1.6-2.1 2.4-4.3 2.4-6.6 0-4-2.5-6.8-3.8-8.3l-.9-1.1c-1.1-2.2-2.5-3.7-4.2-4.7-14.7 13.5-26 30.4-32.6 49.4.6.4 1.4.9 1.4.9 2.1 1.6 6.2 4.3 10.6 1.8z" fill="url(#u)"/><radialGradient id="v" cx="764.286" cy="249.339" r="162.604" gradientUnits="userSpaceOnUse"><stop offset=".276" stop-color="#F05641"/><stop offset=".431" stop-color="#EB533F"/><stop offset=".614" stop-color="#DD4B3A"/><stop offset=".81" stop-color="#C53E31"/><stop offset="1" stop-color="#A72D26"/></radialGradient><path d="M800.6 236.4c-3 2.6-3.5 6.7-3.6 8.1v1.1c0 2.7.9 5.2 2.7 7 2.3 2.4 5.7 3.5 10.2 3.4.4.5.6 1.1 1.1 1.6 0 .3-.1 1-.1 1l-.1 2.9c0 2.5.4 5.1 1.1 7.9 1.4 5.1 5.8 8.8 12 10.1 5.8 1.2 15.8.4 19.3-4.1 1.4-1.8 2.2-3.9 2.2-5.9 0-.7-.1-1.4-.3-2.1 1.8 1.1 3.6 2.4 5.5 4l1.3 1.2c1.9 1.7 4.7 2.1 6.9.9-14-27.3-38.3-48.8-67.9-59.7-1.9 2.4-3 5.6-3 9.2v.4c.2 7.6 6.7 11.2 12.7 13z" fill="url(#v)"/><radialGradient id="w" cx="764.286" cy="249.34" r="162.604" gradientUnits="userSpaceOnUse"><stop offset=".276" stop-color="#F05641"/><stop offset=".431" stop-color="#EB533F"/><stop offset=".614" stop-color="#DD4B3A"/><stop offset=".81" stop-color="#C53E31"/><stop offset="1" stop-color="#A72D26"/></radialGradient><path d="M871.8 323.7c-.7-1.5-1.8-3-3.5-4.7-7.5-7.2-15.9-4.5-18.1-3.6-.2.1-3.7 1.1-7.7-.7.1 0 .1.1.2.2-.8-.5-1.9-1.1-3.5-1.9-3.2-2-5.3-2.7-13.8-3-6.5-.2-12.4 2.6-16.6 7.9-3.7 4.7-5.6 10.7-5.6 17.2 0 3 .4 6.1 1.2 9.3 5 19.4 21 16.8 22.8 16.5 3.5-.5 5.1 2.7 5.7 4.1.3 1.3.4 8.9-1.2 13.7-1.9 5.7-.6 10 .4 13.5.4 1.5.9 3 1.1 4.6.3 2.4 1.8 7.6 8.8 9.9 18.7-21.3 30-48.9 30-79-.1-1.3-.2-2.7-.2-4z" fill="url(#w)"/><radialGradient id="x" cx="764.287" cy="249.339" r="162.605" gradientUnits="userSpaceOnUse"><stop offset=".276" stop-color="#F05641"/><stop offset=".431" stop-color="#EB533F"/><stop offset=".614" stop-color="#DD4B3A"/><stop offset=".81" stop-color="#C53E31"/><stop offset="1" stop-color="#A72D26"/></radialGradient><path d="M699.9 239.7c4.7-4 5.2-9.8 5.5-13.2l.1-1.1c.4-3.7-.5-6.7-2.5-9-.9-1-1.9-1.7-2.9-2.2-13.4 5.1-25.7 12.4-36.3 21.4-.7 1.2-1 2.3-1.1 3v.8c0 3.6 2.5 5.9 4 7.3-.1 0 .7.7.7.7 1.8 1.9 4.6 2.7 7.7 2 2.8-.6 6.1-2.7 7.9-5.8.1 0 .3-.1.5-.1 7.2.6 12.7-.7 16.4-3.8zm-16.7 3.2l-.1.1c.1-.3.3-.5.4-.8-.1.5.1.3-.3.7z" fill="url(#x)"/><radialGradient id="y" cx="764.287" cy="249.334" r="162.608" gradientUnits="userSpaceOnUse"><stop offset=".276" stop-color="#F05641"/><stop offset=".431" stop-color="#EB533F"/><stop offset=".614" stop-color="#DD4B3A"/><stop offset=".81" stop-color="#C53E31"/><stop offset="1" stop-color="#A72D26"/></radialGradient><path d="M806.7 419.9c.1 0-2.5-.8-2.5-.8.1 0 .3.1.4.2-4.6-2.3-22.9-1.7-28.7 1-3.1 1.4-15.3 2.1-21.1 2.5l-4 .2c-9.3.6-13.6 3.4-18.3 8.2-3 3.1-3.8 3.9-13.3 3.9-7 0-11.9-2.4-15.5-4.2-1.8-.9-3.2-1.6-4.8-2-4.1-1-8.9.5-12.7 3.7-.6.5-1 1.1-1.4 1.8 18.1 9.7 38.9 15.3 61 15.3 27.3 0 52.6-8.5 73.3-22.8-.1-.2-.3-.5-.5-.7-2.9-3.5-8.1-5.1-11.9-6.3z" fill="url(#y)"/><path d="M777.4 423.3c-3.7 1.7-15.3 2.4-22.3 2.8l-4 .2c-8.2.6-11.9 2.9-16.1 7.2-3.4 3.5-4.8 4.9-15.8 4.9-7.8 0-13.3-2.8-17-4.6-1.6-.8-2.9-1.4-4-1.7-3-.7-6.7.4-9.6 3-.6.6-1 1.4-.9 2.3.1.9.7 1.6 1.4 2 17.8 8.5 36.9 12.9 56.9 12.9 24.8 0 48.9-6.9 69.7-20 .6-.4 1.1-1.1 1.2-1.8.1-.7-.1-1.5-.6-2.1-2.5-2.8-7.1-4.3-10.5-5.3l-2.6-.9c-3.5-1.7-20.5-1.3-25.8 1.1zM686.5 218.1c-1.3.5-2.6 1.1-3.6 1.3-.2.1-.5.1-.7.3-4.8 2.7-9.3 5.6-13.6 8.7-.7.5-1 1.3-1 2.1v.3c.1.9.7 1.7 1.6 2 .9.4 1.5.6 2.1.8-.6.4-1.4 1-2.7 1.8-1.9 1.1-2.5 2.5-2.6 3.5v.4c0 2.1 1.7 3.7 2.9 4.8l.8.8c.6.7 2 1.7 4.6 1.2 2.4-.5 5.3-2.4 6.1-5 .2-.3 1.5-.8 2.7-.9 6.7.5 11.5-.5 14.6-3.2 3.7-3.1 4-7.6 4.3-10.9l.1-1.1c.3-2.7-.3-4.9-1.7-6.4-2.1-2.3-5.3-2.3-7.3-2.3-2.2 0-4.5.9-6.6 1.8zM652.7 242.2c-11.3 11.6-20 24.9-26.1 39.7-.5 1.2.1 2.6 1.2 3.2l2.2 1.4c2 1.3 4.5 3 7.2 1.5.9-.5 1.5-1.4 1.7-2.4v-.6c0-1.8-1.3-3.4-2.6-5 .7-.1 1.5-.1 2.4-.1 2.9 0 4.2-2.5 5.3-4.6l1.4-2.5c2.4-3.9 6.7-6.6 10.4-9 3-1.9 5.8-3.8 7.5-6.1 1.2-1.7 1.7-3.2 1.7-4.5 0-2.7-1.8-4.7-2.9-6-.6-.6-1.1-1.2-1.3-1.7-1.4-2.8-3.2-4-6.2-4-.8-.1-1.4.2-1.9.7zm-28.5 51.5c-1.1.1-2 .8-2.3 1.9l-1.2 4.7c0 .2-.1.4-.1.6 0 .1.1.2.1.4-.2.3-.4.5-.5.8l-.9 4.9v.4c0 .5.2 1 .4 1.4 0 0 .2.4.4.6-.5.9-1 1.9-1.5 3-.1.2-.1.4-.1.6-.6 5.1-.9 9.9-.9 14.7 0 3.4.2 7 .5 10.9 0 .3.1.6.2.9 1.7 3.6 4.1 5.6 6.1 7.3l2.2 2c1.3 1.5 3.4 5.9 3.9 18.5.3 7.6 2.9 14 4.5 17.1 0 .1 5.9 9.7 11.1 8.6 2.4-.5 3.7-2.8 3.8-6.8.3-9.8 1.5-17.1 1.6-18.1.2-.5 1.6-4 6.9-9.6 14.2-14.9 14.7-20.9 15.2-26.3l.1-1.2v-.7c0-5.7-7.5-7.3-12.1-8.3-.9-.2-2.2-.5-2.6-.6-.6-.3-.8-1.1-1.2-3.4l-.3-1.5c-.8-4.3-4.3-6.5-9.6-9.9-5.9-3.8-17.4-3-22.1-2.1-.4-.8-.7-1.5-.7-2v-.1c1.2-1.3 1.9-2.8 1.9-4.5 0-.8-.2-1.7-.5-2.5-.1-1.1-1.2-1.8-2.3-1.7zM795.4 214c-1.9 1.3-4.1 4-4.1 8.9v.4c.2 8.5 12.2 10.6 17.3 11.4l1.3.2c1 .2 1.3.3 1.3 3.6v.5c-.4-.1-.8-.2-1.1-.4l-.7-.3c-1.5-.5-4-1.3-6.2.1-2.2 1.4-2.7 4.3-2.8 6.3-.2 2.7.8 4.4 1.7 5.4 1.8 1.8 4.6 2.6 8.8 2.3h.8c.3.7.9 1.7 1.9 2.9.6.7.8 1.2.8 2 0 .4 0 .8-.1 1.4-.1.8-.1 1.6-.1 2.6 0 1.8.2 4.1 1 7 1.1 3.9 4.4 6.6 9.4 7.6 5.4 1.1 13.7 0 15.9-2.9.8-1 1.5-2.3 1.5-3.8 0-1.6-.8-3.4-2.9-5.3l-1.4-1c-1.1-.7-1.6-1.1-1.6-2.1v-.4c.4 0 1 .1 1.5.3.1.1.3.1.5.1 5.3 1 9.8 3.4 14.8 7.8l1.3 1.2c.9.9 2.4.9 3.3.1 1-.8 1.3-2.2.6-3.3-13.5-23.4-34.9-42.3-60.2-53.2-.8 0-1.8.1-2.5.6zM811.5 320c-4.7 5.9-6.1 14.5-3.8 23.6 4.2 16.2 16.9 14.4 18.8 14 5-.7 8.2 2.8 9.5 6.3.6 1.6.7 10.4-1.2 16-1.6 4.7-.6 8.1.4 11.5.4 1.6.9 3.2 1.2 5.1.3 2.4 2 6.6 9.3 7.7.9.1 1.8-.2 2.4-.9 15.6-19.8 24.6-43.5 26.1-68.4.1-1.1-.8-2.2-1.8-2.6l-1.5-.6c-1.1-.6-1.1-.6-1.2-2-.1-1.9-.2-4.8-3.8-8.2-6.3-6.1-13.5-3.3-14.6-2.8-.2 0-4.8 1.5-10.1-.8l-3.6-1.9c-2.6-1.6-4-2.3-12.2-2.5-5.5-.2-10.4 2.1-13.9 6.5z" fill="#941D1F"/><radialGradient id="z" cx="752.312" cy="436.741" r="44.823" gradientUnits="userSpaceOnUse"><stop offset=".094" stop-color="#C89572"/><stop offset=".607" stop-color="#D4CD94"/></radialGradient><path d="M802 424.5c-2.5-1.2-18.7-1.1-23.6 1.1-4.9 2.2-19.7 2.7-27.1 3.2-7.4.5-10.6 2.5-14.4 6.5-3.9 4-6 5.7-17.6 5.7-11.6 0-18.4-5.6-21.6-6.4-2.3-.5-5.2.5-7.4 2.4 16.8 8.1 35.7 12.6 55.8 12.6 25.2 0 48.6-7.2 68.3-19.6-2.9-3.1-10.3-4.4-12.4-5.5z" fill="url(#z)"/><radialGradient id="A" cx="828.044" cy="226.061" r="420.059" gradientUnits="userSpaceOnUse"><stop offset=".094" stop-color="#C89572"/><stop offset=".607" stop-color="#D4CD94"/></radialGradient><path d="M674.1 232.3c1.9 1.3-1.2 3.5-4.4 5.4-3.2 1.9.2 4 1.7 5.6 1.3 1.4 5.6-.5 6.4-3 .8-2.4 5.1-2.7 5.1-2.7 16.6 1.3 16-7.3 16.6-12.9.5-5.6-3.2-5.9-6.4-5.9-2.9 0-6.7 2.4-9.8 3.1-4.6 2.6-9.1 5.4-13.3 8.5 1.9.8 3.5 1.4 4.1 1.9z" fill="url(#A)"/><radialGradient id="B" cx="828.044" cy="226.063" r="420.059" gradientUnits="userSpaceOnUse"><stop offset=".094" stop-color="#C89572"/><stop offset=".607" stop-color="#D4CD94"/></radialGradient><path d="M658.1 323.7c-2.2-1.1-2.2-3.7-2.8-6.8-.6-3.1-3.1-4.8-8.4-8.2-5.3-3.4-16.6-2.5-20.5-1.7-.4.1-.9.3-1.3.6-.7-1-2.1-3.2-2.2-5.1l-.9 4.8c.4.7.8 1.4 1.1 2.1-.7 1-1.4 2.3-2 3.9-.6 4.7-.9 9.5-.9 14.4 0 3.6.2 7.1.5 10.7 2.2 4.6 5.9 6.3 7.9 8.8 3.1 3.7 4.2 12.1 4.5 20.1.3 7.9 3.4 14.4 4.2 16.1.8 1.7 9.8 13.6 10.1 2.8.3-10.7 1.7-18.6 1.7-18.6s1.1-4 7.6-10.7c14.7-15.4 14-20.6 14.6-26 .6-5.5-10.9-6.1-13.2-7.2zm-33.7-27.4c-.4 1.5-.8 3.1-1.1 4.6l.3-.3c1.2-1.3 1.4-2.9.8-4.3zm11.5-10.5c2-1.1-2.8-5.1-3.4-6.5-.6-1.4 3.1-2 6.2-2 2 0 2.5-2.8 4.5-5.9 4.7-7.5 14.6-10.7 18-15.3 3.4-4.5-1.4-6.8-2.8-9.6-1-2-1.9-2.6-3.9-2.6-10.9 11.2-19.6 24.4-25.5 38.9 2.9 1.6 5.1 4.1 6.9 3z" fill="url(#B)"/><radialGradient id="C" cx="828.045" cy="226.062" r="420.061" gradientUnits="userSpaceOnUse"><stop offset=".094" stop-color="#C89572"/><stop offset=".607" stop-color="#D4CD94"/></radialGradient><path d="M838.5 258.5c5.4 1 10.4 3.4 16 8.4.5.5 1 .9 1.4 1.3-13.3-23-34-41.4-59-52.1-2.1 1.5-3.1 3.9-3 7.1.2 7.3 13.6 8.6 16.6 9.2 3 .6 3.4 2.5 3.3 6.5 0 4-2.5 2.8-5.2 1.9-2.7-.9-5.2-1.4-5.6 4.2-.4 4.4 3.5 5.2 7.8 4.9 4.3-.3 1.6.2 4.8 3.7 3.2 3.6-.2 5.4 2.2 14.1 2.4 8.7 18.8 6.4 20.8 3.9 2-2.5.3-4.3-1.1-5.6-1.4-1.3-4.1-1.9-3.8-5.7.1-3.7 4.8-1.8 4.8-1.8z" fill="url(#C)"/><radialGradient id="D" cx="828.047" cy="226.062" r="420.063" gradientUnits="userSpaceOnUse"><stop offset=".094" stop-color="#C89572"/><stop offset=".607" stop-color="#D4CD94"/></radialGradient><path d="M869.7 334c-5-2.5 0-5.3-5.6-10.7-5.6-5.3-12-2.2-12-2.2s-5.6 2-12-.8-3.6-3.9-14.8-4.2c-11.2-.3-19 11.8-15.1 27 3.9 15.2 15.9 12.1 15.9 12.1 5.9-.8 10.3 2.8 12.3 7.9.9 2.3.8 11.8-1.1 17.7-2 5.9.8 9.3 1.7 15.5.4 3.3 3.3 5 7.2 5.5 14.8-18.8 24.1-41.8 25.5-66.9-.7-.4-1.3-.6-2-.9z" fill="url(#D)"/><path d="M746 449.7c25.2 0 48.6-7.2 68.3-19.6-2.9-3.3-10.2-4.6-12.3-5.6-.3-.1-.8-.3-1.4-.4-17.5 7.5-37.6 9.1-57 6.3-2.6 1.1-4.6 2.7-6.8 4.9-3.9 4-6 5.7-17.6 5.7-11.6 0-18.4-5.6-21.6-6.4-2.3-.5-5.2.5-7.4 2.4 16.9 8.2 35.8 12.7 55.8 12.7zM648.1 375.3c-.7-.6-1.3-1.2-2-1.9-5.2-5.2-7.4-13.2-10.1-19.9-4.3-10.5-9-20.7-15.8-29.5 0 1.2-.1 2.4-.1 3.7 0 3.6.2 7.1.5 10.7 2.2 4.6 5.9 6.3 7.9 8.8 3.1 3.7 4.2 12.1 4.5 20.1.3 7.9 3.4 14.4 4.2 16.1.8 1.7 9.8 13.6 10.1 2.8.2-4.2.5-7.9.8-10.9zM846.1 401.6c13.2-16.7 21.9-36.8 24.7-58.8-1.1 3.1-2.1 6.1-3.1 9.2-2.3 7.1-7.9 11.8-12.8 17.2-6.3 6.9-11.5 14.7-17 22.3.4 1.3.7 2.8 1 4.4.5 3.5 3.4 5.2 7.2 5.7z" fill="#C0936C"/><path d="M696.1 351.1c-2.2 4.7-3.3 7.1-5.4 12 .8 6.2 1.2 9.3 2 15.4 2.1 5.5 3.1 8.3 5.2 13.9 2.8 1.9 4.3 2.9 7.2 5.1 4-2.4 6.1-3.5 10.4-5.4 6.5-3.8 9.9-5.4 16.8-8 8-4.6 12.2-6.5 20.7-9.5 6.3-1 9.5-1.2 15.8-1.3 7.8-.6 11.7-.5 19.4.3 8-1.5 12-1.8 19.8-1.6 4.3-2.4 6.4-3.4 10.6-5.2 1.3-2.3 1.9-3.5 3.2-5.7-.3-2.2-.4-3.3-.7-5.4-.8-3.6-1.2-5.4-2.1-9-1.6-4.1-2.4-6.1-4-10.2-1-1.7-2.4-2.9-6.6-3.7-2.2-.1-3.2-.2-5.4-.2-4.9-.3-7.4-.4-12.4-.1-9.1-.3-19.1.9-27.9 3.3-3.9.6-5.8.9-9.6 1.8-8.5-.1-12.7.3-20.9 1.8-7.7 0-11.4.4-18.7 1.7-7.3 3.4-10.8 5.4-17.4 10z" fill="#DF2026"/><path d="M713.4 376.8c.9 4.8 1.4 7.1 2.3 11.9 4.2-1.2 6.3-1.7 10.7-2.4 8.4-4.6 18.3-8.4 27.7-10.5 9.8-2 14.9-2.5 24.8-2.2 7.5-.7 11.3-.7 18.7 0 5.2-1.8 7.8-2.5 12.8-3.6-.3-2.3-.4-3.5-.7-5.8-1.1-1.3-1.7-2-2.8-3.3-3.1-1-4.7-1.5-7.9-2.3-11.5-1.8-21-2.4-32.7-1.9-8.8.3-13.2.9-21.8 2.9-8.5 1.8-17.6 5.1-25.3 9.1-1.7 1.1-2.6 1.7-4.3 2.9-.6 2.1-.9 3.1-1.5 5.2z" fill="#FFF"/><path d="M701.1 347.7c.5 6.9.7 10.3 1.2 17.1 1.7 1.1 2.6 1.6 4.3 2.7 5.9-2.7 9-3.9 15.4-5.6 13.9-6.6 29.2-10.9 44.6-11.3 9.5.3 14.3 1 23.7 3.3 7.1.4 10.6 1 17.5 2.7.2-1.5.3-2.3.5-3.8l-4-11.5c-.7-1.7-1-2.5-1.7-4.2-.9-1.7-1.3-2.6-2.2-4.3-2.4-.5-3.6-.7-6.1-1.1-9.5-.2-19.9 1.3-29 4-4.9.6-7.4 1-12.3 2.1-8.6-.3-18 .5-26.5 2.5-7.1.4-10.5.8-17.1 2.4-3.4 1.7-5 2.8-8.3 5z" fill="#FFF"/><path d="M702.7 352.5c2.8-.2 13.4-3.1 22.6-4.4 9.2-1.3 17.4-1.6 30.6-3s17.7-6.3 29.3-6.6c11.6-.3 17.7-1.3 17.5-1.3-.1 0-.4-1.2-1.1-2.4-.7-1.2-1.3-2.8-1.1-2.6.3.3-19.9.7-19.9.7l-23.2 4.2-22.7 2.3-21.9 2.2-10.5 5 .4 5.9z" fill="#B9C5B8"/><path d="M801.9 335.5s1 1.5 1.8 3.1c.7 1.4 3.7 8.6 4.1 10 1 2.7 1.6 4.1 2.6 6.9 0 0 3 5.5-7.2 3-30.9-7.5-60.8-3.9-89.8 8-9.7 4-12.2 3.7-13.4-1-1.2-4.7-1.2-11.7-1.2-11.7 0-1.6-1.2-.4-1.2-.4-5.1 7.1-4.8 18.8-1.2 25.9 1.8 3.6 4.9 14 13.6 10.5 0 0 2-.3 2.7-1.3v-.1c-.6-4.9-.9-7.3-1.5-12.2 0 0-.3-5.1 3.7-7.5 14.4-8.5 32.6-12 49.3-13.1 13.9-.9 34.2-1.6 44.2 5.5 2.1 1.5 1.5 4.3 1.5 4.3s-.4-2.8-2.8-3.8c-12.2-5.2-29-4.4-43-3.3-15.8 1.3-33.2 4.7-46.6 12.7-2.1 1.3-1.5 3.4-1.5 3.4.9 3.8 1.4 5.7 2.3 9.5.1 1 .9 1.5 1.8 1.1 12.1-4.6 23.2-13.3 36-15.2 15.3-2.3 32 2.2 47.5 0 6.9-1 13.3-3.5 16.3-8.3 3.1-4.8-5.3-26.3-4.8-24.7 1.8 5.1 8.4 20.3 8.6 23.6.2 3.2-1.2 7.6-3.8 10.4s-7.6 5.6-21 9.2c-13.1 3.5-27.6-3.5-40-1.3-12.4 2.2-25.6 8.7-37.4 14.9-13.3 7-25.7 9.2-29.3-8.5-2.2-10.9-7.4-21.8-.8-32.8 6-9.9 16.7-15.3 28.1-15.5 10.4-.2 21.5 1.5 31.2-.1 18.5-3.2 41.4-9.2 59.2-3.6.7.2-16.3.1-20.8.6-12.4 1.3-24.9 4.3-36.9 6.1-15.8 2.3-34.9 1.8-48.3 9.2-1.1.6-.3 7.6.2 11.1.2 1.5 1.1 2.4 2.5 2.4 1 0 2.4-.3 4-1.1 15-7.4 32-11.4 48.6-11.6 14.9-.2 31.1 3.6 44.3 5.3 4.9.6 2.9-6 2.1-8.7-.9-3.5-3.7-10.9-3.7-10.9z" fill="#721111"/><path d="M711.8 314.4c-4.5-8.9-3.5-17.8.5-26.3 7.1-15.1 19.1-23.4 35.8-25 17.3-1.6 30.6 5 40.1 19.3 3.7 5.5 5.3 11.8 4.2 19.2-10.2-17.7-25.2-26.4-45.1-23.4-20.1 3.2-31 16.7-35.5 36.2z" fill="#860206"/></g><g><radialGradient id="E" cx="1172.576" cy="220.738" r="157.49" fx="1178.675" fy="322.318" gradientTransform="matrix(.919 -.3943 .457 1.065 13.387 370.612)" gradientUnits="userSpaceOnUse"><stop offset=".088" stop-color="#F89C1E"/><stop offset=".612" stop-color="#EF5024"/></radialGradient><path d="M1301.6 218.3c10.1-6.7 22-17.5 17-29.7s-17-30.8-11.1-41.9c5.9-11 28.9-24.9 30.6-38.1.9-6.6-2.3-8-2.3-8s.2 7.5-4.1 11.9-8.1 7.8-23.4 13.2-22.7 16.5-24.8 30-.7 21.8-4.2 27.1c-3.6 5.4-17.6 9.7-26.5 2.5s-7.2-22.4-2.9-30 14.9-14.5 15.2-24.3c.4-9.8-9.6-16.1-12.3-16.1-.6 7.5-1.2 14-4 14.8-9.3 2.7-19.5-11.7-20.7-15.3s-5.3-20.1 6.6-27.1c-18.6.1-19.3 15.1-17.3 27.9s7.3 33-3.1 35.7c-10.4 2.7-11.6-9.4-13.9-23-3.3-19.1-23.9-27.2-53.7-34.1-17.2-4-39.7-39.1-13.3-85.9-5.8 2.3-33.4 22.1-29.2 58.3s13 58.1 9.7 64.1-7.3 8.2-11.7 6.9c-4.8-1.5-17.4-19.2-18.9-26.8-5 12.5.6 25.3 11.5 39.8 10.9 14.5 44.9 32.3 52.3 40.6 7.4 8.3 14.3 16.3 8.9 21-9.5 8.1-15.1-9.4-27.8-8.7-10.3.6-10.9 7.1-10.9 9.7 6.6.5 18.8-.5 29.4 22.6s-4.7 20-15.7 17.1-20.1-27.2-27.2-29.6c-7.1-2.4-19.6 1.8-31 3-11.4 1.3-18.4-4.7-22.7-13.3-2.3 8.4 6.4 21.1 20.1 26.4 13.7 5.3 23.5 1 31.4 8.4 7.9 7.4 12.1 17 10.4 44.6-1.8 27.6 93.4-64 93.4-64l90.2-1.8 6-7.9z" fill="url(#E)" stroke="#941E1F" stroke-width="4" stroke-miterlimit="10"/><path d="M1226.5 203.4c-2.2-8.5-4.6-20.8-4.6-20.8s-7.8 6-13.9 6.9-15.8-4.3-20.9-14.1c-5.1-9.8-9.9-24.4-9.9-24.4s.2 9.7-4.4 11.8c-4.5 2-17-9.6-17-9.6s1.9 12.1 10.1 22 15.9 13.6 19.7 21.2c3.8 7.6 1.2 19.8 1.2 19.8l39.7-12.8z" fill="#F8EB32"/><path d="M1373.2 297.2c-4.4-16.2-11.9-31.6-22.4-45.1-24.9-32.1-64.4-50.3-104.7-50.5-41.5-.2-81.4 19.9-106.2 53-15.9 21.2-24.3 47.4-24.5 73.8.2 40.9 20.7 78.9 53.8 102.7 33.8 24.3 78.2 30.8 117.8 18.6 39.2-12.1 71.2-43 84.3-81.9 7.7-22.9 8.1-47.5 1.9-70.6z" fill="#941D1F"/><radialGradient id="F" cx="1281.13" cy="259.516" r="217.71" gradientUnits="userSpaceOnUse"><stop offset=".123" stop-color="#EBF7FD"/><stop offset=".728" stop-color="#EA5E24"/></radialGradient><path d="M1371.4 327.7c0 67.4-56.3 122-125.8 122s-125.9-54.6-125.9-122 56.3-122 125.9-122c69.4 0 125.8 54.6 125.8 122z" fill="url(#F)"/><radialGradient id="G" cx="1280.812" cy="273.726" r="203.664" gradientUnits="userSpaceOnUse"><stop offset=".11" stop-color="#DBEAF7"/><stop offset=".731" stop-color="#D82B28"/></radialGradient><path d="M1119.4 326.8c0 67.4 56.3 122 125.9 122 69.5 0 125.8-54.6 125.8-122 0-29.2-10.6-55.9-28.2-76.9 2.7 7.6 5.3 15.2 6.9 23.1 2.6 12.3-1.4 22.8-8.9 32.3-5.6 7.2-9.6 15.9-15.9 22.3-1.1 1.1-2.3 2-3.7 2.7-2.3-1.8-3.1 8.5-27.2 33.1-13.4 13.4-35.1 5.4-38.9 3.7-14.3-6.4-25.5-12.5-40.3-20.4-13.1-7-13.6-19.9-26.9-26.5-10-5-23.2-10.3-22.6-22.9.2-5.4-2.7-8.8-6.5-10.2-.1-1.3-.1-2.6-.1-4 .2-12.5 4.8-25.2 10.2-36.3 1.6-3.2 1.6-6.3.6-9 2.8-4.4 5.4-8.9 7.6-13.7-34.8 21.8-57.8 59.6-57.8 102.7z" fill="url(#G)"/><path d="M1246 450.7c64.2 0 117.1-46.6 124.8-106.8-1.1 3-2.1 6.1-3.1 9.2-2.3 7.1-7.9 11.8-12.8 17.2-9.5 10.3-16.5 22.8-25.5 33.5-21.6 25.8-56 32.5-88.2 27.3-17.6-2.9-34.1-9.7-50.5-16.2-7-2.8-13.4-5.6-18.5-11.2-4.7-5.2-8.1-11.5-12.8-16.8-4.1-4.5-9.1-8.1-13.4-12.4-5.2-5.2-7.4-13.2-10.1-19.9-4.3-10.5-9-20.7-15.8-29.5 0 1.2-.1 2.4-.1 3.7.2 69.8 56.5 121.9 126 121.9z" fill="#B01F24"/><radialGradient id="H" cx="1348.484" cy="216.85" r="263.889" gradientTransform="matrix(1 0 0 1.0974 0 -45.9)" gradientUnits="userSpaceOnUse"><stop offset=".104" stop-color="#FFF"/><stop offset=".672" stop-color="#FBC7AA"/></radialGradient><path d="M1305.4 251.2c-21.1-16.5-61.7-22.5-84.4-7.9-7.9 5.1-8.5 14.1-5.2 21-.2.5-.4 1-.6 1.6-4.9 15.2 6.5 31 18.4 36.9 13.1 6.4 27.6 7.7 41.6 9.7 14.3 2 34.5-6.6 42.3-20.2 9.5-16.5.6-31.2-12.1-41.1z" fill="url(#H)"/><radialGradient id="I" cx="1263.342" cy="249.34" r="162.603" gradientUnits="userSpaceOnUse"><stop offset=".276" stop-color="#F05641"/><stop offset=".431" stop-color="#EB533F"/><stop offset=".614" stop-color="#DD4B3A"/><stop offset=".81" stop-color="#C53E31"/><stop offset="1" stop-color="#A72D26"/></radialGradient><path d="M1161.6 318.7s-.5-.1-.9-.2l-.2-1-.3-1.5c-1.1-5.8-5.5-8.7-11.1-12.2-5.5-3.5-14.1-3.7-19.9-3.2.3-.9.5-1.8.5-2.7 0-1.3-.3-2.6-.8-3.8-.7-1.7-2.1-2.9-3.8-3.4-3.9 11.7-6 24.2-6 37.2 0 7.4.7 14.6 2 21.6 0 0 .1 0 .1.1-.1-.1 1.4 1.3 1.9 1.7.5.7 2.6 4.1 3 16.3v.4c3.6 9.9 8.4 19.2 14.3 27.8 1.7.8 3.5 1.2 5.4.8 2.3-.5 6.3-2.5 6.5-10.1.2-8.7 1.2-15.5 1.5-17.2.2-.6 1.5-3.4 6.1-8.2 15-15.8 15.6-22.4 16.1-28.4l.1-1.2.1-1c.2-8.6-9.8-10.8-14.6-11.8zm-34.7-14c.4-.4.5-.8.8-1.2-.2.4-.4.8-.8 1.2z" fill="url(#I)"/><radialGradient id="J" cx="1263.342" cy="248.397" r="162.603" gradientUnits="userSpaceOnUse"><stop offset=".276" stop-color="#F05641"/><stop offset=".431" stop-color="#EB533F"/><stop offset=".614" stop-color="#DD4B3A"/><stop offset=".81" stop-color="#C53E31"/><stop offset="1" stop-color="#A72D26"/></radialGradient><path d="M1137.9 290.1c1.8-1 3-2.8 3.4-4.8l.1-1.2c0-.8-.2-1.6-.4-2.4 2.8-1.3 4.2-4 5.1-5.8 0 .1 1-1.9 1.2-2.3 2.1-3.2 5.9-5.7 9.3-8 3.3-2.1 6.3-4.1 8.4-6.9 1.6-2.1 2.4-4.3 2.4-6.6 0-4-2.5-6.8-3.8-8.3l-.9-1.1c-1.1-2.2-2.5-3.7-4.2-4.7-14.7 13.5-26 30.4-32.6 49.4.6.4 1.4.9 1.4.9 2.1 1.6 6.2 4.3 10.6 1.8z" fill="url(#J)"/><radialGradient id="K" cx="1264.286" cy="249.339" r="162.604" gradientUnits="userSpaceOnUse"><stop offset=".276" stop-color="#F05641"/><stop offset=".431" stop-color="#EB533F"/><stop offset=".614" stop-color="#DD4B3A"/><stop offset=".81" stop-color="#C53E31"/><stop offset="1" stop-color="#A72D26"/></radialGradient><path d="M1300.6 236.4c-3 2.6-3.5 6.7-3.6 8.1v1.1c0 2.7.9 5.2 2.7 7 2.3 2.4 5.7 3.5 10.2 3.4.4.5.6 1.1 1.1 1.6 0 .3-.1 1-.1 1l-.1 2.9c0 2.5.4 5.1 1.1 7.9 1.4 5.1 5.8 8.8 12 10.1 5.8 1.2 15.8.4 19.3-4.1 1.4-1.8 2.2-3.9 2.2-5.9 0-.7-.1-1.4-.3-2.1 1.8 1.1 3.6 2.4 5.5 4l1.3 1.2c1.9 1.7 4.7 2.1 6.9.9-14-27.3-38.3-48.8-67.9-59.7-1.9 2.4-3 5.6-3 9.2v.4c.2 7.6 6.7 11.2 12.7 13z" fill="url(#K)"/><radialGradient id="L" cx="1264.286" cy="249.34" r="162.604" gradientUnits="userSpaceOnUse"><stop offset=".276" stop-color="#F05641"/><stop offset=".431" stop-color="#EB533F"/><stop offset=".614" stop-color="#DD4B3A"/><stop offset=".81" stop-color="#C53E31"/><stop offset="1" stop-color="#A72D26"/></radialGradient><path d="M1371.8 323.7c-.7-1.5-1.8-3-3.5-4.7-7.5-7.2-15.9-4.5-18.1-3.6-.2.1-3.7 1.1-7.7-.7.1 0 .1.1.2.2-.8-.5-1.9-1.1-3.5-1.9-3.2-2-5.3-2.7-13.8-3-6.5-.2-12.4 2.6-16.6 7.9-3.7 4.7-5.6 10.7-5.6 17.2 0 3 .4 6.1 1.2 9.3 5 19.4 21 16.8 22.8 16.5 3.5-.5 5.1 2.7 5.7 4.1.3 1.3.4 8.9-1.2 13.7-1.9 5.7-.6 10 .4 13.5.4 1.5.9 3 1.1 4.6.3 2.4 1.8 7.6 8.8 9.9 18.7-21.3 30-48.9 30-79-.1-1.3-.2-2.7-.2-4z" fill="url(#L)"/><radialGradient id="M" cx="1264.287" cy="249.339" r="162.605" gradientUnits="userSpaceOnUse"><stop offset=".276" stop-color="#F05641"/><stop offset=".431" stop-color="#EB533F"/><stop offset=".614" stop-color="#DD4B3A"/><stop offset=".81" stop-color="#C53E31"/><stop offset="1" stop-color="#A72D26"/></radialGradient><path d="M1199.9 239.7c4.7-4 5.2-9.8 5.5-13.2l.1-1.1c.4-3.7-.5-6.7-2.5-9-.9-1-1.9-1.7-2.9-2.2-13.4 5.1-25.7 12.4-36.3 21.4-.7 1.2-1 2.3-1.1 3v.8c0 3.6 2.5 5.9 4 7.3-.1 0 .7.7.7.7 1.8 1.9 4.6 2.7 7.7 2 2.8-.6 6.1-2.7 7.9-5.8.1 0 .3-.1.5-.1 7.2.6 12.7-.7 16.4-3.8zm-16.7 3.2l-.1.1c.1-.3.3-.5.4-.8-.1.5.1.3-.3.7z" fill="url(#M)"/><radialGradient id="N" cx="1264.287" cy="249.334" r="162.608" gradientUnits="userSpaceOnUse"><stop offset=".276" stop-color="#F05641"/><stop offset=".431" stop-color="#EB533F"/><stop offset=".614" stop-color="#DD4B3A"/><stop offset=".81" stop-color="#C53E31"/><stop offset="1" stop-color="#A72D26"/></radialGradient><path d="M1306.7 419.9c.1 0-2.5-.8-2.5-.8.1 0 .3.1.4.2-4.6-2.3-22.9-1.7-28.7 1-3.1 1.4-15.3 2.1-21.1 2.5l-4 .2c-9.3.6-13.6 3.4-18.3 8.2-3 3.1-3.8 3.9-13.3 3.9-7 0-11.9-2.4-15.5-4.2-1.8-.9-3.2-1.6-4.8-2-4.1-1-8.9.5-12.7 3.7-.6.5-1 1.1-1.4 1.8 18.1 9.7 38.9 15.3 61 15.3 27.3 0 52.6-8.5 73.3-22.8-.1-.2-.3-.5-.5-.7-2.9-3.5-8.1-5.1-11.9-6.3z" fill="url(#N)"/><path d="M1277.4 423.3c-3.7 1.7-15.3 2.4-22.3 2.8l-4 .2c-8.2.6-11.9 2.9-16.1 7.2-3.4 3.5-4.8 4.9-15.8 4.9-7.8 0-13.3-2.8-17-4.6-1.6-.8-2.9-1.4-4-1.7-3-.7-6.7.4-9.6 3-.6.6-1 1.4-.9 2.3.1.9.7 1.6 1.4 2 17.8 8.5 36.9 12.9 56.9 12.9 24.8 0 48.9-6.9 69.7-20 .6-.4 1.1-1.1 1.2-1.8.1-.7-.1-1.5-.6-2.1-2.5-2.8-7.1-4.3-10.5-5.3l-2.6-.9c-3.5-1.7-20.5-1.3-25.8 1.1zM1186.5 218.1c-1.3.5-2.6 1.1-3.6 1.3-.2.1-.5.1-.7.3-4.8 2.7-9.3 5.6-13.6 8.7-.7.5-1 1.3-1 2.1v.3c.1.9.7 1.7 1.6 2 .9.4 1.5.6 2.1.8-.6.4-1.4 1-2.7 1.8-1.9 1.1-2.5 2.5-2.6 3.5v.4c0 2.1 1.7 3.7 2.9 4.8l.8.8c.6.7 2 1.7 4.6 1.2 2.4-.5 5.3-2.4 6.1-5 .2-.3 1.5-.8 2.7-.9 6.7.5 11.5-.5 14.6-3.2 3.7-3.1 4-7.6 4.3-10.9l.1-1.1c.3-2.7-.3-4.9-1.7-6.4-2.1-2.3-5.3-2.3-7.3-2.3-2.2 0-4.5.9-6.6 1.8zM1152.7 242.2c-11.3 11.6-20 24.9-26.1 39.7-.5 1.2.1 2.6 1.2 3.2l2.2 1.4c2 1.3 4.5 3 7.2 1.5.9-.5 1.5-1.4 1.7-2.4v-.6c0-1.8-1.3-3.4-2.6-5 .7-.1 1.5-.1 2.4-.1 2.9 0 4.2-2.5 5.3-4.6l1.4-2.5c2.4-3.9 6.7-6.6 10.4-9 3-1.9 5.8-3.8 7.5-6.1 1.2-1.7 1.7-3.2 1.7-4.5 0-2.7-1.8-4.7-2.9-6-.6-.6-1.1-1.2-1.3-1.7-1.4-2.8-3.2-4-6.2-4-.8-.1-1.4.2-1.9.7zm-28.5 51.5c-1.1.1-2 .8-2.3 1.9l-1.2 4.7c0 .2-.1.4-.1.6 0 .1.1.2.1.4-.2.3-.4.5-.5.8l-.9 4.9v.4c0 .5.2 1 .4 1.4 0 0 .2.4.4.6-.5.9-1 1.9-1.5 3-.1.2-.1.4-.1.6-.6 5.1-.9 9.9-.9 14.7 0 3.4.2 7 .5 10.9 0 .3.1.6.2.9 1.7 3.6 4.1 5.6 6.1 7.3l2.2 2c1.3 1.5 3.4 5.9 3.9 18.5.3 7.6 2.9 14 4.5 17.1 0 .1 5.9 9.7 11.1 8.6 2.4-.5 3.7-2.8 3.8-6.8.3-9.8 1.5-17.1 1.6-18.1.2-.5 1.6-4 6.9-9.6 14.2-14.9 14.7-20.9 15.2-26.3l.1-1.2v-.7c0-5.7-7.5-7.3-12.1-8.3-.9-.2-2.2-.5-2.6-.6-.6-.3-.8-1.1-1.2-3.4l-.3-1.5c-.8-4.3-4.3-6.5-9.6-9.9-5.9-3.8-17.4-3-22.1-2.1-.4-.8-.7-1.5-.7-2v-.1c1.2-1.3 1.9-2.8 1.9-4.5 0-.8-.2-1.7-.5-2.5-.1-1.1-1.2-1.8-2.3-1.7zM1295.4 214c-1.9 1.3-4.1 4-4.1 8.9v.4c.2 8.5 12.2 10.6 17.3 11.4l1.3.2c1 .2 1.3.3 1.3 3.6v.5c-.4-.1-.8-.2-1.1-.4l-.7-.3c-1.5-.5-4-1.3-6.2.1-2.2 1.4-2.7 4.3-2.8 6.3-.2 2.7.8 4.4 1.7 5.4 1.8 1.8 4.6 2.6 8.8 2.3h.8c.3.7.9 1.7 1.9 2.9.6.7.8 1.2.8 2 0 .4 0 .8-.1 1.4-.1.8-.1 1.6-.1 2.6 0 1.8.2 4.1 1 7 1.1 3.9 4.4 6.6 9.4 7.6 5.4 1.1 13.7 0 15.9-2.9.8-1 1.5-2.3 1.5-3.8 0-1.6-.8-3.4-2.9-5.3l-1.4-1c-1.1-.7-1.6-1.1-1.6-2.1v-.4c.4 0 1 .1 1.5.3.1.1.3.1.5.1 5.3 1 9.8 3.4 14.8 7.8l1.3 1.2c.9.9 2.4.9 3.3.1 1-.8 1.3-2.2.6-3.3-13.5-23.4-34.9-42.3-60.2-53.2-.8 0-1.8.1-2.5.6zM1311.5 320c-4.7 5.9-6.1 14.5-3.8 23.6 4.2 16.2 16.9 14.4 18.8 14 5-.7 8.2 2.8 9.5 6.3.6 1.6.7 10.4-1.2 16-1.6 4.7-.6 8.1.4 11.5.4 1.6.9 3.2 1.2 5.1.3 2.4 2 6.6 9.3 7.7.9.1 1.8-.2 2.4-.9 15.6-19.8 24.6-43.5 26.1-68.4.1-1.1-.8-2.2-1.8-2.6l-1.5-.6c-1.1-.6-1.1-.6-1.2-2-.1-1.9-.2-4.8-3.8-8.2-6.3-6.1-13.5-3.3-14.6-2.8-.2 0-4.8 1.5-10.1-.8l-3.6-1.9c-2.6-1.6-4-2.3-12.2-2.5-5.5-.2-10.4 2.1-13.9 6.5z" fill="#941D1F"/><radialGradient id="O" cx="1252.312" cy="436.741" r="44.823" gradientUnits="userSpaceOnUse"><stop offset=".094" stop-color="#C89572"/><stop offset=".607" stop-color="#D4CD94"/></radialGradient><path d="M1302 424.5c-2.5-1.2-18.7-1.1-23.6 1.1-4.9 2.2-19.7 2.7-27.1 3.2-7.4.5-10.6 2.5-14.4 6.5-3.9 4-6 5.7-17.6 5.7-11.6 0-18.4-5.6-21.6-6.4-2.3-.5-5.2.5-7.4 2.4 16.8 8.1 35.7 12.6 55.8 12.6 25.2 0 48.6-7.2 68.3-19.6-2.9-3.1-10.3-4.4-12.4-5.5z" fill="url(#O)"/><radialGradient id="P" cx="1328.044" cy="226.061" r="420.059" gradientUnits="userSpaceOnUse"><stop offset=".094" stop-color="#C89572"/><stop offset=".607" stop-color="#D4CD94"/></radialGradient><path d="M1174.1 232.3c1.9 1.3-1.2 3.5-4.4 5.4-3.2 1.9.2 4 1.7 5.6 1.3 1.4 5.6-.5 6.4-3 .8-2.4 5.1-2.7 5.1-2.7 16.6 1.3 16-7.3 16.6-12.9.5-5.6-3.2-5.9-6.4-5.9-2.9 0-6.7 2.4-9.8 3.1-4.6 2.6-9.1 5.4-13.3 8.5 1.9.8 3.5 1.4 4.1 1.9z" fill="url(#P)"/><radialGradient id="Q" cx="1328.044" cy="226.063" r="420.059" gradientUnits="userSpaceOnUse"><stop offset=".094" stop-color="#C89572"/><stop offset=".607" stop-color="#D4CD94"/></radialGradient><path d="M1158.1 323.7c-2.2-1.1-2.2-3.7-2.8-6.8-.6-3.1-3.1-4.8-8.4-8.2-5.3-3.4-16.6-2.5-20.5-1.7-.4.1-.9.3-1.3.6-.7-1-2.1-3.2-2.2-5.1l-.9 4.8c.4.7.8 1.4 1.1 2.1-.7 1-1.4 2.3-2 3.9-.6 4.7-.9 9.5-.9 14.4 0 3.6.2 7.1.5 10.7 2.2 4.6 5.9 6.3 7.9 8.8 3.1 3.7 4.2 12.1 4.5 20.1.3 7.9 3.4 14.4 4.2 16.1.8 1.7 9.8 13.6 10.1 2.8.3-10.7 1.7-18.6 1.7-18.6s1.1-4 7.6-10.7c14.7-15.4 14-20.6 14.6-26 .6-5.5-10.9-6.1-13.2-7.2zm-33.7-27.4c-.4 1.5-.8 3.1-1.1 4.6l.3-.3c1.2-1.3 1.4-2.9.8-4.3zm11.5-10.5c2-1.1-2.8-5.1-3.4-6.5-.6-1.4 3.1-2 6.2-2 2 0 2.5-2.8 4.5-5.9 4.7-7.5 14.6-10.7 18-15.3 3.4-4.5-1.4-6.8-2.8-9.6-1-2-1.9-2.6-3.9-2.6-10.9 11.2-19.6 24.4-25.5 38.9 2.9 1.6 5.1 4.1 6.9 3z" fill="url(#Q)"/><radialGradient id="R" cx="1328.045" cy="226.062" r="420.061" gradientUnits="userSpaceOnUse"><stop offset=".094" stop-color="#C89572"/><stop offset=".607" stop-color="#D4CD94"/></radialGradient><path d="M1338.5 258.5c5.4 1 10.4 3.4 16 8.4.5.5 1 .9 1.4 1.3-13.3-23-34-41.4-59-52.1-2.1 1.5-3.1 3.9-3 7.1.2 7.3 13.6 8.6 16.6 9.2 3 .6 3.4 2.5 3.3 6.5 0 4-2.5 2.8-5.2 1.9-2.7-.9-5.2-1.4-5.6 4.2-.4 4.4 3.5 5.2 7.8 4.9 4.3-.3 1.6.2 4.8 3.7 3.2 3.6-.2 5.4 2.2 14.1 2.4 8.7 18.8 6.4 20.8 3.9 2-2.5.3-4.3-1.1-5.6-1.4-1.3-4.1-1.9-3.8-5.7.1-3.7 4.8-1.8 4.8-1.8z" fill="url(#R)"/><radialGradient id="S" cx="1328.047" cy="226.062" r="420.063" gradientUnits="userSpaceOnUse"><stop offset=".094" stop-color="#C89572"/><stop offset=".607" stop-color="#D4CD94"/></radialGradient><path d="M1369.7 334c-5-2.5 0-5.3-5.6-10.7-5.6-5.3-12-2.2-12-2.2s-5.6 2-12-.8-3.6-3.9-14.8-4.2c-11.2-.3-19 11.8-15.1 27 3.9 15.2 15.9 12.1 15.9 12.1 5.9-.8 10.3 2.8 12.3 7.9.9 2.3.8 11.8-1.1 17.7-2 5.9.8 9.3 1.7 15.5.4 3.3 3.3 5 7.2 5.5 14.8-18.8 24.1-41.8 25.5-66.9-.7-.4-1.3-.6-2-.9z" fill="url(#S)"/><path d="M1246 449.7c25.2 0 48.6-7.2 68.3-19.6-2.9-3.3-10.2-4.6-12.3-5.6-.3-.1-.8-.3-1.4-.4-17.5 7.5-37.6 9.1-57 6.3-2.6 1.1-4.6 2.7-6.8 4.9-3.9 4-6 5.7-17.6 5.7-11.6 0-18.4-5.6-21.6-6.4-2.3-.5-5.2.5-7.4 2.4 16.9 8.2 35.8 12.7 55.8 12.7zM1148.1 375.3c-.7-.6-1.3-1.2-2-1.9-5.2-5.2-7.4-13.2-10.1-19.9-4.3-10.5-9-20.7-15.8-29.5 0 1.2-.1 2.4-.1 3.7 0 3.6.2 7.1.5 10.7 2.2 4.6 5.9 6.3 7.9 8.8 3.1 3.7 4.2 12.1 4.5 20.1.3 7.9 3.4 14.4 4.2 16.1.8 1.7 9.8 13.6 10.1 2.8.2-4.2.5-7.9.8-10.9zM1346.1 401.6c13.2-16.7 21.9-36.8 24.7-58.8-1.1 3.1-2.1 6.1-3.1 9.2-2.3 7.1-7.9 11.8-12.8 17.2-6.3 6.9-11.5 14.7-17 22.3.4 1.3.7 2.8 1 4.4.5 3.5 3.4 5.2 7.2 5.7z" fill="#C0936C"/><path d="M1196.1 351.1c-2.2 4.7-3.3 7.1-5.4 12 .8 6.2 1.2 9.3 2 15.4 2.1 5.5 3.1 8.3 5.2 13.9 2.8 1.9 4.3 2.9 7.2 5.1 4-2.4 6.1-3.5 10.4-5.4 6.5-3.8 9.9-5.4 16.8-8 8-4.6 12.2-6.5 20.7-9.5 6.3-1 9.5-1.2 15.8-1.3 7.8-.6 11.7-.5 19.4.3 8-1.5 12-1.8 19.8-1.6 4.3-2.4 6.4-3.4 10.6-5.2 1.3-2.3 1.9-3.5 3.2-5.7-.3-2.2-.4-3.3-.7-5.4-.8-3.6-1.2-5.4-2.1-9-1.6-4.1-2.4-6.1-4-10.2-1-1.7-2.4-2.9-6.6-3.7-2.2-.1-3.2-.2-5.4-.2-4.9-.3-7.4-.4-12.4-.1-9.1-.3-19.1.9-27.9 3.3-3.9.6-5.8.9-9.6 1.8-8.5-.1-12.7.3-20.9 1.8-7.7 0-11.4.4-18.7 1.7-7.3 3.4-10.8 5.4-17.4 10z" fill="#DF2026"/><path d="M1213.4 376.8c.9 4.8 1.4 7.1 2.3 11.9 4.2-1.2 6.3-1.7 10.7-2.4 8.4-4.6 18.3-8.4 27.7-10.5 9.8-2 14.9-2.5 24.8-2.2 7.5-.7 11.3-.7 18.7 0 5.2-1.8 7.8-2.5 12.8-3.6-.3-2.3-.4-3.5-.7-5.8-1.1-1.3-1.7-2-2.8-3.3-3.1-1-4.7-1.5-7.9-2.3-11.5-1.8-21-2.4-32.7-1.9-8.8.3-13.2.9-21.8 2.9-8.5 1.8-17.6 5.1-25.3 9.1-1.7 1.1-2.6 1.7-4.3 2.9-.6 2.1-.9 3.1-1.5 5.2z" fill="#FFF"/><path d="M1201.1 347.7c.5 6.9.7 10.3 1.2 17.1 1.7 1.1 2.6 1.6 4.3 2.7 5.9-2.7 9-3.9 15.4-5.6 13.9-6.6 29.2-10.9 44.6-11.3 9.5.3 14.3 1 23.7 3.3 7.1.4 10.6 1 17.5 2.7.2-1.5.3-2.3.5-3.8l-4-11.5c-.7-1.7-1-2.5-1.7-4.2-.9-1.7-1.3-2.6-2.2-4.3-2.4-.5-3.6-.7-6.1-1.1-9.5-.2-19.9 1.3-29 4-4.9.6-7.4 1-12.3 2.1-8.6-.3-18 .5-26.5 2.5-7.1.4-10.5.8-17.1 2.4-3.4 1.7-5 2.8-8.3 5z" fill="#FFF"/><path d="M1202.7 352.5c2.8-.2 13.4-3.1 22.6-4.4 9.2-1.3 17.4-1.6 30.6-3s17.7-6.3 29.3-6.6 17.7-1.3 17.5-1.3c-.1 0-.4-1.2-1.1-2.4-.7-1.2-1.3-2.8-1.1-2.6.3.3-19.9.7-19.9.7l-23.2 4.2-22.7 2.3-21.9 2.2-10.5 5 .4 5.9z" fill="#B9C5B8"/><path d="M1301.9 335.5s1 1.5 1.8 3.1c.7 1.4 3.7 8.6 4.1 10 1 2.7 1.6 4.1 2.6 6.9 0 0 3 5.5-7.2 3-30.9-7.5-60.8-3.9-89.8 8-9.7 4-12.2 3.7-13.4-1-1.2-4.7-1.2-11.7-1.2-11.7 0-1.6-1.2-.4-1.2-.4-5.1 7.1-4.8 18.8-1.2 25.9 1.8 3.6 4.9 14 13.6 10.5 0 0 2-.3 2.7-1.3v-.1c-.6-4.9-.9-7.3-1.5-12.2 0 0-.3-5.1 3.7-7.5 14.4-8.5 32.6-12 49.3-13.1 13.9-.9 34.2-1.6 44.2 5.5 2.1 1.5 1.5 4.3 1.5 4.3s-.4-2.8-2.8-3.8c-12.2-5.2-29-4.4-43-3.3-15.8 1.3-33.2 4.7-46.6 12.7-2.1 1.3-1.5 3.4-1.5 3.4.9 3.8 1.4 5.7 2.3 9.5.1 1 .9 1.5 1.8 1.1 12.1-4.6 23.2-13.3 36-15.2 15.3-2.3 32 2.2 47.5 0 6.9-1 13.3-3.5 16.3-8.3 3.1-4.8-5.3-26.3-4.8-24.7 1.8 5.1 8.4 20.3 8.6 23.6.2 3.2-1.2 7.6-3.8 10.4-2.6 2.8-7.6 5.6-21 9.2-13.1 3.5-27.6-3.5-40-1.3-12.4 2.2-25.6 8.7-37.4 14.9-13.3 7-25.7 9.2-29.3-8.5-2.2-10.9-7.4-21.8-.8-32.8 6-9.9 16.7-15.3 28.1-15.5 10.4-.2 21.5 1.5 31.2-.1 18.5-3.2 41.4-9.2 59.2-3.6.7.2-16.3.1-20.8.6-12.4 1.3-24.9 4.3-36.9 6.1-15.8 2.3-34.9 1.8-48.3 9.2-1.1.6-.3 7.6.2 11.1.2 1.5 1.1 2.4 2.5 2.4 1 0 2.4-.3 4-1.1 15-7.4 32-11.4 48.6-11.6 14.9-.2 31.1 3.6 44.3 5.3 4.9.6 2.9-6 2.1-8.7-.9-3.5-3.7-10.9-3.7-10.9z" fill="#721111"/><g opacity=".35"><path d="M1222.7 269.2c-1.8-.5-3.7-1-5.5-1.4-6.1-1.3-9.8 1.2-10.5 7.4-6.3 32.8 23.6 56.7 53.4 50.1 19.3-2 30.8-19.8 33.3-37.2.5-3.4-.5-7.8-1.2-11.5-6.1 3-12.2 5.2-18.8 5.8-1.4.5-2.3 1.2-2.8 2.9-5.9 18.6-5.3 30.3-18.2 16.5.4-.7 1.5-3.3 2.1-3.6 4.5-2.1 2.5-6.2.6-10.4-2-4.4-25.2-11.7-29.9-9.3-2 1-3.3 1.3-3.4-.2-.3-3.1 1.3-6 .9-9.1z" fill="#FFF"/><path d="M1268.6 278.9c6.3-.8 19 10.5 25 7.7 3.6-1.6-2.2-17.2-3.7-20.8-7.1-17-19.8-26.7-38.2-27.8-16.8-1-29.5 6.5-38.7 20.4-1.1 1.7-1.3 2.5 1.3 2.7 8.8.6 16.5 4.6 24.2 8.4 7.7 3.7 15.4 7.3 24.2 7.7 1.8 0 3.7 1.7 5.9 1.7zM1238.8 274.6c.4 3.1-1.2 6-1 9.1.1 1.5.1 2.5 2.1 1.4 4.7-2.4 9.6-.7 11.6 3.8 1.9 4.2-.1 9-4.6 11.1-.7.3-1.5.4-1.9 1.1 12.8 13.8 35.6 8.2 41.5-10.4.5-1.7 1.4-2.4 2.8-2.9-2.4-.5-3.2 1.2-3.9 2.9-.8 1.2-1.1 2.3-1.8 3.3-3 4.7-10.5 7.1-15.9 5.1-5.7-2.2-10-8.7-8.8-14.4-1.5-2.1-4-2.6-6.2-3.7-4.5-2.2-9.1-4.7-13.9-6.4z" fill="#DF2026"/><path d="M1259 284.7c-1.2 5.7 3.1 12.2 8.8 14.4 5.4 2.1 12.9-.4 15.9-5.1.7-1 1.3-1.9 1.8-3.3.1-.5 1.1-1.6.4-1.6-8.9-2.4-16.7-3.5-26.2-4.4-.3-.1-.5 0-.7 0z" fill="#721111"/><path d="M1298.3 273.9c3.3 29.8-17.4 54.9-46.5 58-29.6 3.1-53.7-18.2-57.2-45.3-3.8-29.4 18.2-56.7 46.6-58.7 29-3.3 54 17.8 57.1 46zM1206.8 275.7c-3.4 30.6 23.8 57.7 52.8 48 15-5.3 25.4-13 29.9-24.4 1.3-3.2 1.7-5.1 1.8-9.1m-.7-7.2c-4.2-28.1-20.4-43.3-38.9-44.4-16.8-1-29.5 6.5-38.7 20.4" fill="#941D1F"/></g><path d="M1212.4 314.4c-4.5-8.9-3.5-17.8.5-26.3 7.1-15.1 19.1-23.4 35.8-25 17.3-1.6 30.6 5 40.1 19.3 3.7 5.5 5.3 11.8 4.2 19.2-10.2-17.7-25.2-26.4-45.1-23.4-20.1 3.2-31 16.7-35.5 36.2z" opacity=".65" fill="#860206"/></g><g><radialGradient id="T" cx="1668.177" cy="286.914" r="157.49" fx="1674.276" fy="388.494" gradientTransform="matrix(.919 -.3943 .457 1.065 27.69 495.52)" gradientUnits="userSpaceOnUse"><stop offset=".088" stop-color="#F89C1E"/><stop offset=".612" stop-color="#EF5024"/></radialGradient><path d="M1801.6 218.3c10.1-6.7 22-17.5 17-29.7s-17-30.8-11.1-41.9c5.9-11 28.9-24.9 30.6-38.1.9-6.6-2.3-8-2.3-8s.2 7.5-4.1 11.9-8.1 7.8-23.4 13.2-22.7 16.5-24.8 30-.7 21.8-4.2 27.1c-3.6 5.4-17.6 9.7-26.5 2.5s-7.2-22.4-2.9-30 14.9-14.5 15.2-24.3c.4-9.8-9.6-16.1-12.3-16.1-.6 7.5-1.2 14-4 14.8-9.3 2.7-19.5-11.7-20.7-15.3s-5.3-20.1 6.6-27.1c-18.6.1-19.3 15.1-17.3 27.9s7.3 33-3.1 35.7c-10.4 2.7-11.6-9.4-13.9-23-3.3-19.1-23.9-27.2-53.7-34.1-17.2-4-39.7-39.1-13.3-85.9-5.8 2.3-33.4 22.1-29.2 58.3s13 58.1 9.7 64.1-7.3 8.2-11.7 6.9c-4.8-1.5-17.4-19.2-18.9-26.8-5 12.5.6 25.3 11.5 39.8 10.9 14.5 44.9 32.3 52.3 40.6 7.4 8.3 14.3 16.3 8.9 21-9.5 8.1-15.1-9.4-27.8-8.7-10.3.6-10.9 7.1-10.9 9.7 6.6.5 18.8-.5 29.4 22.6s-4.7 20-15.7 17.1-20.1-27.2-27.2-29.6c-7.1-2.4-19.6 1.8-31 3-11.4 1.3-18.4-4.7-22.7-13.3-2.3 8.4 6.4 21.1 20.1 26.4 13.7 5.3 23.5 1 31.4 8.4 7.9 7.4 12.1 17 10.4 44.6-1.8 27.6 93.4-64 93.4-64l90.2-1.8 6-7.9z" fill="url(#T)" stroke="#941E1F" stroke-width="4" stroke-miterlimit="10"/><path d="M1726.5 203.4c-2.2-8.5-4.6-20.8-4.6-20.8s-7.8 6-13.9 6.9c-6.1.8-15.8-4.3-20.9-14.1-5.1-9.8-9.9-24.4-9.9-24.4s.2 9.7-4.4 11.8c-4.5 2-17-9.6-17-9.6s1.9 12.1 10.1 22 15.9 13.6 19.7 21.2c3.8 7.6 1.2 19.8 1.2 19.8l39.7-12.8z" fill="#F8EB32"/><path d="M1873.2 297.2c-4.4-16.2-11.9-31.6-22.4-45.1-24.9-32.1-64.4-50.3-104.7-50.5-41.5-.2-81.4 19.9-106.2 53-15.9 21.2-24.3 47.4-24.5 73.8.2 40.9 20.7 78.9 53.8 102.7 33.8 24.3 78.2 30.8 117.8 18.6 39.2-12.1 71.2-43 84.3-81.9 7.7-22.9 8.1-47.5 1.9-70.6z" fill="#941D1F"/><radialGradient id="U" cx="1781.13" cy="259.516" r="217.71" gradientUnits="userSpaceOnUse"><stop offset=".123" stop-color="#EBF7FD"/><stop offset=".728" stop-color="#EA5E24"/></radialGradient><path d="M1871.4 327.7c0 67.4-56.3 122-125.8 122s-125.9-54.6-125.9-122 56.3-122 125.9-122c69.4 0 125.8 54.6 125.8 122z" fill="url(#U)"/><radialGradient id="V" cx="1780.812" cy="273.726" r="203.664" gradientUnits="userSpaceOnUse"><stop offset=".11" stop-color="#DBEAF7"/><stop offset=".731" stop-color="#D82B28"/></radialGradient><path d="M1619.4 326.8c0 67.4 56.3 122 125.9 122 69.5 0 125.8-54.6 125.8-122 0-29.2-10.6-55.9-28.2-76.9 2.7 7.6 5.3 15.2 6.9 23.1 2.6 12.3-1.4 22.8-8.9 32.3-5.6 7.2-9.6 15.9-15.9 22.3-1.1 1.1-2.3 2-3.7 2.7-2.3-1.8-3.1 8.5-27.2 33.1-13.4 13.4-35.1 5.4-38.9 3.7-14.3-6.4-25.5-12.5-40.3-20.4-13.1-7-13.6-19.9-26.9-26.5-10-5-23.2-10.3-22.6-22.9.2-5.4-2.7-8.8-6.5-10.2-.1-1.3-.1-2.6-.1-4 .2-12.5 4.8-25.2 10.2-36.3 1.6-3.2 1.6-6.3.6-9 2.8-4.4 5.4-8.9 7.6-13.7-34.8 21.8-57.8 59.6-57.8 102.7z" fill="url(#V)"/><path d="M1746 450.7c64.2 0 117.1-46.6 124.8-106.8-1.1 3-2.1 6.1-3.1 9.2-2.3 7.1-7.9 11.8-12.8 17.2-9.5 10.3-16.5 22.8-25.5 33.5-21.6 25.8-56 32.5-88.2 27.3-17.6-2.9-34.1-9.7-50.5-16.2-7-2.8-13.4-5.6-18.5-11.2-4.7-5.2-8.1-11.5-12.8-16.8-4.1-4.5-9.1-8.1-13.4-12.4-5.2-5.2-7.4-13.2-10.1-19.9-4.3-10.5-9-20.7-15.8-29.5 0 1.2-.1 2.4-.1 3.7.2 69.8 56.5 121.9 126 121.9z" fill="#B01F24"/><radialGradient id="W" cx="1848.484" cy="216.85" r="263.889" gradientTransform="matrix(1 0 0 1.0974 0 -45.9)" gradientUnits="userSpaceOnUse"><stop offset=".104" stop-color="#FFF"/><stop offset=".672" stop-color="#FBC7AA"/></radialGradient><path d="M1805.4 251.2c-21.1-16.5-61.7-22.5-84.4-7.9-7.9 5.1-8.5 14.1-5.2 21-.2.5-.4 1-.6 1.6-4.9 15.2 6.5 31 18.4 36.9 13.1 6.4 27.6 7.7 41.6 9.7 14.3 2 34.5-6.6 42.3-20.2 9.5-16.5.6-31.2-12.1-41.1z" fill="url(#W)"/><radialGradient id="X" cx="1763.342" cy="249.34" r="162.603" gradientUnits="userSpaceOnUse"><stop offset=".276" stop-color="#F05641"/><stop offset=".431" stop-color="#EB533F"/><stop offset=".614" stop-color="#DD4B3A"/><stop offset=".81" stop-color="#C53E31"/><stop offset="1" stop-color="#A72D26"/></radialGradient><path d="M1661.6 318.7s-.5-.1-.9-.2l-.2-1-.3-1.5c-1.1-5.8-5.5-8.7-11.1-12.2-5.5-3.5-14.1-3.7-19.9-3.2.3-.9.5-1.8.5-2.7 0-1.3-.3-2.6-.8-3.8-.7-1.7-2.1-2.9-3.8-3.4-3.9 11.7-6 24.2-6 37.2 0 7.4.7 14.6 2 21.6 0 0 .1 0 .1.1-.1-.1 1.4 1.3 1.9 1.7.5.7 2.6 4.1 3 16.3v.4c3.6 9.9 8.4 19.2 14.3 27.8 1.7.8 3.5 1.2 5.4.8 2.3-.5 6.3-2.5 6.5-10.1.2-8.7 1.2-15.5 1.5-17.2.2-.6 1.5-3.4 6.1-8.2 15-15.8 15.6-22.4 16.1-28.4l.1-1.2.1-1c.2-8.6-9.8-10.8-14.6-11.8zm-34.7-14c.4-.4.5-.8.8-1.2-.2.4-.4.8-.8 1.2z" fill="url(#X)"/><radialGradient id="Y" cx="1763.342" cy="248.397" r="162.603" gradientUnits="userSpaceOnUse"><stop offset=".276" stop-color="#F05641"/><stop offset=".431" stop-color="#EB533F"/><stop offset=".614" stop-color="#DD4B3A"/><stop offset=".81" stop-color="#C53E31"/><stop offset="1" stop-color="#A72D26"/></radialGradient><path d="M1637.9 290.1c1.8-1 3-2.8 3.4-4.8l.1-1.2c0-.8-.2-1.6-.4-2.4 2.8-1.3 4.2-4 5.1-5.8 0 .1 1-1.9 1.2-2.3 2.1-3.2 5.9-5.7 9.3-8 3.3-2.1 6.3-4.1 8.4-6.9 1.6-2.1 2.4-4.3 2.4-6.6 0-4-2.5-6.8-3.8-8.3l-.9-1.1c-1.1-2.2-2.5-3.7-4.2-4.7-14.7 13.5-26 30.4-32.6 49.4.6.4 1.4.9 1.4.9 2.1 1.6 6.2 4.3 10.6 1.8z" fill="url(#Y)"/><radialGradient id="Z" cx="1764.286" cy="249.339" r="162.604" gradientUnits="userSpaceOnUse"><stop offset=".276" stop-color="#F05641"/><stop offset=".431" stop-color="#EB533F"/><stop offset=".614" stop-color="#DD4B3A"/><stop offset=".81" stop-color="#C53E31"/><stop offset="1" stop-color="#A72D26"/></radialGradient><path d="M1800.6 236.4c-3 2.6-3.5 6.7-3.6 8.1v1.1c0 2.7.9 5.2 2.7 7 2.3 2.4 5.7 3.5 10.2 3.4.4.5.6 1.1 1.1 1.6 0 .3-.1 1-.1 1l-.1 2.9c0 2.5.4 5.1 1.1 7.9 1.4 5.1 5.8 8.8 12 10.1 5.8 1.2 15.8.4 19.3-4.1 1.4-1.8 2.2-3.9 2.2-5.9 0-.7-.1-1.4-.3-2.1 1.8 1.1 3.6 2.4 5.5 4l1.3 1.2c1.9 1.7 4.7 2.1 6.9.9-14-27.3-38.3-48.8-67.9-59.7-1.9 2.4-3 5.6-3 9.2v.4c.2 7.6 6.7 11.2 12.7 13z" fill="url(#Z)"/><radialGradient id="aa" cx="1764.286" cy="249.34" r="162.604" gradientUnits="userSpaceOnUse"><stop offset=".276" stop-color="#F05641"/><stop offset=".431" stop-color="#EB533F"/><stop offset=".614" stop-color="#DD4B3A"/><stop offset=".81" stop-color="#C53E31"/><stop offset="1" stop-color="#A72D26"/></radialGradient><path d="M1871.8 323.7c-.7-1.5-1.8-3-3.5-4.7-7.5-7.2-15.9-4.5-18.1-3.6-.2.1-3.7 1.1-7.7-.7.1 0 .1.1.2.2-.8-.5-1.9-1.1-3.5-1.9-3.2-2-5.3-2.7-13.8-3-6.5-.2-12.4 2.6-16.6 7.9-3.7 4.7-5.6 10.7-5.6 17.2 0 3 .4 6.1 1.2 9.3 5 19.4 21 16.8 22.8 16.5 3.5-.5 5.1 2.7 5.7 4.1.3 1.3.4 8.9-1.2 13.7-1.9 5.7-.6 10 .4 13.5.4 1.5.9 3 1.1 4.6.3 2.4 1.8 7.6 8.8 9.9 18.7-21.3 30-48.9 30-79-.1-1.3-.2-2.7-.2-4z" fill="url(#aa)"/><radialGradient id="ab" cx="1764.287" cy="249.339" r="162.605" gradientUnits="userSpaceOnUse"><stop offset=".276" stop-color="#F05641"/><stop offset=".431" stop-color="#EB533F"/><stop offset=".614" stop-color="#DD4B3A"/><stop offset=".81" stop-color="#C53E31"/><stop offset="1" stop-color="#A72D26"/></radialGradient><path d="M1699.9 239.7c4.7-4 5.2-9.8 5.5-13.2l.1-1.1c.4-3.7-.5-6.7-2.5-9-.9-1-1.9-1.7-2.9-2.2-13.4 5.1-25.7 12.4-36.3 21.4-.7 1.2-1 2.3-1.1 3v.8c0 3.6 2.5 5.9 4 7.3-.1 0 .7.7.7.7 1.8 1.9 4.6 2.7 7.7 2 2.8-.6 6.1-2.7 7.9-5.8.1 0 .3-.1.5-.1 7.2.6 12.7-.7 16.4-3.8zm-16.7 3.2l-.1.1c.1-.3.3-.5.4-.8-.1.5.1.3-.3.7z" fill="url(#ab)"/><radialGradient id="ac" cx="1764.287" cy="249.334" r="162.608" gradientUnits="userSpaceOnUse"><stop offset=".276" stop-color="#F05641"/><stop offset=".431" stop-color="#EB533F"/><stop offset=".614" stop-color="#DD4B3A"/><stop offset=".81" stop-color="#C53E31"/><stop offset="1" stop-color="#A72D26"/></radialGradient><path d="M1806.7 419.9c.1 0-2.5-.8-2.5-.8.1 0 .3.1.4.2-4.6-2.3-22.9-1.7-28.7 1-3.1 1.4-15.3 2.1-21.1 2.5l-4 .2c-9.3.6-13.6 3.4-18.3 8.2-3 3.1-3.8 3.9-13.3 3.9-7 0-11.9-2.4-15.5-4.2-1.8-.9-3.2-1.6-4.8-2-4.1-1-8.9.5-12.7 3.7-.6.5-1 1.1-1.4 1.8 18.1 9.7 38.9 15.3 61 15.3 27.3 0 52.6-8.5 73.3-22.8-.1-.2-.3-.5-.5-.7-2.9-3.5-8.1-5.1-11.9-6.3z" fill="url(#ac)"/><path d="M1777.4 423.3c-3.7 1.7-15.3 2.4-22.3 2.8l-4 .2c-8.2.6-11.9 2.9-16.1 7.2-3.4 3.5-4.8 4.9-15.8 4.9-7.8 0-13.3-2.8-17-4.6-1.6-.8-2.9-1.4-4-1.7-3-.7-6.7.4-9.6 3-.6.6-1 1.4-.9 2.3.1.9.7 1.6 1.4 2 17.8 8.5 36.9 12.9 56.9 12.9 24.8 0 48.9-6.9 69.7-20 .6-.4 1.1-1.1 1.2-1.8.1-.7-.1-1.5-.6-2.1-2.5-2.8-7.1-4.3-10.5-5.3l-2.6-.9c-3.5-1.7-20.5-1.3-25.8 1.1zM1686.5 218.1c-1.3.5-2.6 1.1-3.6 1.3-.2.1-.5.1-.7.3-4.8 2.7-9.3 5.6-13.6 8.7-.7.5-1 1.3-1 2.1v.3c.1.9.7 1.7 1.6 2 .9.4 1.5.6 2.1.8-.6.4-1.4 1-2.7 1.8-1.9 1.1-2.5 2.5-2.6 3.5v.4c0 2.1 1.7 3.7 2.9 4.8l.8.8c.6.7 2 1.7 4.6 1.2 2.4-.5 5.3-2.4 6.1-5 .2-.3 1.5-.8 2.7-.9 6.7.5 11.5-.5 14.6-3.2 3.7-3.1 4-7.6 4.3-10.9l.1-1.1c.3-2.7-.3-4.9-1.7-6.4-2.1-2.3-5.3-2.3-7.3-2.3-2.2 0-4.5.9-6.6 1.8zM1652.7 242.2c-11.3 11.6-20 24.9-26.1 39.7-.5 1.2.1 2.6 1.2 3.2l2.2 1.4c2 1.3 4.5 3 7.2 1.5.9-.5 1.5-1.4 1.7-2.4v-.6c0-1.8-1.3-3.4-2.6-5 .7-.1 1.5-.1 2.4-.1 2.9 0 4.2-2.5 5.3-4.6l1.4-2.5c2.4-3.9 6.7-6.6 10.4-9 3-1.9 5.8-3.8 7.5-6.1 1.2-1.7 1.7-3.2 1.7-4.5 0-2.7-1.8-4.7-2.9-6-.6-.6-1.1-1.2-1.3-1.7-1.4-2.8-3.2-4-6.2-4-.8-.1-1.4.2-1.9.7zm-28.5 51.5c-1.1.1-2 .8-2.3 1.9l-1.2 4.7c0 .2-.1.4-.1.6 0 .1.1.2.1.4-.2.3-.4.5-.5.8l-.9 4.9v.4c0 .5.2 1 .4 1.4 0 0 .2.4.4.6-.5.9-1 1.9-1.5 3-.1.2-.1.4-.1.6-.6 5.1-.9 9.9-.9 14.7 0 3.4.2 7 .5 10.9 0 .3.1.6.2.9 1.7 3.6 4.1 5.6 6.1 7.3l2.2 2c1.3 1.5 3.4 5.9 3.9 18.5.3 7.6 2.9 14 4.5 17.1 0 .1 5.9 9.7 11.1 8.6 2.4-.5 3.7-2.8 3.8-6.8.3-9.8 1.5-17.1 1.6-18.1.2-.5 1.6-4 6.9-9.6 14.2-14.9 14.7-20.9 15.2-26.3l.1-1.2v-.7c0-5.7-7.5-7.3-12.1-8.3-.9-.2-2.2-.5-2.6-.6-.6-.3-.8-1.1-1.2-3.4l-.3-1.5c-.8-4.3-4.3-6.5-9.6-9.9-5.9-3.8-17.4-3-22.1-2.1-.4-.8-.7-1.5-.7-2v-.1c1.2-1.3 1.9-2.8 1.9-4.5 0-.8-.2-1.7-.5-2.5-.1-1.1-1.2-1.8-2.3-1.7zM1795.4 214c-1.9 1.3-4.1 4-4.1 8.9v.4c.2 8.5 12.2 10.6 17.3 11.4l1.3.2c1 .2 1.3.3 1.3 3.6v.5c-.4-.1-.8-.2-1.1-.4l-.7-.3c-1.5-.5-4-1.3-6.2.1-2.2 1.4-2.7 4.3-2.8 6.3-.2 2.7.8 4.4 1.7 5.4 1.8 1.8 4.6 2.6 8.8 2.3h.8c.3.7.9 1.7 1.9 2.9.6.7.8 1.2.8 2 0 .4 0 .8-.1 1.4-.1.8-.1 1.6-.1 2.6 0 1.8.2 4.1 1 7 1.1 3.9 4.4 6.6 9.4 7.6 5.4 1.1 13.7 0 15.9-2.9.8-1 1.5-2.3 1.5-3.8 0-1.6-.8-3.4-2.9-5.3l-1.4-1c-1.1-.7-1.6-1.1-1.6-2.1v-.4c.4 0 1 .1 1.5.3.1.1.3.1.5.1 5.3 1 9.8 3.4 14.8 7.8l1.3 1.2c.9.9 2.4.9 3.3.1 1-.8 1.3-2.2.6-3.3-13.5-23.4-34.9-42.3-60.2-53.2-.8 0-1.8.1-2.5.6zM1811.5 320c-4.7 5.9-6.1 14.5-3.8 23.6 4.2 16.2 16.9 14.4 18.8 14 5-.7 8.2 2.8 9.5 6.3.6 1.6.7 10.4-1.2 16-1.6 4.7-.6 8.1.4 11.5.4 1.6.9 3.2 1.2 5.1.3 2.4 2 6.6 9.3 7.7.9.1 1.8-.2 2.4-.9 15.6-19.8 24.6-43.5 26.1-68.4.1-1.1-.8-2.2-1.8-2.6l-1.5-.6c-1.1-.6-1.1-.6-1.2-2-.1-1.9-.2-4.8-3.8-8.2-6.3-6.1-13.5-3.3-14.6-2.8-.2 0-4.8 1.5-10.1-.8l-3.6-1.9c-2.6-1.6-4-2.3-12.2-2.5-5.5-.2-10.4 2.1-13.9 6.5z" fill="#941D1F"/><radialGradient id="ad" cx="1752.312" cy="436.741" r="44.823" gradientUnits="userSpaceOnUse"><stop offset=".094" stop-color="#C89572"/><stop offset=".607" stop-color="#D4CD94"/></radialGradient><path d="M1802 424.5c-2.5-1.2-18.7-1.1-23.6 1.1-4.9 2.2-19.7 2.7-27.1 3.2-7.4.5-10.6 2.5-14.4 6.5-3.9 4-6 5.7-17.6 5.7-11.6 0-18.4-5.6-21.6-6.4-2.3-.5-5.2.5-7.4 2.4 16.8 8.1 35.7 12.6 55.8 12.6 25.2 0 48.6-7.2 68.3-19.6-2.9-3.1-10.3-4.4-12.4-5.5z" fill="url(#ad)"/><radialGradient id="ae" cx="1828.044" cy="226.061" r="420.059" gradientUnits="userSpaceOnUse"><stop offset=".094" stop-color="#C89572"/><stop offset=".607" stop-color="#D4CD94"/></radialGradient><path d="M1674.1 232.3c1.9 1.3-1.2 3.5-4.4 5.4-3.2 1.9.2 4 1.7 5.6 1.3 1.4 5.6-.5 6.4-3 .8-2.4 5.1-2.7 5.1-2.7 16.6 1.3 16-7.3 16.6-12.9.5-5.6-3.2-5.9-6.4-5.9-2.9 0-6.7 2.4-9.8 3.1-4.6 2.6-9.1 5.4-13.3 8.5 1.9.8 3.5 1.4 4.1 1.9z" fill="url(#ae)"/><radialGradient id="af" cx="1828.044" cy="226.063" r="420.059" gradientUnits="userSpaceOnUse"><stop offset=".094" stop-color="#C89572"/><stop offset=".607" stop-color="#D4CD94"/></radialGradient><path d="M1658.1 323.7c-2.2-1.1-2.2-3.7-2.8-6.8-.6-3.1-3.1-4.8-8.4-8.2-5.3-3.4-16.6-2.5-20.5-1.7-.4.1-.9.3-1.3.6-.7-1-2.1-3.2-2.2-5.1l-.9 4.8c.4.7.8 1.4 1.1 2.1-.7 1-1.4 2.3-2 3.9-.6 4.7-.9 9.5-.9 14.4 0 3.6.2 7.1.5 10.7 2.2 4.6 5.9 6.3 7.9 8.8 3.1 3.7 4.2 12.1 4.5 20.1.3 7.9 3.4 14.4 4.2 16.1.8 1.7 9.8 13.6 10.1 2.8.3-10.7 1.7-18.6 1.7-18.6s1.1-4 7.6-10.7c14.7-15.4 14-20.6 14.6-26 .6-5.5-10.9-6.1-13.2-7.2zm-33.7-27.4c-.4 1.5-.8 3.1-1.1 4.6l.3-.3c1.2-1.3 1.4-2.9.8-4.3zm11.5-10.5c2-1.1-2.8-5.1-3.4-6.5-.6-1.4 3.1-2 6.2-2 2 0 2.5-2.8 4.5-5.9 4.7-7.5 14.6-10.7 18-15.3 3.4-4.5-1.4-6.8-2.8-9.6-1-2-1.9-2.6-3.9-2.6-10.9 11.2-19.6 24.4-25.5 38.9 2.9 1.6 5.1 4.1 6.9 3z" fill="url(#af)"/><radialGradient id="ag" cx="1828.045" cy="226.062" r="420.061" gradientUnits="userSpaceOnUse"><stop offset=".094" stop-color="#C89572"/><stop offset=".607" stop-color="#D4CD94"/></radialGradient><path d="M1838.5 258.5c5.4 1 10.4 3.4 16 8.4.5.5 1 .9 1.4 1.3-13.3-23-34-41.4-59-52.1-2.1 1.5-3.1 3.9-3 7.1.2 7.3 13.6 8.6 16.6 9.2 3 .6 3.4 2.5 3.3 6.5 0 4-2.5 2.8-5.2 1.9-2.7-.9-5.2-1.4-5.6 4.2-.4 4.4 3.5 5.2 7.8 4.9 4.3-.3 1.6.2 4.8 3.7 3.2 3.6-.2 5.4 2.2 14.1 2.4 8.7 18.8 6.4 20.8 3.9 2-2.5.3-4.3-1.1-5.6-1.4-1.3-4.1-1.9-3.8-5.7.1-3.7 4.8-1.8 4.8-1.8z" fill="url(#ag)"/><radialGradient id="ah" cx="1828.047" cy="226.062" r="420.063" gradientUnits="userSpaceOnUse"><stop offset=".094" stop-color="#C89572"/><stop offset=".607" stop-color="#D4CD94"/></radialGradient><path d="M1869.7 334c-5-2.5 0-5.3-5.6-10.7-5.6-5.3-12-2.2-12-2.2s-5.6 2-12-.8-3.6-3.9-14.8-4.2c-11.2-.3-19 11.8-15.1 27 3.9 15.2 15.9 12.1 15.9 12.1 5.9-.8 10.3 2.8 12.3 7.9.9 2.3.8 11.8-1.1 17.7-2 5.9.8 9.3 1.7 15.5.4 3.3 3.3 5 7.2 5.5 14.8-18.8 24.1-41.8 25.5-66.9-.7-.4-1.3-.6-2-.9z" fill="url(#ah)"/><path d="M1746 449.7c25.2 0 48.6-7.2 68.3-19.6-2.9-3.3-10.2-4.6-12.3-5.6-.3-.1-.8-.3-1.4-.4-17.5 7.5-37.6 9.1-57 6.3-2.6 1.1-4.6 2.7-6.8 4.9-3.9 4-6 5.7-17.6 5.7-11.6 0-18.4-5.6-21.6-6.4-2.3-.5-5.2.5-7.4 2.4 16.9 8.2 35.8 12.7 55.8 12.7zM1648.1 375.3c-.7-.6-1.3-1.2-2-1.9-5.2-5.2-7.4-13.2-10.1-19.9-4.3-10.5-9-20.7-15.8-29.5 0 1.2-.1 2.4-.1 3.7 0 3.6.2 7.1.5 10.7 2.2 4.6 5.9 6.3 7.9 8.8 3.1 3.7 4.2 12.1 4.5 20.1.3 7.9 3.4 14.4 4.2 16.1.8 1.7 9.8 13.6 10.1 2.8.2-4.2.5-7.9.8-10.9zM1846.1 401.6c13.2-16.7 21.9-36.8 24.7-58.8-1.1 3.1-2.1 6.1-3.1 9.2-2.3 7.1-7.9 11.8-12.8 17.2-6.3 6.9-11.5 14.7-17 22.3.4 1.3.7 2.8 1 4.4.5 3.5 3.4 5.2 7.2 5.7z" fill="#C0936C"/><g opacity=".8"><path d="M1722.7 269.2c-1.8-.5-3.7-1-5.5-1.4-6.1-1.3-9.8 1.2-10.5 7.4-6.3 32.8 23.6 56.7 53.4 50.1 19.3-2 30.8-19.8 33.3-37.2.5-3.4-.5-7.8-1.2-11.5-6.1 3-12.2 5.2-18.8 5.8-1.4.5-2.3 1.2-2.8 2.9-5.9 18.6-5.3 30.3-18.2 16.5.4-.7 1.5-3.3 2.1-3.6 4.5-2.1 2.5-6.2.6-10.4-2-4.4-25.2-11.7-29.9-9.3-2 1-3.3 1.3-3.4-.2-.3-3.1 1.3-6 .9-9.1z" fill="#FFF"/><path d="M1768.6 278.9c6.3-.8 19 10.5 25 7.7 3.6-1.6-2.2-17.2-3.7-20.8-7.1-17-19.8-26.7-38.2-27.8-16.8-1-29.5 6.5-38.7 20.4-1.1 1.7-1.3 2.5 1.3 2.7 8.8.6 16.5 4.6 24.2 8.4 7.7 3.7 15.4 7.3 24.2 7.7 1.8 0 3.7 1.7 5.9 1.7zM1738.8 274.6c.4 3.1-1.2 6-1 9.1.1 1.5.1 2.5 2.1 1.4 4.7-2.4 9.6-.7 11.6 3.8 1.9 4.2-.1 9-4.6 11.1-.7.3-1.5.4-1.9 1.1 12.8 13.8 35.6 8.2 41.5-10.4.5-1.7 1.4-2.4 2.8-2.9-2.4-.5-3.2 1.2-3.9 2.9-.8 1.2-1.1 2.3-1.8 3.3-3 4.7-10.5 7.1-15.9 5.1-5.7-2.2-10-8.7-8.8-14.4-1.5-2.1-4-2.6-6.2-3.7-4.5-2.2-9.1-4.7-13.9-6.4z" fill="#DF2026"/><path d="M1759 284.7c-1.2 5.7 3.1 12.2 8.8 14.4 5.4 2.1 12.9-.4 15.9-5.1.7-1 1.3-1.9 1.8-3.3.1-.5 1.1-1.6.4-1.6-8.9-2.4-16.7-3.5-26.2-4.4-.3-.1-.5 0-.7 0z" fill="#721111"/><path d="M1798.3 273.9c3.3 29.8-17.4 54.9-46.5 58-29.6 3.1-53.7-18.2-57.2-45.3-3.8-29.4 18.2-56.7 46.6-58.7 29-3.3 54 17.8 57.1 46zM1706.8 275.7c-3.4 30.6 23.8 57.7 52.8 48 15-5.3 25.4-13 29.9-24.4 1.3-3.2 1.7-5.1 1.8-9.1m-.7-7.2c-4.2-28.1-20.4-43.3-38.9-44.4-16.8-1-29.5 6.5-38.7 20.4" fill="#941D1F"/></g><path d="M1696.1 351.1c-2.2 4.7-3.3 7.1-5.4 12 .8 6.2 1.2 9.3 2 15.4 2.1 5.5 3.1 8.3 5.2 13.9 2.8 1.9 4.3 2.9 7.2 5.1 4-2.4 6.1-3.5 10.4-5.4 6.5-3.8 9.9-5.4 16.8-8 8-4.6 12.2-6.5 20.7-9.5 6.3-1 9.5-1.2 15.8-1.3 7.8-.6 11.7-.5 19.4.3 8-1.5 12-1.8 19.8-1.6 4.3-2.4 6.4-3.4 10.6-5.2 1.3-2.3 1.9-3.5 3.2-5.7-.3-2.2-.4-3.3-.7-5.4-.8-3.6-1.2-5.4-2.1-9-1.6-4.1-2.4-6.1-4-10.2-1-1.7-2.4-2.9-6.6-3.7-2.2-.1-3.2-.2-5.4-.2-4.9-.3-7.4-.4-12.4-.1-9.1-.3-19.1.9-27.9 3.3-3.9.6-5.8.9-9.6 1.8-8.5-.1-12.7.3-20.9 1.8-7.7 0-11.4.4-18.7 1.7-7.3 3.4-10.8 5.4-17.4 10z" fill="#DF2026"/><path d="M1713.4 376.8c.9 4.8 1.4 7.1 2.3 11.9 4.2-1.2 6.3-1.7 10.7-2.4 8.4-4.6 18.3-8.4 27.7-10.5 9.8-2 14.9-2.5 24.8-2.2 7.5-.7 11.3-.7 18.7 0 5.2-1.8 7.8-2.5 12.8-3.6-.3-2.3-.4-3.5-.7-5.8-1.1-1.3-1.7-2-2.8-3.3-3.1-1-4.7-1.5-7.9-2.3-11.5-1.8-21-2.4-32.7-1.9-8.8.3-13.2.9-21.8 2.9-8.5 1.8-17.6 5.1-25.3 9.1-1.7 1.1-2.6 1.7-4.3 2.9-.6 2.1-.9 3.1-1.5 5.2z" fill="#FFF"/><path d="M1701.1 347.7c.5 6.9.7 10.3 1.2 17.1 1.7 1.1 2.6 1.6 4.3 2.7 5.9-2.7 9-3.9 15.4-5.6 13.9-6.6 29.2-10.9 44.6-11.3 9.5.3 14.3 1 23.7 3.3 7.1.4 10.6 1 17.5 2.7.2-1.5.3-2.3.5-3.8l-4-11.5c-.7-1.7-1-2.5-1.7-4.2-.9-1.7-1.3-2.6-2.2-4.3-2.4-.5-3.6-.7-6.1-1.1-9.5-.2-19.9 1.3-29 4-4.9.6-7.4 1-12.3 2.1-8.6-.3-18 .5-26.5 2.5-7.1.4-10.5.8-17.1 2.4-3.4 1.7-5 2.8-8.3 5z" fill="#FFF"/><path d="M1702.7 352.5c2.8-.2 13.4-3.1 22.6-4.4 9.2-1.3 17.4-1.6 30.6-3s17.7-6.3 29.3-6.6 17.7-1.3 17.5-1.3c-.1 0-.4-1.2-1.1-2.4-.7-1.2-1.3-2.8-1.1-2.6.3.3-19.9.7-19.9.7l-23.2 4.2-22.7 2.3-21.9 2.2-10.5 5 .4 5.9z" fill="#B9C5B8"/><path d="M1801.9 335.5s1 1.5 1.8 3.1c.7 1.4 3.7 8.6 4.1 10 1 2.7 1.6 4.1 2.6 6.9 0 0 3 5.5-7.2 3-30.9-7.5-60.8-3.9-89.8 8-9.7 4-12.2 3.7-13.4-1-1.2-4.7-1.2-11.7-1.2-11.7 0-1.6-1.2-.4-1.2-.4-5.1 7.1-4.8 18.8-1.2 25.9 1.8 3.6 4.9 14 13.6 10.5 0 0 2-.3 2.7-1.3v-.1c-.6-4.9-.9-7.3-1.5-12.2 0 0-.3-5.1 3.7-7.5 14.4-8.5 32.6-12 49.3-13.1 13.9-.9 34.2-1.6 44.2 5.5 2.1 1.5 1.5 4.3 1.5 4.3s-.4-2.8-2.8-3.8c-12.2-5.2-29-4.4-43-3.3-15.8 1.3-33.2 4.7-46.6 12.7-2.1 1.3-1.5 3.4-1.5 3.4.9 3.8 1.4 5.7 2.3 9.5.1 1 .9 1.5 1.8 1.1 12.1-4.6 23.2-13.3 36-15.2 15.3-2.3 32 2.2 47.5 0 6.9-1 13.3-3.5 16.3-8.3 3.1-4.8-5.3-26.3-4.8-24.7 1.8 5.1 8.4 20.3 8.6 23.6.2 3.2-1.2 7.6-3.8 10.4-2.6 2.8-7.6 5.6-21 9.2-13.1 3.5-27.6-3.5-40-1.3-12.4 2.2-25.6 8.7-37.4 14.9-13.3 7-25.7 9.2-29.3-8.5-2.2-10.9-7.4-21.8-.8-32.8 6-9.9 16.7-15.3 28.1-15.5 10.4-.2 21.5 1.5 31.2-.1 18.5-3.2 41.4-9.2 59.2-3.6.7.2-16.3.1-20.8.6-12.4 1.3-24.9 4.3-36.9 6.1-15.8 2.3-34.9 1.8-48.3 9.2-1.1.6-.3 7.6.2 11.1.2 1.5 1.1 2.4 2.5 2.4 1 0 2.4-.3 4-1.1 15-7.4 32-11.4 48.6-11.6 14.9-.2 31.1 3.6 44.3 5.3 4.9.6 2.9-6 2.1-8.7-.9-3.5-3.7-10.9-3.7-10.9z" fill="#721111"/><path d="M1711.6 314.4c-4.5-8.9-3.5-17.8.5-26.3 7.1-15.1 19.1-23.4 35.8-25 17.3-1.6 30.6 5 40.1 19.3 3.7 5.5 5.3 11.8 4.2 19.2-10.2-17.7-25.2-26.4-45.1-23.4-20.1 3.2-31 16.7-35.5 36.2z" opacity=".15" fill="#860206"/></g></svg>