<svg xmlns="http://www.w3.org/2000/svg" width="2000" height="500" viewBox="0 0 2000 500"><path d="M372.2 297.8c-4.3-16.2-11.9-31.5-22.4-45-24.9-32-64.2-50.2-104.5-50.4-41.4-.2-81.2 19.8-106 52.9-15.8 21.2-24.3 47.3-24.4 73.7.2 40.9 20.6 78.7 53.7 102.5 33.7 24.3 78 30.8 117.5 18.6 39.1-12.1 71-42.9 84.1-81.7 7.9-23 8.2-47.7 2-70.6z" fill="#4A606B"/><radialGradient id="a" cx="280.895" cy="260.147" r="217.22" gradientUnits="userSpaceOnUse"><stop offset=".123" stop-color="#EBF7FD"/><stop offset=".718" stop-color="#48C7F4"/></radialGradient><path d="M370.9 328.2c0 67.2-56.2 121.7-125.6 121.7-69.4 0-125.6-54.5-125.6-121.7s56.2-121.7 125.6-121.7c69.4-.1 125.6 54.4 125.6 121.7z" fill="url(#a)"/><radialGradient id="b" cx="280.895" cy="275.266" r="203.206" gradientUnits="userSpaceOnUse"><stop offset=".11" stop-color="#DBEAF7"/><stop offset=".718" stop-color="#51AEE1"/></radialGradient><path d="M119.8 328.2c0 67.2 56.2 121.7 125.6 121.7 69.3 0 125.6-54.5 125.6-121.7 0-29.1-10.5-55.8-28.1-76.8 2.7 7.6 5.3 15.2 6.9 23.1 2.6 12.3-1.4 22.7-8.8 32.2-5.6 7.1-9.6 15.8-15.9 22.3-1.1 1.1-2.3 2-3.7 2.7-2.3-1.8-3.1 8.5-27.2 33-13.4 13.4-35.1 5.4-38.8 3.7-14.2-6.4-25.4-12.5-40.2-20.3-13.1-6.9-13.6-19.9-26.8-26.4-10-5-23.2-10.3-22.6-22.9.2-5.4-2.7-8.7-6.5-10.1-.1-1.3-.1-2.6-.1-4 .2-12.4 4.8-25.2 10.1-36.2 1.6-3.2 1.6-6.3.6-9 2.8-4.4 5.4-8.9 7.6-13.6-34.7 21.6-57.7 59.3-57.7 102.3z" fill="url(#b)"/><path d="M245.4 449.9c64.1 0 116.9-46.5 124.6-106.6-1.1 3-2.1 6.1-3.1 9.2-2.3 7.1-7.9 11.8-12.8 17.2-9.5 10.3-16.4 22.7-25.4 33.5-21.6 25.8-55.8 32.4-88 27.2-17.6-2.9-34-9.6-50.4-16.2-6.9-2.8-13.3-5.6-18.4-11.2-4.7-5.2-8.1-11.5-12.8-16.7-4.1-4.5-9.1-8.1-13.4-12.4-5.2-5.2-7.4-13.2-10.1-19.9-4.3-10.5-9-20.6-15.7-29.4 0 1.2-.1 2.4-.1 3.7 0 67.1 56.2 121.6 125.6 121.6z" fill="#549BCE"/><radialGradient id="c" cx="347.596" cy="217.563" r="263.296" gradientTransform="matrix(1 0 0 1.0974 0 -45.9)" gradientUnits="userSpaceOnUse"><stop offset=".104" stop-color="#FFF"/><stop offset=".693" stop-color="#CEECFB"/></radialGradient><path d="M304.6 251.9c-21.1-16.4-61.6-22.4-84.2-7.9-7.8 5-8.5 14.1-5.2 21-.2.5-.4 1-.6 1.6-4.9 15.2 6.5 31 18.4 36.8 13 6.4 27.5 7.7 41.5 9.6 14.2 2 34.4-6.6 42.2-20.2 9.4-16.5.6-31.1-12.1-40.9z" fill="url(#c)"/><radialGradient id="d" cx="263.588" cy="249.994" r="162.237" gradientUnits="userSpaceOnUse"><stop offset=".27" stop-color="#A9D1EF"/><stop offset=".398" stop-color="#A4CEED"/><stop offset=".55" stop-color="#96C5E9"/><stop offset=".713" stop-color="#7EB6E1"/><stop offset=".884" stop-color="#5DA2D7"/><stop offset="1" stop-color="#4291CE"/></radialGradient><path d="M162.1 319.2s-.5-.1-.9-.2l-.2-1-.3-1.5c-1.1-5.8-5.5-8.6-11.1-12.2-5.5-3.5-14.1-3.7-19.9-3.2.3-.9.5-1.8.5-2.7 0-1.3-.3-2.6-.8-3.8-.7-1.7-2.1-2.9-3.8-3.4-3.9 11.7-5.9 24.1-5.9 37.1 0 7.3.7 14.5 2 21.5 0 0 .1 0 .1.1-.1-.1 1.4 1.3 1.8 1.7.5.7 2.6 4.1 3 16.3v.4c3.5 9.9 8.3 19.2 14.2 27.7 1.7.8 3.5 1.2 5.4.8 2.3-.5 6.3-2.5 6.5-10.1.2-8.7 1.2-15.5 1.5-17.2.2-.6 1.5-3.4 6.1-8.2 15-15.7 15.6-22.4 16.1-28.3l.1-1.2.1-1c.2-8.5-9.7-10.6-14.5-11.6zm-34.7-14c.4-.4.5-.8.8-1.2-.1.4-.4.8-.8 1.2z" fill="url(#d)"/><radialGradient id="e" cx="263.588" cy="249.994" r="162.238" gradientUnits="userSpaceOnUse"><stop offset=".27" stop-color="#A9D1EF"/><stop offset=".398" stop-color="#A4CEED"/><stop offset=".55" stop-color="#96C5E9"/><stop offset=".713" stop-color="#7EB6E1"/><stop offset=".884" stop-color="#5DA2D7"/><stop offset="1" stop-color="#4291CE"/></radialGradient><path d="M138.5 291.6c1.8-1 3-2.8 3.4-4.8l.1-1.2c0-.8-.2-1.6-.4-2.4 2.8-1.2 4.2-4 5.1-5.8 0 .1 1-1.9 1.2-2.2 2-3.2 5.9-5.7 9.3-8 3.2-2.1 6.3-4.1 8.4-6.9 1.6-2.1 2.4-4.3 2.4-6.5 0-3.9-2.5-6.7-3.8-8.2l-.9-1.1c-1.1-2.2-2.5-3.7-4.2-4.7-14.6 13.5-25.9 30.3-32.5 49.3.6.4 1.4.9 1.4.9 1.9 1.4 6 4.1 10.5 1.6z" fill="url(#e)"/><radialGradient id="f" cx="263.588" cy="249.993" r="162.238" gradientUnits="userSpaceOnUse"><stop offset=".27" stop-color="#A9D1EF"/><stop offset=".398" stop-color="#A4CEED"/><stop offset=".55" stop-color="#96C5E9"/><stop offset=".713" stop-color="#7EB6E1"/><stop offset=".884" stop-color="#5DA2D7"/><stop offset="1" stop-color="#4291CE"/></radialGradient><path d="M299.8 237.1c-3 2.6-3.5 6.7-3.6 8.1v1.1c0 2.7.9 5.2 2.7 7 2.3 2.4 5.6 3.5 10.2 3.4.4.5.6 1.1 1.1 1.6 0 .3-.1 1-.1 1l-.1 2.9c0 2.5.4 5.1 1.1 7.9 1.4 5.1 5.8 8.8 12 10 5.8 1.2 15.7.4 19.2-4.1 1.4-1.8 2.2-3.9 2.2-5.9 0-.7-.1-1.4-.3-2.1 1.8 1.1 3.6 2.3 5.4 4l1.3 1.2c1.9 1.7 4.7 2 6.9.9-14-27.2-38.2-48.7-67.7-59.6-1.9 2.4-3 5.6-3 9.2v.4c.2 7.6 6.8 11.1 12.7 13z" fill="url(#f)"/><radialGradient id="g" cx="263.588" cy="249.994" r="162.238" gradientUnits="userSpaceOnUse"><stop offset=".27" stop-color="#A9D1EF"/><stop offset=".398" stop-color="#A4CEED"/><stop offset=".55" stop-color="#96C5E9"/><stop offset=".713" stop-color="#7EB6E1"/><stop offset=".884" stop-color="#5DA2D7"/><stop offset="1" stop-color="#4291CE"/></radialGradient><path d="M370.8 324.2c-.7-1.5-1.8-3-3.5-4.7-7.5-7.2-15.9-4.4-18-3.6-.2.1-3.7 1.1-7.7-.7.1 0 .1.1.2.2-.8-.5-1.9-1.1-3.5-1.9-3.1-2-5.2-2.7-13.8-2.9-6.5-.2-12.4 2.6-16.6 7.9-3.7 4.6-5.6 10.6-5.6 17.2 0 3 .4 6.1 1.2 9.3 5 19.4 20.9 16.8 22.7 16.4 3.5-.5 5.1 2.7 5.7 4.1.3 1.3.4 8.9-1.2 13.7-1.9 5.7-.6 10 .3 13.5.4 1.5.8 3 1.1 4.6.3 2.4 1.8 7.6 8.8 9.8 18.7-21.2 29.9-48.8 29.9-78.9.1-1.4.1-2.7 0-4z" fill="url(#g)"/><radialGradient id="h" cx="263.589" cy="249.993" r="162.24" gradientUnits="userSpaceOnUse"><stop offset=".27" stop-color="#A9D1EF"/><stop offset=".398" stop-color="#A4CEED"/><stop offset=".55" stop-color="#96C5E9"/><stop offset=".713" stop-color="#7EB6E1"/><stop offset=".884" stop-color="#5DA2D7"/><stop offset="1" stop-color="#4291CE"/></radialGradient><path d="M199.3 240.3c4.7-4 5.2-9.8 5.4-13.2l.1-1.1c.3-3.7-.5-6.7-2.5-8.9-.9-1-1.9-1.7-2.9-2.2-13.4 5.1-25.6 12.4-36.3 21.3-.7 1.2-1 2.3-1.1 3v.8c0 3.6 2.5 5.9 4 7.3-.1 0 .7.7.7.7 1.8 1.9 4.6 2.7 7.7 2 2.8-.6 6.1-2.7 7.8-5.8.1 0 .3-.1.5-.1 7.5.7 12.9-.6 16.6-3.8zm-16.6 3.2l-.1.1c.1-.3.3-.5.4-.8-.1.6.1.4-.3.7z" fill="url(#h)"/><radialGradient id="i" cx="263.589" cy="249.988" r="162.242" gradientUnits="userSpaceOnUse"><stop offset=".27" stop-color="#A9D1EF"/><stop offset=".398" stop-color="#A4CEED"/><stop offset=".55" stop-color="#96C5E9"/><stop offset=".713" stop-color="#7EB6E1"/><stop offset=".884" stop-color="#5DA2D7"/><stop offset="1" stop-color="#4291CE"/></radialGradient><path d="M305.9 420.2c.1 0-2.5-.8-2.5-.8.1 0 .3.1.4.2-4.6-2.3-22.8-1.7-28.7 1-3.1 1.4-15.2 2.1-21 2.5l-4 .2c-9.2.6-13.6 3.4-18.3 8.2-3 3.1-3.8 3.9-13.3 3.9-7 0-11.9-2.4-15.4-4.2-1.7-.9-3.2-1.6-4.8-2-4.1-1-8.9.5-12.6 3.7-.6.5-1 1.1-1.4 1.8 18 9.7 38.8 15.3 60.9 15.3 27.3 0 52.5-8.5 73.1-22.8-.1-.2-.3-.5-.5-.7-2.9-3.6-8.1-5.2-11.9-6.3z" fill="url(#i)"/><path d="M276.6 423.6c-3.7 1.7-15.3 2.4-22.2 2.8l-3.9.2c-8.2.6-11.8 2.9-16.1 7.2-3.4 3.5-4.8 4.9-15.7 4.9-7.8 0-13.3-2.8-17-4.6-1.6-.8-2.9-1.4-4-1.7-3-.7-6.7.4-9.6 3-.6.6-1 1.4-.9 2.3.1.8.7 1.6 1.4 2 17.8 8.5 36.9 12.9 56.7 12.9 24.7 0 48.8-6.9 69.5-19.9.6-.4 1.1-1.1 1.2-1.8.1-.7-.1-1.5-.6-2.1-2.5-2.8-7.1-4.3-10.5-5.3l-2.6-.9c-3.4-1.8-20.4-1.4-25.7 1zM185.9 218.9c-1.3.5-2.6 1.1-3.6 1.3-.2.1-.5.1-.7.3-4.8 2.7-9.3 5.6-13.5 8.7-.7.5-1 1.2-1 2.1v.3c.1.9.7 1.7 1.6 2 .9.3 1.5.6 2 .8-.6.4-1.4 1-2.7 1.8-1.9 1.1-2.4 2.5-2.6 3.5v.4c0 2.1 1.7 3.7 2.9 4.8l.8.8c.6.7 2 1.7 4.6 1.1 2.4-.5 5.3-2.4 6.1-5 .2-.3 1.5-.8 2.7-.9 6.7.5 11.5-.5 14.6-3.1 3.6-3.1 4-7.6 4.3-10.9l.1-1.1c.3-2.7-.3-4.9-1.7-6.4-2.1-2.3-5.3-2.3-7.3-2.3-2.1-.1-4.4.9-6.6 1.8zM152.2 242.9c-11.3 11.6-20 24.9-26 39.6-.5 1.2.1 2.6 1.2 3.2l2.2 1.4c2 1.3 4.5 3 7.1 1.5.9-.5 1.5-1.4 1.7-2.4v-.6c0-1.8-1.3-3.4-2.6-5 .7-.1 1.5-.1 2.4-.1 2.9 0 4.2-2.4 5.3-4.6l1.4-2.5c2.4-3.8 6.6-6.6 10.3-9 3-1.9 5.8-3.8 7.5-6 1.2-1.7 1.7-3.2 1.7-4.5 0-2.7-1.8-4.7-2.9-6-.6-.6-1.1-1.2-1.3-1.7-1.4-2.8-3.2-4-6.1-4-.7-.1-1.4.2-1.9.7zm-28.3 51.3c-1.1.1-2 .8-2.3 1.9l-1.2 4.7c0 .2-.1.4-.1.6 0 .1.1.2.1.4-.2.3-.4.5-.5.8l-.9 4.9v.4c0 .5.2 1 .4 1.4 0 0 .2.4.4.6-.5.9-1 1.9-1.4 3-.1.2-.1.4-.1.6-.6 5.1-.9 9.9-.9 14.7 0 3.4.2 7 .5 10.9 0 .3.1.6.2.9 1.7 3.6 4.1 5.6 6.1 7.3l2.2 2c1.3 1.5 3.4 5.9 3.9 18.5.3 7.6 2.9 14 4.5 17.1 0 .1 5.9 9.7 11.1 8.6 2.4-.5 3.7-2.8 3.8-6.8.3-9.7 1.5-17.1 1.6-18 .2-.5 1.6-3.9 6.9-9.6 14.2-14.9 14.7-20.9 15.2-26.2l.1-1.2v-.7c0-5.7-7.5-7.3-12-8.2-.9-.2-2.2-.5-2.6-.6-.6-.3-.8-1.1-1.2-3.4l-.3-1.5c-.8-4.3-4.3-6.5-9.6-9.9-5.9-3.7-17.3-3-22-2.1-.4-.8-.7-1.5-.7-2v-.1c1.2-1.3 1.9-2.8 1.9-4.5 0-.8-.2-1.7-.5-2.5-.5-1.4-1.5-2-2.6-2zM294.6 214.7c-1.9 1.3-4.1 4-4.1 8.9v.4c.2 8.5 12.2 10.5 17.3 11.4l1.3.2c1 .2 1.3.3 1.3 3.6v.5c-.4-.1-.8-.2-1.1-.4l-.7-.3c-1.5-.5-4-1.3-6.1.1-2.2 1.4-2.7 4.3-2.8 6.3-.2 2.7.8 4.4 1.7 5.4 1.8 1.8 4.6 2.6 8.8 2.3h.8c.3.7.9 1.7 1.9 2.9.6.7.8 1.2.8 2 0 .4 0 .8-.1 1.4-.1.8-.1 1.6-.1 2.6 0 1.8.2 4.1 1 7 1.1 3.9 4.4 6.6 9.4 7.6 5.3 1.1 13.6 0 15.9-2.9.8-1 1.4-2.3 1.4-3.8 0-1.6-.8-3.4-2.9-5.3l-1.4-1c-1.1-.7-1.6-1.1-1.6-2.1v-.4c.4 0 1 .1 1.5.3.1.1.3.1.5.1 5.2 1 9.8 3.4 14.8 7.8l1.3 1.2c.9.9 2.4.9 3.3.1 1-.8 1.3-2.2.6-3.3-13.5-23.4-34.8-42.2-60.1-53.1-.9-.1-1.8 0-2.6.5zM310.7 320.5c-4.7 5.9-6.1 14.5-3.8 23.5 4.2 16.2 16.9 14.3 18.8 13.9 5-.7 8.2 2.8 9.5 6.2.6 1.6.7 10.4-1.2 16-1.5 4.7-.6 8.1.4 11.5.4 1.6.9 3.2 1.2 5.1.3 2.4 2 6.6 9.3 7.7.9.1 1.8-.2 2.4-.9 15.6-19.8 24.6-43.4 26-68.2.1-1.1-.8-2.2-1.8-2.6l-1.5-.6c-1.1-.6-1.1-.6-1.2-2-.1-1.9-.2-4.8-3.8-8.2-6.3-6-13.5-3.3-14.6-2.8-.2 0-4.8 1.5-10.1-.8l-3.6-1.9c-2.6-1.6-4-2.3-12.2-2.5-5.4-.1-10.3 2.2-13.8 6.6z" fill="#4A606B"/><radialGradient id="j" cx="327.204" cy="226.761" r="419.133" gradientUnits="userSpaceOnUse"><stop offset=".092" stop-color="#B5D88E"/><stop offset=".607" stop-color="#308F39"/></radialGradient><path d="M301.2 424.8c-2.5-1.2-18.6-1.1-23.5 1.1-4.9 2.2-19.7 2.7-27.1 3.2-7.4.5-10.5 2.5-14.4 6.4-3.9 4-6 5.7-17.6 5.7-11.6 0-18.4-5.6-21.6-6.3-2.3-.5-5.2.5-7.3 2.4 16.8 8.1 35.7 12.6 55.6 12.6 25.1 0 48.5-7.2 68.2-19.5-2.8-3.2-10.2-4.5-12.3-5.6z" fill="url(#j)"/><radialGradient id="k" cx="327.202" cy="226.768" r="419.115" gradientUnits="userSpaceOnUse"><stop offset=".092" stop-color="#B5D88E"/><stop offset=".607" stop-color="#308F39"/></radialGradient><path d="M173.6 233c1.9 1.3-1.2 3.5-4.4 5.4-3.2 1.9.2 4 1.7 5.6 1.3 1.4 5.6-.5 6.4-2.9.8-2.4 5.1-2.7 5.1-2.7 16.5 1.3 16-7.2 16.5-12.9.5-5.6-3.2-5.9-6.4-5.9-2.9 0-6.7 2.4-9.7 3-4.6 2.6-9.1 5.4-13.3 8.5 1.9.7 3.5 1.4 4.1 1.9z" fill="url(#k)"/><radialGradient id="l" cx="327.202" cy="226.769" r="419.115" gradientUnits="userSpaceOnUse"><stop offset=".092" stop-color="#B5D88E"/><stop offset=".607" stop-color="#308F39"/></radialGradient><path d="M157.7 324.2c-2.2-1.1-2.2-3.7-2.8-6.8-.6-3.1-3.1-4.8-8.4-8.2-5.3-3.4-16.5-2.5-20.5-1.7-.4.1-.9.3-1.3.6-.7-1-2.1-3.2-2.2-5l-.9 4.8c.4.7.8 1.4 1.1 2.1-.7 1-1.4 2.3-2 3.9-.6 4.7-.9 9.5-.9 14.4 0 3.6.2 7.1.5 10.6 2.2 4.6 5.9 6.3 7.9 8.8 3.1 3.7 4.2 12.1 4.5 20 .3 7.9 3.4 14.4 4.2 16.1.8 1.7 9.8 13.5 10.1 2.8.3-10.7 1.7-18.6 1.7-18.6s1.1-3.9 7.6-10.7c14.7-15.4 14-20.6 14.6-25.9.5-5.5-11-6.1-13.2-7.2zM124 296.8c-.4 1.5-.8 3.1-1.1 4.6l.3-.3c1.2-1.3 1.4-2.8.8-4.3zm11.5-10.4c2-1.1-2.8-5.1-3.4-6.5-.6-1.4 3.1-2 6.2-2 2 0 2.5-2.8 4.5-5.9 4.7-7.5 14.6-10.7 17.9-15.2 3.4-4.5-1.4-6.8-2.8-9.6-1-2-1.9-2.6-3.9-2.6-10.9 11.2-19.6 24.3-25.5 38.8 3 1.6 5.2 4 7 3z" fill="url(#l)"/><radialGradient id="m" cx="327.203" cy="226.768" r="419.116" gradientUnits="userSpaceOnUse"><stop offset=".092" stop-color="#B5D88E"/><stop offset=".607" stop-color="#308F39"/></radialGradient><path d="M337.6 259.1c5.4 1 10.3 3.4 16 8.4.5.5 1 .9 1.4 1.3-13.2-22.9-33.9-41.3-58.9-52-2.1 1.5-3.1 3.9-3 7.1.2 7.2 13.6 8.6 16.6 9.2 3 .6 3.4 2.5 3.3 6.5 0 4-2.5 2.8-5.2 1.9-2.7-.9-5.1-1.4-5.6 4.2-.4 4.3 3.5 5.2 7.8 4.9 4.3-.3 1.6.2 4.8 3.7 3.2 3.6-.2 5.4 2.2 14.1 2.4 8.7 18.8 6.4 20.8 3.8 2-2.5.3-4.3-1.1-5.6-1.4-1.3-4.1-1.9-3.8-5.7.1-3.7 4.7-1.8 4.7-1.8z" fill="url(#m)"/><radialGradient id="n" cx="327.205" cy="226.768" r="419.118" gradientUnits="userSpaceOnUse"><stop offset=".092" stop-color="#B5D88E"/><stop offset=".607" stop-color="#308F39"/></radialGradient><path d="M368.8 334.4c-5-2.5 0-5.3-5.6-10.7-5.6-5.3-12-2.2-12-2.2s-5.6 2-12-.8-3.6-3.9-14.8-4.2c-11.2-.3-19 11.8-15.1 26.9 3.9 15.1 15.9 12.1 15.9 12.1 5.9-.8 10.3 2.8 12.3 7.9.9 2.3.8 11.8-1.1 17.7-2 5.9.8 9.3 1.7 15.4.4 3.3 3.3 5 7.2 5.5 14.7-18.7 24-41.7 25.5-66.8-.7-.2-1.4-.5-2-.8z" fill="url(#n)"/><path d="M245.4 449.9c25.1 0 48.5-7.2 68.2-19.5-2.8-3.2-10.2-4.6-12.3-5.6-.3-.1-.8-.3-1.4-.4-17.5 7.5-37.5 9.1-56.9 6.3-2.6 1.1-4.6 2.6-6.8 4.9-3.9 4-6 5.7-17.6 5.7-11.6 0-18.4-5.6-21.6-6.3-2.3-.5-5.2.5-7.3 2.4 16.8 8 35.7 12.5 55.7 12.5zM147.7 375.7c-.7-.6-1.3-1.2-2-1.8-5.2-5.2-7.4-13.2-10.1-19.9-4.3-10.5-9-20.6-15.7-29.4 0 1.2-.1 2.4-.1 3.7 0 3.6.2 7.1.5 10.6 2.2 4.6 5.9 6.3 7.9 8.8 3.1 3.7 4.2 12.1 4.5 20 .3 7.9 3.4 14.4 4.2 16.1.8 1.7 9.8 13.5 10.1 2.8.1-4.2.4-7.9.7-10.9z" fill="#3C8C35"/><path d="M345.3 401.9c13.1-16.7 21.9-36.8 24.7-58.6-1.1 3-2.1 6.1-3.1 9.2-2.3 7.1-7.9 11.8-12.8 17.2-6.3 6.9-11.5 14.7-16.9 22.3.4 1.3.7 2.8 1 4.4.4 3.3 3.2 5 7.1 5.5z" fill="#4BA33F"/><g><path d="M298.4 309.3c2.9-2.6 8-3.5 10.7-1.8-.9.9 0 1.7.2 2.6 1.6 6.5 2.6 13.1-2.4 18.5-10 10.6-21.9 18.3-35.5 23.4-10.7 4-21.7 4.8-33.1 3.7-9.9-1-18.9-3.9-27.5-8.5-4-2.2-8.1-4.5-9.7-9.3-1.6-4.7-2-9.5-1.1-14.3.2-.9.7-1.9-.3-2.6-.9-.6-1.8-.1-2.7.3-4 1.7-6.1 5.2-8.2 8.6-6.5 10.3-6.1 22.5.9 30.4 5.6 6.3 12.3 11 20.2 14.1 3 1.2 5.5 2.5 7.7-1.3.8-1.3 2.5-2.1 3.8-3.1 10.8-7.9 22-9.3 33.8-2.3 1.3.8 2.2.7 3.5-.2 2.2-1.5 4.6-2.9 7.1-4.1 10.7-5 21.8-3.6 29.3 4 2.1 2.1 3.5 2 5.6.5 6.8-4.7 13.3-9.9 18.5-16.4 7.4-9.2 13.7-18.9 10.1-31.6 3 3 3 6.8 2.5 10.5-1.3 10.3-6 19.2-12.2 27.1-7.5 9.6-16.4 17.7-27.1 23.6-10.8 5.9-22.4 9.4-34.7 10-19.2.9-37.4-2.8-54.5-11.5-8.5-4.3-15.7-10.1-20.8-18.2-7.8-12.3-5.1-24.2 2-35.6 3.2-5.1 7.5-9.4 13.9-10.8 9.3-1.9 16.8 1.9 23.9 7.2 9.4 7.1 19.8 12.3 31.9 11.9 9-.3 17.1-3.4 23.9-9.5 3.4-3.1 6.8-6.3 10.1-9.4.8-.7 1.5-1.6 2.7-1.5l.5.5c-5.3 4.9-9.7 10.8-15.5 15.1-15.6 11.9-33.3 10.7-50.4.9-4.9-2.8-8.9-7-14.4-8.9-5.1-1.8-5.1-1.8-5.4 3.9-.7 11.2.8 13.6 10.8 18.6 11.4 5.7 23.4 8.1 36.1 7 18.8-1.6 34.4-10.1 48-23 5.6-5.3 6.4-9.2 3.5-16.5-1-4.4-3.6-2.2-5.7-2zm-77.7 68.9c7.4 2.2 14.5 3.2 21.8 3.9 16.4 1.5 32-.9 46.9-8 2.6-1.2 3.1-1.9.6-3.8-7.7-5.9-15.6-5.2-23.6-1.2-1.4.7-3.8 1.2-3.9 2.7-.1 1.6 2.2 2.1 3.6 2.8 1.6.9 3 1.8 2 3.8-1 2.2-2.8 1.9-4.6 1-3.3-1.6-6.3-3.7-9.2-6-10.1-7.8-25.4-5.8-33.6 4.8z" fill="#1F429A"/><path d="M329 319.8c3.7 12.8-2.6 22.5-10.1 31.6-5.2 6.5-11.7 11.6-18.5 16.4-2.1 1.5-3.5 1.6-5.6-.5-7.5-7.6-18.6-9-29.3-4-2.5 1.1-4.8 2.5-7.1 4.1-1.3.9-2.3.9-3.5.2-11.8-7-23-5.6-33.8 2.3-1.3 1-3 1.8-3.8 3.1-2.2 3.7-4.7 2.5-7.7 1.3-7.9-3.1-14.6-7.8-20.2-14.1-7-7.9-7.4-20-.9-30.4 2.1-3.4 4.3-6.9 8.2-8.6.9-.4 1.8-.9 2.7-.3 1 .6.5 1.6.3 2.6-.9 4.9-.5 9.6 1.1 14.3 1.6 4.8 5.7 7.2 9.7 9.3 8.6 4.6 17.6 7.6 27.5 8.5 11.4 1.1 22.4.3 33.1-3.7 13.6-5.1 25.6-12.8 35.5-23.4 5-5.3 4-12 2.4-18.5-.2-.9-1.1-1.6-.2-2.6l4.8.3c.3.1.6.3.9.4 6.6 2.1 11.4 5.9 14.5 11.7z" fill="#101A3C"/><path d="M249.5 229.5c23.3-.8 45.1 19.4 45.2 45.1.1 25.7-21 46.6-46.6 46.1-24.6-.4-45.1-21.1-45.1-46.3 0-24.3 20.9-46.1 46.5-44.9zm1.3 80.5c21.9.8 38.1-18.2 38-37-.1-21.3-18-38.3-37.7-37.9-21 .4-37.2 16.6-37.5 37.7-.4 20.7 18.3 38.2 37.2 37.2z" fill="#3360AB"/><path d="M290.5 313.5c1.3-1.6 2.8-2.9 5-2.8l.1.1c-1.5 1.1-3.1 2.1-4.6 3.2-.1-.2-.3-.3-.5-.5z" fill="#1F429A"/><path d="M207 209.4c.2-.6.1-1.4.9-1.7.1 0 .4.2.5.3.1.8-.5 1.2-1 1.6-.2 0-.3-.1-.4-.2z" fill="#DC5958"/><path d="M295.5 310.7c.5-1.4 1.6-1.5 2.8-1.4l.1.1c-.9.5-1.9.9-2.8 1.4l-.1-.1z" fill="#1F429A"/><path d="M314.8 308.3c-.3-.1-.6-.3-.9-.4.3.1.6.2.9.4z" fill="#86191A"/><path d="M303.6 311.1c2.9 7.3 2.1 11.2-3.5 16.5-13.5 12.8-29.2 21.3-48 23-12.6 1.1-24.7-1.3-36.1-7-10-5-11.5-7.5-10.8-18.6 1.4-.4 2.5.5 3.7 1 7.5 3.7 14.4 8.6 22.2 11.8 8.9 3.8 18.1 5.9 27.6 4.5 12.4-1.8 21.3-9.5 29.4-18.5 4.5-5.1 9.2-9.9 15.5-12.7z" fill="#FFF"/><path d="M220.7 378.2c8.3-10.6 23.5-12.5 33.6-4.7 2.9 2.3 5.9 4.3 9.2 6 1.7.8 3.5 1.1 4.6-1 .9-2-.4-3-2-3.8-1.4-.8-3.7-1.2-3.6-2.8.1-1.5 2.5-2 3.9-2.7 8.1-4 16-4.7 23.6 1.2 2.5 1.9 2 2.6-.6 3.8-14.9 7.1-30.5 9.5-46.9 8-7.3-.8-14.5-1.9-21.8-4z" fill="#AADEF8"/><path d="M303.6 311.1c-6.3 2.8-11 7.6-15.5 12.7-8 9-17 16.7-29.4 18.5-9.5 1.4-18.8-.7-27.6-4.5-7.8-3.3-14.7-8.1-22.2-11.8-1.2-.6-2.2-1.4-3.7-1 .3-5.7.3-5.7 5.4-3.9 5.5 1.9 9.5 6.1 14.4 8.9 17.1 9.8 34.9 11 50.4-.9 5.7-4.4 10.2-10.2 15.5-15.1 1.5-1.1 3.1-2.1 4.6-3.2.9-.5 1.9-.9 2.8-1.4 2.2-.3 4.8-2.5 5.3 1.7z" fill="#B9C5B8"/><path d="M250.8 310c-18.9 1-37.6-16.4-37.3-37.3.3-21 16.5-37.2 37.5-37.7 19.8-.4 37.6 16.6 37.7 37.9.2 18.9-16 37.9-37.9 37.1zm18.5-54.2c-1.8 6.6-5.5 9.7-11.4 9.2-5-.4-7.6-3.7-9.3-8-.5-4.4 1-8.1 5-11.4-2 .3-3.2.3-4.3.6-15.2 3.6-23.5 19.9-17.7 34.4.8 2 1.6 2.8 4 2.3 6.9-1.4 11.6 2.9 10.8 10-.2 2.3.9 2.6 2.4 3 17.9 4.6 33.7-9.6 32.2-26.9-.8-8.8-5.1-15.6-13.3-19.8 1.1 2 1.5 4.3 1.6 6.6z" fill="#FFF"/><path d="M248.6 257c1.7 4.3 4.3 7.6 9.3 8 5.9.5 9.6-2.6 11.4-9.2 6.8 4.3 10 12.1 8.1 19.6-1.8 7.2-8.8 13.2-15.9 13.7-8.2.5-15.6-3.9-18.5-11.1-3.2-7.8-1.1-15.4 5.6-21z" fill="#11213C"/><path d="M248.6 257c-6.7 5.6-8.7 13.2-5.6 21 2.9 7.2 10.3 11.7 18.5 11.1 7.1-.4 14.1-6.5 15.9-13.7 1.9-7.5-1.3-15.3-8.1-19.6 0-2.4-.5-4.6-1.5-6.8 8.2 4.2 12.6 11 13.3 19.8 1.5 17.3-14.3 31.5-32.2 26.9-1.5-.4-2.7-.7-2.4-3 .8-7-3.9-11.3-10.8-10-2.4.5-3.2-.3-4-2.3-5.8-14.5 2.5-30.8 17.7-34.4 1.1-.3 2.3-.3 4.3-.6-4.1 3.6-5.7 7.2-5.1 11.6z" fill="#4A9AD4"/></g><g><path d="M872.2 297.8c-4.3-16.2-11.9-31.5-22.4-45-24.9-32-64.2-50.2-104.5-50.4-41.4-.2-81.2 19.8-106 52.9-15.8 21.2-24.3 47.3-24.4 73.7.2 40.9 20.6 78.7 53.7 102.5 33.7 24.3 78 30.8 117.5 18.6 39.1-12.1 71-42.9 84.1-81.7 7.9-23 8.2-47.7 2-70.6z" fill="#4A606B"/><radialGradient id="o" cx="780.895" cy="260.147" r="217.22" gradientUnits="userSpaceOnUse"><stop offset=".123" stop-color="#EBF7FD"/><stop offset=".718" stop-color="#48C7F4"/></radialGradient><path d="M870.9 328.2c0 67.2-56.2 121.7-125.6 121.7-69.4 0-125.6-54.5-125.6-121.7s56.2-121.7 125.6-121.7c69.4-.1 125.6 54.4 125.6 121.7z" fill="url(#o)"/><radialGradient id="p" cx="780.895" cy="275.266" r="203.206" gradientUnits="userSpaceOnUse"><stop offset=".11" stop-color="#DBEAF7"/><stop offset=".718" stop-color="#51AEE1"/></radialGradient><path d="M619.8 328.2c0 67.2 56.2 121.7 125.6 121.7 69.3 0 125.6-54.5 125.6-121.7 0-29.1-10.5-55.8-28.1-76.8 2.7 7.6 5.3 15.2 6.9 23.1 2.6 12.3-1.4 22.7-8.8 32.2-5.6 7.1-9.6 15.8-15.9 22.3-1.1 1.1-2.3 2-3.7 2.7-2.3-1.8-3.1 8.5-27.2 33-13.4 13.4-35.1 5.4-38.8 3.7-14.2-6.4-25.4-12.5-40.2-20.3-13.1-6.9-13.6-19.9-26.8-26.4-10-5-23.2-10.3-22.6-22.9.2-5.4-2.7-8.7-6.5-10.1-.1-1.3-.1-2.6-.1-4 .2-12.4 4.8-25.2 10.1-36.2 1.6-3.2 1.6-6.3.6-9 2.8-4.4 5.4-8.9 7.6-13.6-34.7 21.6-57.7 59.3-57.7 102.3z" fill="url(#p)"/><path d="M745.4 449.9c64.1 0 116.9-46.5 124.6-106.6-1.1 3-2.1 6.1-3.1 9.2-2.3 7.1-7.9 11.8-12.8 17.2-9.5 10.3-16.4 22.7-25.4 33.5-21.6 25.8-55.8 32.4-88 27.2-17.6-2.9-34-9.6-50.4-16.2-6.9-2.8-13.3-5.6-18.4-11.2-4.7-5.2-8.1-11.5-12.8-16.7-4.1-4.5-9.1-8.1-13.4-12.4-5.2-5.2-7.4-13.2-10.1-19.9-4.3-10.5-9-20.6-15.7-29.4 0 1.2-.1 2.4-.1 3.7 0 67.1 56.2 121.6 125.6 121.6z" fill="#549BCE"/><radialGradient id="q" cx="847.596" cy="217.563" r="263.296" gradientTransform="matrix(1 0 0 1.0974 0 -45.9)" gradientUnits="userSpaceOnUse"><stop offset=".104" stop-color="#FFF"/><stop offset=".693" stop-color="#CEECFB"/></radialGradient><path d="M804.6 251.9c-21.1-16.4-61.6-22.4-84.2-7.9-7.8 5-8.5 14.1-5.2 21-.2.5-.4 1-.6 1.6-4.9 15.2 6.5 31 18.4 36.8 13 6.4 27.5 7.7 41.5 9.6 14.2 2 34.4-6.6 42.2-20.2 9.4-16.5.6-31.1-12.1-40.9z" fill="url(#q)"/><radialGradient id="r" cx="763.588" cy="249.994" r="162.237" gradientUnits="userSpaceOnUse"><stop offset=".27" stop-color="#A9D1EF"/><stop offset=".398" stop-color="#A4CEED"/><stop offset=".55" stop-color="#96C5E9"/><stop offset=".713" stop-color="#7EB6E1"/><stop offset=".884" stop-color="#5DA2D7"/><stop offset="1" stop-color="#4291CE"/></radialGradient><path d="M662.1 319.2s-.5-.1-.9-.2l-.2-1-.3-1.5c-1.1-5.8-5.5-8.6-11.1-12.2-5.5-3.5-14.1-3.7-19.9-3.2.3-.9.5-1.8.5-2.7 0-1.3-.3-2.6-.8-3.8-.7-1.7-2.1-2.9-3.8-3.4-3.9 11.7-5.9 24.1-5.9 37.1 0 7.3.7 14.5 2 21.5 0 0 .1 0 .1.1-.1-.1 1.4 1.3 1.8 1.7.5.7 2.6 4.1 3 16.3v.4c3.5 9.9 8.3 19.2 14.2 27.7 1.7.8 3.5 1.2 5.4.8 2.3-.5 6.3-2.5 6.5-10.1.2-8.7 1.2-15.5 1.5-17.2.2-.6 1.5-3.4 6.1-8.2 15-15.7 15.6-22.4 16.1-28.3l.1-1.2.1-1c.2-8.5-9.7-10.6-14.5-11.6zm-34.7-14c.4-.4.5-.8.8-1.2-.1.4-.4.8-.8 1.2z" fill="url(#r)"/><radialGradient id="s" cx="763.588" cy="249.994" r="162.238" gradientUnits="userSpaceOnUse"><stop offset=".27" stop-color="#A9D1EF"/><stop offset=".398" stop-color="#A4CEED"/><stop offset=".55" stop-color="#96C5E9"/><stop offset=".713" stop-color="#7EB6E1"/><stop offset=".884" stop-color="#5DA2D7"/><stop offset="1" stop-color="#4291CE"/></radialGradient><path d="M638.5 291.6c1.8-1 3-2.8 3.4-4.8l.1-1.2c0-.8-.2-1.6-.4-2.4 2.8-1.2 4.2-4 5.1-5.8 0 .1 1-1.9 1.2-2.2 2-3.2 5.9-5.7 9.3-8 3.2-2.1 6.3-4.1 8.4-6.9 1.6-2.1 2.4-4.3 2.4-6.5 0-3.9-2.5-6.7-3.8-8.2l-.9-1.1c-1.1-2.2-2.5-3.7-4.2-4.7-14.6 13.5-25.9 30.3-32.5 49.3.6.4 1.4.9 1.4.9 1.9 1.4 6 4.1 10.5 1.6z" fill="url(#s)"/><radialGradient id="t" cx="763.588" cy="249.993" r="162.238" gradientUnits="userSpaceOnUse"><stop offset=".27" stop-color="#A9D1EF"/><stop offset=".398" stop-color="#A4CEED"/><stop offset=".55" stop-color="#96C5E9"/><stop offset=".713" stop-color="#7EB6E1"/><stop offset=".884" stop-color="#5DA2D7"/><stop offset="1" stop-color="#4291CE"/></radialGradient><path d="M799.8 237.1c-3 2.6-3.5 6.7-3.6 8.1v1.1c0 2.7.9 5.2 2.7 7 2.3 2.4 5.6 3.5 10.2 3.4.4.5.6 1.1 1.1 1.6 0 .3-.1 1-.1 1l-.1 2.9c0 2.5.4 5.1 1.1 7.9 1.4 5.1 5.8 8.8 12 10 5.8 1.2 15.7.4 19.2-4.1 1.4-1.8 2.2-3.9 2.2-5.9 0-.7-.1-1.4-.3-2.1 1.8 1.1 3.6 2.3 5.4 4l1.3 1.2c1.9 1.7 4.7 2 6.9.9-14-27.2-38.2-48.7-67.7-59.6-1.9 2.4-3 5.6-3 9.2v.4c.2 7.6 6.8 11.1 12.7 13z" fill="url(#t)"/><radialGradient id="u" cx="763.588" cy="249.994" r="162.238" gradientUnits="userSpaceOnUse"><stop offset=".27" stop-color="#A9D1EF"/><stop offset=".398" stop-color="#A4CEED"/><stop offset=".55" stop-color="#96C5E9"/><stop offset=".713" stop-color="#7EB6E1"/><stop offset=".884" stop-color="#5DA2D7"/><stop offset="1" stop-color="#4291CE"/></radialGradient><path d="M870.8 324.2c-.7-1.5-1.8-3-3.5-4.7-7.5-7.2-15.9-4.4-18-3.6-.2.1-3.7 1.1-7.7-.7.1 0 .1.1.2.2-.8-.5-1.9-1.1-3.5-1.9-3.1-2-5.2-2.7-13.8-2.9-6.5-.2-12.4 2.6-16.6 7.9-3.7 4.6-5.6 10.6-5.6 17.2 0 3 .4 6.1 1.2 9.3 5 19.4 20.9 16.8 22.7 16.4 3.5-.5 5.1 2.7 5.7 4.1.3 1.3.4 8.9-1.2 13.7-1.9 5.7-.6 10 .3 13.5.4 1.5.8 3 1.1 4.6.3 2.4 1.8 7.6 8.8 9.8 18.7-21.2 29.9-48.8 29.9-78.9.1-1.4.1-2.7 0-4z" fill="url(#u)"/><radialGradient id="v" cx="763.589" cy="249.993" r="162.24" gradientUnits="userSpaceOnUse"><stop offset=".27" stop-color="#A9D1EF"/><stop offset=".398" stop-color="#A4CEED"/><stop offset=".55" stop-color="#96C5E9"/><stop offset=".713" stop-color="#7EB6E1"/><stop offset=".884" stop-color="#5DA2D7"/><stop offset="1" stop-color="#4291CE"/></radialGradient><path d="M699.3 240.3c4.7-4 5.2-9.8 5.4-13.2l.1-1.1c.3-3.7-.5-6.7-2.5-8.9-.9-1-1.9-1.7-2.9-2.2-13.4 5.1-25.6 12.4-36.3 21.3-.7 1.2-1 2.3-1.1 3v.8c0 3.6 2.5 5.9 4 7.3-.1 0 .7.7.7.7 1.8 1.9 4.6 2.7 7.7 2 2.8-.6 6.1-2.7 7.8-5.8.1 0 .3-.1.5-.1 7.5.7 12.9-.6 16.6-3.8zm-16.6 3.2l-.1.1c.1-.3.3-.5.4-.8-.1.6.1.4-.3.7z" fill="url(#v)"/><radialGradient id="w" cx="763.589" cy="249.988" r="162.242" gradientUnits="userSpaceOnUse"><stop offset=".27" stop-color="#A9D1EF"/><stop offset=".398" stop-color="#A4CEED"/><stop offset=".55" stop-color="#96C5E9"/><stop offset=".713" stop-color="#7EB6E1"/><stop offset=".884" stop-color="#5DA2D7"/><stop offset="1" stop-color="#4291CE"/></radialGradient><path d="M805.9 420.2c.1 0-2.5-.8-2.5-.8.1 0 .3.1.4.2-4.6-2.3-22.8-1.7-28.7 1-3.1 1.4-15.2 2.1-21 2.5l-4 .2c-9.2.6-13.6 3.4-18.3 8.2-3 3.1-3.8 3.9-13.3 3.9-7 0-11.9-2.4-15.4-4.2-1.7-.9-3.2-1.6-4.8-2-4.1-1-8.9.5-12.6 3.7-.6.5-1 1.1-1.4 1.8 18 9.7 38.8 15.3 60.9 15.3 27.3 0 52.5-8.5 73.1-22.8-.1-.2-.3-.5-.5-.7-2.9-3.6-8.1-5.2-11.9-6.3z" fill="url(#w)"/><path d="M776.6 423.6c-3.7 1.7-15.3 2.4-22.2 2.8l-3.9.2c-8.2.6-11.8 2.9-16.1 7.2-3.4 3.5-4.8 4.9-15.7 4.9-7.8 0-13.3-2.8-17-4.6-1.6-.8-2.9-1.4-4-1.7-3-.7-6.7.4-9.6 3-.6.6-1 1.4-.9 2.3.1.8.7 1.6 1.4 2 17.8 8.5 36.9 12.9 56.7 12.9 24.7 0 48.8-6.9 69.5-19.9.6-.4 1.1-1.1 1.2-1.8.1-.7-.1-1.5-.6-2.1-2.5-2.8-7.1-4.3-10.5-5.3l-2.6-.9c-3.4-1.8-20.4-1.4-25.7 1zM685.9 218.9c-1.3.5-2.6 1.1-3.6 1.3-.2.1-.5.1-.7.3-4.8 2.7-9.3 5.6-13.5 8.7-.7.5-1 1.2-1 2.1v.3c.1.9.7 1.7 1.6 2 .9.3 1.5.6 2 .8-.6.4-1.4 1-2.7 1.8-1.9 1.1-2.4 2.5-2.6 3.5v.4c0 2.1 1.7 3.7 2.9 4.8l.8.8c.6.7 2 1.7 4.6 1.1 2.4-.5 5.3-2.4 6.1-5 .2-.3 1.5-.8 2.7-.9 6.7.5 11.5-.5 14.6-3.1 3.6-3.1 4-7.6 4.3-10.9l.1-1.1c.3-2.7-.3-4.9-1.7-6.4-2.1-2.3-5.3-2.3-7.3-2.3-2.1-.1-4.4.9-6.6 1.8zM652.2 242.9c-11.3 11.6-20 24.9-26 39.6-.5 1.2.1 2.6 1.2 3.2l2.2 1.4c2 1.3 4.5 3 7.1 1.5.9-.5 1.5-1.4 1.7-2.4v-.6c0-1.8-1.3-3.4-2.6-5 .7-.1 1.5-.1 2.4-.1 2.9 0 4.2-2.4 5.3-4.6l1.4-2.5c2.4-3.8 6.6-6.6 10.3-9 3-1.9 5.8-3.8 7.5-6 1.2-1.7 1.7-3.2 1.7-4.5 0-2.7-1.8-4.7-2.9-6-.6-.6-1.1-1.2-1.3-1.7-1.4-2.8-3.2-4-6.1-4-.7-.1-1.4.2-1.9.7zm-28.3 51.3c-1.1.1-2 .8-2.3 1.9l-1.2 4.7c0 .2-.1.4-.1.6 0 .1.1.2.1.4-.2.3-.4.5-.5.8l-.9 4.9v.4c0 .5.2 1 .4 1.4 0 0 .2.4.4.6-.5.9-1 1.9-1.4 3-.1.2-.1.4-.1.6-.6 5.1-.9 9.9-.9 14.7 0 3.4.2 7 .5 10.9 0 .3.1.6.2.9 1.7 3.6 4.1 5.6 6.1 7.3l2.2 2c1.3 1.5 3.4 5.9 3.9 18.5.3 7.6 2.9 14 4.5 17.1 0 .1 5.9 9.7 11.1 8.6 2.4-.5 3.7-2.8 3.8-6.8.3-9.7 1.5-17.1 1.6-18 .2-.5 1.6-3.9 6.9-9.6 14.2-14.9 14.7-20.9 15.2-26.2l.1-1.2v-.7c0-5.7-7.5-7.3-12-8.2-.9-.2-2.2-.5-2.6-.6-.6-.3-.8-1.1-1.2-3.4l-.3-1.5c-.8-4.3-4.3-6.5-9.6-9.9-5.9-3.7-17.3-3-22-2.1-.4-.8-.7-1.5-.7-2v-.1c1.2-1.3 1.9-2.8 1.9-4.5 0-.8-.2-1.7-.5-2.5-.5-1.4-1.5-2-2.6-2zM794.6 214.7c-1.9 1.3-4.1 4-4.1 8.9v.4c.2 8.5 12.2 10.5 17.3 11.4l1.3.2c1 .2 1.3.3 1.3 3.6v.5c-.4-.1-.8-.2-1.1-.4l-.7-.3c-1.5-.5-4-1.3-6.1.1-2.2 1.4-2.7 4.3-2.8 6.3-.2 2.7.8 4.4 1.7 5.4 1.8 1.8 4.6 2.6 8.8 2.3h.8c.3.7.9 1.7 1.9 2.9.6.7.8 1.2.8 2 0 .4 0 .8-.1 1.4-.1.8-.1 1.6-.1 2.6 0 1.8.2 4.1 1 7 1.1 3.9 4.4 6.6 9.4 7.6 5.3 1.1 13.6 0 15.9-2.9.8-1 1.4-2.3 1.4-3.8 0-1.6-.8-3.4-2.9-5.3l-1.4-1c-1.1-.7-1.6-1.1-1.6-2.1v-.4c.4 0 1 .1 1.5.3.1.1.3.1.5.1 5.2 1 9.8 3.4 14.8 7.8l1.3 1.2c.9.9 2.4.9 3.3.1 1-.8 1.3-2.2.6-3.3-13.5-23.4-34.8-42.2-60.1-53.1-.9-.1-1.8 0-2.6.5zM810.7 320.5c-4.7 5.9-6.1 14.5-3.8 23.5 4.2 16.2 16.9 14.3 18.8 13.9 5-.7 8.2 2.8 9.5 6.2.6 1.6.7 10.4-1.2 16-1.5 4.7-.6 8.1.4 11.5.4 1.6.9 3.2 1.2 5.1.3 2.4 2 6.6 9.3 7.7.9.1 1.8-.2 2.4-.9 15.6-19.8 24.6-43.4 26-68.2.1-1.1-.8-2.2-1.8-2.6l-1.5-.6c-1.1-.6-1.1-.6-1.2-2-.1-1.9-.2-4.8-3.8-8.2-6.3-6-13.5-3.3-14.6-2.8-.2 0-4.8 1.5-10.1-.8l-3.6-1.9c-2.6-1.6-4-2.3-12.2-2.5-5.4-.1-10.3 2.2-13.8 6.6z" fill="#4A606B"/><radialGradient id="x" cx="827.204" cy="226.761" r="419.133" gradientUnits="userSpaceOnUse"><stop offset=".092" stop-color="#B5D88E"/><stop offset=".607" stop-color="#308F39"/></radialGradient><path d="M801.2 424.8c-2.5-1.2-18.6-1.1-23.5 1.1-4.9 2.2-19.7 2.7-27.1 3.2-7.4.5-10.5 2.5-14.4 6.4-3.9 4-6 5.7-17.6 5.7-11.6 0-18.4-5.6-21.6-6.3-2.3-.5-5.2.5-7.3 2.4 16.8 8.1 35.7 12.6 55.6 12.6 25.1 0 48.5-7.2 68.2-19.5-2.8-3.2-10.2-4.5-12.3-5.6z" fill="url(#x)"/><radialGradient id="y" cx="827.202" cy="226.768" r="419.115" gradientUnits="userSpaceOnUse"><stop offset=".092" stop-color="#B5D88E"/><stop offset=".607" stop-color="#308F39"/></radialGradient><path d="M673.6 233c1.9 1.3-1.2 3.5-4.4 5.4-3.2 1.9.2 4 1.7 5.6 1.3 1.4 5.6-.5 6.4-2.9.8-2.4 5.1-2.7 5.1-2.7 16.5 1.3 16-7.2 16.5-12.9.5-5.6-3.2-5.9-6.4-5.9-2.9 0-6.7 2.4-9.7 3-4.6 2.6-9.1 5.4-13.3 8.5 1.9.7 3.5 1.4 4.1 1.9z" fill="url(#y)"/><radialGradient id="z" cx="827.202" cy="226.769" r="419.115" gradientUnits="userSpaceOnUse"><stop offset=".092" stop-color="#B5D88E"/><stop offset=".607" stop-color="#308F39"/></radialGradient><path d="M657.7 324.2c-2.2-1.1-2.2-3.7-2.8-6.8-.6-3.1-3.1-4.8-8.4-8.2-5.3-3.4-16.5-2.5-20.5-1.7-.4.1-.9.3-1.3.6-.7-1-2.1-3.2-2.2-5l-.9 4.8c.4.7.8 1.4 1.1 2.1-.7 1-1.4 2.3-2 3.9-.6 4.7-.9 9.5-.9 14.4 0 3.6.2 7.1.5 10.6 2.2 4.6 5.9 6.3 7.9 8.8 3.1 3.7 4.2 12.1 4.5 20 .3 7.9 3.4 14.4 4.2 16.1.8 1.7 9.8 13.5 10.1 2.8.3-10.7 1.7-18.6 1.7-18.6s1.1-3.9 7.6-10.7c14.7-15.4 14-20.6 14.6-25.9.5-5.5-11-6.1-13.2-7.2zM624 296.8c-.4 1.5-.8 3.1-1.1 4.6l.3-.3c1.2-1.3 1.4-2.8.8-4.3zm11.5-10.4c2-1.1-2.8-5.1-3.4-6.5-.6-1.4 3.1-2 6.2-2 2 0 2.5-2.8 4.5-5.9 4.7-7.5 14.6-10.7 17.9-15.2 3.4-4.5-1.4-6.8-2.8-9.6-1-2-1.9-2.6-3.9-2.6-10.9 11.2-19.6 24.3-25.5 38.8 3 1.6 5.2 4 7 3z" fill="url(#z)"/><radialGradient id="A" cx="827.203" cy="226.768" r="419.116" gradientUnits="userSpaceOnUse"><stop offset=".092" stop-color="#B5D88E"/><stop offset=".607" stop-color="#308F39"/></radialGradient><path d="M837.6 259.1c5.4 1 10.3 3.4 16 8.4.5.5 1 .9 1.4 1.3-13.2-22.9-33.9-41.3-58.9-52-2.1 1.5-3.1 3.9-3 7.1.2 7.2 13.6 8.6 16.6 9.2 3 .6 3.4 2.5 3.3 6.5 0 4-2.5 2.8-5.2 1.9-2.7-.9-5.1-1.4-5.6 4.2-.4 4.3 3.5 5.2 7.8 4.9 4.3-.3 1.6.2 4.8 3.7 3.2 3.6-.2 5.4 2.2 14.1 2.4 8.7 18.8 6.4 20.8 3.8 2-2.5.3-4.3-1.1-5.6-1.4-1.3-4.1-1.9-3.8-5.7.1-3.7 4.7-1.8 4.7-1.8z" fill="url(#A)"/><radialGradient id="B" cx="827.205" cy="226.768" r="419.118" gradientUnits="userSpaceOnUse"><stop offset=".092" stop-color="#B5D88E"/><stop offset=".607" stop-color="#308F39"/></radialGradient><path d="M868.8 334.4c-5-2.5 0-5.3-5.6-10.7-5.6-5.3-12-2.2-12-2.2s-5.6 2-12-.8-3.6-3.9-14.8-4.2c-11.2-.3-19 11.8-15.1 26.9 3.9 15.1 15.9 12.1 15.9 12.1 5.9-.8 10.3 2.8 12.3 7.9.9 2.3.8 11.8-1.1 17.7-2 5.9.8 9.3 1.7 15.4.4 3.3 3.3 5 7.2 5.5 14.7-18.7 24-41.7 25.5-66.8-.7-.2-1.4-.5-2-.8z" fill="url(#B)"/><path d="M745.4 449.9c25.1 0 48.5-7.2 68.2-19.5-2.8-3.2-10.2-4.6-12.3-5.6-.3-.1-.8-.3-1.4-.4-17.5 7.5-37.5 9.1-56.9 6.3-2.6 1.1-4.6 2.6-6.8 4.9-3.9 4-6 5.7-17.6 5.7-11.6 0-18.4-5.6-21.6-6.3-2.3-.5-5.2.5-7.3 2.4 16.8 8 35.7 12.5 55.7 12.5zM647.7 375.7c-.7-.6-1.3-1.2-2-1.8-5.2-5.2-7.4-13.2-10.1-19.9-4.3-10.5-9-20.6-15.7-29.4 0 1.2-.1 2.4-.1 3.7 0 3.6.2 7.1.5 10.6 2.2 4.6 5.9 6.3 7.9 8.8 3.1 3.7 4.2 12.1 4.5 20 .3 7.9 3.4 14.4 4.2 16.1.8 1.7 9.8 13.5 10.1 2.8.1-4.2.4-7.9.7-10.9z" fill="#3C8C35"/><path d="M845.3 401.9c13.1-16.7 21.9-36.8 24.7-58.6-1.1 3-2.1 6.1-3.1 9.2-2.3 7.1-7.9 11.8-12.8 17.2-6.3 6.9-11.5 14.7-16.9 22.3.4 1.3.7 2.8 1 4.4.4 3.3 3.2 5 7.1 5.5z" fill="#4BA33F"/><g><path d="M798.4 309.3c2.9-2.6 8-3.5 10.7-1.8-.9.9 0 1.7.2 2.6 1.6 6.5 2.6 13.1-2.4 18.5-10 10.6-21.9 18.3-35.5 23.4-10.7 4-21.7 4.8-33.1 3.7-9.9-1-18.9-3.9-27.5-8.5-4-2.2-8.1-4.5-9.7-9.3-1.6-4.7-2-9.5-1.1-14.3.2-.9.7-1.9-.3-2.6-.9-.6-1.8-.1-2.7.3-4 1.7-6.1 5.2-8.2 8.6-6.5 10.3-6.1 22.5.9 30.4 5.6 6.3 12.3 11 20.2 14.1 3 1.2 5.5 2.5 7.7-1.3.8-1.3 2.5-2.1 3.8-3.1 10.8-7.9 22-9.3 33.8-2.3 1.3.8 2.2.7 3.5-.2 2.2-1.5 4.6-2.9 7.1-4.1 10.7-5 21.8-3.6 29.3 4 2.1 2.1 3.5 2 5.6.5 6.8-4.7 13.3-9.9 18.5-16.4 7.4-9.2 13.7-18.9 10.1-31.6 3 3 3 6.8 2.5 10.5-1.3 10.3-6 19.2-12.2 27.1-7.5 9.6-16.4 17.7-27.1 23.6-10.8 5.9-22.4 9.4-34.7 10-19.2.9-37.4-2.8-54.5-11.5-8.5-4.3-15.7-10.1-20.8-18.2-7.8-12.3-5.1-24.2 2-35.6 3.2-5.1 7.5-9.4 13.9-10.8 9.3-1.9 16.8 1.9 23.9 7.2 9.4 7.1 19.8 12.3 31.9 11.9 9-.3 17.1-3.4 23.9-9.5 3.4-3.1 6.8-6.3 10.1-9.4.8-.7 1.5-1.6 2.7-1.5l.5.5c-5.3 4.9-9.7 10.8-15.5 15.1-15.6 11.9-33.3 10.7-50.4.9-4.9-2.8-8.9-7-14.4-8.9-5.1-1.8-5.1-1.8-5.4 3.9-.7 11.2.8 13.6 10.8 18.6 11.4 5.7 23.4 8.1 36.1 7 18.8-1.6 34.4-10.1 48-23 5.6-5.3 6.4-9.2 3.5-16.5-1-4.4-3.6-2.2-5.7-2zm-77.7 68.9c7.4 2.2 14.5 3.2 21.8 3.9 16.4 1.5 32-.9 46.9-8 2.6-1.2 3.1-1.9.6-3.8-7.7-5.9-15.6-5.2-23.6-1.2-1.4.7-3.8 1.2-3.9 2.7-.1 1.6 2.2 2.1 3.6 2.8 1.6.9 3 1.8 2 3.8-1 2.2-2.8 1.9-4.6 1-3.3-1.6-6.3-3.7-9.2-6-10.1-7.8-25.4-5.8-33.6 4.8z" fill="#1F429A"/><path d="M829 319.8c3.7 12.8-2.6 22.5-10.1 31.6-5.2 6.5-11.7 11.6-18.5 16.4-2.1 1.5-3.5 1.6-5.6-.5-7.5-7.6-18.6-9-29.3-4-2.5 1.1-4.8 2.5-7.1 4.1-1.3.9-2.3.9-3.5.2-11.8-7-23-5.6-33.8 2.3-1.3 1-3 1.8-3.8 3.1-2.2 3.7-4.7 2.5-7.7 1.3-7.9-3.1-14.6-7.8-20.2-14.1-7-7.9-7.4-20-.9-30.4 2.1-3.4 4.3-6.9 8.2-8.6.9-.4 1.8-.9 2.7-.3 1 .6.5 1.6.3 2.6-.9 4.9-.5 9.6 1.1 14.3 1.6 4.8 5.7 7.2 9.7 9.3 8.6 4.6 17.6 7.6 27.5 8.5 11.4 1.1 22.4.3 33.1-3.7 13.6-5.1 25.6-12.8 35.5-23.4 5-5.3 4-12 2.4-18.5-.2-.9-1.1-1.6-.2-2.6l4.8.3c.3.1.6.3.9.4 6.6 2.1 11.4 5.9 14.5 11.7z" fill="#101A3C"/><path d="M790.5 313.5c1.3-1.6 2.8-2.9 5-2.8l.1.1c-1.5 1.1-3.1 2.1-4.6 3.2-.1-.2-.3-.3-.5-.5z" fill="#1F429A"/><path d="M707 209.4c.2-.6.1-1.4.9-1.7.1 0 .4.2.5.3.1.8-.5 1.2-1 1.6-.2 0-.3-.1-.4-.2z" fill="#DC5958"/><path d="M795.5 310.7c.5-1.4 1.6-1.5 2.8-1.4l.1.1c-.9.5-1.9.9-2.8 1.4l-.1-.1z" fill="#1F429A"/><path d="M814.8 308.3c-.3-.1-.6-.3-.9-.4.3.1.6.2.9.4z" fill="#86191A"/><path d="M803.6 311.1c2.9 7.3 2.1 11.2-3.5 16.5-13.5 12.8-29.2 21.3-48 23-12.6 1.1-24.7-1.3-36.1-7-10-5-11.5-7.5-10.8-18.6 1.4-.4 2.5.5 3.7 1 7.5 3.7 14.4 8.6 22.2 11.8 8.9 3.8 18.1 5.9 27.6 4.5 12.4-1.8 21.3-9.5 29.4-18.5 4.5-5.1 9.2-9.9 15.5-12.7z" fill="#FFF"/><path d="M720.7 378.2c8.3-10.6 23.5-12.5 33.6-4.7 2.9 2.3 5.9 4.3 9.2 6 1.7.8 3.5 1.1 4.6-1 .9-2-.4-3-2-3.8-1.4-.8-3.7-1.2-3.6-2.8.1-1.5 2.5-2 3.9-2.7 8.1-4 16-4.7 23.6 1.2 2.5 1.9 2 2.6-.6 3.8-14.9 7.1-30.5 9.5-46.9 8-7.3-.8-14.5-1.9-21.8-4z" fill="#AADEF8"/><path d="M803.6 311.1c-6.3 2.8-11 7.6-15.5 12.7-8 9-17 16.7-29.4 18.5-9.5 1.4-18.8-.7-27.6-4.5-7.8-3.3-14.7-8.1-22.2-11.8-1.2-.6-2.2-1.4-3.7-1 .3-5.7.3-5.7 5.4-3.9 5.5 1.9 9.5 6.1 14.4 8.9 17.1 9.8 34.9 11 50.4-.9 5.7-4.4 10.2-10.2 15.5-15.1 1.5-1.1 3.1-2.1 4.6-3.2.9-.5 1.9-.9 2.8-1.4 2.2-.3 4.8-2.5 5.3 1.7z" fill="#B9C5B8"/></g><path d="M902.4-357.7c.5-.8 1.2-1 2.1-.9-.4.8-1.1 1-1.9 1.1l-.2-.2zM789.4-357.7c-.3.3-.6.7-1 1 .4-.3.7-.6 1-1zM789.5-357.6c.1-.1.1-.3.2-.4-.1.1-.2.2-.2.4-.1-.1 0 0 0 0zM904.5-358.7l.4-.4c0 .1 0 .2-.1.3-.1 0-.2.1-.3.1z" fill="#CA000B"/><path d="M711.8 306.8c-4.5-8.9-3.5-17.8.5-26.3 7.1-15.1 19.1-23.4 35.8-25 17.3-1.6 30.6 5 40.1 19.3 3.7 5.5 5.3 11.8 4.2 19.2-10.2-17.7-25.2-26.4-45.1-23.4-20.1 3.2-31 16.7-35.5 36.2z" fill="#3360AB"/></g><g><path d="M1372.2 297.8c-4.3-16.2-11.9-31.5-22.4-45-24.9-32-64.2-50.2-104.5-50.4-41.4-.2-81.2 19.8-106 52.9-15.8 21.2-24.3 47.3-24.4 73.7.2 40.9 20.6 78.7 53.7 102.5 33.7 24.3 78 30.8 117.5 18.6 39.1-12.1 71-42.9 84.1-81.7 7.9-23 8.2-47.7 2-70.6z" fill="#4A606B"/><radialGradient id="C" cx="1280.895" cy="260.147" r="217.22" gradientUnits="userSpaceOnUse"><stop offset=".123" stop-color="#EBF7FD"/><stop offset=".718" stop-color="#48C7F4"/></radialGradient><path d="M1370.9 328.2c0 67.2-56.2 121.7-125.6 121.7-69.4 0-125.6-54.5-125.6-121.7s56.2-121.7 125.6-121.7c69.4-.1 125.6 54.4 125.6 121.7z" fill="url(#C)"/><radialGradient id="D" cx="1280.895" cy="275.266" r="203.206" gradientUnits="userSpaceOnUse"><stop offset=".11" stop-color="#DBEAF7"/><stop offset=".718" stop-color="#51AEE1"/></radialGradient><path d="M1119.8 328.2c0 67.2 56.2 121.7 125.6 121.7 69.3 0 125.6-54.5 125.6-121.7 0-29.1-10.5-55.8-28.1-76.8 2.7 7.6 5.3 15.2 6.9 23.1 2.6 12.3-1.4 22.7-8.8 32.2-5.6 7.1-9.6 15.8-15.9 22.3-1.1 1.1-2.3 2-3.7 2.7-2.3-1.8-3.1 8.5-27.2 33-13.4 13.4-35.1 5.4-38.8 3.7-14.2-6.4-25.4-12.5-40.2-20.3-13.1-6.9-13.6-19.9-26.8-26.4-10-5-23.2-10.3-22.6-22.9.2-5.4-2.7-8.7-6.5-10.1-.1-1.3-.1-2.6-.1-4 .2-12.4 4.8-25.2 10.1-36.2 1.6-3.2 1.6-6.3.6-9 2.8-4.4 5.4-8.9 7.6-13.6-34.7 21.6-57.7 59.3-57.7 102.3z" fill="url(#D)"/><path d="M1245.4 449.9c64.1 0 116.9-46.5 124.6-106.6-1.1 3-2.1 6.1-3.1 9.2-2.3 7.1-7.9 11.8-12.8 17.2-9.5 10.3-16.4 22.7-25.4 33.5-21.6 25.8-55.8 32.4-88 27.2-17.6-2.9-34-9.6-50.4-16.2-6.9-2.8-13.3-5.6-18.4-11.2-4.7-5.2-8.1-11.5-12.8-16.7-4.1-4.5-9.1-8.1-13.4-12.4-5.2-5.2-7.4-13.2-10.1-19.9-4.3-10.5-9-20.6-15.7-29.4 0 1.2-.1 2.4-.1 3.7 0 67.1 56.2 121.6 125.6 121.6z" fill="#549BCE"/><radialGradient id="E" cx="1347.596" cy="217.563" r="263.296" gradientTransform="matrix(1 0 0 1.0974 0 -45.9)" gradientUnits="userSpaceOnUse"><stop offset=".104" stop-color="#FFF"/><stop offset=".693" stop-color="#CEECFB"/></radialGradient><path d="M1304.6 251.9c-21.1-16.4-61.6-22.4-84.2-7.9-7.8 5-8.5 14.1-5.2 21-.2.5-.4 1-.6 1.6-4.9 15.2 6.5 31 18.4 36.8 13 6.4 27.5 7.7 41.5 9.6 14.2 2 34.4-6.6 42.2-20.2 9.4-16.5.6-31.1-12.1-40.9z" fill="url(#E)"/><radialGradient id="F" cx="1263.588" cy="249.994" r="162.237" gradientUnits="userSpaceOnUse"><stop offset=".27" stop-color="#A9D1EF"/><stop offset=".398" stop-color="#A4CEED"/><stop offset=".55" stop-color="#96C5E9"/><stop offset=".713" stop-color="#7EB6E1"/><stop offset=".884" stop-color="#5DA2D7"/><stop offset="1" stop-color="#4291CE"/></radialGradient><path d="M1162.1 319.2s-.5-.1-.9-.2l-.2-1-.3-1.5c-1.1-5.8-5.5-8.6-11.1-12.2-5.5-3.5-14.1-3.7-19.9-3.2.3-.9.5-1.8.5-2.7 0-1.3-.3-2.6-.8-3.8-.7-1.7-2.1-2.9-3.8-3.4-3.9 11.7-5.9 24.1-5.9 37.1 0 7.3.7 14.5 2 21.5 0 0 .1 0 .1.1-.1-.1 1.4 1.3 1.8 1.7.5.7 2.6 4.1 3 16.3v.4c3.5 9.9 8.3 19.2 14.2 27.7 1.7.8 3.5 1.2 5.4.8 2.3-.5 6.3-2.5 6.5-10.1.2-8.7 1.2-15.5 1.5-17.2.2-.6 1.5-3.4 6.1-8.2 15-15.7 15.6-22.4 16.1-28.3l.1-1.2.1-1c.2-8.5-9.7-10.6-14.5-11.6zm-34.7-14c.4-.4.5-.8.8-1.2-.1.4-.4.8-.8 1.2z" fill="url(#F)"/><radialGradient id="G" cx="1263.588" cy="249.994" r="162.238" gradientUnits="userSpaceOnUse"><stop offset=".27" stop-color="#A9D1EF"/><stop offset=".398" stop-color="#A4CEED"/><stop offset=".55" stop-color="#96C5E9"/><stop offset=".713" stop-color="#7EB6E1"/><stop offset=".884" stop-color="#5DA2D7"/><stop offset="1" stop-color="#4291CE"/></radialGradient><path d="M1138.5 291.6c1.8-1 3-2.8 3.4-4.8l.1-1.2c0-.8-.2-1.6-.4-2.4 2.8-1.2 4.2-4 5.1-5.8 0 .1 1-1.9 1.2-2.2 2-3.2 5.9-5.7 9.3-8 3.2-2.1 6.3-4.1 8.4-6.9 1.6-2.1 2.4-4.3 2.4-6.5 0-3.9-2.5-6.7-3.8-8.2l-.9-1.1c-1.1-2.2-2.5-3.7-4.2-4.7-14.6 13.5-25.9 30.3-32.5 49.3.6.4 1.4.9 1.4.9 1.9 1.4 6 4.1 10.5 1.6z" fill="url(#G)"/><radialGradient id="H" cx="1263.588" cy="249.993" r="162.238" gradientUnits="userSpaceOnUse"><stop offset=".27" stop-color="#A9D1EF"/><stop offset=".398" stop-color="#A4CEED"/><stop offset=".55" stop-color="#96C5E9"/><stop offset=".713" stop-color="#7EB6E1"/><stop offset=".884" stop-color="#5DA2D7"/><stop offset="1" stop-color="#4291CE"/></radialGradient><path d="M1299.8 237.1c-3 2.6-3.5 6.7-3.6 8.1v1.1c0 2.7.9 5.2 2.7 7 2.3 2.4 5.6 3.5 10.2 3.4.4.5.6 1.1 1.1 1.6 0 .3-.1 1-.1 1l-.1 2.9c0 2.5.4 5.1 1.1 7.9 1.4 5.1 5.8 8.8 12 10 5.8 1.2 15.7.4 19.2-4.1 1.4-1.8 2.2-3.9 2.2-5.9 0-.7-.1-1.4-.3-2.1 1.8 1.1 3.6 2.3 5.4 4l1.3 1.2c1.9 1.7 4.7 2 6.9.9-14-27.2-38.2-48.7-67.7-59.6-1.9 2.4-3 5.6-3 9.2v.4c.2 7.6 6.8 11.1 12.7 13z" fill="url(#H)"/><radialGradient id="I" cx="1263.588" cy="249.994" r="162.238" gradientUnits="userSpaceOnUse"><stop offset=".27" stop-color="#A9D1EF"/><stop offset=".398" stop-color="#A4CEED"/><stop offset=".55" stop-color="#96C5E9"/><stop offset=".713" stop-color="#7EB6E1"/><stop offset=".884" stop-color="#5DA2D7"/><stop offset="1" stop-color="#4291CE"/></radialGradient><path d="M1370.8 324.2c-.7-1.5-1.8-3-3.5-4.7-7.5-7.2-15.9-4.4-18-3.6-.2.1-3.7 1.1-7.7-.7.1 0 .1.1.2.2-.8-.5-1.9-1.1-3.5-1.9-3.1-2-5.2-2.7-13.8-2.9-6.5-.2-12.4 2.6-16.6 7.9-3.7 4.6-5.6 10.6-5.6 17.2 0 3 .4 6.1 1.2 9.3 5 19.4 20.9 16.8 22.7 16.4 3.5-.5 5.1 2.7 5.7 4.1.3 1.3.4 8.9-1.2 13.7-1.9 5.7-.6 10 .3 13.5.4 1.5.8 3 1.1 4.6.3 2.4 1.8 7.6 8.8 9.8 18.7-21.2 29.9-48.8 29.9-78.9.1-1.4.1-2.7 0-4z" fill="url(#I)"/><radialGradient id="J" cx="1263.589" cy="249.993" r="162.24" gradientUnits="userSpaceOnUse"><stop offset=".27" stop-color="#A9D1EF"/><stop offset=".398" stop-color="#A4CEED"/><stop offset=".55" stop-color="#96C5E9"/><stop offset=".713" stop-color="#7EB6E1"/><stop offset=".884" stop-color="#5DA2D7"/><stop offset="1" stop-color="#4291CE"/></radialGradient><path d="M1199.3 240.3c4.7-4 5.2-9.8 5.4-13.2l.1-1.1c.3-3.7-.5-6.7-2.5-8.9-.9-1-1.9-1.7-2.9-2.2-13.4 5.1-25.6 12.4-36.3 21.3-.7 1.2-1 2.3-1.1 3v.8c0 3.6 2.5 5.9 4 7.3-.1 0 .7.7.7.7 1.8 1.9 4.6 2.7 7.7 2 2.8-.6 6.1-2.7 7.8-5.8.1 0 .3-.1.5-.1 7.5.7 12.9-.6 16.6-3.8zm-16.6 3.2l-.1.1c.1-.3.3-.5.4-.8-.1.6.1.4-.3.7z" fill="url(#J)"/><radialGradient id="K" cx="1263.589" cy="249.988" r="162.242" gradientUnits="userSpaceOnUse"><stop offset=".27" stop-color="#A9D1EF"/><stop offset=".398" stop-color="#A4CEED"/><stop offset=".55" stop-color="#96C5E9"/><stop offset=".713" stop-color="#7EB6E1"/><stop offset=".884" stop-color="#5DA2D7"/><stop offset="1" stop-color="#4291CE"/></radialGradient><path d="M1305.9 420.2c.1 0-2.5-.8-2.5-.8.1 0 .3.1.4.2-4.6-2.3-22.8-1.7-28.7 1-3.1 1.4-15.2 2.1-21 2.5l-4 .2c-9.2.6-13.6 3.4-18.3 8.2-3 3.1-3.8 3.9-13.3 3.9-7 0-11.9-2.4-15.4-4.2-1.7-.9-3.2-1.6-4.8-2-4.1-1-8.9.5-12.6 3.7-.6.5-1 1.1-1.4 1.8 18 9.7 38.8 15.3 60.9 15.3 27.3 0 52.5-8.5 73.1-22.8-.1-.2-.3-.5-.5-.7-2.9-3.6-8.1-5.2-11.9-6.3z" fill="url(#K)"/><path d="M1276.6 423.6c-3.7 1.7-15.3 2.4-22.2 2.8l-3.9.2c-8.2.6-11.8 2.9-16.1 7.2-3.4 3.5-4.8 4.9-15.7 4.9-7.8 0-13.3-2.8-17-4.6-1.6-.8-2.9-1.4-4-1.7-3-.7-6.7.4-9.6 3-.6.6-1 1.4-.8 2.3.1.8.7 1.6 1.4 2 17.8 8.5 36.9 12.9 56.7 12.9 24.7 0 48.8-6.9 69.5-19.9.6-.4 1.1-1.1 1.2-1.8.1-.7-.1-1.5-.6-2.1-2.5-2.8-7.1-4.3-10.5-5.3l-2.6-.9c-3.5-1.8-20.5-1.4-25.8 1zM1185.9 218.9c-1.3.5-2.6 1.1-3.6 1.3-.2.1-.5.1-.7.3-4.8 2.7-9.3 5.6-13.5 8.7-.7.5-1 1.2-1 2.1v.3c.1.9.7 1.7 1.6 2 .9.3 1.5.6 2 .8-.6.4-1.4 1-2.7 1.8-1.9 1.1-2.4 2.5-2.6 3.5v.4c0 2.1 1.7 3.7 2.9 4.8l.8.8c.6.7 2 1.7 4.6 1.1 2.4-.5 5.3-2.4 6.1-5 .2-.3 1.5-.8 2.7-.9 6.7.5 11.5-.5 14.6-3.1 3.6-3.1 4-7.6 4.3-10.9l.1-1.1c.3-2.7-.3-4.9-1.7-6.4-2.1-2.3-5.3-2.3-7.3-2.3-2.1-.1-4.4.9-6.6 1.8zM1152.2 242.9c-11.3 11.6-20 24.9-26 39.6-.5 1.2.1 2.6 1.2 3.2l2.2 1.4c2 1.3 4.5 3 7.1 1.5.9-.5 1.5-1.4 1.7-2.4v-.6c0-1.8-1.3-3.4-2.6-5 .7-.1 1.5-.1 2.4-.1 2.9 0 4.2-2.4 5.3-4.6l1.4-2.5c2.4-3.8 6.6-6.6 10.3-9 3-1.9 5.8-3.8 7.5-6 1.2-1.7 1.7-3.2 1.7-4.5 0-2.7-1.8-4.7-2.9-6-.6-.6-1.1-1.2-1.3-1.7-1.4-2.8-3.2-4-6.1-4-.7-.1-1.4.2-1.9.7zm-28.3 51.3c-1.1.1-2 .8-2.3 1.9l-1.2 4.7c0 .2-.1.4-.1.6 0 .1.1.2.1.4-.2.3-.4.5-.5.8l-.9 4.9v.4c0 .5.2 1 .4 1.4 0 0 .2.4.4.6-.5.9-1 1.9-1.4 3-.1.2-.1.4-.1.6-.6 5.1-.9 9.9-.9 14.7 0 3.4.2 7 .5 10.9 0 .3.1.6.2.9 1.7 3.6 4.1 5.6 6.1 7.3l2.2 2c1.3 1.5 3.4 5.9 3.9 18.5.3 7.6 2.9 14 4.5 17.1 0 .1 5.9 9.7 11.1 8.6 2.4-.5 3.7-2.8 3.8-6.8.3-9.7 1.5-17.1 1.6-18 .2-.5 1.6-3.9 6.9-9.6 14.2-14.9 14.7-20.9 15.2-26.2l.1-1.2v-.7c0-5.7-7.5-7.3-12-8.2-.9-.2-2.2-.5-2.6-.6-.6-.3-.8-1.1-1.2-3.4l-.3-1.5c-.8-4.3-4.3-6.5-9.6-9.9-5.9-3.7-17.3-3-22-2.1-.4-.8-.7-1.5-.7-2v-.1c1.2-1.3 1.9-2.8 1.9-4.5 0-.8-.2-1.7-.5-2.5-.5-1.4-1.5-2-2.6-2zM1294.6 214.7c-1.9 1.3-4.1 4-4.1 8.9v.4c.2 8.5 12.2 10.5 17.3 11.4l1.3.2c1 .2 1.3.3 1.3 3.6v.5c-.4-.1-.8-.2-1.1-.4l-.7-.3c-1.5-.5-4-1.3-6.1.1-2.2 1.4-2.7 4.3-2.8 6.3-.2 2.7.8 4.4 1.7 5.4 1.8 1.8 4.6 2.6 8.8 2.3h.8c.3.7.9 1.7 1.9 2.9.6.7.8 1.2.8 2 0 .4 0 .8-.1 1.4-.1.8-.1 1.6-.1 2.6 0 1.8.2 4.1 1 7 1.1 3.9 4.4 6.6 9.4 7.6 5.3 1.1 13.6 0 15.9-2.9.8-1 1.4-2.3 1.4-3.8 0-1.6-.8-3.4-2.9-5.3l-1.4-1c-1.1-.7-1.6-1.1-1.6-2.1v-.4c.4 0 1 .1 1.5.3.1.1.3.1.5.1 5.2 1 9.8 3.4 14.8 7.8l1.3 1.2c.9.9 2.4.9 3.3.1 1-.8 1.3-2.2.6-3.3-13.5-23.4-34.8-42.2-60.1-53.1-.9-.1-1.8 0-2.6.5zM1310.7 320.5c-4.7 5.9-6.1 14.5-3.8 23.5 4.2 16.2 16.9 14.3 18.8 13.9 5-.7 8.2 2.8 9.5 6.2.6 1.6.7 10.4-1.2 16-1.5 4.7-.6 8.1.4 11.5.4 1.6.9 3.2 1.2 5.1.3 2.4 2 6.6 9.3 7.7.9.1 1.8-.2 2.4-.9 15.6-19.8 24.6-43.4 26-68.2.1-1.1-.8-2.2-1.8-2.6l-1.5-.6c-1.1-.6-1.1-.6-1.2-2-.1-1.9-.2-4.8-3.8-8.2-6.3-6-13.5-3.3-14.6-2.8-.2 0-4.8 1.5-10.1-.8l-3.6-1.9c-2.6-1.6-4-2.3-12.2-2.5-5.4-.1-10.3 2.2-13.8 6.6z" fill="#4A606B"/><radialGradient id="L" cx="1327.204" cy="226.761" r="419.133" gradientUnits="userSpaceOnUse"><stop offset=".092" stop-color="#B5D88E"/><stop offset=".607" stop-color="#308F39"/></radialGradient><path d="M1301.2 424.8c-2.5-1.2-18.6-1.1-23.5 1.1-4.9 2.2-19.7 2.7-27.1 3.2-7.4.5-10.5 2.5-14.4 6.4-3.9 4-6 5.7-17.6 5.7-11.6 0-18.4-5.6-21.6-6.3-2.3-.5-5.2.5-7.3 2.4 16.8 8.1 35.7 12.6 55.6 12.6 25.1 0 48.5-7.2 68.2-19.5-2.8-3.2-10.2-4.5-12.3-5.6z" fill="url(#L)"/><radialGradient id="M" cx="1327.202" cy="226.768" r="419.115" gradientUnits="userSpaceOnUse"><stop offset=".092" stop-color="#B5D88E"/><stop offset=".607" stop-color="#308F39"/></radialGradient><path d="M1173.6 233c1.9 1.3-1.2 3.5-4.4 5.4-3.2 1.9.2 4 1.7 5.6 1.3 1.4 5.6-.5 6.4-2.9.8-2.4 5.1-2.7 5.1-2.7 16.5 1.3 16-7.2 16.5-12.9.5-5.6-3.2-5.9-6.4-5.9-2.9 0-6.7 2.4-9.7 3-4.6 2.6-9.1 5.4-13.3 8.5 1.9.7 3.5 1.4 4.1 1.9z" fill="url(#M)"/><radialGradient id="N" cx="1327.202" cy="226.769" r="419.115" gradientUnits="userSpaceOnUse"><stop offset=".092" stop-color="#B5D88E"/><stop offset=".607" stop-color="#308F39"/></radialGradient><path d="M1157.7 324.2c-2.2-1.1-2.2-3.7-2.8-6.8-.6-3.1-3.1-4.8-8.4-8.2-5.3-3.4-16.5-2.5-20.5-1.7-.4.1-.9.3-1.3.6-.7-1-2.1-3.2-2.2-5l-.9 4.8c.4.7.8 1.4 1.1 2.1-.7 1-1.4 2.3-2 3.9-.6 4.7-.9 9.5-.9 14.4 0 3.6.2 7.1.5 10.6 2.2 4.6 5.9 6.3 7.9 8.8 3.1 3.7 4.2 12.1 4.5 20 .3 7.9 3.4 14.4 4.2 16.1.8 1.7 9.8 13.5 10.1 2.8.3-10.7 1.7-18.6 1.7-18.6s1.1-3.9 7.6-10.7c14.7-15.4 14-20.6 14.6-25.9.5-5.5-11-6.1-13.2-7.2zm-33.7-27.4c-.4 1.5-.8 3.1-1.1 4.6l.3-.3c1.2-1.3 1.4-2.8.8-4.3zm11.5-10.4c2-1.1-2.8-5.1-3.4-6.5-.6-1.4 3.1-2 6.2-2 2 0 2.5-2.8 4.5-5.9 4.7-7.5 14.6-10.7 17.9-15.2 3.4-4.5-1.4-6.8-2.8-9.6-1-2-1.9-2.6-3.9-2.6-10.9 11.2-19.6 24.3-25.5 38.8 3 1.6 5.2 4 7 3z" fill="url(#N)"/><radialGradient id="O" cx="1327.203" cy="226.768" r="419.116" gradientUnits="userSpaceOnUse"><stop offset=".092" stop-color="#B5D88E"/><stop offset=".607" stop-color="#308F39"/></radialGradient><path d="M1337.6 259.1c5.4 1 10.3 3.4 16 8.4.5.5 1 .9 1.4 1.3-13.2-22.9-33.9-41.3-58.9-52-2.1 1.5-3.1 3.9-3 7.1.2 7.2 13.6 8.6 16.6 9.2 3 .6 3.4 2.5 3.3 6.5 0 4-2.5 2.8-5.2 1.9-2.7-.9-5.1-1.4-5.6 4.2-.4 4.3 3.5 5.2 7.8 4.9 4.3-.3 1.6.2 4.8 3.7 3.2 3.6-.2 5.4 2.2 14.1 2.4 8.7 18.8 6.4 20.8 3.8 2-2.5.3-4.3-1.1-5.6-1.4-1.3-4.1-1.9-3.8-5.7.1-3.7 4.7-1.8 4.7-1.8z" fill="url(#O)"/><radialGradient id="P" cx="1327.205" cy="226.768" r="419.118" gradientUnits="userSpaceOnUse"><stop offset=".092" stop-color="#B5D88E"/><stop offset=".607" stop-color="#308F39"/></radialGradient><path d="M1368.8 334.4c-5-2.5 0-5.3-5.6-10.7-5.6-5.3-12-2.2-12-2.2s-5.6 2-12-.8-3.6-3.9-14.8-4.2c-11.2-.3-19 11.8-15.1 26.9 3.9 15.1 15.9 12.1 15.9 12.1 5.9-.8 10.3 2.8 12.3 7.9.9 2.3.8 11.8-1.1 17.7-2 5.9.8 9.3 1.7 15.4.4 3.3 3.3 5 7.2 5.5 14.7-18.7 24-41.7 25.5-66.8-.7-.2-1.4-.5-2-.8z" fill="url(#P)"/><path d="M1245.4 449.9c25.1 0 48.5-7.2 68.2-19.5-2.8-3.2-10.2-4.6-12.3-5.6-.3-.1-.8-.3-1.4-.4-17.5 7.5-37.5 9.1-56.9 6.3-2.6 1.1-4.6 2.6-6.8 4.9-3.9 4-6 5.7-17.6 5.7-11.6 0-18.4-5.6-21.6-6.3-2.3-.5-5.2.5-7.3 2.4 16.8 8 35.7 12.5 55.7 12.5zM1147.7 375.7c-.7-.6-1.3-1.2-2-1.8-5.2-5.2-7.4-13.2-10.1-19.9-4.3-10.5-9-20.6-15.7-29.4 0 1.2-.1 2.4-.1 3.7 0 3.6.2 7.1.5 10.6 2.2 4.6 5.9 6.3 7.9 8.8 3.1 3.7 4.2 12.1 4.5 20 .3 7.9 3.4 14.4 4.2 16.1.8 1.7 9.8 13.5 10.1 2.8.1-4.2.4-7.9.7-10.9z" fill="#3C8C35"/><path d="M1345.3 401.9c13.1-16.7 21.9-36.8 24.7-58.6-1.1 3-2.1 6.1-3.1 9.2-2.3 7.1-7.9 11.8-12.8 17.2-6.3 6.9-11.5 14.7-16.9 22.3.4 1.3.7 2.8 1 4.4.4 3.3 3.2 5 7.1 5.5z" fill="#4BA33F"/><g><path d="M1298.4 309.3c2.9-2.6 8-3.5 10.7-1.8-.9.9 0 1.7.2 2.6 1.6 6.5 2.6 13.1-2.4 18.5-10 10.6-21.9 18.3-35.5 23.4-10.7 4-21.7 4.8-33.1 3.7-9.9-1-18.9-3.9-27.5-8.5-4-2.2-8.1-4.5-9.7-9.3-1.6-4.7-2-9.5-1.1-14.3.2-.9.7-1.9-.3-2.6-.9-.6-1.8-.1-2.7.3-4 1.7-6.1 5.2-8.2 8.6-6.5 10.3-6.1 22.5.9 30.4 5.6 6.3 12.3 11 20.2 14.1 3 1.2 5.5 2.5 7.7-1.3.8-1.3 2.5-2.1 3.8-3.1 10.8-7.9 22-9.3 33.8-2.3 1.3.8 2.2.7 3.5-.2 2.2-1.5 4.6-2.9 7.1-4.1 10.7-5 21.8-3.6 29.3 4 2.1 2.1 3.5 2 5.6.5 6.8-4.7 13.3-9.9 18.5-16.4 7.4-9.2 13.7-18.9 10.1-31.6 3 3 3 6.8 2.5 10.5-1.3 10.3-6 19.2-12.2 27.1-7.5 9.6-16.4 17.7-27.1 23.6-10.8 5.9-22.4 9.4-34.7 10-19.2.9-37.4-2.8-54.5-11.5-8.5-4.3-15.7-10.1-20.8-18.2-7.8-12.3-5.1-24.2 2-35.6 3.2-5.1 7.5-9.4 13.9-10.8 9.3-1.9 16.8 1.9 23.9 7.2 9.4 7.1 19.8 12.3 31.9 11.9 9-.3 17.1-3.4 23.9-9.5 3.4-3.1 6.8-6.3 10.1-9.4.8-.7 1.5-1.6 2.7-1.5l.5.5c-5.3 4.9-9.7 10.8-15.5 15.1-15.6 11.9-33.3 10.7-50.4.9-4.9-2.8-8.9-7-14.4-8.9-5.1-1.8-5.1-1.8-5.4 3.9-.7 11.2.8 13.6 10.8 18.6 11.4 5.7 23.4 8.1 36.1 7 18.8-1.6 34.4-10.1 48-23 5.6-5.3 6.4-9.2 3.5-16.5-1-4.4-3.6-2.2-5.7-2zm-77.7 68.9c7.4 2.2 14.5 3.2 21.8 3.9 16.4 1.5 32-.9 46.9-8 2.6-1.2 3.1-1.9.6-3.8-7.7-5.9-15.6-5.2-23.6-1.2-1.4.7-3.8 1.2-3.9 2.7-.1 1.6 2.2 2.1 3.6 2.8 1.6.9 3 1.8 2 3.8-1 2.2-2.8 1.9-4.6 1-3.3-1.6-6.3-3.7-9.2-6-10.1-7.8-25.4-5.8-33.6 4.8z" fill="#1F429A"/><path d="M1329 319.8c3.7 12.8-2.6 22.5-10.1 31.6-5.2 6.5-11.7 11.6-18.5 16.4-2.1 1.5-3.5 1.6-5.6-.5-7.5-7.6-18.6-9-29.3-4-2.5 1.1-4.8 2.5-7.1 4.1-1.3.9-2.3.9-3.5.2-11.8-7-23-5.6-33.8 2.3-1.3 1-3 1.8-3.8 3.1-2.2 3.7-4.7 2.5-7.7 1.3-7.9-3.1-14.6-7.8-20.2-14.1-7-7.9-7.4-20-.9-30.4 2.1-3.4 4.3-6.9 8.2-8.6.9-.4 1.8-.9 2.7-.3 1 .6.5 1.6.3 2.6-.9 4.9-.5 9.6 1.1 14.3 1.6 4.8 5.7 7.2 9.7 9.3 8.6 4.6 17.6 7.6 27.5 8.5 11.4 1.1 22.4.3 33.1-3.7 13.6-5.1 25.6-12.8 35.5-23.4 5-5.3 4-12 2.4-18.5-.2-.9-1.1-1.6-.2-2.6l4.8.3c.3.1.6.3.9.4 6.6 2.1 11.4 5.9 14.5 11.7z" fill="#101A3C"/><path d="M1290.5 313.5c1.3-1.6 2.8-2.9 5-2.8l.1.1c-1.5 1.1-3.1 2.1-4.6 3.2-.1-.2-.3-.3-.5-.5z" fill="#1F429A"/><path d="M1207 209.4c.2-.6.1-1.4.9-1.7.1 0 .4.2.5.3.1.8-.5 1.2-1 1.6-.2 0-.3-.1-.4-.2z" fill="#DC5958"/><path d="M1295.5 310.7c.5-1.4 1.6-1.5 2.8-1.4l.1.1c-.9.5-1.9.9-2.8 1.4l-.1-.1z" fill="#1F429A"/><path d="M1314.8 308.3c-.3-.1-.6-.3-.9-.4.3.1.6.2.9.4z" fill="#86191A"/><path d="M1303.6 311.1c2.9 7.3 2.1 11.2-3.5 16.5-13.5 12.8-29.2 21.3-48 23-12.6 1.1-24.7-1.3-36.1-7-10-5-11.5-7.5-10.8-18.6 1.4-.4 2.5.5 3.7 1 7.5 3.7 14.4 8.6 22.2 11.8 8.9 3.8 18.1 5.9 27.6 4.5 12.4-1.8 21.3-9.5 29.4-18.5 4.5-5.1 9.2-9.9 15.5-12.7z" fill="#FFF"/><path d="M1220.7 378.2c8.3-10.6 23.5-12.5 33.6-4.7 2.9 2.3 5.9 4.3 9.2 6 1.7.8 3.5 1.1 4.6-1 .9-2-.4-3-2-3.8-1.4-.8-3.7-1.2-3.6-2.8.1-1.5 2.5-2 3.9-2.7 8.1-4 16-4.7 23.6 1.2 2.5 1.9 2 2.6-.6 3.8-14.9 7.1-30.5 9.5-46.9 8-7.3-.8-14.5-1.9-21.8-4z" fill="#AADEF8"/><path d="M1303.6 311.1c-6.3 2.8-11 7.6-15.5 12.7-8 9-17 16.7-29.4 18.5-9.5 1.4-18.8-.7-27.6-4.5-7.8-3.3-14.7-8.1-22.2-11.8-1.2-.6-2.2-1.4-3.7-1 .3-5.7.3-5.7 5.4-3.9 5.5 1.9 9.5 6.1 14.4 8.9 17.1 9.8 34.9 11 50.4-.9 5.7-4.4 10.2-10.2 15.5-15.1 1.5-1.1 3.1-2.1 4.6-3.2.9-.5 1.9-.9 2.8-1.4 2.2-.3 4.8-2.5 5.3 1.7z" fill="#B9C5B8"/><g opacity=".35"><path d="M1249.5 229.5c23.3-.8 45.1 19.4 45.2 45.1.1 25.7-21 46.6-46.6 46.1-24.6-.4-45.1-21.1-45.1-46.3 0-24.3 20.9-46.1 46.5-44.9zm1.3 80.5c21.9.8 38.1-18.2 38-37-.1-21.3-18-38.3-37.7-37.9-21 .4-37.2 16.6-37.5 37.7-.4 20.7 18.3 38.2 37.2 37.2z" fill="#3360AB"/><path d="M1250.8 310c-18.9 1-37.6-16.4-37.3-37.3.3-21 16.5-37.2 37.5-37.7 19.8-.4 37.6 16.6 37.7 37.9.2 18.9-16 37.9-37.9 37.1zm18.5-54.2c-1.8 6.6-5.5 9.7-11.4 9.2-5-.4-7.6-3.7-9.3-8-.5-4.4 1-8.1 5-11.4-2 .3-3.2.3-4.3.6-15.2 3.6-23.5 19.9-17.7 34.4.8 2 1.6 2.8 4 2.3 6.9-1.4 11.6 2.9 10.8 10-.2 2.3.9 2.6 2.4 3 17.9 4.6 33.7-9.6 32.2-26.9-.8-8.8-5.1-15.6-13.3-19.8 1.1 2 1.5 4.3 1.6 6.6z" fill="#FFF"/><path d="M1248.6 257c1.7 4.3 4.3 7.6 9.3 8 5.9.5 9.6-2.6 11.4-9.2 6.8 4.3 10 12.1 8.1 19.6-1.8 7.2-8.8 13.2-15.9 13.7-8.2.5-15.6-3.9-18.5-11.1-3.2-7.8-1.1-15.4 5.6-21z" fill="#11213C"/><path d="M1248.6 257c-6.7 5.6-8.7 13.2-5.6 21 2.9 7.2 10.3 11.7 18.5 11.1 7.1-.4 14.1-6.5 15.9-13.7 1.9-7.5-1.3-15.3-8.1-19.6 0-2.4-.5-4.6-1.5-6.8 8.2 4.2 12.6 11 13.3 19.8 1.5 17.3-14.3 31.5-32.2 26.9-1.5-.4-2.7-.7-2.4-3 .8-7-3.9-11.3-10.8-10-2.4.5-3.2-.3-4-2.3-5.8-14.5 2.5-30.8 17.7-34.4 1.1-.3 2.3-.3 4.3-.6-4.1 3.6-5.7 7.2-5.1 11.6z" fill="#4A9AD4"/></g></g><path d="M1211.8 306.8c-4.5-8.9-3.5-17.8.5-26.3 7.1-15.1 19.1-23.4 35.8-25 17.3-1.6 30.6 5 40.1 19.3 3.7 5.5 5.3 11.8 4.2 19.2-10.2-17.7-25.2-26.4-45.1-23.4-20.1 3.2-31 16.7-35.5 36.2z" opacity=".8" fill="#3360AB"/></g><g><path d="M1872.2 297.8c-4.3-16.2-11.9-31.5-22.4-45-24.9-32-64.2-50.2-104.5-50.4-41.4-.2-81.2 19.8-106 52.9-15.8 21.2-24.3 47.3-24.4 73.7.2 40.9 20.6 78.7 53.7 102.5 33.7 24.3 78 30.8 117.5 18.6 39.1-12.1 71-42.9 84.1-81.7 7.9-23 8.2-47.7 2-70.6z" fill="#4A606B"/><radialGradient id="Q" cx="1780.895" cy="260.147" r="217.22" gradientUnits="userSpaceOnUse"><stop offset=".123" stop-color="#EBF7FD"/><stop offset=".718" stop-color="#48C7F4"/></radialGradient><path d="M1870.9 328.2c0 67.2-56.2 121.7-125.6 121.7-69.4 0-125.6-54.5-125.6-121.7s56.2-121.7 125.6-121.7c69.4-.1 125.6 54.4 125.6 121.7z" fill="url(#Q)"/><radialGradient id="R" cx="1780.895" cy="275.266" r="203.206" gradientUnits="userSpaceOnUse"><stop offset=".11" stop-color="#DBEAF7"/><stop offset=".718" stop-color="#51AEE1"/></radialGradient><path d="M1619.8 328.2c0 67.2 56.2 121.7 125.6 121.7 69.3 0 125.6-54.5 125.6-121.7 0-29.1-10.5-55.8-28.1-76.8 2.7 7.6 5.3 15.2 6.9 23.1 2.6 12.3-1.4 22.7-8.8 32.2-5.6 7.1-9.6 15.8-15.9 22.3-1.1 1.1-2.3 2-3.7 2.7-2.3-1.8-3.1 8.5-27.2 33-13.4 13.4-35.1 5.4-38.8 3.7-14.2-6.4-25.4-12.5-40.2-20.3-13.1-6.9-13.6-19.9-26.8-26.4-10-5-23.2-10.3-22.6-22.9.2-5.4-2.7-8.7-6.5-10.1-.1-1.3-.1-2.6-.1-4 .2-12.4 4.8-25.2 10.1-36.2 1.6-3.2 1.6-6.3.6-9 2.8-4.4 5.4-8.9 7.6-13.6-34.7 21.6-57.7 59.3-57.7 102.3z" fill="url(#R)"/><path d="M1745.4 449.9c64.1 0 116.9-46.5 124.6-106.6-1.1 3-2.1 6.1-3.1 9.2-2.3 7.1-7.9 11.8-12.8 17.2-9.5 10.3-16.4 22.7-25.4 33.5-21.6 25.8-55.8 32.4-88 27.2-17.6-2.9-34-9.6-50.4-16.2-6.9-2.8-13.3-5.6-18.4-11.2-4.7-5.2-8.1-11.5-12.8-16.7-4.1-4.5-9.1-8.1-13.4-12.4-5.2-5.2-7.4-13.2-10.1-19.9-4.3-10.5-9-20.6-15.7-29.4 0 1.2-.1 2.4-.1 3.7 0 67.1 56.2 121.6 125.6 121.6z" fill="#549BCE"/><radialGradient id="S" cx="1847.596" cy="217.563" r="263.296" gradientTransform="matrix(1 0 0 1.0974 0 -45.9)" gradientUnits="userSpaceOnUse"><stop offset=".104" stop-color="#FFF"/><stop offset=".693" stop-color="#CEECFB"/></radialGradient><path d="M1804.6 251.9c-21.1-16.4-61.6-22.4-84.2-7.9-7.8 5-8.5 14.1-5.2 21-.2.5-.4 1-.6 1.6-4.9 15.2 6.5 31 18.4 36.8 13 6.4 27.5 7.7 41.5 9.6 14.2 2 34.4-6.6 42.2-20.2 9.4-16.5.6-31.1-12.1-40.9z" fill="url(#S)"/><radialGradient id="T" cx="1763.588" cy="249.994" r="162.237" gradientUnits="userSpaceOnUse"><stop offset=".27" stop-color="#A9D1EF"/><stop offset=".398" stop-color="#A4CEED"/><stop offset=".55" stop-color="#96C5E9"/><stop offset=".713" stop-color="#7EB6E1"/><stop offset=".884" stop-color="#5DA2D7"/><stop offset="1" stop-color="#4291CE"/></radialGradient><path d="M1662.1 319.2s-.5-.1-.9-.2l-.2-1-.3-1.5c-1.1-5.8-5.5-8.6-11.1-12.2-5.5-3.5-14.1-3.7-19.9-3.2.3-.9.5-1.8.5-2.7 0-1.3-.3-2.6-.8-3.8-.7-1.7-2.1-2.9-3.8-3.4-3.9 11.7-5.9 24.1-5.9 37.1 0 7.3.7 14.5 2 21.5 0 0 .1 0 .1.1-.1-.1 1.4 1.3 1.8 1.7.5.7 2.6 4.1 3 16.3v.4c3.5 9.9 8.3 19.2 14.2 27.7 1.7.8 3.5 1.2 5.4.8 2.3-.5 6.3-2.5 6.5-10.1.2-8.7 1.2-15.5 1.5-17.2.2-.6 1.5-3.4 6.1-8.2 15-15.7 15.6-22.4 16.1-28.3l.1-1.2.1-1c.2-8.5-9.7-10.6-14.5-11.6zm-34.7-14c.4-.4.5-.8.8-1.2-.1.4-.4.8-.8 1.2z" fill="url(#T)"/><radialGradient id="U" cx="1763.588" cy="249.994" r="162.238" gradientUnits="userSpaceOnUse"><stop offset=".27" stop-color="#A9D1EF"/><stop offset=".398" stop-color="#A4CEED"/><stop offset=".55" stop-color="#96C5E9"/><stop offset=".713" stop-color="#7EB6E1"/><stop offset=".884" stop-color="#5DA2D7"/><stop offset="1" stop-color="#4291CE"/></radialGradient><path d="M1638.5 291.6c1.8-1 3-2.8 3.4-4.8l.1-1.2c0-.8-.2-1.6-.4-2.4 2.8-1.2 4.2-4 5.1-5.8 0 .1 1-1.9 1.2-2.2 2-3.2 5.9-5.7 9.3-8 3.2-2.1 6.3-4.1 8.4-6.9 1.6-2.1 2.4-4.3 2.4-6.5 0-3.9-2.5-6.7-3.8-8.2l-.9-1.1c-1.1-2.2-2.5-3.7-4.2-4.7-14.6 13.5-25.9 30.3-32.5 49.3.6.4 1.4.9 1.4.9 1.9 1.4 6 4.1 10.5 1.6z" fill="url(#U)"/><radialGradient id="V" cx="1763.588" cy="249.993" r="162.238" gradientUnits="userSpaceOnUse"><stop offset=".27" stop-color="#A9D1EF"/><stop offset=".398" stop-color="#A4CEED"/><stop offset=".55" stop-color="#96C5E9"/><stop offset=".713" stop-color="#7EB6E1"/><stop offset=".884" stop-color="#5DA2D7"/><stop offset="1" stop-color="#4291CE"/></radialGradient><path d="M1799.8 237.1c-3 2.6-3.5 6.7-3.6 8.1v1.1c0 2.7.9 5.2 2.7 7 2.3 2.4 5.6 3.5 10.2 3.4.4.5.6 1.1 1.1 1.6 0 .3-.1 1-.1 1l-.1 2.9c0 2.5.4 5.1 1.1 7.9 1.4 5.1 5.8 8.8 12 10 5.8 1.2 15.7.4 19.2-4.1 1.4-1.8 2.2-3.9 2.2-5.9 0-.7-.1-1.4-.3-2.1 1.8 1.1 3.6 2.3 5.4 4l1.3 1.2c1.9 1.7 4.7 2 6.9.9-14-27.2-38.2-48.7-67.7-59.6-1.9 2.4-3 5.6-3 9.2v.4c.2 7.6 6.8 11.1 12.7 13z" fill="url(#V)"/><radialGradient id="W" cx="1763.588" cy="249.994" r="162.238" gradientUnits="userSpaceOnUse"><stop offset=".27" stop-color="#A9D1EF"/><stop offset=".398" stop-color="#A4CEED"/><stop offset=".55" stop-color="#96C5E9"/><stop offset=".713" stop-color="#7EB6E1"/><stop offset=".884" stop-color="#5DA2D7"/><stop offset="1" stop-color="#4291CE"/></radialGradient><path d="M1870.8 324.2c-.7-1.5-1.8-3-3.5-4.7-7.5-7.2-15.9-4.4-18-3.6-.2.1-3.7 1.1-7.7-.7.1 0 .1.1.2.2-.8-.5-1.9-1.1-3.5-1.9-3.1-2-5.2-2.7-13.8-2.9-6.5-.2-12.4 2.6-16.6 7.9-3.7 4.6-5.6 10.6-5.6 17.2 0 3 .4 6.1 1.2 9.3 5 19.4 20.9 16.8 22.7 16.4 3.5-.5 5.1 2.7 5.7 4.1.3 1.3.4 8.9-1.2 13.7-1.9 5.7-.6 10 .3 13.5.4 1.5.8 3 1.1 4.6.3 2.4 1.8 7.6 8.8 9.8 18.7-21.2 29.9-48.8 29.9-78.9.1-1.4.1-2.7 0-4z" fill="url(#W)"/><radialGradient id="X" cx="1763.589" cy="249.993" r="162.24" gradientUnits="userSpaceOnUse"><stop offset=".27" stop-color="#A9D1EF"/><stop offset=".398" stop-color="#A4CEED"/><stop offset=".55" stop-color="#96C5E9"/><stop offset=".713" stop-color="#7EB6E1"/><stop offset=".884" stop-color="#5DA2D7"/><stop offset="1" stop-color="#4291CE"/></radialGradient><path d="M1699.3 240.3c4.7-4 5.2-9.8 5.4-13.2l.1-1.1c.3-3.7-.5-6.7-2.5-8.9-.9-1-1.9-1.7-2.9-2.2-13.4 5.1-25.6 12.4-36.3 21.3-.7 1.2-1 2.3-1.1 3v.8c0 3.6 2.5 5.9 4 7.3-.1 0 .7.7.7.7 1.8 1.9 4.6 2.7 7.7 2 2.8-.6 6.1-2.7 7.8-5.8.1 0 .3-.1.5-.1 7.5.7 12.9-.6 16.6-3.8zm-16.6 3.2l-.1.1c.1-.3.3-.5.4-.8-.1.6.1.4-.3.7z" fill="url(#X)"/><radialGradient id="Y" cx="1763.589" cy="249.988" r="162.242" gradientUnits="userSpaceOnUse"><stop offset=".27" stop-color="#A9D1EF"/><stop offset=".398" stop-color="#A4CEED"/><stop offset=".55" stop-color="#96C5E9"/><stop offset=".713" stop-color="#7EB6E1"/><stop offset=".884" stop-color="#5DA2D7"/><stop offset="1" stop-color="#4291CE"/></radialGradient><path d="M1805.9 420.2c.1 0-2.5-.8-2.5-.8.1 0 .3.1.4.2-4.6-2.3-22.8-1.7-28.7 1-3.1 1.4-15.2 2.1-21 2.5l-4 .2c-9.2.6-13.6 3.4-18.3 8.2-3 3.1-3.8 3.9-13.3 3.9-7 0-11.9-2.4-15.4-4.2-1.7-.9-3.2-1.6-4.8-2-4.1-1-8.9.5-12.6 3.7-.6.5-1 1.1-1.4 1.8 18 9.7 38.8 15.3 60.9 15.3 27.3 0 52.5-8.5 73.1-22.8-.1-.2-.3-.5-.5-.7-2.9-3.6-8.1-5.2-11.9-6.3z" fill="url(#Y)"/><path d="M1776.6 423.6c-3.7 1.7-15.3 2.4-22.2 2.8l-3.9.2c-8.2.6-11.8 2.9-16.1 7.2-3.4 3.5-4.8 4.9-15.7 4.9-7.8 0-13.3-2.8-17-4.6-1.6-.8-2.9-1.4-4-1.7-3-.7-6.7.4-9.6 3-.6.6-1 1.4-.8 2.3.1.8.7 1.6 1.4 2 17.8 8.5 36.9 12.9 56.7 12.9 24.7 0 48.8-6.9 69.5-19.9.6-.4 1.1-1.1 1.2-1.8.1-.7-.1-1.5-.6-2.1-2.5-2.8-7.1-4.3-10.5-5.3l-2.6-.9c-3.5-1.8-20.5-1.4-25.8 1zM1685.9 218.9c-1.3.5-2.6 1.1-3.6 1.3-.2.1-.5.1-.7.3-4.8 2.7-9.3 5.6-13.5 8.7-.7.5-1 1.2-1 2.1v.3c.1.9.7 1.7 1.6 2 .9.3 1.5.6 2 .8-.6.4-1.4 1-2.7 1.8-1.9 1.1-2.4 2.5-2.6 3.5v.4c0 2.1 1.7 3.7 2.9 4.8l.8.8c.6.7 2 1.7 4.6 1.1 2.4-.5 5.3-2.4 6.1-5 .2-.3 1.5-.8 2.7-.9 6.7.5 11.5-.5 14.6-3.1 3.6-3.1 4-7.6 4.3-10.9l.1-1.1c.3-2.7-.3-4.9-1.7-6.4-2.1-2.3-5.3-2.3-7.3-2.3-2.1-.1-4.4.9-6.6 1.8zM1652.2 242.9c-11.3 11.6-20 24.9-26 39.6-.5 1.2.1 2.6 1.2 3.2l2.2 1.4c2 1.3 4.5 3 7.1 1.5.9-.5 1.5-1.4 1.7-2.4v-.6c0-1.8-1.3-3.4-2.6-5 .7-.1 1.5-.1 2.4-.1 2.9 0 4.2-2.4 5.3-4.6l1.4-2.5c2.4-3.8 6.6-6.6 10.3-9 3-1.9 5.8-3.8 7.5-6 1.2-1.7 1.7-3.2 1.7-4.5 0-2.7-1.8-4.7-2.9-6-.6-.6-1.1-1.2-1.3-1.7-1.4-2.8-3.2-4-6.1-4-.7-.1-1.4.2-1.9.7zm-28.3 51.3c-1.1.1-2 .8-2.3 1.9l-1.2 4.7c0 .2-.1.4-.1.6 0 .1.1.2.1.4-.2.3-.4.5-.5.8l-.9 4.9v.4c0 .5.2 1 .4 1.4 0 0 .2.4.4.6-.5.9-1 1.9-1.4 3-.1.2-.1.4-.1.6-.6 5.1-.9 9.9-.9 14.7 0 3.4.2 7 .5 10.9 0 .3.1.6.2.9 1.7 3.6 4.1 5.6 6.1 7.3l2.2 2c1.3 1.5 3.4 5.9 3.9 18.5.3 7.6 2.9 14 4.5 17.1 0 .1 5.9 9.7 11.1 8.6 2.4-.5 3.7-2.8 3.8-6.8.3-9.7 1.5-17.1 1.6-18 .2-.5 1.6-3.9 6.9-9.6 14.2-14.9 14.7-20.9 15.2-26.2l.1-1.2v-.7c0-5.7-7.5-7.3-12-8.2-.9-.2-2.2-.5-2.6-.6-.6-.3-.8-1.1-1.2-3.4l-.3-1.5c-.8-4.3-4.3-6.5-9.6-9.9-5.9-3.7-17.3-3-22-2.1-.4-.8-.7-1.5-.7-2v-.1c1.2-1.3 1.9-2.8 1.9-4.5 0-.8-.2-1.7-.5-2.5-.5-1.4-1.5-2-2.6-2zM1794.6 214.7c-1.9 1.3-4.1 4-4.1 8.9v.4c.2 8.5 12.2 10.5 17.3 11.4l1.3.2c1 .2 1.3.3 1.3 3.6v.5c-.4-.1-.8-.2-1.1-.4l-.7-.3c-1.5-.5-4-1.3-6.1.1-2.2 1.4-2.7 4.3-2.8 6.3-.2 2.7.8 4.4 1.7 5.4 1.8 1.8 4.6 2.6 8.8 2.3h.8c.3.7.9 1.7 1.9 2.9.6.7.8 1.2.8 2 0 .4 0 .8-.1 1.4-.1.8-.1 1.6-.1 2.6 0 1.8.2 4.1 1 7 1.1 3.9 4.4 6.6 9.4 7.6 5.3 1.1 13.6 0 15.9-2.9.8-1 1.4-2.3 1.4-3.8 0-1.6-.8-3.4-2.9-5.3l-1.4-1c-1.1-.7-1.6-1.1-1.6-2.1v-.4c.4 0 1 .1 1.5.3.1.1.3.1.5.1 5.2 1 9.8 3.4 14.8 7.8l1.3 1.2c.9.9 2.4.9 3.3.1 1-.8 1.3-2.2.6-3.3-13.5-23.4-34.8-42.2-60.1-53.1-.9-.1-1.8 0-2.6.5zM1810.7 320.5c-4.7 5.9-6.1 14.5-3.8 23.5 4.2 16.2 16.9 14.3 18.8 13.9 5-.7 8.2 2.8 9.5 6.2.6 1.6.7 10.4-1.2 16-1.5 4.7-.6 8.1.4 11.5.4 1.6.9 3.2 1.2 5.1.3 2.4 2 6.6 9.3 7.7.9.1 1.8-.2 2.4-.9 15.6-19.8 24.6-43.4 26-68.2.1-1.1-.8-2.2-1.8-2.6l-1.5-.6c-1.1-.6-1.1-.6-1.2-2-.1-1.9-.2-4.8-3.8-8.2-6.3-6-13.5-3.3-14.6-2.8-.2 0-4.8 1.5-10.1-.8l-3.6-1.9c-2.6-1.6-4-2.3-12.2-2.5-5.4-.1-10.3 2.2-13.8 6.6z" fill="#4A606B"/><radialGradient id="Z" cx="1827.204" cy="226.761" r="419.133" gradientUnits="userSpaceOnUse"><stop offset=".092" stop-color="#B5D88E"/><stop offset=".607" stop-color="#308F39"/></radialGradient><path d="M1801.2 424.8c-2.5-1.2-18.6-1.1-23.5 1.1-4.9 2.2-19.7 2.7-27.1 3.2-7.4.5-10.5 2.5-14.4 6.4-3.9 4-6 5.7-17.6 5.7-11.6 0-18.4-5.6-21.6-6.3-2.3-.5-5.2.5-7.3 2.4 16.8 8.1 35.7 12.6 55.6 12.6 25.1 0 48.5-7.2 68.2-19.5-2.8-3.2-10.2-4.5-12.3-5.6z" fill="url(#Z)"/><radialGradient id="aa" cx="1827.202" cy="226.768" r="419.115" gradientUnits="userSpaceOnUse"><stop offset=".092" stop-color="#B5D88E"/><stop offset=".607" stop-color="#308F39"/></radialGradient><path d="M1673.6 233c1.9 1.3-1.2 3.5-4.4 5.4-3.2 1.9.2 4 1.7 5.6 1.3 1.4 5.6-.5 6.4-2.9.8-2.4 5.1-2.7 5.1-2.7 16.5 1.3 16-7.2 16.5-12.9.5-5.6-3.2-5.9-6.4-5.9-2.9 0-6.7 2.4-9.7 3-4.6 2.6-9.1 5.4-13.3 8.5 1.9.7 3.5 1.4 4.1 1.9z" fill="url(#aa)"/><radialGradient id="ab" cx="1827.202" cy="226.769" r="419.115" gradientUnits="userSpaceOnUse"><stop offset=".092" stop-color="#B5D88E"/><stop offset=".607" stop-color="#308F39"/></radialGradient><path d="M1657.7 324.2c-2.2-1.1-2.2-3.7-2.8-6.8-.6-3.1-3.1-4.8-8.4-8.2-5.3-3.4-16.5-2.5-20.5-1.7-.4.1-.9.3-1.3.6-.7-1-2.1-3.2-2.2-5l-.9 4.8c.4.7.8 1.4 1.1 2.1-.7 1-1.4 2.3-2 3.9-.6 4.7-.9 9.5-.9 14.4 0 3.6.2 7.1.5 10.6 2.2 4.6 5.9 6.3 7.9 8.8 3.1 3.7 4.2 12.1 4.5 20 .3 7.9 3.4 14.4 4.2 16.1.8 1.7 9.8 13.5 10.1 2.8.3-10.7 1.7-18.6 1.7-18.6s1.1-3.9 7.6-10.7c14.7-15.4 14-20.6 14.6-25.9.5-5.5-11-6.1-13.2-7.2zm-33.7-27.4c-.4 1.5-.8 3.1-1.1 4.6l.3-.3c1.2-1.3 1.4-2.8.8-4.3zm11.5-10.4c2-1.1-2.8-5.1-3.4-6.5-.6-1.4 3.1-2 6.2-2 2 0 2.5-2.8 4.5-5.9 4.7-7.5 14.6-10.7 17.9-15.2 3.4-4.5-1.4-6.8-2.8-9.6-1-2-1.9-2.6-3.9-2.6-10.9 11.2-19.6 24.3-25.5 38.8 3 1.6 5.2 4 7 3z" fill="url(#ab)"/><radialGradient id="ac" cx="1827.203" cy="226.768" r="419.116" gradientUnits="userSpaceOnUse"><stop offset=".092" stop-color="#B5D88E"/><stop offset=".607" stop-color="#308F39"/></radialGradient><path d="M1837.6 259.1c5.4 1 10.3 3.4 16 8.4.5.5 1 .9 1.4 1.3-13.2-22.9-33.9-41.3-58.9-52-2.1 1.5-3.1 3.9-3 7.1.2 7.2 13.6 8.6 16.6 9.2 3 .6 3.4 2.5 3.3 6.5 0 4-2.5 2.8-5.2 1.9-2.7-.9-5.1-1.4-5.6 4.2-.4 4.3 3.5 5.2 7.8 4.9 4.3-.3 1.6.2 4.8 3.7 3.2 3.6-.2 5.4 2.2 14.1 2.4 8.7 18.8 6.4 20.8 3.8 2-2.5.3-4.3-1.1-5.6-1.4-1.3-4.1-1.9-3.8-5.7.1-3.7 4.7-1.8 4.7-1.8z" fill="url(#ac)"/><radialGradient id="ad" cx="1827.205" cy="226.768" r="419.118" gradientUnits="userSpaceOnUse"><stop offset=".092" stop-color="#B5D88E"/><stop offset=".607" stop-color="#308F39"/></radialGradient><path d="M1868.8 334.4c-5-2.5 0-5.3-5.6-10.7-5.6-5.3-12-2.2-12-2.2s-5.6 2-12-.8-3.6-3.9-14.8-4.2c-11.2-.3-19 11.8-15.1 26.9 3.9 15.1 15.9 12.1 15.9 12.1 5.9-.8 10.3 2.8 12.3 7.9.9 2.3.8 11.8-1.1 17.7-2 5.9.8 9.3 1.7 15.4.4 3.3 3.3 5 7.2 5.5 14.7-18.7 24-41.7 25.5-66.8-.7-.2-1.4-.5-2-.8z" fill="url(#ad)"/><path d="M1745.4 449.9c25.1 0 48.5-7.2 68.2-19.5-2.8-3.2-10.2-4.6-12.3-5.6-.3-.1-.8-.3-1.4-.4-17.5 7.5-37.5 9.1-56.9 6.3-2.6 1.1-4.6 2.6-6.8 4.9-3.9 4-6 5.7-17.6 5.7-11.6 0-18.4-5.6-21.6-6.3-2.3-.5-5.2.5-7.3 2.4 16.8 8 35.7 12.5 55.7 12.5zM1647.7 375.7c-.7-.6-1.3-1.2-2-1.8-5.2-5.2-7.4-13.2-10.1-19.9-4.3-10.5-9-20.6-15.7-29.4 0 1.2-.1 2.4-.1 3.7 0 3.6.2 7.1.5 10.6 2.2 4.6 5.9 6.3 7.9 8.8 3.1 3.7 4.2 12.1 4.5 20 .3 7.9 3.4 14.4 4.2 16.1.8 1.7 9.8 13.5 10.1 2.8.1-4.2.4-7.9.7-10.9z" fill="#3C8C35"/><path d="M1845.3 401.9c13.1-16.7 21.9-36.8 24.7-58.6-1.1 3-2.1 6.1-3.1 9.2-2.3 7.1-7.9 11.8-12.8 17.2-6.3 6.9-11.5 14.7-16.9 22.3.4 1.3.7 2.8 1 4.4.4 3.3 3.2 5 7.1 5.5z" fill="#4BA33F"/><g><path d="M1798.4 309.3c2.9-2.6 8-3.5 10.7-1.8-.9.9 0 1.7.2 2.6 1.6 6.5 2.6 13.1-2.4 18.5-10 10.6-21.9 18.3-35.5 23.4-10.7 4-21.7 4.8-33.1 3.7-9.9-1-18.9-3.9-27.5-8.5-4-2.2-8.1-4.5-9.7-9.3-1.6-4.7-2-9.5-1.1-14.3.2-.9.7-1.9-.3-2.6-.9-.6-1.8-.1-2.7.3-4 1.7-6.1 5.2-8.2 8.6-6.5 10.3-6.1 22.5.9 30.4 5.6 6.3 12.3 11 20.2 14.1 3 1.2 5.5 2.5 7.7-1.3.8-1.3 2.5-2.1 3.8-3.1 10.8-7.9 22-9.3 33.8-2.3 1.3.8 2.2.7 3.5-.2 2.2-1.5 4.6-2.9 7.1-4.1 10.7-5 21.8-3.6 29.3 4 2.1 2.1 3.5 2 5.6.5 6.8-4.7 13.3-9.9 18.5-16.4 7.4-9.2 13.7-18.9 10.1-31.6 3 3 3 6.8 2.5 10.5-1.3 10.3-6 19.2-12.2 27.1-7.5 9.6-16.4 17.7-27.1 23.6-10.8 5.9-22.4 9.4-34.7 10-19.2.9-37.4-2.8-54.5-11.5-8.5-4.3-15.7-10.1-20.8-18.2-7.8-12.3-5.1-24.2 2-35.6 3.2-5.1 7.5-9.4 13.9-10.8 9.3-1.9 16.8 1.9 23.9 7.2 9.4 7.1 19.8 12.3 31.9 11.9 9-.3 17.1-3.4 23.9-9.5 3.4-3.1 6.8-6.3 10.1-9.4.8-.7 1.5-1.6 2.7-1.5l.5.5c-5.3 4.9-9.7 10.8-15.5 15.1-15.6 11.9-33.3 10.7-50.4.9-4.9-2.8-8.9-7-14.4-8.9-5.1-1.8-5.1-1.8-5.4 3.9-.7 11.2.8 13.6 10.8 18.6 11.4 5.7 23.4 8.1 36.1 7 18.8-1.6 34.4-10.1 48-23 5.6-5.3 6.4-9.2 3.5-16.5-1-4.4-3.6-2.2-5.7-2zm-77.7 68.9c7.4 2.2 14.5 3.2 21.8 3.9 16.4 1.5 32-.9 46.9-8 2.6-1.2 3.1-1.9.6-3.8-7.7-5.9-15.6-5.2-23.6-1.2-1.4.7-3.8 1.2-3.9 2.7-.1 1.6 2.2 2.1 3.6 2.8 1.6.9 3 1.8 2 3.8-1 2.2-2.8 1.9-4.6 1-3.3-1.6-6.3-3.7-9.2-6-10.1-7.8-25.4-5.8-33.6 4.8z" fill="#1F429A"/><path d="M1829 319.8c3.7 12.8-2.6 22.5-10.1 31.6-5.2 6.5-11.7 11.6-18.5 16.4-2.1 1.5-3.5 1.6-5.6-.5-7.5-7.6-18.6-9-29.3-4-2.5 1.1-4.8 2.5-7.1 4.1-1.3.9-2.3.9-3.5.2-11.8-7-23-5.6-33.8 2.3-1.3 1-3 1.8-3.8 3.1-2.2 3.7-4.7 2.5-7.7 1.3-7.9-3.1-14.6-7.8-20.2-14.1-7-7.9-7.4-20-.9-30.4 2.1-3.4 4.3-6.9 8.2-8.6.9-.4 1.8-.9 2.7-.3 1 .6.5 1.6.3 2.6-.9 4.9-.5 9.6 1.1 14.3 1.6 4.8 5.7 7.2 9.7 9.3 8.6 4.6 17.6 7.6 27.5 8.5 11.4 1.1 22.4.3 33.1-3.7 13.6-5.1 25.6-12.8 35.5-23.4 5-5.3 4-12 2.4-18.5-.2-.9-1.1-1.6-.2-2.6l4.8.3c.3.1.6.3.9.4 6.6 2.1 11.4 5.9 14.5 11.7z" fill="#101A3C"/><path d="M1790.5 313.5c1.3-1.6 2.8-2.9 5-2.8l.1.1c-1.5 1.1-3.1 2.1-4.6 3.2-.1-.2-.3-.3-.5-.5z" fill="#1F429A"/><path d="M1707 209.4c.2-.6.1-1.4.9-1.7.1 0 .4.2.5.3.1.8-.5 1.2-1 1.6-.2 0-.3-.1-.4-.2z" fill="#DC5958"/><path d="M1795.5 310.7c.5-1.4 1.6-1.5 2.8-1.4l.1.1c-.9.5-1.9.9-2.8 1.4l-.1-.1z" fill="#1F429A"/><path d="M1814.8 308.3c-.3-.1-.6-.3-.9-.4.3.1.6.2.9.4z" fill="#86191A"/><path d="M1803.6 311.1c2.9 7.3 2.1 11.2-3.5 16.5-13.5 12.8-29.2 21.3-48 23-12.6 1.1-24.7-1.3-36.1-7-10-5-11.5-7.5-10.8-18.6 1.4-.4 2.5.5 3.7 1 7.5 3.7 14.4 8.6 22.2 11.8 8.9 3.8 18.1 5.9 27.6 4.5 12.4-1.8 21.3-9.5 29.4-18.5 4.5-5.1 9.2-9.9 15.5-12.7z" fill="#FFF"/><path d="M1720.7 378.2c8.3-10.6 23.5-12.5 33.6-4.7 2.9 2.3 5.9 4.3 9.2 6 1.7.8 3.5 1.1 4.6-1 .9-2-.4-3-2-3.8-1.4-.8-3.7-1.2-3.6-2.8.1-1.5 2.5-2 3.9-2.7 8.1-4 16-4.7 23.6 1.2 2.5 1.9 2 2.6-.6 3.8-14.9 7.1-30.5 9.5-46.9 8-7.3-.8-14.5-1.9-21.8-4z" fill="#AADEF8"/><path d="M1803.6 311.1c-6.3 2.8-11 7.6-15.5 12.7-8 9-17 16.7-29.4 18.5-9.5 1.4-18.8-.7-27.6-4.5-7.8-3.3-14.7-8.1-22.2-11.8-1.2-.6-2.2-1.4-3.7-1 .3-5.7.3-5.7 5.4-3.9 5.5 1.9 9.5 6.1 14.4 8.9 17.1 9.8 34.9 11 50.4-.9 5.7-4.4 10.2-10.2 15.5-15.1 1.5-1.1 3.1-2.1 4.6-3.2.9-.5 1.9-.9 2.8-1.4 2.2-.3 4.8-2.5 5.3 1.7z" fill="#B9C5B8"/><g opacity=".75"><path d="M1749.5 229.5c23.3-.8 45.1 19.4 45.2 45.1.1 25.7-21 46.6-46.6 46.1-24.6-.4-45.1-21.1-45.1-46.3 0-24.3 20.9-46.1 46.5-44.9zm1.3 80.5c21.9.8 38.1-18.2 38-37-.1-21.3-18-38.3-37.7-37.9-21 .4-37.2 16.6-37.5 37.7-.4 20.7 18.3 38.2 37.2 37.2z" fill="#3360AB"/><path d="M1750.8 310c-18.9 1-37.6-16.4-37.3-37.3.3-21 16.5-37.2 37.5-37.7 19.8-.4 37.6 16.6 37.7 37.9.2 18.9-16 37.9-37.9 37.1zm18.5-54.2c-1.8 6.6-5.5 9.7-11.4 9.2-5-.4-7.6-3.7-9.3-8-.5-4.4 1-8.1 5-11.4-2 .3-3.2.3-4.3.6-15.2 3.6-23.5 19.9-17.7 34.4.8 2 1.6 2.8 4 2.3 6.9-1.4 11.6 2.9 10.8 10-.2 2.3.9 2.6 2.4 3 17.9 4.6 33.7-9.6 32.2-26.9-.8-8.8-5.1-15.6-13.3-19.8 1.1 2 1.5 4.3 1.6 6.6z" fill="#FFF"/><path d="M1748.6 257c1.7 4.3 4.3 7.6 9.3 8 5.9.5 9.6-2.6 11.4-9.2 6.8 4.3 10 12.1 8.1 19.6-1.8 7.2-8.8 13.2-15.9 13.7-8.2.5-15.6-3.9-18.5-11.1-3.2-7.8-1.1-15.4 5.6-21z" fill="#11213C"/><path d="M1748.6 257c-6.7 5.6-8.7 13.2-5.6 21 2.9 7.2 10.3 11.7 18.5 11.1 7.1-.4 14.1-6.5 15.9-13.7 1.9-7.5-1.3-15.3-8.1-19.6 0-2.4-.5-4.6-1.5-6.8 8.2 4.2 12.6 11 13.3 19.8 1.5 17.3-14.3 31.5-32.2 26.9-1.5-.4-2.7-.7-2.4-3 .8-7-3.9-11.3-10.8-10-2.4.5-3.2-.3-4-2.3-5.8-14.5 2.5-30.8 17.7-34.4 1.1-.3 2.3-.3 4.3-.6-4.1 3.6-5.7 7.2-5.1 11.6z" fill="#4A9AD4"/></g></g><path d="M1711.8 306.8c-4.5-8.9-3.5-17.8.5-26.3 7.1-15.1 19.1-23.4 35.8-25 17.3-1.6 30.6 5 40.1 19.3 3.7 5.5 5.3 11.8 4.2 19.2-10.2-17.7-25.2-26.4-45.1-23.4-20.1 3.2-31 16.7-35.5 36.2z" opacity=".45" fill="#3360AB"/></g></svg>