<?xml version="1.0" encoding="utf-8"?>
<!-- Generator: Adobe Illustrator 19.1.0, SVG Export Plug-In . SVG Version: 6.00 Build 0)  -->
<svg version="1.1" xmlns="http://www.w3.org/2000/svg" xmlns:xlink="http://www.w3.org/1999/xlink" x="0px" y="0px" width="500px"
	 height="500px" viewBox="0 0 500 500" style="enable-background:new 0 0 500 500;" xml:space="preserve">
<metadata><?xpacket begin="﻿" id="W5M0MpCehiHzreSzNTczkc9d"?>
<x:xmpmeta xmlns:x="adobe:ns:meta/" x:xmptk="Adobe XMP Core 5.6-c067 79.157747, 2015/03/30-23:40:42        ">
   <rdf:RDF xmlns:rdf="http://www.w3.org/1999/02/22-rdf-syntax-ns#">
      <rdf:Description rdf:about=""/>
   </rdf:RDF>
</x:xmpmeta>
                                                                                                    
                                                                                                    
                                                                                                    
                                                                                                    
                                                                                                    
                                                                                                    
                                                                                                    
                                                                                                    
                                                                                                    
                                                                                                    
                                                                                                    
                                                                                                    
                                                                                                    
                                                                                                    
                                                                                                    
                                                                                                    
                                                                                                    
                                                                                                    
                                                                                                    
                                                                                                    
                           
<?xpacket end="w"?></metadata>
<g id="Layer_3" style="display:none;">
	<path style="display:inline;fill:#CA000B;" d="M902.4-357.7c0.5-0.8,1.2-1,2.1-0.9l0,0c-0.4,0.8-1.1,1-1.9,1.1
		C902.5-357.6,902.4-357.7,902.4-357.7z"/>
	<path style="display:inline;fill:#CA000B;" d="M789.4-357.7c-0.3,0.3-0.6,0.7-1,1c0,0,0,0,0,0C788.8-357,789.1-357.3,789.4-357.7
		L789.4-357.7z"/>
	<path style="display:inline;fill:#CA000B;" d="M789.5-357.6c0.1-0.1,0.1-0.3,0.2-0.4C789.6-357.9,789.5-357.8,789.5-357.6
		C789.4-357.7,789.5-357.6,789.5-357.6z"/>
	<path style="display:inline;fill:#CA000B;" d="M904.5-358.7c0.1-0.1,0.3-0.3,0.4-0.4c0,0.1,0,0.2-0.1,0.3
		C904.7-358.8,904.6-358.7,904.5-358.7C904.5-358.7,904.5-358.7,904.5-358.7z"/>
	<g style="display:inline;">
		<path style="fill:#4A606B;stroke:#4A606C;stroke-width:4;stroke-miterlimit:10;" d="M150,336.7l-7.7,39.5c0,3.5-5.7,10.4-7.2,8.5
			c-3-3.8-8.4-10.1-11.5-14c-4.2-6.2-5.3-8.9-9.5-15c-4.2-5.9-9.2-15.5-12.1-21.4c-2-5.3-5.6-13.3-7.6-18.7
			c-3.6-10-6.6-17.7-10.1-27.8c-4-11.6-5.7-16.2-9.1-28.1c-1-3.3-3.6-11.1-4.4-14.2c-0.9-5.2-2.5-9,2.3-11.1
			c2.5-0.9,4.4-1.4,6.5,2.4c0.5,1,3.9,7.4,5.9,11.1c0.5,1,1.8,1.5,2.9,1.1c4.3-1.6,10.3-4,9.8-6c-0.6-3-1.1-7-0.8-10.6
			c0.6-6.4,2.3-9.2,7.1-9.4c2.3,0.3,4,1.2,4.7,4.1c0.4,1.9,1.2,5.2,1.4,7.1c0.5,4.8,1.1,9.4,6.1,12.3c6.7,3.9,8.4,9.7,6.2,19
			c-1.3,5.5,1.1,11,4.9,14.5l-1.8,10.5 M127.7,295c0.7-2.9-1.3-9.8-3.3-12.4c-4.8-6.2-8.6-12.9-4.9-21.1c0.4-1,0.6-2.1,0.7-3.1
			c0.2-3.2-0.2-6.3-3.2-8.2c-3.8-2.4-12.1-1.6-15.6,1.2c-0.8,0.7-1.9,1.4-1.5,2.6c0.3,1.1,1.2,2,2.5,2.3c1.8,0.4,3.5,0.2,5.3-0.1
			c0.8-0.1,1.7-0.4,2.3,0.4c0.6,0.9,0.4,1.9-0.3,2.6c-2.5,2.9-2.5,6.2-1.9,9.7c0.2,1.1,1,2.5-0.6,3.1c-1.7,0.6-2.4-0.8-2.7-2.1
			c-0.7-3.4-2.7-2.2-4.5-1.3c-1,0.5-1.8,1.6-2.8,2.2c-2.3,1.4-4.8,2.2-7.4,1c-4.9-2.2-10.8-14.2-6.7-20.4c0.8-1.2,0.7-2.1,0-3.3
			c-1.7-3.1-3.1-6.4-4.7-9.5c-1.2-2.2-2.8-2.3-4.6-0.7c-2.4,2-1.3,4.5-0.7,6.6c2.7,9.8,5.7,19.5,9.3,29c3,8.1,5.9,16.2,8.5,24.4
			c2.4,7.5,4.8,15.1,8,22.3c4.5,10.3,9.7,20.2,15.8,29.7c2.9,4.5,5.7,9.1,9.4,13.2 M107.4,234.8c-0.3-2.2-0.6-3.8-0.9-5.5
			c-0.3-1.3-0.1-3.2-1.9-3.4c-1.8-0.2-3.3,1.2-3.7,2.8c-1.6,5.6-1.5,11.3,0.8,16.6c1.3,3.1,4.2,0.8,6.2,0.5c2-0.2,1.8-2.1,1.2-3.4
			C107.9,239.8,107.9,237,107.4,234.8z M85.1,258.7c0.9,2.1,1.6,4.3,2.7,6.4c0.9,1.6,1.8,3.4,3.8,4c1.8,0.5,3-0.5,4.2-1.3
			c0.7-0.4,0.6-1.2,0-1.8c-3.8-3.3-4.9-7.9-5.7-12.6c-0.3-2.1-1.2-2.2-2.9-1.2C84.7,253.8,85.5,256.3,85.1,258.7z M93.2,254.3
			c0.9,3.3,2.1,6.4,4.6,9c1.4,1.5,2.9,1.4,4.6,0.9c1.2-0.4,2-1.3,2-2.6c0.1-2.2-1.9-1.6-3.1-2.1c-4.4-1.7-5.8-5.5-3.4-9.6
			c0.6-1,1.3-1.9,0.3-2.8c-1.3-1.2-2.2,0-3,0.8C93.2,249.6,92.6,251.8,93.2,254.3z"/>
		
			<radialGradient id="SVGID_1_" cx="1123.1926" cy="310.9818" r="104.5946" fx="1018.7849" fy="317.2313" gradientTransform="matrix(0.56 0.8285 0.6578 -0.4447 -715.78 -481.2431)" gradientUnits="userSpaceOnUse">
			<stop  offset="0.1104" style="stop-color:#DBEAF7"/>
			<stop  offset="0.7278" style="stop-color:#898B8D"/>
		</radialGradient>
		<path style="fill:url(#SVGID_1_);" d="M124,363.1c-3.7-4.1-6.5-8.7-9.4-13.2c-6.1-9.5-11.3-19.4-15.8-29.7
			c-3.2-7.2-5.6-14.8-8-22.3c-2.6-8.2-5.5-16.3-8.5-24.4c-3.6-9.5-6.5-19.2-9.3-29c-0.6-2.1-1.6-4.6,0.7-6.6
			c1.9-1.6,3.5-1.5,4.6,0.7c1.6,3.2,3.1,6.4,4.7,9.5c0.6,1.2,0.7,2.1,0,3.3c-4.1,6.2,1.8,18.2,6.7,20.4c2.6,1.2,5.1,0.4,7.4-1
			c1-0.6,1.7-1.7,2.8-2.2c1.8-0.9,3.8-2,4.5,1.3c0.3,1.3,1,2.7,2.7,2.1c1.6-0.6,0.8-2,0.6-3.1c-0.6-3.5-0.6-6.8,1.9-9.7
			c0.7-0.8,0.9-1.7,0.3-2.6c-0.6-0.9-1.5-0.6-2.3-0.4c-1.8,0.3-3.5,0.5-5.3,0.1c-1.3-0.3-2.1-1.1-2.5-2.3c-0.4-1.2,0.7-1.9,1.5-2.6
			c3.5-2.9,11.8-3.6,15.6-1.2c3,1.9,3.4,5,3.2,8.2c-0.1,1.1-0.3,2.2-0.7,3.1c-3.7,8.3,0,15,4.9,21.1c2,2.6,2.4,5,1.7,7.9
			c-2.8,11.5,15.8,25.1,15.3,36.8c-0.4,11.4-19.7,21.3-17.2,32.6C124.4,360.9,125,361.9,124,363.1z"/>
		<path style="fill:#CCDADD;" d="M107.4,234.8c0.5,2.2,0.5,5.1,1.7,7.7c0.6,1.3,0.8,3.2-1.2,3.4c-2.1,0.2-4.9,2.5-6.2-0.5
			c-2.3-5.3-2.4-11-0.8-16.6c0.4-1.6,1.9-3,3.7-2.8c1.8,0.2,1.7,2,1.9,3.4C106.8,230.9,107.1,232.6,107.4,234.8z"/>
		<path style="fill:#CCDADD;" d="M85.1,258.7c0.4-2.4-0.4-5,2.1-6.6c1.6-1.1,2.5-1,2.9,1.2c0.8,4.7,1.9,9.3,5.7,12.6
			c0.7,0.6,0.7,1.4,0,1.8c-1.2,0.8-2.4,1.8-4.2,1.3c-2.1-0.6-3-2.3-3.8-4C86.7,263,86,260.8,85.1,258.7z"/>
		<path style="fill:#CCDADD;" d="M93.2,254.3c-0.6-2.5,0-4.7,1.9-6.5c0.8-0.7,1.8-1.9,3-0.8c1,0.9,0.3,1.9-0.3,2.8
			c-2.4,4.1-1,7.9,3.4,9.6c1.2,0.4,3.2-0.2,3.1,2.1c0,1.3-0.8,2.2-2,2.6c-1.6,0.5-3.2,0.6-4.6-0.9C95.3,260.7,94.1,257.6,93.2,254.3
			z"/>
	</g>
	<g style="display:inline;">
		<path style="fill:#4A606B;stroke:#4A606C;stroke-width:4;stroke-miterlimit:10;" d="M365.6,290.5l-1.8-10.5
			c3.8-3.5,6.2-9,4.9-14.5c-2.2-9.3-0.5-15.1,6.2-19c4.9-2.9,5.6-7.5,6.1-12.3c0.2-1.9,1-5.3,1.4-7.1c0.7-3,2.3-3.9,4.7-4.1
			c4.8,0.2,6.5,3,7.1,9.4c0.2,3.6-0.2,7.5-0.8,10.6c-0.4,2,5.5,4.4,9.8,6c1.1,0.4,2.3,0,2.9-1.1c2-3.7,5.3-10.1,5.9-11.1
			c2.1-3.7,4-3.2,6.5-2.4c4.8,2.1,3.2,6,2.3,11.1c-0.8,3.1-3.5,10.8-4.4,14.2c-3.4,11.8-5.1,16.4-9.1,28.1
			c-3.5,10.1-6.4,17.7-10.1,27.8c-1.9,5.3-5.6,13.4-7.6,18.7c-2.9,5.9-7.8,15.6-12.1,21.4c-4.2,6.2-5.3,8.9-9.5,15
			c-3,3.8-8.4,10.1-11.5,14c-1.5,1.9-7.2-5-7.2-8.5l-7.7-39.5 M367.6,363.1c3.7-4.1,6.5-8.7,9.4-13.2c6.1-9.5,11.3-19.4,15.8-29.7
			c3.2-7.2,5.6-14.8,8-22.3c2.6-8.2,5.5-16.3,8.5-24.4c3.6-9.5,6.5-19.2,9.3-29c0.6-2.1,1.6-4.6-0.7-6.6c-1.9-1.6-3.5-1.5-4.6,0.7
			c-1.6,3.2-3.1,6.4-4.7,9.5c-0.6,1.2-0.7,2.1,0,3.3c4.1,6.2-1.8,18.2-6.7,20.4c-2.6,1.2-5.1,0.4-7.4-1c-1-0.6-1.7-1.7-2.8-2.2
			c-1.8-0.9-3.8-2-4.5,1.3c-0.3,1.3-1,2.7-2.7,2.1c-1.6-0.6-0.8-2-0.6-3.1c0.6-3.5,0.6-6.8-1.9-9.7c-0.7-0.8-0.9-1.7-0.3-2.6
			c0.6-0.9,1.5-0.6,2.3-0.4c1.8,0.3,3.5,0.5,5.3,0.1c1.3-0.3,2.1-1.1,2.5-2.3c0.4-1.2-0.7-1.9-1.5-2.6c-3.5-2.9-11.8-3.6-15.6-1.2
			c-3,1.9-3.4,5-3.2,8.2c0.1,1.1,0.3,2.2,0.7,3.1c3.7,8.3,0,15-4.9,21.1c-2,2.6-4,9.5-3.3,12.4 M382.4,242.5
			c-0.6,1.3-0.8,3.2,1.2,3.4c2.1,0.2,4.9,2.5,6.2-0.5c2.3-5.3,2.4-11,0.8-16.6c-0.4-1.6-1.9-3-3.7-2.8c-1.8,0.2-1.7,2-1.9,3.4
			c-0.3,1.6-0.5,3.3-0.9,5.5C383.7,237,383.7,239.8,382.4,242.5z M404.4,252.1c-1.6-1.1-2.5-1-2.9,1.2c-0.8,4.7-1.9,9.3-5.7,12.6
			c-0.7,0.6-0.7,1.4,0,1.8c1.2,0.8,2.4,1.8,4.2,1.3c2.1-0.6,3-2.3,3.8-4c1.1-2.1,1.8-4.3,2.7-6.4
			C406.1,256.3,406.9,253.8,404.4,252.1z M396.5,247.8c-0.8-0.7-1.8-1.9-3-0.8c-1,0.9-0.3,1.9,0.3,2.8c2.4,4.1,1,7.9-3.4,9.6
			c-1.2,0.4-3.2-0.2-3.1,2.1c0,1.3,0.8,2.2,2,2.6c1.6,0.5,3.2,0.6,4.6-0.9c2.4-2.6,3.7-5.7,4.6-9
			C399.1,251.8,398.4,249.6,396.5,247.8z"/>
		
			<radialGradient id="SVGID_2_" cx="1394.9426" cy="310.9818" r="104.5946" fx="1290.5349" fy="317.2313" gradientTransform="matrix(-0.56 0.8285 -0.6578 -0.4447 1359.5771 -706.377)" gradientUnits="userSpaceOnUse">
			<stop  offset="0.1104" style="stop-color:#DBEAF7"/>
			<stop  offset="0.7278" style="stop-color:#898B8D"/>
		</radialGradient>
		<path style="fill:url(#SVGID_2_);" d="M367.4,359.9c2.6-11.3-16.7-21.1-17.2-32.6c-0.4-11.8,18.1-25.3,15.3-36.8
			c-0.7-2.9-0.3-5.3,1.7-7.9c4.8-6.2,8.6-12.9,4.9-21.1c-0.4-1-0.6-2.1-0.7-3.1c-0.2-3.2,0.2-6.3,3.2-8.2c3.8-2.4,12.1-1.6,15.6,1.2
			c0.8,0.7,1.9,1.4,1.5,2.6c-0.3,1.1-1.2,2-2.5,2.3c-1.8,0.4-3.5,0.2-5.3-0.1c-0.8-0.1-1.7-0.4-2.3,0.4c-0.6,0.9-0.4,1.9,0.3,2.6
			c2.5,2.9,2.5,6.2,1.9,9.7c-0.2,1.1-1,2.5,0.6,3.1c1.7,0.6,2.4-0.8,2.7-2.1c0.7-3.4,2.7-2.2,4.5-1.3c1,0.5,1.8,1.6,2.8,2.2
			c2.3,1.4,4.8,2.2,7.4,1c4.9-2.2,10.8-14.2,6.7-20.4c-0.8-1.2-0.7-2.1,0-3.3c1.7-3.1,3.1-6.4,4.7-9.5c1.2-2.2,2.8-2.3,4.6-0.7
			c2.4,2,1.3,4.5,0.7,6.6c-2.7,9.8-5.7,19.5-9.3,29c-3,8.1-5.9,16.2-8.5,24.4c-2.4,7.5-4.8,15.1-8,22.3
			c-4.5,10.3-9.7,20.2-15.8,29.7c-2.9,4.5-5.7,9.1-9.4,13.2C366.6,361.9,367.2,360.9,367.4,359.9z"/>
		<path style="fill:#CCDADD;" d="M384.2,234.8c-0.5,2.2-0.5,5.1-1.7,7.7c-0.6,1.3-0.8,3.2,1.2,3.4c2.1,0.2,4.9,2.5,6.2-0.5
			c2.3-5.3,2.4-11,0.8-16.6c-0.4-1.6-1.9-3-3.7-2.8c-1.8,0.2-1.7,2-1.9,3.4C384.8,230.9,384.5,232.6,384.2,234.8z"/>
		<path style="fill:#CCDADD;" d="M406.5,258.7c-0.4-2.4,0.4-5-2.1-6.6c-1.6-1.1-2.5-1-2.9,1.2c-0.8,4.7-1.9,9.3-5.7,12.6
			c-0.7,0.6-0.7,1.4,0,1.8c1.2,0.8,2.4,1.8,4.2,1.3c2.1-0.6,3-2.3,3.8-4C404.9,263,405.6,260.8,406.5,258.7z"/>
		<path style="fill:#CCDADD;" d="M398.4,254.3c0.6-2.5,0-4.7-1.9-6.5c-0.8-0.7-1.8-1.9-3-0.8c-1,0.9-0.3,1.9,0.3,2.8
			c2.4,4.1,1,7.9-3.4,9.6c-1.2,0.4-3.2-0.2-3.1,2.1c0,1.3,0.8,2.2,2,2.6c1.6,0.5,3.2,0.6,4.6-0.9
			C396.3,260.7,397.5,257.6,398.4,254.3z"/>
	</g>
</g>
<g id="Layer_6" style="display:none;">
	<g style="display:inline;">
		<path style="fill:#941D1F;stroke:#941E1F;stroke-width:4;stroke-miterlimit:10;" d="M365.7,288.9l-2.2-11.4
			c3.8-3.5,6.6-8.1,5.3-13.6c-2.2-9.3-0.5-15.1,6.2-19c4.9-2.9,5.6-7.5,6.1-12.3c0.2-1.9,1-5.3,1.4-7.1c0.7-3,2.3-3.9,4.7-4.1
			c4.8,0.2,6.5,3,7.1,9.4c0.2,3.6-0.2,7.5-0.8,10.6c-0.4,2,5.5,4.4,9.8,6c1.1,0.4,2.3,0,2.9-1.1c2-3.7,5.3-10.1,5.9-11.1
			c2.1-3.7,4-3.2,6.5-2.4c4.8,2.1,3.2,6,2.3,11.1c-0.8,3.1-3.5,10.8-4.4,14.2c-3.4,11.8-5.1,16.4-9.1,28.1
			c-3.5,10.1-6.4,17.7-10.1,27.8c-1.9,5.3-5.6,13.4-7.6,18.7c-2.9,5.9-7.8,15.6-12.1,21.4c-4.2,6.2-5.3,8.9-9.5,15
			c-3,3.8-5.2,10.8-8.2,14.6c-1.5,1.9-1.9,4.7-2.8,7.1l10.7-29.3 M367.8,361.5c3.6-4.1,6.5-8.7,9.4-13.2
			c6.1-9.5,11.3-19.4,15.8-29.7c3.2-7.2,5.6-14.8,8-22.3c2.6-8.2,5.5-16.3,8.5-24.4c3.6-9.5,6.5-19.2,9.3-29
			c0.6-2.1,1.6-4.6-0.7-6.6c-1.9-1.6-3.5-1.5-4.6,0.7c-1.6,3.2-3.1,6.4-4.7,9.5c-0.6,1.2-0.7,2.1,0,3.3c4.1,6.2-1.8,18.2-6.7,20.4
			c-2.6,1.2-5.1,0.4-7.4-1c-1-0.6-1.7-1.7-2.8-2.2c-1.8-0.9-3.8-2-4.5,1.3c-0.3,1.3-1,2.7-2.7,2.1c-1.6-0.6-0.8-2-0.6-3.1
			c0.6-3.5,0.6-6.8-1.9-9.7c-0.7-0.8-0.9-1.7-0.3-2.6c0.6-0.9,1.5-0.6,2.3-0.4c1.8,0.3,3.5,0.5,5.3,0.1c1.3-0.3,2.1-1.1,2.5-2.3
			c0.4-1.2-0.7-1.9-1.5-2.6c-3.5-2.9-11.8-3.6-15.6-1.2c-3,1.9-3.4,5-3.2,8.2c0.1,1.1,0.3,2.2,0.7,3.1c3.7,8.3,0,15-4.9,21.1
			c-2,2.6-2.4,5-1.7,7.9 M382.6,240.9c-0.6,1.3-0.8,3.2,1.2,3.4c2.1,0.2,4.9,2.5,6.2-0.5c2.3-5.3,2.4-11,0.8-16.6
			c-0.4-1.6-1.9-3-3.7-2.8c-1.8,0.2-1.7,2-1.9,3.4c-0.3,1.6-0.5,3.3-0.9,5.5C383.8,235.4,383.9,238.2,382.6,240.9z M404.6,250.5
			c-1.6-1.1-2.5-1-2.9,1.2c-0.8,4.7-1.9,9.3-5.7,12.6c-0.7,0.6-0.7,1.4,0,1.8c1.2,0.8,2.4,1.8,4.2,1.3c2.1-0.6,3-2.3,3.8-4
			c1.1-2.1,1.8-4.3,2.7-6.4C406.3,254.7,407,252.1,404.6,250.5z M396.7,246.2c-0.8-0.7-1.8-1.9-3-0.8c-1,0.9-0.3,1.9,0.3,2.8
			c2.4,4.1,1,7.9-3.4,9.6c-1.2,0.4-3.2-0.2-3.1,2.1c0,1.3,0.8,2.2,2,2.6c1.6,0.5,3.2,0.6,4.6-0.9c2.4-2.6,3.7-5.7,4.6-9
			C399.2,250.2,398.6,248,396.7,246.2z"/>
		
			<radialGradient id="SVGID_3_" cx="156.1914" cy="309.3659" r="95.4263" fx="60.9356" fy="315.0676" gradientTransform="matrix(0.3597 -0.9331 0.7409 0.2857 98.4359 366.729)" gradientUnits="userSpaceOnUse">
			<stop  offset="0.4255" style="stop-color:#D82B28"/>
			<stop  offset="1" style="stop-color:#E2503F"/>
		</radialGradient>
		<path style="fill:url(#SVGID_3_);" d="M367.6,358.3c2.6-11.3,2.6-22.8,2.2-34.3c-0.4-11.8-1.2-23.6-4-35.1
			c-0.7-2.9-0.3-5.3,1.7-7.9c4.8-6.2,8.6-12.9,4.9-21.1c-0.4-1-0.6-2.1-0.7-3.1c-0.2-3.2,0.2-6.3,3.2-8.2c3.8-2.4,12.1-1.6,15.6,1.2
			c0.8,0.7,1.9,1.4,1.5,2.6c-0.3,1.1-1.2,2-2.5,2.3c-1.8,0.4-3.5,0.2-5.3-0.1c-0.8-0.1-1.7-0.4-2.3,0.4c-0.6,0.9-0.4,1.9,0.3,2.6
			c2.5,2.9,2.5,6.2,1.9,9.7c-0.2,1.1-1,2.5,0.6,3.1c1.7,0.6,2.4-0.8,2.7-2.1c0.7-3.4,2.7-2.2,4.5-1.3c1,0.5,1.8,1.6,2.8,2.2
			c2.3,1.4,4.8,2.2,7.4,1c4.9-2.2,10.8-14.2,6.7-20.4c-0.8-1.2-0.7-2.1,0-3.3c1.7-3.1,3.1-6.4,4.7-9.5c1.2-2.2,2.8-2.3,4.6-0.7
			c2.4,2,1.3,4.5,0.7,6.6c-2.7,9.8-5.7,19.5-9.3,29c-3,8.1-5.9,16.2-8.5,24.4c-2.4,7.5-4.8,15.1-8,22.3
			c-4.5,10.3-9.7,20.2-15.8,29.7c-2.9,4.5-5.7,9.1-9.4,13.2C366.8,360.3,367.4,359.2,367.6,358.3z"/>
		<path style="fill:#E4513F;" d="M384.4,233.2c-0.5,2.2-0.5,5.1-1.7,7.7c-0.6,1.3-0.8,3.2,1.2,3.4c2.1,0.2,4.9,2.5,6.2-0.5
			c2.3-5.3,2.4-11,0.8-16.6c-0.4-1.6-1.9-3-3.7-2.8c-1.8,0.2-1.7,2-1.9,3.4C384.9,229.3,384.7,231,384.4,233.2z"/>
		<path style="fill:#E4513F;" d="M406.7,257.1c-0.4-2.4,0.4-5-2.1-6.6c-1.6-1.1-2.5-1-2.9,1.2c-0.8,4.7-1.9,9.3-5.7,12.6
			c-0.7,0.6-0.7,1.4,0,1.8c1.2,0.8,2.4,1.8,4.2,1.3c2.1-0.6,3-2.3,3.8-4C405.1,261.4,405.8,259.2,406.7,257.1z"/>
		<path style="fill:#E4513F;" d="M398.6,252.7c0.6-2.5,0-4.7-1.9-6.5c-0.8-0.7-1.8-1.9-3-0.8c-1,0.9-0.3,1.9,0.3,2.8
			c2.4,4.1,1,7.9-3.4,9.6c-1.2,0.4-3.2-0.2-3.1,2.1c0,1.3,0.8,2.2,2,2.6c1.6,0.5,3.2,0.6,4.6-0.9C396.5,259.1,397.7,256,398.6,252.7
			z"/>
	</g>
</g>
<g id="Layer_7" style="display:none;">
	<g style="display:inline;">
		<path style="fill:#4A606B;stroke:#4A606B;stroke-width:4;stroke-linecap:round;stroke-linejoin:round;stroke-miterlimit:10;" d="
			M124,363l10.7,29.3c-0.9-2.4-1.3-5.1-2.8-7.1c-3-3.8-5.2-10.8-8.2-14.6c-4.2-6.2-5.3-8.9-9.5-15c-4.2-5.9-9.2-15.5-12.1-21.4
			c-2-5.3-5.6-13.3-7.6-18.7c-3.6-10-6.6-17.7-10.1-27.8c-4-11.6-5.7-16.2-9.1-28.1c-1-3.3-3.6-11.1-4.4-14.2
			c-0.9-5.2-2.5-9,2.3-11.1c2.5-0.9,4.4-1.4,6.5,2.4c0.5,1,3.9,7.4,5.9,11.1c0.5,1,1.8,1.5,2.9,1.1c4.3-1.6,10.3-4,9.8-6
			c-0.6-3-1.1-7-0.8-10.6c0.6-6.4,2.3-9.2,7.1-9.4c2.3,0.3,4,1.2,4.7,4.1c0.4,1.9,1.2,5.2,1.4,7.1c0.5,4.8,1.1,9.4,6.1,12.3
			c6.7,3.9,8.4,9.7,6.2,19c-1.3,5.5,1.5,10.1,5.3,13.6l-2.2,11.4 M126,290.4c0.7-2.9,0.3-5.3-1.7-7.9c-4.8-6.2-8.6-12.9-4.9-21.1
			c0.4-1,0.6-2.1,0.7-3.1c0.2-3.2-0.2-6.3-3.2-8.2c-3.8-2.4-12.1-1.6-15.6,1.2c-0.8,0.7-1.9,1.4-1.5,2.6c0.3,1.1,1.2,2,2.5,2.3
			c1.8,0.4,3.5,0.2,5.3-0.1c0.8-0.1,1.7-0.4,2.3,0.4c0.6,0.9,0.4,1.9-0.3,2.6c-2.5,2.9-2.5,6.2-1.9,9.7c0.2,1.1,1,2.5-0.6,3.1
			c-1.7,0.6-2.4-0.8-2.7-2.1c-0.7-3.4-2.7-2.2-4.5-1.3c-1,0.5-1.8,1.6-2.8,2.2c-2.3,1.4-4.8,2.2-7.4,1c-4.9-2.2-10.8-14.2-6.7-20.4
			c0.8-1.2,0.7-2.1,0-3.3c-1.7-3.1-3.1-6.4-4.7-9.5c-1.2-2.2-2.8-2.3-4.6-0.7c-2.4,2-1.3,4.5-0.7,6.6c2.7,9.8,5.7,19.5,9.3,29
			c3,8.1,5.9,16.2,8.5,24.4c2.4,7.5,4.8,15.1,8,22.3c4.5,10.3,9.7,20.2,15.8,29.7c2.9,4.5,5.7,9.1,9.4,13.2 M107.4,234.6
			c-0.3-2.2-0.6-3.8-0.9-5.5c-0.3-1.3-0.1-3.2-1.9-3.4c-1.8-0.2-3.3,1.2-3.7,2.8c-1.6,5.6-1.5,11.3,0.8,16.6
			c1.3,3.1,4.2,0.8,6.2,0.5c2-0.2,1.8-2.1,1.2-3.4C107.9,239.7,107.9,236.8,107.4,234.6z M85.1,258.6c0.9,2.1,1.6,4.3,2.7,6.4
			c0.9,1.6,1.8,3.4,3.8,4c1.8,0.5,3-0.5,4.2-1.3c0.7-0.4,0.6-1.2,0-1.8c-3.8-3.3-4.9-7.9-5.7-12.6c-0.3-2.1-1.2-2.2-2.9-1.2
			C84.7,253.6,85.5,256.1,85.1,258.6z M93.2,254.1c0.9,3.3,2.1,6.4,4.6,9c1.4,1.5,2.9,1.4,4.6,0.9c1.2-0.4,2-1.3,2-2.6
			c0.1-2.2-1.9-1.6-3.1-2.1c-4.4-1.7-5.8-5.5-3.4-9.6c0.6-1,1.3-1.9,0.3-2.8c-1.3-1.2-2.2,0-3,0.8C93.2,249.4,92.6,251.6,93.2,254.1
			z"/>
		
			<radialGradient id="SVGID_4_" cx="1133.0833" cy="310.8095" r="95.4263" fx="1037.8275" fy="316.5112" gradientTransform="matrix(0.56 0.8285 0.6578 -0.4447 -731.0965 -489.6858)" gradientUnits="userSpaceOnUse">
			<stop  offset="0.1227" style="stop-color:#EBF7FD"/>
			<stop  offset="0.7178" style="stop-color:#48C7F4"/>
		</radialGradient>
		<path style="fill:url(#SVGID_4_);" d="M124,363c-3.7-4.1-6.5-8.7-9.4-13.2c-6.1-9.5-11.3-19.4-15.8-29.7c-3.2-7.2-5.6-14.8-8-22.3
			c-2.6-8.2-5.5-16.3-8.5-24.4c-3.6-9.5-6.5-19.2-9.3-29c-0.6-2.1-1.6-4.6,0.7-6.6c1.9-1.6,3.5-1.5,4.6,0.7c1.6,3.2,3.1,6.4,4.7,9.5
			c0.6,1.2,0.7,2.1,0,3.3c-4.1,6.2,1.8,18.2,6.7,20.4c2.6,1.2,5.1,0.4,7.4-1c1-0.6,1.7-1.7,2.8-2.2c1.8-0.9,3.8-2,4.5,1.3
			c0.3,1.3,1,2.7,2.7,2.1c1.6-0.6,0.8-2,0.6-3.1c-0.6-3.5-0.6-6.8,1.9-9.7c0.7-0.8,0.9-1.7,0.3-2.6c-0.6-0.9-1.5-0.6-2.3-0.4
			c-1.8,0.3-3.5,0.5-5.3,0.1c-1.3-0.3-2.1-1.1-2.5-2.3c-0.4-1.2,0.7-1.9,1.5-2.6c3.5-2.9,11.8-3.6,15.6-1.2c3,1.9,3.4,5,3.2,8.2
			c-0.1,1.1-0.3,2.2-0.7,3.1c-3.7,8.3,0,15,4.9,21.1c2,2.6,2.4,5,1.7,7.9c-2.8,11.5-3.6,23.4-4,35.1c-0.4,11.4-0.4,23,2.2,34.3
			C124.4,360.7,125,361.8,124,363z"/>
		<path style="fill:#C9EAF7;" d="M107.4,234.6c0.5,2.2,0.5,5.1,1.7,7.7c0.6,1.3,0.8,3.2-1.2,3.4c-2.1,0.2-4.9,2.5-6.2-0.5
			c-2.3-5.3-2.4-11-0.8-16.6c0.4-1.6,1.9-3,3.7-2.8c1.8,0.2,1.7,2,1.9,3.4C106.8,230.8,107.1,232.4,107.4,234.6z"/>
		<path style="fill:#C9EAF7;" d="M85.1,258.6c0.4-2.4-0.4-5,2.1-6.6c1.6-1.1,2.5-1,2.9,1.2c0.8,4.7,1.9,9.3,5.7,12.6
			c0.7,0.6,0.7,1.4,0,1.8c-1.2,0.8-2.4,1.8-4.2,1.3c-2.1-0.6-3-2.3-3.8-4C86.7,262.9,86,260.6,85.1,258.6z"/>
		<path style="fill:#C9EAF7;" d="M93.2,254.1c-0.6-2.5,0-4.7,1.9-6.5c0.8-0.7,1.8-1.9,3-0.8c1,0.9,0.3,1.9-0.3,2.8
			c-2.4,4.1-1,7.9,3.4,9.6c1.2,0.4,3.2-0.2,3.1,2.1c0,1.3-0.8,2.2-2,2.6c-1.6,0.5-3.2,0.6-4.6-0.9C95.3,260.6,94.1,257.5,93.2,254.1
			z"/>
	</g>
	<g style="display:inline;">
		<path style="fill:#4A606B;stroke:#4A606B;stroke-width:4;stroke-linecap:round;stroke-linejoin:round;stroke-miterlimit:10;" d="
			M365.5,290.4l-2.2-11.4c3.8-3.5,6.6-8.1,5.3-13.6c-2.2-9.3-0.5-15.1,6.2-19c4.9-2.9,5.6-7.5,6.1-12.3c0.2-1.9,1-5.3,1.4-7.1
			c0.7-3,2.3-3.9,4.7-4.1c4.8,0.2,6.5,3,7.1,9.4c0.2,3.6-0.2,7.5-0.8,10.6c-0.4,2,5.5,4.4,9.8,6c1.1,0.4,2.3,0,2.9-1.1
			c2-3.7,5.3-10.1,5.9-11.1c2.1-3.7,4-3.2,6.5-2.4c4.8,2.1,3.2,6,2.3,11.1c-0.8,3.1-3.5,10.8-4.4,14.2c-3.4,11.8-5.1,16.4-9.1,28.1
			c-3.5,10.1-6.4,17.7-10.1,27.8c-1.9,5.3-5.6,13.4-7.6,18.7c-2.9,5.9-7.8,15.6-12.1,21.4c-4.2,6.2-5.3,8.9-9.5,15
			c-3,3.8-5.2,10.8-8.2,14.6c-1.5,1.9-1.9,4.7-2.8,7.1l10.7-29.3 M367.5,363c3.7-4.1,6.5-8.7,9.4-13.2c6.1-9.5,11.3-19.4,15.8-29.7
			c3.2-7.2,5.6-14.8,8-22.3c2.6-8.2,5.5-16.3,8.5-24.4c3.6-9.5,6.5-19.2,9.3-29c0.6-2.1,1.6-4.6-0.7-6.6c-1.9-1.6-3.5-1.5-4.6,0.7
			c-1.6,3.2-3.1,6.4-4.7,9.5c-0.6,1.2-0.7,2.1,0,3.3c4.1,6.2-1.8,18.2-6.7,20.4c-2.6,1.2-5.1,0.4-7.4-1c-1-0.6-1.7-1.7-2.8-2.2
			c-1.8-0.9-3.8-2-4.5,1.3c-0.3,1.3-1,2.7-2.7,2.1c-1.6-0.6-0.8-2-0.6-3.1c0.6-3.5,0.6-6.8-1.9-9.7c-0.7-0.8-0.9-1.7-0.3-2.6
			c0.6-0.9,1.5-0.6,2.3-0.4c1.8,0.3,3.5,0.5,5.3,0.1c1.3-0.3,2.1-1.1,2.5-2.3c0.4-1.2-0.7-1.9-1.5-2.6c-3.5-2.9-11.8-3.6-15.6-1.2
			c-3,1.9-3.4,5-3.2,8.2c0.1,1.1,0.3,2.2,0.7,3.1c3.7,8.3,0,15-4.9,21.1c-2,2.6-2.4,5-1.7,7.9 M382.3,242.3
			c-0.6,1.3-0.8,3.2,1.2,3.4c2.1,0.2,4.9,2.5,6.2-0.5c2.3-5.3,2.4-11,0.8-16.6c-0.4-1.6-1.9-3-3.7-2.8c-1.8,0.2-1.7,2-1.9,3.4
			c-0.3,1.6-0.5,3.3-0.9,5.5C383.5,236.8,383.6,239.7,382.3,242.3z M404.3,252c-1.6-1.1-2.5-1-2.9,1.2c-0.8,4.7-1.9,9.3-5.7,12.6
			c-0.7,0.6-0.7,1.4,0,1.8c1.2,0.8,2.4,1.8,4.2,1.3c2.1-0.6,3-2.3,3.8-4c1.1-2.1,1.8-4.3,2.7-6.4C406,256.1,406.7,253.6,404.3,252z
			 M396.4,247.7c-0.8-0.7-1.8-1.9-3-0.8c-1,0.9-0.3,1.9,0.3,2.8c2.4,4.1,1,7.9-3.4,9.6c-1.2,0.4-3.2-0.2-3.1,2.1
			c0,1.3,0.8,2.2,2,2.6c1.6,0.5,3.2,0.6,4.6-0.9c2.4-2.6,3.7-5.7,4.6-9C398.9,251.6,398.3,249.4,396.4,247.7z"/>
		
			<radialGradient id="SVGID_5_" cx="1420.0304" cy="310.8095" r="95.4263" fx="1324.7747" fy="316.5112" gradientTransform="matrix(-0.56 0.8285 -0.6578 -0.4447 1383.2883 -727.41)" gradientUnits="userSpaceOnUse">
			<stop  offset="0.1227" style="stop-color:#EBF7FD"/>
			<stop  offset="0.7178" style="stop-color:#48C7F4"/>
		</radialGradient>
		<path style="fill:url(#SVGID_5_);" d="M367.3,359.7c2.6-11.3,2.6-22.8,2.2-34.3c-0.4-11.8-1.2-23.6-4-35.1
			c-0.7-2.9-0.3-5.3,1.7-7.9c4.8-6.2,8.6-12.9,4.9-21.1c-0.4-1-0.6-2.1-0.7-3.1c-0.2-3.2,0.2-6.3,3.2-8.2c3.8-2.4,12.1-1.6,15.6,1.2
			c0.8,0.7,1.9,1.4,1.5,2.6c-0.3,1.1-1.2,2-2.5,2.3c-1.8,0.4-3.5,0.2-5.3-0.1c-0.8-0.1-1.7-0.4-2.3,0.4c-0.6,0.9-0.4,1.9,0.3,2.6
			c2.5,2.9,2.5,6.2,1.9,9.7c-0.2,1.1-1,2.5,0.6,3.1c1.7,0.6,2.4-0.8,2.7-2.1c0.7-3.4,2.7-2.2,4.5-1.3c1,0.5,1.8,1.6,2.8,2.2
			c2.3,1.4,4.8,2.2,7.4,1c4.9-2.2,10.8-14.2,6.7-20.4c-0.8-1.2-0.7-2.1,0-3.3c1.7-3.1,3.1-6.4,4.7-9.5c1.2-2.2,2.8-2.3,4.6-0.7
			c2.4,2,1.3,4.5,0.7,6.6c-2.7,9.8-5.7,19.5-9.3,29c-3,8.1-5.9,16.2-8.5,24.4c-2.4,7.5-4.8,15.1-8,22.3
			c-4.5,10.3-9.7,20.2-15.8,29.7c-2.9,4.5-5.7,9.1-9.4,13.2C366.5,361.8,367.1,360.7,367.3,359.7z"/>
		<path style="fill:#C9EAF7;" d="M384.1,234.6c-0.5,2.2-0.5,5.1-1.7,7.7c-0.6,1.3-0.8,3.2,1.2,3.4c2.1,0.2,4.9,2.5,6.2-0.5
			c2.3-5.3,2.4-11,0.8-16.6c-0.4-1.6-1.9-3-3.7-2.8c-1.8,0.2-1.7,2-1.9,3.4C384.6,230.8,384.4,232.4,384.1,234.6z"/>
		<path style="fill:#C9EAF7;" d="M406.4,258.6c-0.4-2.4,0.4-5-2.1-6.6c-1.6-1.1-2.5-1-2.9,1.2c-0.8,4.7-1.9,9.3-5.7,12.6
			c-0.7,0.6-0.7,1.4,0,1.8c1.2,0.8,2.4,1.8,4.2,1.3c2.1-0.6,3-2.3,3.8-4C404.8,262.9,405.5,260.6,406.4,258.6z"/>
		<path style="fill:#C9EAF7;" d="M398.3,254.1c0.6-2.5,0-4.7-1.9-6.5c-0.8-0.7-1.8-1.9-3-0.8c-1,0.9-0.3,1.9,0.3,2.8
			c2.4,4.1,1,7.9-3.4,9.6c-1.2,0.4-3.2-0.2-3.1,2.1c0,1.3,0.8,2.2,2,2.6c1.6,0.5,3.2,0.6,4.6-0.9
			C396.2,260.6,397.4,257.5,398.3,254.1z"/>
	</g>
</g>
<g id="Layer_8">
	<g>
		<path style="fill:#4A606B;stroke:#4A606B;stroke-width:4;stroke-linecap:round;stroke-linejoin:round;stroke-miterlimit:10;" d="
			M124,363l10.7,29.3c-0.9-2.4-1.3-5.1-2.8-7.1c-3-3.8-5.2-10.8-8.2-14.6c-4.2-6.2-5.3-8.9-9.5-15c-4.2-5.9-9.2-15.5-12.1-21.4
			c-2-5.3-5.6-13.3-7.6-18.7c-3.6-10-6.6-17.7-10.1-27.8c-4-11.6-5.7-16.2-9.1-28.1c-1-3.3-3.6-11.1-4.4-14.2
			c-0.9-5.2-2.5-9,2.3-11.1c2.5-0.9,4.4-1.4,6.5,2.4c0.5,1,3.9,7.4,5.9,11.1c0.5,1,1.8,1.5,2.9,1.1c4.3-1.6,10.3-4,9.8-6
			c-0.6-3-1.1-7-0.8-10.6c0.6-6.4,2.3-9.2,7.1-9.4c2.3,0.3,4,1.2,4.7,4.1c0.4,1.9,1.2,5.2,1.4,7.1c0.5,4.8,1.1,9.4,6.1,12.3
			c6.7,3.9,8.4,9.7,6.2,19c-1.3,5.5,1.5,10.1,5.3,13.6l-2.2,11.4 M126,290.4c0.7-2.9,0.3-5.3-1.7-7.9c-4.8-6.2-8.6-12.9-4.9-21.1
			c0.4-1,0.6-2.1,0.7-3.1c0.2-3.2-0.2-6.3-3.2-8.2c-3.8-2.4-12.1-1.6-15.6,1.2c-0.8,0.7-1.9,1.4-1.5,2.6c0.3,1.1,1.2,2,2.5,2.3
			c1.8,0.4,3.5,0.2,5.3-0.1c0.8-0.1,1.7-0.4,2.3,0.4c0.6,0.9,0.4,1.9-0.3,2.6c-2.5,2.9-2.5,6.2-1.9,9.7c0.2,1.1,1,2.5-0.6,3.1
			c-1.7,0.6-2.4-0.8-2.7-2.1c-0.7-3.4-2.7-2.2-4.5-1.3c-1,0.5-1.8,1.6-2.8,2.2c-2.3,1.4-4.8,2.2-7.4,1c-4.9-2.2-10.8-14.2-6.7-20.4
			c0.8-1.2,0.7-2.1,0-3.3c-1.7-3.1-3.1-6.4-4.7-9.5c-1.2-2.2-2.8-2.3-4.6-0.7c-2.4,2-1.3,4.5-0.7,6.6c2.7,9.8,5.7,19.5,9.3,29
			c3,8.1,5.9,16.2,8.5,24.4c2.4,7.5,4.8,15.1,8,22.3c4.5,10.3,9.7,20.2,15.8,29.7c2.9,4.5,5.7,9.1,9.4,13.2 M107.4,234.6
			c-0.3-2.2-0.6-3.8-0.9-5.5c-0.3-1.3-0.1-3.2-1.9-3.4c-1.8-0.2-3.3,1.2-3.7,2.8c-1.6,5.6-1.5,11.3,0.8,16.6
			c1.3,3.1,4.2,0.8,6.2,0.5c2-0.2,1.8-2.1,1.2-3.4C107.9,239.7,107.9,236.8,107.4,234.6z M85.1,258.6c0.9,2.1,1.6,4.3,2.7,6.4
			c0.9,1.6,1.8,3.4,3.8,4c1.8,0.5,3-0.5,4.2-1.3c0.7-0.4,0.6-1.2,0-1.8c-3.8-3.3-4.9-7.9-5.7-12.6c-0.3-2.1-1.2-2.2-2.9-1.2
			C84.7,253.6,85.5,256.1,85.1,258.6z M93.2,254.1c0.9,3.3,2.1,6.4,4.6,9c1.4,1.5,2.9,1.4,4.6,0.9c1.2-0.4,2-1.3,2-2.6
			c0.1-2.2-1.9-1.6-3.1-2.1c-4.4-1.7-5.8-5.5-3.4-9.6c0.6-1,1.3-1.9,0.3-2.8c-1.3-1.2-2.2,0-3,0.8C93.2,249.4,92.6,251.6,93.2,254.1
			z"/>
		
			<radialGradient id="SVGID_6_" cx="1133.0833" cy="310.8095" r="95.4263" fx="1037.8275" fy="316.5112" gradientTransform="matrix(0.56 0.8285 0.6578 -0.4447 -731.0966 -489.6858)" gradientUnits="userSpaceOnUse">
			<stop  offset="0.1104" style="stop-color:#DBEAF7"/>
			<stop  offset="0.6813" style="stop-color:#9194C9"/>
		</radialGradient>
		<path style="fill:url(#SVGID_6_);" d="M124,363c-3.7-4.1-6.5-8.7-9.4-13.2c-6.1-9.5-11.3-19.4-15.8-29.7c-3.2-7.2-5.6-14.8-8-22.3
			c-2.6-8.2-5.5-16.3-8.5-24.4c-3.6-9.5-6.5-19.2-9.3-29c-0.6-2.1-1.6-4.6,0.7-6.6c1.9-1.6,3.5-1.5,4.6,0.7c1.6,3.2,3.1,6.4,4.7,9.5
			c0.6,1.2,0.7,2.1,0,3.3c-4.1,6.2,1.8,18.2,6.7,20.4c2.6,1.2,5.1,0.4,7.4-1c1-0.6,1.7-1.7,2.8-2.2c1.8-0.9,3.8-2,4.5,1.3
			c0.3,1.3,1,2.7,2.7,2.1c1.6-0.6,0.8-2,0.6-3.1c-0.6-3.5-0.6-6.8,1.9-9.7c0.7-0.8,0.9-1.7,0.3-2.6c-0.6-0.9-1.5-0.6-2.3-0.4
			c-1.8,0.3-3.5,0.5-5.3,0.1c-1.3-0.3-2.1-1.1-2.5-2.3c-0.4-1.2,0.7-1.9,1.5-2.6c3.5-2.9,11.8-3.6,15.6-1.2c3,1.9,3.4,5,3.2,8.2
			c-0.1,1.1-0.3,2.2-0.7,3.1c-3.7,8.3,0,15,4.9,21.1c2,2.6,2.4,5,1.7,7.9c-2.8,11.5-3.6,23.4-4,35.1c-0.4,11.4-0.4,23,2.2,34.3
			C124.4,360.7,125,361.8,124,363z"/>
		<path style="fill:#BDC8E4;" d="M107.4,234.6c0.5,2.2,0.5,5.1,1.7,7.7c0.6,1.3,0.8,3.2-1.2,3.4c-2.1,0.2-4.9,2.5-6.2-0.5
			c-2.3-5.3-2.4-11-0.8-16.6c0.4-1.6,1.9-3,3.7-2.8c1.8,0.2,1.7,2,1.9,3.4C106.8,230.8,107.1,232.4,107.4,234.6z"/>
		<path style="fill:#BDC8E4;" d="M85.1,258.6c0.4-2.4-0.4-5,2.1-6.6c1.6-1.1,2.5-1,2.9,1.2c0.8,4.7,1.9,9.3,5.7,12.6
			c0.7,0.6,0.7,1.4,0,1.8c-1.2,0.8-2.4,1.8-4.2,1.3c-2.1-0.6-3-2.3-3.8-4C86.7,262.9,86,260.6,85.1,258.6z"/>
		<path style="fill:#BDC8E4;" d="M93.2,254.1c-0.6-2.5,0-4.7,1.9-6.5c0.8-0.7,1.8-1.9,3-0.8c1,0.9,0.3,1.9-0.3,2.8
			c-2.4,4.1-1,7.9,3.4,9.6c1.2,0.4,3.2-0.2,3.1,2.1c0,1.3-0.8,2.2-2,2.6c-1.6,0.5-3.2,0.6-4.6-0.9C95.3,260.6,94.1,257.5,93.2,254.1
			z"/>
	</g>
	<g>
		<path style="fill:#4A606B;stroke:#4A606B;stroke-width:4;stroke-linecap:round;stroke-linejoin:round;stroke-miterlimit:10;" d="
			M364.7,290.4l-2.2-11.4c3.8-3.5,6.6-8.1,5.3-13.6c-2.2-9.3-0.5-15.1,6.2-19c4.9-2.9,5.6-7.5,6.1-12.3c0.2-1.9,1-5.3,1.4-7.1
			c0.7-3,2.3-3.9,4.7-4.1c4.8,0.2,6.5,3,7.1,9.4c0.2,3.6-0.2,7.5-0.8,10.6c-0.4,2,5.5,4.4,9.8,6c1.1,0.4,2.3,0,2.9-1.1
			c2-3.7,5.3-10.1,5.9-11.1c2.1-3.7,4-3.2,6.5-2.4c4.8,2.1,3.2,6,2.3,11.1c-0.8,3.1-3.5,10.8-4.4,14.2c-3.4,11.8-5.1,16.4-9.1,28.1
			c-3.5,10.1-6.4,17.7-10.1,27.8c-1.9,5.3-5.6,13.4-7.6,18.7c-2.9,5.9-7.8,15.6-12.1,21.4c-4.2,6.2-5.3,8.9-9.5,15
			c-3,3.8-5.2,10.8-8.2,14.6c-1.5,1.9-1.9,4.7-2.8,7.1l10.7-29.3 M366.8,363c3.7-4.1,6.5-8.7,9.4-13.2c6.1-9.5,11.3-19.4,15.8-29.7
			c3.2-7.2,5.6-14.8,8-22.3c2.6-8.2,5.5-16.3,8.5-24.4c3.6-9.5,6.5-19.2,9.3-29c0.6-2.1,1.6-4.6-0.7-6.6c-1.9-1.6-3.5-1.5-4.6,0.7
			c-1.6,3.2-3.1,6.4-4.7,9.5c-0.6,1.2-0.7,2.1,0,3.3c4.1,6.2-1.8,18.2-6.7,20.4c-2.6,1.2-5.1,0.4-7.4-1c-1-0.6-1.7-1.7-2.8-2.2
			c-1.8-0.9-3.8-2-4.5,1.3c-0.3,1.3-1,2.7-2.7,2.1c-1.6-0.6-0.8-2-0.6-3.1c0.6-3.5,0.6-6.8-1.9-9.7c-0.7-0.8-0.9-1.7-0.3-2.6
			c0.6-0.9,1.5-0.6,2.3-0.4c1.8,0.3,3.5,0.5,5.3,0.1c1.3-0.3,2.1-1.1,2.5-2.3c0.4-1.2-0.7-1.9-1.5-2.6c-3.5-2.9-11.8-3.6-15.6-1.2
			c-3,1.9-3.4,5-3.2,8.2c0.1,1.1,0.3,2.2,0.7,3.1c3.7,8.3,0,15-4.9,21.1c-2,2.6-2.4,5-1.7,7.9 M381.6,242.3
			c-0.6,1.3-0.8,3.2,1.2,3.4c2.1,0.2,4.9,2.5,6.2-0.5c2.3-5.3,2.4-11,0.8-16.6c-0.4-1.6-1.9-3-3.7-2.8c-1.8,0.2-1.7,2-1.9,3.4
			c-0.3,1.6-0.5,3.3-0.9,5.5C382.8,236.8,382.9,239.7,381.6,242.3z M403.6,252c-1.6-1.1-2.5-1-2.9,1.2c-0.8,4.7-1.9,9.3-5.7,12.6
			c-0.7,0.6-0.7,1.4,0,1.8c1.2,0.8,2.4,1.8,4.2,1.3c2.1-0.6,3-2.3,3.8-4c1.1-2.1,1.8-4.3,2.7-6.4C405.3,256.1,406,253.6,403.6,252z
			 M395.7,247.7c-0.8-0.7-1.8-1.9-3-0.8c-1,0.9-0.3,1.9,0.3,2.8c2.4,4.1,1,7.9-3.4,9.6c-1.2,0.4-3.2-0.2-3.1,2.1
			c0,1.3,0.8,2.2,2,2.6c1.6,0.5,3.2,0.6,4.6-0.9c2.4-2.6,3.7-5.7,4.6-9C398.2,251.6,397.6,249.4,395.7,247.7z"/>
		
			<radialGradient id="SVGID_7_" cx="1419.3188" cy="310.8095" r="95.4263" fx="1324.0631" fy="316.5112" gradientTransform="matrix(-0.56 0.8285 -0.6578 -0.4447 1382.1782 -726.8204)" gradientUnits="userSpaceOnUse">
			<stop  offset="0.1104" style="stop-color:#DBEAF7"/>
			<stop  offset="0.6813" style="stop-color:#9194C9"/>
		</radialGradient>
		<path style="fill:url(#SVGID_7_);" d="M366.6,359.7c2.6-11.3,2.6-22.8,2.2-34.3c-0.4-11.8-1.2-23.6-4-35.1
			c-0.7-2.9-0.3-5.3,1.7-7.9c4.8-6.2,8.6-12.9,4.9-21.1c-0.4-1-0.6-2.1-0.7-3.1c-0.2-3.2,0.2-6.3,3.2-8.2c3.8-2.4,12.1-1.6,15.6,1.2
			c0.8,0.7,1.9,1.4,1.5,2.6c-0.3,1.1-1.2,2-2.5,2.3c-1.8,0.4-3.5,0.2-5.3-0.1c-0.8-0.1-1.7-0.4-2.3,0.4c-0.6,0.9-0.4,1.9,0.3,2.6
			c2.5,2.9,2.5,6.2,1.9,9.7c-0.2,1.1-1,2.5,0.6,3.1c1.7,0.6,2.4-0.8,2.7-2.1c0.7-3.4,2.7-2.2,4.5-1.3c1,0.5,1.8,1.6,2.8,2.2
			c2.3,1.4,4.8,2.2,7.4,1c4.9-2.2,10.8-14.2,6.7-20.4c-0.8-1.2-0.7-2.1,0-3.3c1.7-3.1,3.1-6.4,4.7-9.5c1.2-2.2,2.8-2.3,4.6-0.7
			c2.4,2,1.3,4.5,0.7,6.6c-2.7,9.8-5.7,19.5-9.3,29c-3,8.1-5.9,16.2-8.5,24.4c-2.4,7.5-4.8,15.1-8,22.3
			c-4.5,10.3-9.7,20.2-15.8,29.7c-2.9,4.5-5.7,9.1-9.4,13.2C365.8,361.8,366.4,360.7,366.6,359.7z"/>
		<path style="fill:#BDC8E4;" d="M383.4,234.6c-0.5,2.2-0.5,5.1-1.7,7.7c-0.6,1.3-0.8,3.2,1.2,3.4c2.1,0.2,4.9,2.5,6.2-0.5
			c2.3-5.3,2.4-11,0.8-16.6c-0.4-1.6-1.9-3-3.7-2.8c-1.8,0.2-1.7,2-1.9,3.4C383.9,230.8,383.7,232.4,383.4,234.6z"/>
		<path style="fill:#BDC8E4;" d="M405.7,258.6c-0.4-2.4,0.4-5-2.1-6.6c-1.6-1.1-2.5-1-2.9,1.2c-0.8,4.7-1.9,9.3-5.7,12.6
			c-0.7,0.6-0.7,1.4,0,1.8c1.2,0.8,2.4,1.8,4.2,1.3c2.1-0.6,3-2.3,3.8-4C404.1,262.9,404.8,260.6,405.7,258.6z"/>
		<path style="fill:#BDC8E4;" d="M397.6,254.1c0.6-2.5,0-4.7-1.9-6.5c-0.8-0.7-1.8-1.9-3-0.8c-1,0.9-0.3,1.9,0.3,2.8
			c2.4,4.1,1,7.9-3.4,9.6c-1.2,0.4-3.2-0.2-3.1,2.1c0,1.3,0.8,2.2,2,2.6c1.6,0.5,3.2,0.6,4.6-0.9
			C395.5,260.6,396.7,257.5,397.6,254.1z"/>
	</g>
</g>
<g id="Layer_1" style="display:none;">
	<g style="display:inline;">
		<g>
			<path style="fill:#4A606B;" d="M371.4,297.9c-4.3-16.1-11.9-31.4-22.3-44.8c-24.8-31.9-64-50-104.2-50.2
				c-41.3-0.2-81,19.7-105.6,52.8c-15.8,21.1-24.2,47.1-24.3,73.4c0.2,40.7,20.6,78.5,53.5,102.2c33.6,24.2,77.8,30.7,117.2,18.5
				c39-12,70.8-42.8,83.8-81.4C377.3,345.4,377.6,320.8,371.4,297.9z"/>
			<radialGradient id="SVGID_8_" cx="280.3864" cy="260.4281" r="216.5543" gradientUnits="userSpaceOnUse">
				<stop  offset="0.1227" style="stop-color:#EBF7FD"/>
				<stop  offset="0.7262" style="stop-color:#9A9C9F"/>
			</radialGradient>
			<path style="fill:url(#SVGID_8_);" d="M370.2,328.3c0,67-56,121.4-125.2,121.4c-69.1,0-125.2-54.3-125.2-121.4
				c0-67,56-121.4,125.2-121.4C314.1,206.9,370.2,261.2,370.2,328.3z"/>
			<radialGradient id="SVGID_9_" cx="280.3864" cy="275.5011" r="202.583" gradientUnits="userSpaceOnUse">
				<stop  offset="0.1104" style="stop-color:#DBEAF7"/>
				<stop  offset="0.7278" style="stop-color:#898B8D"/>
			</radialGradient>
			<path style="fill:url(#SVGID_9_);" d="M119.8,328.3c0,67,56,121.4,125.2,121.4c69.1,0,125.2-54.3,125.2-121.4
				c0-29-10.5-55.6-28-76.5c2.6,7.6,5.2,15.1,6.9,23c2.6,12.2-1.4,22.6-8.8,32.1c-5.6,7.1-9.5,15.8-15.9,22.2
				c-1.1,1.1-2.3,2-3.7,2.7c-2.3-1.8-3.1,8.5-27.1,32.9c-13.4,13.4-35,5.4-38.7,3.7c-14.2-6.4-25.4-12.4-40.1-20.3
				c-13-6.9-13.6-19.8-26.8-26.4c-9.9-4.9-23.1-10.2-22.5-22.8c0.2-5.3-2.6-8.7-6.4-10.1c-0.1-1.3-0.1-2.6-0.1-4
				c0.2-12.4,4.7-25.1,10.1-36.1c1.6-3.2,1.5-6.3,0.6-9c2.8-4.4,5.3-8.9,7.6-13.6C142.7,247.8,119.8,285.4,119.8,328.3z"/>
			<path style="fill:#676767;" d="M245,449.6c63.9,0,116.5-46.4,124.2-106.3c-1.1,3-2.1,6.1-3.1,9.2c-2.3,7.1-7.8,11.8-12.7,17.1
				c-9.4,10.2-16.4,22.7-25.3,33.4c-21.5,25.7-55.7,32.3-87.7,27.1c-17.5-2.9-33.9-9.6-50.2-16.1c-6.9-2.8-13.3-5.6-18.4-11.1
				c-4.7-5.1-8.1-11.5-12.7-16.7c-4-4.5-9.1-8.1-13.3-12.4c-5.2-5.2-7.4-13.1-10.1-19.8c-4.2-10.5-8.9-20.5-15.7-29.3
				c0,1.2-0.1,2.4-0.1,3.6C119.8,395.3,175.8,449.6,245,449.6z"/>
			
				<radialGradient id="SVGID_10_" cx="346.8827" cy="218.0071" r="262.4888" gradientTransform="matrix(1 0 0 1.0974 0 -45.9011)" gradientUnits="userSpaceOnUse">
				<stop  offset="0.1043" style="stop-color:#FFFFFF"/>
				<stop  offset="0.6943" style="stop-color:#D9DBDC"/>
			</radialGradient>
			<path style="fill:url(#SVGID_10_);" d="M304.1,252.2c-21-16.4-61.4-22.4-84-7.8c-7.8,5-8.4,14.1-5.2,20.9c-0.2,0.5-0.4,1-0.6,1.5
				c-4.9,15.2,6.5,30.9,18.3,36.7c13,6.4,27.4,7.6,41.4,9.6c14.2,2,34.3-6.5,42.1-20.1C325.5,276.6,316.6,262,304.1,252.2z"/>
			<g>
				<radialGradient id="SVGID_11_" cx="263.1321" cy="250.3061" r="161.74" gradientUnits="userSpaceOnUse">
					<stop  offset="0.2699" style="stop-color:#A9D1EF"/>
					<stop  offset="0.4027" style="stop-color:#A6CDEA"/>
					<stop  offset="0.5595" style="stop-color:#9EC1DC"/>
					<stop  offset="0.7286" style="stop-color:#91AEC4"/>
					<stop  offset="0.9052" style="stop-color:#7E94A3"/>
					<stop  offset="1" style="stop-color:#72838E"/>
				</radialGradient>
				<path style="fill:url(#SVGID_11_);" d="M161.9,319.3c0,0-0.5-0.1-0.9-0.2c-0.1-0.5-0.2-1-0.2-1c0,0-0.3-1.5-0.3-1.5
					c-1.1-5.8-5.5-8.6-11.1-12.2c-5.5-3.5-14-3.6-19.8-3.2c0.3-0.9,0.5-1.8,0.5-2.7c0-1.3-0.3-2.6-0.8-3.8c-0.7-1.7-2.1-2.9-3.8-3.4
					c-3.8,11.7-5.9,24.1-5.9,37c0,7.3,0.7,14.5,2,21.5c0,0,0.1,0,0.1,0.1c-0.1-0.1,1.4,1.3,1.8,1.7c0.5,0.7,2.6,4.1,3,16.2
					c0,0.1,0,0.3,0,0.4c3.5,9.8,8.3,19.1,14.2,27.6c1.7,0.8,3.5,1.2,5.4,0.8c2.3-0.5,6.3-2.5,6.5-10c0.2-8.7,1.2-15.4,1.5-17.1
					c0.2-0.6,1.5-3.4,6.1-8.2c14.9-15.7,15.5-22.3,16-28.2c0,0,0.1-1.2,0.1-1.2c0,0,0.1-1,0.1-1
					C176.6,322.4,166.7,320.3,161.9,319.3z M127.4,305.4c0.4-0.4,0.5-0.8,0.8-1.2C128,304.6,127.8,305,127.4,305.4z"/>
				<radialGradient id="SVGID_12_" cx="263.1321" cy="250.3065" r="161.7405" gradientUnits="userSpaceOnUse">
					<stop  offset="0.2699" style="stop-color:#A9D1EF"/>
					<stop  offset="0.4027" style="stop-color:#A6CDEA"/>
					<stop  offset="0.5595" style="stop-color:#9EC1DC"/>
					<stop  offset="0.7286" style="stop-color:#91AEC4"/>
					<stop  offset="0.9052" style="stop-color:#7E94A3"/>
					<stop  offset="1" style="stop-color:#72838E"/>
				</radialGradient>
				<path style="fill:url(#SVGID_12_);" d="M138.4,291.8c1.8-1,3-2.8,3.3-4.8c0,0,0.1-1.2,0.1-1.2c0-0.8-0.2-1.6-0.4-2.4
					c2.8-1.2,4.2-4,5.1-5.8c0,0.1,1-1.8,1.2-2.2c2-3.2,5.9-5.7,9.3-7.9c3.2-2.1,6.3-4.1,8.3-6.8c1.6-2.1,2.4-4.3,2.4-6.5
					c0-3.9-2.4-6.7-3.8-8.2c0,0-0.9-1-0.9-1c-1.1-2.2-2.5-3.7-4.2-4.6c-14.6,13.4-25.9,30.2-32.4,49.1c0.6,0.4,1.4,0.9,1.4,0.9
					C129.9,291.6,134,294.3,138.4,291.8z"/>
				<radialGradient id="SVGID_13_" cx="263.1321" cy="250.3052" r="161.7411" gradientUnits="userSpaceOnUse">
					<stop  offset="0.2752" style="stop-color:#A7BACD"/>
					<stop  offset="0.4439" style="stop-color:#A3B6C8"/>
					<stop  offset="0.6433" style="stop-color:#97A9BA"/>
					<stop  offset="0.8573" style="stop-color:#8394A2"/>
					<stop  offset="1" style="stop-color:#72838E"/>
				</radialGradient>
				<path style="fill:url(#SVGID_13_);" d="M299.2,237.4c-3,2.6-3.5,6.6-3.6,8.1c0,0.4,0,0.7,0,1c0,2.7,0.9,5.1,2.7,7
					c2.3,2.3,5.6,3.4,10.2,3.4c0.4,0.5,0.6,1.1,1.1,1.6c0,0.3-0.1,1-0.1,1l-0.1,2.9c0,2.5,0.4,5.1,1.1,7.9c1.4,5.1,5.7,8.8,11.9,10
					c5.8,1.2,15.7,0.4,19.2-4.1c1.4-1.8,2.2-3.8,2.2-5.9c0-0.7-0.1-1.4-0.3-2.1c1.8,1.1,3.6,2.3,5.4,4c0,0,1.3,1.2,1.3,1.2
					c1.9,1.7,4.7,2,6.9,0.9c-13.9-27.2-38.1-48.5-67.5-59.4c-1.9,2.4-3,5.6-3,9.2l0,0.4C286.8,232,293.3,235.6,299.2,237.4z"/>
				<radialGradient id="SVGID_14_" cx="263.1321" cy="250.3061" r="161.7408" gradientUnits="userSpaceOnUse">
					<stop  offset="0.2699" style="stop-color:#A9D1EF"/>
					<stop  offset="0.4027" style="stop-color:#A6CDEA"/>
					<stop  offset="0.5595" style="stop-color:#9EC1DC"/>
					<stop  offset="0.7286" style="stop-color:#91AEC4"/>
					<stop  offset="0.9052" style="stop-color:#7E94A3"/>
					<stop  offset="1" style="stop-color:#72838E"/>
				</radialGradient>
				<path style="fill:url(#SVGID_14_);" d="M370.1,324.2c-0.7-1.5-1.8-3-3.5-4.7c-7.5-7.2-15.9-4.4-18-3.6c-0.2,0.1-3.7,1.1-7.7-0.7
					c0.1,0,0.1,0.1,0.2,0.2c-0.8-0.5-1.9-1.1-3.4-1.9c-3.1-2-5.2-2.7-13.7-2.9c-6.5-0.2-12.4,2.6-16.5,7.9
					c-3.7,4.6-5.6,10.6-5.6,17.2c0,3,0.4,6.1,1.2,9.3c5,19.3,20.9,16.7,22.6,16.4c3.5-0.5,5.1,2.7,5.7,4.1c0.3,1.3,0.4,8.9-1.2,13.6
					c-1.9,5.6-0.6,10,0.3,13.4c0.4,1.5,0.8,3,1.1,4.6c0.3,2.4,1.8,7.5,8.8,9.8c18.6-21.2,29.8-48.6,29.8-78.6
					C370.2,326.9,370.1,325.6,370.1,324.2z"/>
				<radialGradient id="SVGID_15_" cx="263.1331" cy="250.3047" r="161.7424" gradientUnits="userSpaceOnUse">
					<stop  offset="0.2699" style="stop-color:#A9D1EF"/>
					<stop  offset="0.4027" style="stop-color:#A6CDEA"/>
					<stop  offset="0.5595" style="stop-color:#9EC1DC"/>
					<stop  offset="0.7286" style="stop-color:#91AEC4"/>
					<stop  offset="0.9052" style="stop-color:#7E94A3"/>
					<stop  offset="1" style="stop-color:#72838E"/>
				</radialGradient>
				<path style="fill:url(#SVGID_15_);" d="M199.1,240.7c4.7-4,5.2-9.7,5.4-13.2c0,0,0.1-1.1,0.1-1.1c0.3-3.7-0.5-6.7-2.5-8.9
					c-0.9-1-1.9-1.7-2.9-2.1c-13.3,5.1-25.5,12.3-36.2,21.3c-0.7,1.2-1,2.3-1.1,3c0,0,0,0.8,0,0.8c0,3.6,2.5,5.9,4,7.3
					c-0.1,0,0.7,0.7,0.7,0.7c1.8,1.9,4.6,2.7,7.6,2c2.8-0.6,6.1-2.7,7.8-5.8c0.1,0,0.3-0.1,0.5-0.1
					C189.9,245.1,195.4,243.8,199.1,240.7z M182.5,243.9c0,0-0.1,0.1-0.1,0.1c0.1-0.3,0.3-0.5,0.4-0.8
					C182.6,243.7,182.9,243.5,182.5,243.9z"/>
				<radialGradient id="SVGID_16_" cx="263.1331" cy="250.3001" r="161.745" gradientUnits="userSpaceOnUse">
					<stop  offset="0.2699" style="stop-color:#A9D1EF"/>
					<stop  offset="0.4027" style="stop-color:#A6CDEA"/>
					<stop  offset="0.5595" style="stop-color:#9EC1DC"/>
					<stop  offset="0.7286" style="stop-color:#91AEC4"/>
					<stop  offset="0.9052" style="stop-color:#7E94A3"/>
					<stop  offset="1" style="stop-color:#72838E"/>
				</radialGradient>
				<path style="fill:url(#SVGID_16_);" d="M305.4,419.9c0.1,0-2.4-0.8-2.4-0.8c0.1,0,0.3,0.1,0.4,0.2c-4.6-2.3-22.7-1.7-28.6,1
					c-3.1,1.4-15.2,2.1-21,2.5c0,0-3.9,0.2-3.9,0.2c-9.2,0.6-13.5,3.4-18.2,8.2c-3,3.1-3.8,3.9-13.3,3.9c-7,0-11.8-2.4-15.4-4.2
					c-1.7-0.9-3.2-1.6-4.7-2c-4.1-1-8.9,0.5-12.6,3.7c-0.6,0.5-1,1.1-1.3,1.8c18,9.7,38.7,15.2,60.7,15.2c27.2,0,52.3-8.4,72.9-22.7
					c-0.1-0.2-0.3-0.5-0.5-0.7C314.3,422.7,309.1,421.1,305.4,419.9z"/>
			</g>
			<path style="fill:#4A606B;" d="M276.1,423.4L276.1,423.4c-3.7,1.7-15.3,2.4-22.2,2.8l-3.9,0.2c-8.1,0.5-11.8,2.8-16,7.2
				c-3.4,3.5-4.8,4.9-15.7,4.9c-7.8,0-13.3-2.7-16.9-4.6c-1.6-0.8-2.9-1.4-4-1.7c-3-0.7-6.7,0.4-9.6,3c-0.6,0.6-1,1.4-0.8,2.3
				c0.1,0.8,0.6,1.6,1.4,2c17.7,8.5,36.7,12.8,56.6,12.8c24.7,0,48.6-6.9,69.3-19.9c0.6-0.4,1.1-1.1,1.2-1.8c0.1-0.7-0.1-1.5-0.6-2
				c-2.5-2.8-7.1-4.3-10.5-5.3l-2.5-0.9C298.4,420.6,281.4,421,276.1,423.4z"/>
			<path style="fill:#4A606B;" d="M185.7,219.3c-1.3,0.5-2.6,1.1-3.6,1.3c-0.2,0.1-0.5,0.1-0.7,0.3c-4.7,2.6-9.3,5.6-13.5,8.7
				c-0.7,0.5-1,1.2-1,2c0,0.1,0,0.2,0,0.3c0.1,0.9,0.7,1.7,1.6,2c0.9,0.3,1.5,0.6,2,0.8c-0.6,0.4-1.4,1-2.7,1.8
				c-1.9,1.1-2.4,2.5-2.5,3.5c0,0.2,0,0.3,0,0.4c0,2.1,1.7,3.7,2.9,4.8l0.8,0.8c0.6,0.7,2,1.7,4.5,1.1c2.4-0.5,5.2-2.4,6.1-5
				c0.2-0.3,1.5-0.8,2.7-0.9c6.7,0.5,11.5-0.5,14.6-3.1c3.6-3.1,4-7.6,4.2-10.8l0.1-1.1c0.3-2.7-0.3-4.9-1.7-6.3
				c-2.1-2.3-5.3-2.3-7.2-2.3C190.1,217.4,187.9,218.4,185.7,219.3z"/>
			<path style="fill:#4A606B;" d="M152.1,243.2c-11.2,11.5-19.9,24.8-25.9,39.5c-0.5,1.2,0.1,2.6,1.2,3.2l2.2,1.4
				c2,1.3,4.5,3,7.1,1.5c0.9-0.5,1.5-1.4,1.7-2.4c0-0.2,0-0.4,0-0.6c0-1.8-1.3-3.4-2.6-4.9c0.7-0.1,1.5-0.1,2.4-0.1
				c2.9,0,4.2-2.4,5.2-4.6l1.4-2.5c2.4-3.8,6.6-6.6,10.3-9c3-1.9,5.8-3.8,7.5-6c1.2-1.6,1.7-3.2,1.7-4.5c0-2.7-1.8-4.7-2.9-6
				c-0.6-0.6-1.1-1.2-1.3-1.7c-1.4-2.8-3.2-4-6.1-4C153.3,242.5,152.6,242.7,152.1,243.2z M123.8,294.4c-1.1,0.1-2,0.8-2.3,1.9
				l-1.2,4.7c0,0.2-0.1,0.4-0.1,0.5c0,0.1,0.1,0.2,0.1,0.4c-0.2,0.3-0.4,0.5-0.5,0.8l-0.9,4.9c0,0.1,0,0.2,0,0.4
				c0,0.5,0.2,1,0.4,1.4c0,0,0.2,0.4,0.4,0.6c-0.5,0.9-1,1.9-1.4,3c-0.1,0.2-0.1,0.4-0.1,0.6c-0.6,5.1-0.9,9.9-0.9,14.6
				c0,3.4,0.2,6.9,0.5,10.8c0,0.3,0.1,0.6,0.2,0.9c1.7,3.6,4.1,5.6,6.1,7.2l2.2,2c1.3,1.5,3.4,5.9,3.9,18.4
				c0.3,7.6,2.9,13.9,4.5,17.1c0,0.1,5.9,9.7,11.1,8.5c2.4-0.5,3.7-2.8,3.8-6.8c0.3-9.7,1.4-17,1.6-18c0.2-0.5,1.6-3.9,6.9-9.6
				c14.1-14.8,14.6-20.8,15.1-26.2l0.1-1.2c0-0.2,0-0.5,0-0.7c0-5.7-7.5-7.3-12-8.2c-0.9-0.2-2.2-0.5-2.6-0.6
				c-0.6-0.3-0.8-1.1-1.2-3.4l-0.2-1.5c-0.8-4.3-4.3-6.5-9.5-9.8c-5.9-3.7-17.3-3-22-2.1c-0.4-0.8-0.7-1.5-0.7-2c0,0,0-0.1,0-0.1
				c0,0,0,0,0,0c0,0,0,0,0,0l0,0c0,0,0,0,0,0c1.2-1.3,1.9-2.8,1.9-4.5c0-0.8-0.2-1.7-0.5-2.5C125.9,295,124.9,294.3,123.8,294.4z"/>
			<path style="fill:#4A606B;" d="M294.1,215.2c-1.9,1.3-4.1,3.9-4.1,8.8c0,0.1,0,0.3,0,0.4c0.2,8.5,12.1,10.5,17.2,11.4l1.3,0.2
				c1,0.2,1.3,0.3,1.3,3.6c0,0.1,0,0.3,0,0.4c0,0,0,0.1,0,0.1c-0.4-0.1-0.8-0.2-1.1-0.4l-0.7-0.3c-1.5-0.5-4-1.3-6.1,0.1
				c-2.2,1.4-2.6,4.2-2.8,6.2c-0.2,2.7,0.8,4.4,1.7,5.3c1.8,1.8,4.6,2.5,8.7,2.3c0,0,0.4,0,0.7,0c0.3,0.7,0.9,1.7,1.9,2.9
				c0.6,0.7,0.8,1.2,0.8,2c0,0.4,0,0.8-0.1,1.4c-0.1,0.8-0.1,1.6-0.1,2.6c0,1.8,0.2,4,1,7c1.1,3.9,4.4,6.6,9.3,7.6
				c5.3,1.1,13.6,0,15.9-2.8c0.8-1,1.4-2.3,1.4-3.8c0-1.6-0.7-3.4-2.9-5.3c0,0-1.4-1-1.4-1c-1.1-0.7-1.6-1-1.6-2.1
				c0-0.1,0-0.3,0-0.4c0,0,0,0,0,0c0.4,0,1,0.1,1.5,0.3c0.1,0.1,0.3,0.1,0.5,0.1c5.2,1,9.8,3.4,14.7,7.8l1.3,1.2
				c0.9,0.9,2.3,0.9,3.3,0.1c1-0.8,1.3-2.2,0.6-3.2c-13.5-23.3-34.7-42.1-59.9-52.9C295.8,214.6,294.8,214.6,294.1,215.2z"/>
			<path style="fill:#4A606B;" d="M310.1,320.6c-4.7,5.9-6.1,14.5-3.7,23.4l0,0c4.2,16.1,16.8,14.3,18.7,13.9
				c4.9-0.7,8.1,2.8,9.5,6.2c0.6,1.6,0.7,10.3-1.2,15.9c-1.5,4.6-0.6,8.1,0.4,11.4c0.4,1.6,0.9,3.2,1.2,5.1c0.3,2.4,2,6.6,9.3,7.7
				c0.9,0.1,1.8-0.2,2.4-0.9c15.5-19.7,24.5-43.2,25.9-68c0.1-1.1-0.8-2.2-1.8-2.6l-1.5-0.6c-1.1-0.6-1.1-0.6-1.2-2
				c-0.1-1.9-0.2-4.8-3.8-8.2c-6.3-6-13.4-3.3-14.6-2.8c-0.2,0-4.8,1.5-10.1-0.8c0,0-3.6-1.9-3.6-1.9c-2.6-1.6-4-2.3-12.1-2.5
				C318.4,313.9,313.5,316.2,310.1,320.6z"/>
			<radialGradient id="SVGID_17_" cx="326.5535" cy="227.1446" r="417.8477" gradientUnits="userSpaceOnUse">
				<stop  offset="9.202450e-02" style="stop-color:#B5D88E"/>
				<stop  offset="0.6074" style="stop-color:#8C9D95"/>
			</radialGradient>
			<path style="fill:url(#SVGID_17_);" d="M300.7,424.6c-2.5-1.2-18.6-1.1-23.5,1.1c-4.9,2.2-19.6,2.7-27,3.2
				c-7.4,0.5-10.5,2.5-14.4,6.4c-3.9,4-6,5.7-17.5,5.7c-11.6,0-18.3-5.6-21.5-6.3c-2.3-0.5-5.1,0.5-7.3,2.4
				c16.7,8,35.5,12.6,55.5,12.6c25.1,0,48.4-7.2,68-19.5C310.1,426.9,302.8,425.6,300.7,424.6z"/>
			<radialGradient id="SVGID_18_" cx="326.5517" cy="227.151" r="417.8296" gradientUnits="userSpaceOnUse">
				<stop  offset="9.202450e-02" style="stop-color:#B5D88E"/>
				<stop  offset="0.6074" style="stop-color:#8C9D95"/>
			</radialGradient>
			<path style="fill:url(#SVGID_18_);" d="M173.5,233.3c1.9,1.3-1.2,3.5-4.4,5.3c-3.2,1.9,0.2,4,1.7,5.6c1.3,1.4,5.6-0.5,6.4-2.9
				c0.8-2.4,5-2.7,5-2.7c16.5,1.3,15.9-7.2,16.5-12.8c0.5-5.6-3.2-5.9-6.4-5.9c-2.9,0-6.6,2.4-9.7,3c-4.6,2.6-9,5.4-13.2,8.5
				C171.2,232.2,172.8,232.9,173.5,233.3z"/>
			<radialGradient id="SVGID_19_" cx="326.5517" cy="227.1524" r="417.8304" gradientUnits="userSpaceOnUse">
				<stop  offset="9.202450e-02" style="stop-color:#B5D88E"/>
				<stop  offset="0.6074" style="stop-color:#8C9D95"/>
			</radialGradient>
			<path style="fill:url(#SVGID_19_);" d="M157.5,324.3c-2.2-1.1-2.2-3.7-2.8-6.7c-0.6-3.1-3.1-4.8-8.4-8.1
				c-5.3-3.4-16.5-2.5-20.4-1.7c-0.4,0.1-0.9,0.3-1.3,0.6c-0.7-1-2.1-3.2-2.1-5c-0.3,1.6-0.6,3.2-0.9,4.8c0.4,0.7,0.8,1.4,1.1,2.1
				c-0.7,1-1.4,2.3-2,3.8c-0.6,4.7-0.9,9.5-0.9,14.3c0,3.6,0.2,7.1,0.5,10.6c2.2,4.6,5.8,6.3,7.9,8.7c3.1,3.7,4.2,12.1,4.5,19.9
				c0.3,7.9,3.4,14.3,4.2,16c0.8,1.7,9.8,13.5,10.1,2.8c0.3-10.7,1.7-18.5,1.7-18.5s1.1-3.9,7.5-10.7c14.6-15.3,14-20.5,14.5-25.8
				C171.2,326,159.8,325.4,157.5,324.3z M124,297c-0.4,1.5-0.8,3-1.1,4.6c0.1-0.1,0.2-0.2,0.3-0.3C124.4,300,124.6,298.4,124,297z
				 M135.4,286.6c2-1.1-2.8-5.1-3.4-6.5c-0.6-1.4,3.1-2,6.1-2c2,0,2.5-2.8,4.5-5.9c4.7-7.4,14.5-10.7,17.9-15.2
				c3.4-4.5-1.4-6.7-2.8-9.6c-1-2-1.9-2.6-3.9-2.6c-10.8,11.1-19.5,24.2-25.4,38.7C131.4,285.2,133.7,287.6,135.4,286.6z"/>
			<radialGradient id="SVGID_20_" cx="326.5526" cy="227.1519" r="417.8315" gradientUnits="userSpaceOnUse">
				<stop  offset="9.095028e-02" style="stop-color:#BCD3AB"/>
				<stop  offset="0.6074" style="stop-color:#8C9D95"/>
			</radialGradient>
			<path style="fill:url(#SVGID_20_);" d="M336.9,259.4c5.4,1,10.3,3.4,15.9,8.4c0.5,0.4,1,0.9,1.4,1.3
				c-13.2-22.9-33.8-41.2-58.7-51.8c-2.1,1.5-3.1,3.9-3,7.1c0.2,7.2,13.6,8.5,16.5,9.2c3,0.6,3.3,2.5,3.3,6.5c0,4-2.5,2.8-5.2,1.9
				c-2.7-0.9-5.1-1.4-5.6,4.1c-0.4,4.3,3.5,5.1,7.7,4.9c4.2-0.3,1.6,0.2,4.7,3.7c3.1,3.6-0.2,5.4,2.2,14c2.4,8.7,18.7,6.4,20.7,3.8
				c2-2.5,0.3-4.3-1.1-5.6c-1.4-1.3-4.1-1.9-3.8-5.7C332.3,257.5,336.9,259.4,336.9,259.4z"/>
			<radialGradient id="SVGID_21_" cx="326.5545" cy="227.1519" r="417.8335" gradientUnits="userSpaceOnUse">
				<stop  offset="9.095028e-02" style="stop-color:#BCD3AB"/>
				<stop  offset="0.6074" style="stop-color:#8C9D95"/>
			</radialGradient>
			<path style="fill:url(#SVGID_21_);" d="M368,334.5c-5-2.5,0-5.3-5.6-10.6c-5.6-5.3-12-2.2-12-2.2s-5.6,2-12-0.8
				c-6.4-2.8-3.6-3.9-14.7-4.2c-11.1-0.3-18.9,11.7-15,26.8c3.9,15.1,15.9,12,15.9,12c5.8-0.8,10.3,2.8,12.2,7.8
				c0.9,2.3,0.8,11.7-1.1,17.6c-1.9,5.9,0.8,9.2,1.7,15.4c0.4,3.3,3.3,4.9,7.1,5.5c14.7-18.7,23.9-41.6,25.4-66.6
				C369.3,335,368.6,334.8,368,334.5z"/>
			<path style="fill:#71846F;" d="M245,449.6c25.1,0,48.4-7.2,68-19.5c-2.8-3.2-10.2-4.5-12.3-5.6c-0.3-0.1-0.8-0.3-1.3-0.4
				c-17.4,7.5-37.4,9-56.7,6.2c-2.6,1.1-4.6,2.6-6.7,4.9c-3.9,4-6,5.7-17.5,5.7c-11.6,0-18.3-5.6-21.5-6.3c-2.3-0.5-5.1,0.5-7.3,2.4
				C206.2,445.1,225.1,449.6,245,449.6z"/>
			<path style="fill:#71846F;" d="M147.6,375.6c-0.7-0.6-1.3-1.2-2-1.8c-5.2-5.2-7.4-13.1-10.1-19.8c-4.2-10.5-8.9-20.5-15.7-29.3
				c0,1.2-0.1,2.4-0.1,3.6c0,3.6,0.2,7.1,0.5,10.6c2.2,4.6,5.8,6.3,7.9,8.7c3.1,3.7,4.2,12.1,4.5,19.9c0.3,7.9,3.4,14.3,4.2,16
				c0.8,1.7,9.8,13.5,10.1,2.8C147,382.3,147.3,378.6,147.6,375.6z"/>
			<path style="fill:#71846F;" d="M344.6,401.8c13.1-16.6,21.8-36.6,24.6-58.5c-1.1,3-2.1,6.1-3.1,9.2c-2.3,7.1-7.8,11.8-12.7,17.1
				c-6.3,6.8-11.5,14.6-16.9,22.2c0.4,1.3,0.7,2.8,1,4.4C337.9,399.5,340.8,401.2,344.6,401.8z"/>
		</g>
		<g>
			<path style="fill:#575757;" d="M196.6,298.9c-0.2-28.3,23.3-51.9,52.4-51.4c28.5,0.5,50.9,23.1,50.9,51.7
				c0,29.1-22.7,52.1-52.2,52.1C219.7,351.3,196,327.9,196.6,298.9z M203.1,297c-0.4,23,19,42.5,42.2,42.5c23.6,0,42.9-19,42.9-42.3
				c0-23.7-18.7-43-42.1-43.1C220.9,253.9,202.5,274.9,203.1,297z"/>
			<path style="fill:#333333;" d="M255.4,363.1c0.9-0.1,1.7-0.2,2.6-0.2c2.1,0.2,2.5,0.4,4,0.6c0.2,0.1,0.4,0.1,0.7,0.2
				c0.3,0.2,0.4,0.2,0.8,0.4c0.4,0.1,0.6,0.2,1,0.3c0,1.5,1.2,2.2,2.1,3c3.2,2.9,4.3,9.6,2.1,14.2c-0.4,0-0.9-0.1-1.3,0.1
				c-5.9,3.1-12.1,4.9-18.8,3.7c-2.6-0.4-2.7-3.9-5.2-4.3c0.1-5.2,0.3-10.3,4.6-14.1c1.4-1.2,2.8-2.3,4.6-2.8
				C253.6,363.7,254,363.6,255.4,363.1z"/>
			<path style="fill:#76A7CD;" d="M248.6,385.3c6.7,1.2,12.9-0.5,18.8-3.7c0.3-0.2,0.8-0.1,1.3-0.1c-2.2,3.5-3.3,7.1-1,11
				c1,4.5,4.2,8.2,4.7,12.9c0.4,3.9-0.9,7.6-3.5,9c-5.1,2.7-10.7-0.6-11.3-6.6c-0.5-4.7,0.3-9.1,2.4-13.3c1.2-1.5,2-3.4,1.3-5
				c-0.7-1.6-2.6-0.2-4-0.3C253.9,388.8,250.5,388.8,248.6,385.3z"/>
			<path style="fill:#575757;" d="M267.6,392.5c-2.3-3.9-1.3-7.5,1-11c2.2-4.6,1.1-11.2-2.1-14.2c-0.9-0.8-2.1-1.5-2.1-3
				c5.3,1.3,7.9,5.3,8.8,10c1.1,5.4,0.4,10.8-4.2,14.8C268.1,390,267.5,391,267.6,392.5z"/>
			<path style="fill:#575757;" d="M248.6,385.3c1.9,3.6,5.3,3.6,8.7,3.8c1.4,0.1,3.3-1.3,4,0.3c0.6,1.6-0.1,3.5-1.3,5
				c-0.7-1.4-2.1-0.9-3.2-0.9c-5.7,0-12.9-5.7-13.4-12.5C245.9,381.4,246,384.9,248.6,385.3z"/>
			<path style="fill:#FFFFFF;" d="M203.1,297c-0.6-22.1,17.8-43,43-42.9c23.4,0.1,42.1,19.4,42.1,43.1c0,23.3-19.3,42.3-42.9,42.3
				C222.1,339.5,202.7,320,203.1,297z M247.2,288c-1.8,3.3-4.1,6.2-7.5,8c-5.4,2.1-10.5,1.5-15.1-1.9c-0.2,0.4-0.3,0.6-0.4,0.8
				c-1.7,17.2,16.1,31.1,32.3,25.1c1.7-0.6,1.3-1.3,1-2.6c-1.6-7.2,4-12.5,10.9-10.1c2.3,0.8,2.7-0.4,3.1-1.8
				c2.9-8.9,1.8-17.2-4.2-24.5c-5.4-6.6-12.7-9.3-21.1-8.8c-0.8,0-3.3-0.2-1.7,1.7C248,278.2,248.4,282.9,247.2,288z"/>
			<path style="fill:#575757;" d="M247.2,288c1.2-5.1,0.8-9.9-2.6-14.3c-1.5-1.9,0.9-1.7,1.7-1.7c8.4-0.5,15.7,2.3,21.1,8.8
				c6,7.3,7.1,15.6,4.2,24.5c-0.5,1.4-0.8,2.6-3.1,1.8c-6.9-2.4-12.5,2.9-10.9,10.1c0.3,1.3,0.7,2-1,2.6c-16.2,6-34-7.8-32.3-25.1
				c0-0.2,0.2-0.4,0.4-0.8c4.7,3.4,9.8,4,15.1,1.9c0.4,5.4,3.1,8.7,7.6,9.4c4.1,0.6,8-1.7,9.5-5.6
				C258.9,294.3,254.7,286.8,247.2,288z"/>
			<path style="fill:#333333;" d="M247.2,288c7.5-1.2,11.7,6.3,9.6,11.7c-1.5,3.9-5.4,6.2-9.5,5.6c-4.5-0.7-7.2-3.9-7.6-9.4
				C243.1,294.2,245.4,291.4,247.2,288z"/>
		</g>
	</g>
</g>
<g id="Layer_4">
</g>
<g id="Layer_5">
</g>
</svg>
