<svg xmlns="http://www.w3.org/2000/svg" width="500" height="500" viewBox="0 0 500 500"><path d="M124 363l10.7 29.3c-.9-2.4-1.3-5.1-2.8-7.1-3-3.8-5.2-10.8-8.2-14.6-4.2-6.2-5.3-8.9-9.5-15-4.2-5.9-9.2-15.5-12.1-21.4-2-5.3-5.6-13.3-7.6-18.7-3.6-10-6.6-17.7-10.1-27.8-4-11.6-5.7-16.2-9.1-28.1-1-3.3-3.6-11.1-4.4-14.2-.9-5.2-2.5-9 2.3-11.1 2.5-.9 4.4-1.4 6.5 2.4.5 1 3.9 7.4 5.9 11.1.5 1 1.8 1.5 2.9 1.1 4.3-1.6 10.3-4 9.8-6-.6-3-1.1-7-.8-10.6.6-6.4 2.3-9.2 7.1-9.4 2.3.3 4 1.2 4.7 4.1.4 1.9 1.2 5.2 1.4 7.1.5 4.8 1.1 9.4 6.1 12.3 6.7 3.9 8.4 9.7 6.2 19-1.3 5.5 1.5 10.1 5.3 13.6l-2.2 11.4m-.1 0c.7-2.9.3-5.3-1.7-7.9-4.8-6.2-8.6-12.9-4.9-21.1.4-1 .6-2.1.7-3.1.2-3.2-.2-6.3-3.2-8.2-3.8-2.4-12.1-1.6-15.6 1.2-.8.7-1.9 1.4-1.5 2.6.3 1.1 1.2 2 2.5 2.3 1.8.4 3.5.2 5.3-.1.8-.1 1.7-.4 2.3.4.6.9.4 1.9-.3 2.6-2.5 2.9-2.5 6.2-1.9 9.7.2 1.1 1 2.5-.6 3.1-1.7.6-2.4-.8-2.7-2.1-.7-3.4-2.7-2.2-4.5-1.3-1 .5-1.8 1.6-2.8 2.2-2.3 1.4-4.8 2.2-7.4 1-4.9-2.2-10.8-14.2-6.7-20.4.8-1.2.7-2.1 0-3.3-1.7-3.1-3.1-6.4-4.7-9.5-1.2-2.2-2.8-2.3-4.6-.7-2.4 2-1.3 4.5-.7 6.6 2.7 9.8 5.7 19.5 9.3 29 3 8.1 5.9 16.2 8.5 24.4 2.4 7.5 4.8 15.1 8 22.3 4.5 10.3 9.7 20.2 15.8 29.7 2.9 4.5 5.7 9.1 9.4 13.2m-16.6-128.4c-.3-2.2-.6-3.8-.9-5.5-.3-1.3-.1-3.2-1.9-3.4-1.8-.2-3.3 1.2-3.7 2.8-1.6 5.6-1.5 11.3.8 16.6 1.3 3.1 4.2.8 6.2.5 2-.2 1.8-2.1 1.2-3.4-1.2-2.5-1.2-5.4-1.7-7.6zm-22.3 24c.9 2.1 1.6 4.3 2.7 6.4.9 1.6 1.8 3.4 3.8 4 1.8.5 3-.5 4.2-1.3.7-.4.6-1.2 0-1.8-3.8-3.3-4.9-7.9-5.7-12.6-.3-2.1-1.2-2.2-2.9-1.2-2.5 1.5-1.7 4-2.1 6.5zm8.1-4.5c.9 3.3 2.1 6.4 4.6 9 1.4 1.5 2.9 1.4 4.6.9 1.2-.4 2-1.3 2-2.6.1-2.2-1.9-1.6-3.1-2.1-4.4-1.7-5.8-5.5-3.4-9.6.6-1 1.3-1.9.3-2.8-1.3-1.2-2.2 0-3 .8-2 1.7-2.6 3.9-2 6.4z" fill="#4A606B" stroke="#4A606B" stroke-width="4" stroke-linecap="round" stroke-linejoin="round" stroke-miterlimit="10"/><radialGradient id="f" cx="1133.083" cy="310.81" r="95.426" fx="1037.828" fy="316.511" gradientTransform="matrix(.56 .8285 .6578 -.4447 -731.097 -489.686)" gradientUnits="userSpaceOnUse"><stop offset=".11" stop-color="#DBEAF7"/><stop offset=".681" stop-color="#9194C9"/></radialGradient><path d="M124 363c-3.7-4.1-6.5-8.7-9.4-13.2-6.1-9.5-11.3-19.4-15.8-29.7-3.2-7.2-5.6-14.8-8-22.3-2.6-8.2-5.5-16.3-8.5-24.4-3.6-9.5-6.5-19.2-9.3-29-.6-2.1-1.6-4.6.7-6.6 1.9-1.6 3.5-1.5 4.6.7 1.6 3.2 3.1 6.4 4.7 9.5.6 1.2.7 2.1 0 3.3-4.1 6.2 1.8 18.2 6.7 20.4 2.6 1.2 5.1.4 7.4-1 1-.6 1.7-1.7 2.8-2.2 1.8-.9 3.8-2 4.5 1.3.3 1.3 1 2.7 2.7 2.1 1.6-.6.8-2 .6-3.1-.6-3.5-.6-6.8 1.9-9.7.7-.8.9-1.7.3-2.6-.6-.9-1.5-.6-2.3-.4-1.8.3-3.5.5-5.3.1-1.3-.3-2.1-1.1-2.5-2.3-.4-1.2.7-1.9 1.5-2.6 3.5-2.9 11.8-3.6 15.6-1.2 3 1.9 3.4 5 3.2 8.2-.1 1.1-.3 2.2-.7 3.1-3.7 8.3 0 15 4.9 21.1 2 2.6 2.4 5 1.7 7.9-2.8 11.5-3.6 23.4-4 35.1-.4 11.4-.4 23 2.2 34.3.2.9.8 2-.2 3.2z" fill="url(#f)"/><path d="M107.4 234.6c.5 2.2.5 5.1 1.7 7.7.6 1.3.8 3.2-1.2 3.4-2.1.2-4.9 2.5-6.2-.5-2.3-5.3-2.4-11-.8-16.6.4-1.6 1.9-3 3.7-2.8 1.8.2 1.7 2 1.9 3.4.3 1.6.6 3.2.9 5.4zM85.1 258.6c.4-2.4-.4-5 2.1-6.6 1.6-1.1 2.5-1 2.9 1.2.8 4.7 1.9 9.3 5.7 12.6.7.6.7 1.4 0 1.8-1.2.8-2.4 1.8-4.2 1.3-2.1-.6-3-2.3-3.8-4-1.1-2-1.8-4.3-2.7-6.3zM93.2 254.1c-.6-2.5 0-4.7 1.9-6.5.8-.7 1.8-1.9 3-.8 1 .9.3 1.9-.3 2.8-2.4 4.1-1 7.9 3.4 9.6 1.2.4 3.2-.2 3.1 2.1 0 1.3-.8 2.2-2 2.6-1.6.5-3.2.6-4.6-.9-2.4-2.4-3.6-5.5-4.5-8.9z" fill="#BDC8E4"/><g><path d="M364.7 290.4l-2.2-11.4c3.8-3.5 6.6-8.1 5.3-13.6-2.2-9.3-.5-15.1 6.2-19 4.9-2.9 5.6-7.5 6.1-12.3.2-1.9 1-5.3 1.4-7.1.7-3 2.3-3.9 4.7-4.1 4.8.2 6.5 3 7.1 9.4.2 3.6-.2 7.5-.8 10.6-.4 2 5.5 4.4 9.8 6 1.1.4 2.3 0 2.9-1.1 2-3.7 5.3-10.1 5.9-11.1 2.1-3.7 4-3.2 6.5-2.4 4.8 2.1 3.2 6 2.3 11.1-.8 3.1-3.5 10.8-4.4 14.2-3.4 11.8-5.1 16.4-9.1 28.1-3.5 10.1-6.4 17.7-10.1 27.8-1.9 5.3-5.6 13.4-7.6 18.7-2.9 5.9-7.8 15.6-12.1 21.4-4.2 6.2-5.3 8.9-9.5 15-3 3.8-5.2 10.8-8.2 14.6-1.5 1.9-1.9 4.7-2.8 7.1l10.7-29.3m0 0c3.7-4.1 6.5-8.7 9.4-13.2 6.1-9.5 11.3-19.4 15.8-29.7 3.2-7.2 5.6-14.8 8-22.3 2.6-8.2 5.5-16.3 8.5-24.4 3.6-9.5 6.5-19.2 9.3-29 .6-2.1 1.6-4.6-.7-6.6-1.9-1.6-3.5-1.5-4.6.7-1.6 3.2-3.1 6.4-4.7 9.5-.6 1.2-.7 2.1 0 3.3 4.1 6.2-1.8 18.2-6.7 20.4-2.6 1.2-5.1.4-7.4-1-1-.6-1.7-1.7-2.8-2.2-1.8-.9-3.8-2-4.5 1.3-.3 1.3-1 2.7-2.7 2.1-1.6-.6-.8-2-.6-3.1.6-3.5.6-6.8-1.9-9.7-.7-.8-.9-1.7-.3-2.6.6-.9 1.5-.6 2.3-.4 1.8.3 3.5.5 5.3.1 1.3-.3 2.1-1.1 2.5-2.3.4-1.2-.7-1.9-1.5-2.6-3.5-2.9-11.8-3.6-15.6-1.2-3 1.9-3.4 5-3.2 8.2.1 1.1.3 2.2.7 3.1 3.7 8.3 0 15-4.9 21.1-2 2.6-2.4 5-1.7 7.9m16.8-48.1c-.6 1.3-.8 3.2 1.2 3.4 2.1.2 4.9 2.5 6.2-.5 2.3-5.3 2.4-11 .8-16.6-.4-1.6-1.9-3-3.7-2.8-1.8.2-1.7 2-1.9 3.4-.3 1.6-.5 3.3-.9 5.5-.5 2.1-.4 5-1.7 7.6zm22 9.7c-1.6-1.1-2.5-1-2.9 1.2-.8 4.7-1.9 9.3-5.7 12.6-.7.6-.7 1.4 0 1.8 1.2.8 2.4 1.8 4.2 1.3 2.1-.6 3-2.3 3.8-4 1.1-2.1 1.8-4.3 2.7-6.4-.4-2.4.3-4.9-2.1-6.5zm-7.9-4.3c-.8-.7-1.8-1.9-3-.8-1 .9-.3 1.9.3 2.8 2.4 4.1 1 7.9-3.4 9.6-1.2.4-3.2-.2-3.1 2.1 0 1.3.8 2.2 2 2.6 1.6.5 3.2.6 4.6-.9 2.4-2.6 3.7-5.7 4.6-9 .5-2.5-.1-4.7-2-6.4z" fill="#4A606B" stroke="#4A606B" stroke-width="4" stroke-linecap="round" stroke-linejoin="round" stroke-miterlimit="10"/><radialGradient id="g" cx="1419.319" cy="310.81" r="95.426" fx="1324.063" fy="316.511" gradientTransform="matrix(-.56 .8285 -.6578 -.4447 1382.178 -726.82)" gradientUnits="userSpaceOnUse"><stop offset=".11" stop-color="#DBEAF7"/><stop offset=".681" stop-color="#9194C9"/></radialGradient><path d="M366.6 359.7c2.6-11.3 2.6-22.8 2.2-34.3-.4-11.8-1.2-23.6-4-35.1-.7-2.9-.3-5.3 1.7-7.9 4.8-6.2 8.6-12.9 4.9-21.1-.4-1-.6-2.1-.7-3.1-.2-3.2.2-6.3 3.2-8.2 3.8-2.4 12.1-1.6 15.6 1.2.8.7 1.9 1.4 1.5 2.6-.3 1.1-1.2 2-2.5 2.3-1.8.4-3.5.2-5.3-.1-.8-.1-1.7-.4-2.3.4-.6.9-.4 1.9.3 2.6 2.5 2.9 2.5 6.2 1.9 9.7-.2 1.1-1 2.5.6 3.1 1.7.6 2.4-.8 2.7-2.1.7-3.4 2.7-2.2 4.5-1.3 1 .5 1.8 1.6 2.8 2.2 2.3 1.4 4.8 2.2 7.4 1 4.9-2.2 10.8-14.2 6.7-20.4-.8-1.2-.7-2.1 0-3.3 1.7-3.1 3.1-6.4 4.7-9.5 1.2-2.2 2.8-2.3 4.6-.7 2.4 2 1.3 4.5.7 6.6-2.7 9.8-5.7 19.5-9.3 29-3 8.1-5.9 16.2-8.5 24.4-2.4 7.5-4.8 15.1-8 22.3-4.5 10.3-9.7 20.2-15.8 29.7-2.9 4.5-5.7 9.1-9.4 13.2-1-1.1-.4-2.2-.2-3.2z" fill="url(#g)"/><path d="M383.4 234.6c-.5 2.2-.5 5.1-1.7 7.7-.6 1.3-.8 3.2 1.2 3.4 2.1.2 4.9 2.5 6.2-.5 2.3-5.3 2.4-11 .8-16.6-.4-1.6-1.9-3-3.7-2.8-1.8.2-1.7 2-1.9 3.4-.4 1.6-.6 3.2-.9 5.4zM405.7 258.6c-.4-2.4.4-5-2.1-6.6-1.6-1.1-2.5-1-2.9 1.2-.8 4.7-1.9 9.3-5.7 12.6-.7.6-.7 1.4 0 1.8 1.2.8 2.4 1.8 4.2 1.3 2.1-.6 3-2.3 3.8-4 1.1-2 1.8-4.3 2.7-6.3zM397.6 254.1c.6-2.5 0-4.7-1.9-6.5-.8-.7-1.8-1.9-3-.8-1 .9-.3 1.9.3 2.8 2.4 4.1 1 7.9-3.4 9.6-1.2.4-3.2-.2-3.1 2.1 0 1.3.8 2.2 2 2.6 1.6.5 3.2.6 4.6-.9 2.4-2.4 3.6-5.5 4.5-8.9z" fill="#BDC8E4"/></g></svg>