<svg xmlns="http://www.w3.org/2000/svg" width="2000" height="500" viewBox="0 0 2000 500"><path d="M371.4 297.9c-4.3-16.1-11.9-31.4-22.3-44.8-24.8-31.9-64-50-104.2-50.2-41.3-.2-81 19.7-105.6 52.8-15.8 21.1-24.2 47.1-24.3 73.4.2 40.7 20.6 78.5 53.5 102.2 33.6 24.2 77.8 30.7 117.2 18.5 39-12 70.8-42.8 83.8-81.4 7.8-23 8.1-47.6 1.9-70.5z" fill="#4A606B"/><radialGradient id="a" cx="280.386" cy="260.428" r="216.554" gradientUnits="userSpaceOnUse"><stop offset=".123" stop-color="#EBF7FD"/><stop offset=".716" stop-color="#89A1D3"/></radialGradient><path d="M370.2 328.3c0 67-56 121.4-125.2 121.4-69.1 0-125.2-54.3-125.2-121.4 0-67 56-121.4 125.2-121.4 69.1 0 125.2 54.3 125.2 121.4z" fill="url(#a)"/><radialGradient id="b" cx="280.386" cy="275.501" r="202.583" gradientUnits="userSpaceOnUse"><stop offset=".11" stop-color="#DBEAF7"/><stop offset=".681" stop-color="#9194C9"/></radialGradient><path d="M119.8 328.3c0 67 56 121.4 125.2 121.4 69.1 0 125.2-54.3 125.2-121.4 0-29-10.5-55.6-28-76.5 2.6 7.6 5.2 15.1 6.9 23 2.6 12.2-1.4 22.6-8.8 32.1-5.6 7.1-9.5 15.8-15.9 22.2-1.1 1.1-2.3 2-3.7 2.7-2.3-1.8-3.1 8.5-27.1 32.9-13.4 13.4-35 5.4-38.7 3.7-14.2-6.4-25.4-12.4-40.1-20.3-13-6.9-13.6-19.8-26.8-26.4-9.9-4.9-23.1-10.2-22.5-22.8.2-5.3-2.6-8.7-6.4-10.1-.1-1.3-.1-2.6-.1-4 .2-12.4 4.7-25.1 10.1-36.1 1.6-3.2 1.5-6.3.6-9 2.8-4.4 5.3-8.9 7.6-13.6-34.6 21.7-57.5 59.3-57.5 102.2z" fill="url(#b)"/><path d="M245 449.6c63.9 0 116.5-46.4 124.2-106.3-1.1 3-2.1 6.1-3.1 9.2-2.3 7.1-7.8 11.8-12.7 17.1-9.4 10.2-16.4 22.7-25.3 33.4-21.5 25.7-55.7 32.3-87.7 27.1-17.5-2.9-33.9-9.6-50.2-16.1-6.9-2.8-13.3-5.6-18.4-11.1-4.7-5.1-8.1-11.5-12.7-16.7-4-4.5-9.1-8.1-13.3-12.4-5.2-5.2-7.4-13.1-10.1-19.8-4.2-10.5-8.9-20.5-15.7-29.3 0 1.2-.1 2.4-.1 3.6-.1 67 55.9 121.3 125.1 121.3z" fill="#9779B6"/><radialGradient id="c" cx="346.883" cy="218.007" r="262.489" gradientTransform="matrix(1 0 0 1.0974 0 -45.9)" gradientUnits="userSpaceOnUse"><stop offset=".104" stop-color="#FFF"/><stop offset=".693" stop-color="#CED4EB"/></radialGradient><path d="M304.1 252.2c-21-16.4-61.4-22.4-84-7.8-7.8 5-8.4 14.1-5.2 20.9l-.6 1.5c-4.9 15.2 6.5 30.9 18.3 36.7 13 6.4 27.4 7.6 41.4 9.6 14.2 2 34.3-6.5 42.1-20.1 9.4-16.4.5-31-12-40.8z" fill="url(#c)"/><radialGradient id="d" cx="263.132" cy="250.306" r="161.74" gradientUnits="userSpaceOnUse"><stop offset=".27" stop-color="#A9D1EF"/><stop offset=".438" stop-color="#A6CCEC"/><stop offset=".637" stop-color="#9EBEE3"/><stop offset=".851" stop-color="#91A6D5"/><stop offset="1" stop-color="#8591C8"/></radialGradient><path d="M161.9 319.3s-.5-.1-.9-.2l-.2-1-.3-1.5c-1.1-5.8-5.5-8.6-11.1-12.2-5.5-3.5-14-3.6-19.8-3.2.3-.9.5-1.8.5-2.7 0-1.3-.3-2.6-.8-3.8-.7-1.7-2.1-2.9-3.8-3.4-3.8 11.7-5.9 24.1-5.9 37 0 7.3.7 14.5 2 21.5 0 0 .1 0 .1.1-.1-.1 1.4 1.3 1.8 1.7.5.7 2.6 4.1 3 16.2v.4c3.5 9.8 8.3 19.1 14.2 27.6 1.7.8 3.5 1.2 5.4.8 2.3-.5 6.3-2.5 6.5-10 .2-8.7 1.2-15.4 1.5-17.1.2-.6 1.5-3.4 6.1-8.2 14.9-15.7 15.5-22.3 16-28.2l.1-1.2.1-1c.2-8.5-9.7-10.6-14.5-11.6zm-34.5-13.9c.4-.4.5-.8.8-1.2-.2.4-.4.8-.8 1.2z" fill="url(#d)"/><radialGradient id="e" cx="263.132" cy="250.306" r="161.74" gradientUnits="userSpaceOnUse"><stop offset=".27" stop-color="#A9D1EF"/><stop offset=".438" stop-color="#A6CCEC"/><stop offset=".637" stop-color="#9EBEE3"/><stop offset=".851" stop-color="#91A6D5"/><stop offset="1" stop-color="#8591C8"/></radialGradient><path d="M138.4 291.8c1.8-1 3-2.8 3.3-4.8l.1-1.2c0-.8-.2-1.6-.4-2.4 2.8-1.2 4.2-4 5.1-5.8 0 .1 1-1.8 1.2-2.2 2-3.2 5.9-5.7 9.3-7.9 3.2-2.1 6.3-4.1 8.3-6.8 1.6-2.1 2.4-4.3 2.4-6.5 0-3.9-2.4-6.7-3.8-8.2l-.9-1c-1.1-2.2-2.5-3.7-4.2-4.6-14.6 13.4-25.9 30.2-32.4 49.1.6.4 1.4.9 1.4.9 2.1 1.2 6.2 3.9 10.6 1.4z" fill="url(#e)"/><radialGradient id="f" cx="263.132" cy="250.305" r="161.741" gradientUnits="userSpaceOnUse"><stop offset=".27" stop-color="#A9D1EF"/><stop offset=".438" stop-color="#A6CCEC"/><stop offset=".637" stop-color="#9EBEE3"/><stop offset=".851" stop-color="#91A6D5"/><stop offset="1" stop-color="#8591C8"/></radialGradient><path d="M299.2 237.4c-3 2.6-3.5 6.6-3.6 8.1v1c0 2.7.9 5.1 2.7 7 2.3 2.3 5.6 3.4 10.2 3.4.4.5.6 1.1 1.1 1.6 0 .3-.1 1-.1 1l-.1 2.9c0 2.5.4 5.1 1.1 7.9 1.4 5.1 5.7 8.8 11.9 10 5.8 1.2 15.7.4 19.2-4.1 1.4-1.8 2.2-3.8 2.2-5.9 0-.7-.1-1.4-.3-2.1 1.8 1.1 3.6 2.3 5.4 4l1.3 1.2c1.9 1.7 4.7 2 6.9.9-13.9-27.2-38.1-48.5-67.5-59.4-1.9 2.4-3 5.6-3 9.2v.4c.2 7.5 6.7 11.1 12.6 12.9z" fill="url(#f)"/><radialGradient id="g" cx="263.132" cy="250.306" r="161.741" gradientUnits="userSpaceOnUse"><stop offset=".27" stop-color="#A9D1EF"/><stop offset=".438" stop-color="#A6CCEC"/><stop offset=".637" stop-color="#9EBEE3"/><stop offset=".851" stop-color="#91A6D5"/><stop offset="1" stop-color="#8591C8"/></radialGradient><path d="M370.1 324.2c-.7-1.5-1.8-3-3.5-4.7-7.5-7.2-15.9-4.4-18-3.6-.2.1-3.7 1.1-7.7-.7.1 0 .1.1.2.2-.8-.5-1.9-1.1-3.4-1.9-3.1-2-5.2-2.7-13.7-2.9-6.5-.2-12.4 2.6-16.5 7.9-3.7 4.6-5.6 10.6-5.6 17.2 0 3 .4 6.1 1.2 9.3 5 19.3 20.9 16.7 22.6 16.4 3.5-.5 5.1 2.7 5.7 4.1.3 1.3.4 8.9-1.2 13.6-1.9 5.6-.6 10 .3 13.4.4 1.5.8 3 1.1 4.6.3 2.4 1.8 7.5 8.8 9.8 18.6-21.2 29.8-48.6 29.8-78.6 0-1.4-.1-2.7-.1-4.1z" fill="url(#g)"/><radialGradient id="h" cx="263.133" cy="250.305" r="161.742" gradientUnits="userSpaceOnUse"><stop offset=".27" stop-color="#A9D1EF"/><stop offset=".438" stop-color="#A6CCEC"/><stop offset=".637" stop-color="#9EBEE3"/><stop offset=".851" stop-color="#91A6D5"/><stop offset="1" stop-color="#8591C8"/></radialGradient><path d="M199.1 240.7c4.7-4 5.2-9.7 5.4-13.2l.1-1.1c.3-3.7-.5-6.7-2.5-8.9-.9-1-1.9-1.7-2.9-2.1-13.3 5.1-25.5 12.3-36.2 21.3-.7 1.2-1 2.3-1.1 3v.8c0 3.6 2.5 5.9 4 7.3-.1 0 .7.7.7.7 1.8 1.9 4.6 2.7 7.6 2 2.8-.6 6.1-2.7 7.8-5.8.1 0 .3-.1.5-.1 7.4.5 12.9-.8 16.6-3.9zm-16.6 3.2l-.1.1c.1-.3.3-.5.4-.8-.2.5.1.3-.3.7z" fill="url(#h)"/><radialGradient id="i" cx="263.133" cy="250.3" r="161.745" gradientUnits="userSpaceOnUse"><stop offset=".27" stop-color="#A9D1EF"/><stop offset=".438" stop-color="#A6CCEC"/><stop offset=".637" stop-color="#9EBEE3"/><stop offset=".851" stop-color="#91A6D5"/><stop offset="1" stop-color="#8591C8"/></radialGradient><path d="M305.4 419.9c.1 0-2.4-.8-2.4-.8.1 0 .3.1.4.2-4.6-2.3-22.7-1.7-28.6 1-3.1 1.4-15.2 2.1-21 2.5l-3.9.2c-9.2.6-13.5 3.4-18.2 8.2-3 3.1-3.8 3.9-13.3 3.9-7 0-11.8-2.4-15.4-4.2-1.7-.9-3.2-1.6-4.7-2-4.1-1-8.9.5-12.6 3.7-.6.5-1 1.1-1.3 1.8 18 9.7 38.7 15.2 60.7 15.2 27.2 0 52.3-8.4 72.9-22.7-.1-.2-.3-.5-.5-.7-3.2-3.5-8.4-5.1-12.1-6.3z" fill="url(#i)"/><path d="M276.1 423.4c-3.7 1.7-15.3 2.4-22.2 2.8l-3.9.2c-8.1.5-11.8 2.8-16 7.2-3.4 3.5-4.8 4.9-15.7 4.9-7.8 0-13.3-2.7-16.9-4.6-1.6-.8-2.9-1.4-4-1.7-3-.7-6.7.4-9.6 3-.6.6-1 1.4-.8 2.3.1.8.6 1.6 1.4 2 17.7 8.5 36.7 12.8 56.6 12.8 24.7 0 48.6-6.9 69.3-19.9.6-.4 1.1-1.1 1.2-1.8.1-.7-.1-1.5-.6-2-2.5-2.8-7.1-4.3-10.5-5.3l-2.5-.9c-3.5-1.8-20.5-1.4-25.8 1zM185.7 219.3c-1.3.5-2.6 1.1-3.6 1.3-.2.1-.5.1-.7.3-4.7 2.6-9.3 5.6-13.5 8.7-.7.5-1 1.2-1 2v.3c.1.9.7 1.7 1.6 2 .9.3 1.5.6 2 .8-.6.4-1.4 1-2.7 1.8-1.9 1.1-2.4 2.5-2.5 3.5v.4c0 2.1 1.7 3.7 2.9 4.8l.8.8c.6.7 2 1.7 4.5 1.1 2.4-.5 5.2-2.4 6.1-5 .2-.3 1.5-.8 2.7-.9 6.7.5 11.5-.5 14.6-3.1 3.6-3.1 4-7.6 4.2-10.8l.1-1.1c.3-2.7-.3-4.9-1.7-6.3-2.1-2.3-5.3-2.3-7.2-2.3-2.2-.2-4.4.8-6.6 1.7zM152.1 243.2c-11.2 11.5-19.9 24.8-25.9 39.5-.5 1.2.1 2.6 1.2 3.2l2.2 1.4c2 1.3 4.5 3 7.1 1.5.9-.5 1.5-1.4 1.7-2.4v-.6c0-1.8-1.3-3.4-2.6-4.9.7-.1 1.5-.1 2.4-.1 2.9 0 4.2-2.4 5.2-4.6l1.4-2.5c2.4-3.8 6.6-6.6 10.3-9 3-1.9 5.8-3.8 7.5-6 1.2-1.6 1.7-3.2 1.7-4.5 0-2.7-1.8-4.7-2.9-6-.6-.6-1.1-1.2-1.3-1.7-1.4-2.8-3.2-4-6.1-4-.7 0-1.4.2-1.9.7zm-28.3 51.2c-1.1.1-2 .8-2.3 1.9l-1.2 4.7c0 .2-.1.4-.1.5 0 .1.1.2.1.4-.2.3-.4.5-.5.8l-.9 4.9v.4c0 .5.2 1 .4 1.4 0 0 .2.4.4.6-.5.9-1 1.9-1.4 3-.1.2-.1.4-.1.6-.6 5.1-.9 9.9-.9 14.6 0 3.4.2 6.9.5 10.8 0 .3.1.6.2.9 1.7 3.6 4.1 5.6 6.1 7.2l2.2 2c1.3 1.5 3.4 5.9 3.9 18.4.3 7.6 2.9 13.9 4.5 17.1 0 .1 5.9 9.7 11.1 8.5 2.4-.5 3.7-2.8 3.8-6.8.3-9.7 1.4-17 1.6-18 .2-.5 1.6-3.9 6.9-9.6 14.1-14.8 14.6-20.8 15.1-26.2l.1-1.2v-.7c0-5.7-7.5-7.3-12-8.2-.9-.2-2.2-.5-2.6-.6-.6-.3-.8-1.1-1.2-3.4l-.2-1.5c-.8-4.3-4.3-6.5-9.5-9.8-5.9-3.7-17.3-3-22-2.1-.4-.8-.7-1.5-.7-2v-.1c1.2-1.3 1.9-2.8 1.9-4.5 0-.8-.2-1.7-.5-2.5-.6-.9-1.6-1.6-2.7-1.5zM294.1 215.2c-1.9 1.3-4.1 3.9-4.1 8.8v.4c.2 8.5 12.1 10.5 17.2 11.4l1.3.2c1 .2 1.3.3 1.3 3.6v.5c-.4-.1-.8-.2-1.1-.4l-.7-.3c-1.5-.5-4-1.3-6.1.1-2.2 1.4-2.6 4.2-2.8 6.2-.2 2.7.8 4.4 1.7 5.3 1.8 1.8 4.6 2.5 8.7 2.3h.7c.3.7.9 1.7 1.9 2.9.6.7.8 1.2.8 2 0 .4 0 .8-.1 1.4-.1.8-.1 1.6-.1 2.6 0 1.8.2 4 1 7 1.1 3.9 4.4 6.6 9.3 7.6 5.3 1.1 13.6 0 15.9-2.8.8-1 1.4-2.3 1.4-3.8 0-1.6-.7-3.4-2.9-5.3l-1.4-1c-1.1-.7-1.6-1-1.6-2.1v-.4c.4 0 1 .1 1.5.3.1.1.3.1.5.1 5.2 1 9.8 3.4 14.7 7.8l1.3 1.2c.9.9 2.3.9 3.3.1s1.3-2.2.6-3.2c-13.5-23.3-34.7-42.1-59.9-52.9-.6-.2-1.6-.2-2.3.4zM310.1 320.6c-4.7 5.9-6.1 14.5-3.7 23.4 4.2 16.1 16.8 14.3 18.7 13.9 4.9-.7 8.1 2.8 9.5 6.2.6 1.6.7 10.3-1.2 15.9-1.5 4.6-.6 8.1.4 11.4.4 1.6.9 3.2 1.2 5.1.3 2.4 2 6.6 9.3 7.7.9.1 1.8-.2 2.4-.9 15.5-19.7 24.5-43.2 25.9-68 .1-1.1-.8-2.2-1.8-2.6l-1.5-.6c-1.1-.6-1.1-.6-1.2-2-.1-1.9-.2-4.8-3.8-8.2-6.3-6-13.4-3.3-14.6-2.8-.2 0-4.8 1.5-10.1-.8l-3.6-1.9c-2.6-1.6-4-2.3-12.1-2.5-5.5 0-10.4 2.3-13.8 6.7z" fill="#4A606B"/><radialGradient id="j" cx="326.553" cy="227.145" r="417.848" gradientUnits="userSpaceOnUse"><stop offset=".092" stop-color="#A0AF7B"/><stop offset=".598" stop-color="#538763"/></radialGradient><path d="M300.7 424.6c-2.5-1.2-18.6-1.1-23.5 1.1-4.9 2.2-19.6 2.7-27 3.2-7.4.5-10.5 2.5-14.4 6.4-3.9 4-6 5.7-17.5 5.7-11.6 0-18.3-5.6-21.5-6.3-2.3-.5-5.1.5-7.3 2.4 16.7 8 35.5 12.6 55.5 12.6 25.1 0 48.4-7.2 68-19.5-2.9-3.3-10.2-4.6-12.3-5.6z" fill="url(#j)"/><radialGradient id="k" cx="326.552" cy="227.151" r="417.83" gradientUnits="userSpaceOnUse"><stop offset=".092" stop-color="#B5D88E"/><stop offset=".607" stop-color="#308F39"/></radialGradient><path d="M173.5 233.3c1.9 1.3-1.2 3.5-4.4 5.3-3.2 1.9.2 4 1.7 5.6 1.3 1.4 5.6-.5 6.4-2.9.8-2.4 5-2.7 5-2.7 16.5 1.3 15.9-7.2 16.5-12.8.5-5.6-3.2-5.9-6.4-5.9-2.9 0-6.6 2.4-9.7 3-4.6 2.6-9 5.4-13.2 8.5 1.8.8 3.4 1.5 4.1 1.9z" fill="url(#k)"/><radialGradient id="l" cx="326.552" cy="227.152" r="417.83" gradientUnits="userSpaceOnUse"><stop offset=".092" stop-color="#B5D88E"/><stop offset=".598" stop-color="#538763"/></radialGradient><path d="M157.5 324.3c-2.2-1.1-2.2-3.7-2.8-6.7-.6-3.1-3.1-4.8-8.4-8.1-5.3-3.4-16.5-2.5-20.4-1.7-.4.1-.9.3-1.3.6-.7-1-2.1-3.2-2.1-5l-.9 4.8c.4.7.8 1.4 1.1 2.1-.7 1-1.4 2.3-2 3.8-.6 4.7-.9 9.5-.9 14.3 0 3.6.2 7.1.5 10.6 2.2 4.6 5.8 6.3 7.9 8.7 3.1 3.7 4.2 12.1 4.5 19.9.3 7.9 3.4 14.3 4.2 16 .8 1.7 9.8 13.5 10.1 2.8.3-10.7 1.7-18.5 1.7-18.5s1.1-3.9 7.5-10.7c14.6-15.3 14-20.5 14.5-25.8.5-5.4-10.9-6-13.2-7.1zM124 297c-.4 1.5-.8 3-1.1 4.6l.3-.3c1.2-1.3 1.4-2.9.8-4.3zm11.4-10.4c2-1.1-2.8-5.1-3.4-6.5-.6-1.4 3.1-2 6.1-2 2 0 2.5-2.8 4.5-5.9 4.7-7.4 14.5-10.7 17.9-15.2 3.4-4.5-1.4-6.7-2.8-9.6-1-2-1.9-2.6-3.9-2.6-10.8 11.1-19.5 24.2-25.4 38.7 3 1.7 5.3 4.1 7 3.1z" fill="url(#l)"/><radialGradient id="m" cx="326.553" cy="227.152" r="417.832" gradientUnits="userSpaceOnUse"><stop offset=".092" stop-color="#A0AF7B"/><stop offset=".598" stop-color="#538763"/></radialGradient><path d="M336.9 259.4c5.4 1 10.3 3.4 15.9 8.4.5.4 1 .9 1.4 1.3-13.2-22.9-33.8-41.2-58.7-51.8-2.1 1.5-3.1 3.9-3 7.1.2 7.2 13.6 8.5 16.5 9.2 3 .6 3.3 2.5 3.3 6.5s-2.5 2.8-5.2 1.9c-2.7-.9-5.1-1.4-5.6 4.1-.4 4.3 3.5 5.1 7.7 4.9 4.2-.3 1.6.2 4.7 3.7 3.1 3.6-.2 5.4 2.2 14 2.4 8.7 18.7 6.4 20.7 3.8 2-2.5.3-4.3-1.1-5.6-1.4-1.3-4.1-1.9-3.8-5.7.4-3.7 5-1.8 5-1.8z" fill="url(#m)"/><radialGradient id="n" cx="326.548" cy="227.152" r="417.834" gradientUnits="userSpaceOnUse"><stop offset=".092" stop-color="#A0AF7B"/><stop offset=".598" stop-color="#538763"/></radialGradient><path d="M368 334.5c-5-2.5 0-5.3-5.6-10.6s-12-2.2-12-2.2-5.6 2-12-.8-3.6-3.9-14.7-4.2c-11.1-.3-18.9 11.7-15 26.8 3.9 15.1 15.9 12 15.9 12 5.8-.8 10.3 2.8 12.2 7.8.9 2.3.8 11.7-1.1 17.6-1.9 5.9.8 9.2 1.7 15.4.4 3.3 3.3 4.9 7.1 5.5 14.7-18.7 23.9-41.6 25.4-66.6-.6-.2-1.3-.4-1.9-.7z" fill="url(#n)"/><path d="M245 449.6c25.1 0 48.4-7.2 68-19.5-2.8-3.2-10.2-4.5-12.3-5.6-.3-.1-.8-.3-1.3-.4-17.4 7.5-37.4 9-56.7 6.2-2.6 1.1-4.6 2.6-6.7 4.9-3.9 4-6 5.7-17.5 5.7-11.6 0-18.3-5.6-21.5-6.3-2.3-.5-5.1.5-7.3 2.4 16.5 8.1 35.4 12.6 55.3 12.6zM147.6 375.6c-.7-.6-1.3-1.2-2-1.8-5.2-5.2-7.4-13.1-10.1-19.8-4.2-10.5-8.9-20.5-15.7-29.3 0 1.2-.1 2.4-.1 3.6 0 3.6.2 7.1.5 10.6 2.2 4.6 5.8 6.3 7.9 8.7 3.1 3.7 4.2 12.1 4.5 19.9.3 7.9 3.4 14.3 4.2 16 .8 1.7 9.8 13.5 10.1 2.8.1-4 .4-7.7.7-10.7zM344.6 401.8c13.1-16.6 21.8-36.6 24.6-58.5-1.1 3-2.1 6.1-3.1 9.2-2.3 7.1-7.8 11.8-12.7 17.1-6.3 6.8-11.5 14.6-16.9 22.2.4 1.3.7 2.8 1 4.4.4 3.3 3.3 5 7.1 5.6z" fill="#648248"/><g><path d="M194.7 311c.6-16.3 8.9-27.9 22.6-36 6.3-3.8 13.4-5.3 20.6-5.3 11.2.1 21.3 3.6 29.7 11.5 7.4 7 12.4 15.2 13.7 25.4 1 7.9-.6 15.3-4.3 22.3-5.2 9.9-13 17.1-23.4 20.9-11.9 4.4-23.7 4-35.2-1.8-11-5.5-18-14.4-22.1-25.7-1.3-3.5-1.8-7.4-1.6-11.3zm21.4 9.3c2.7.3 5.3-.8 7.9-.7 1.1.1 1.6-.6 1.9-1.5 2-4.6 5.6-7.3 10.6-7.4 5.2-.1 8.8 2.6 11 7.4.3.7.5 1.5 1.5 1.6 2.7.3 5.3 1.1 8.1 1.1.1.1.2.3.4.4 2.7.6 5.3 1.2 7.9 2.3 1.7.8 2.7.4 3.5-1.4 2.4-5.7 3.7-11.5 2.5-17.8-2.6-13.3-14.5-27.1-31.3-28.8-15.1-1.5-26.9 4.7-35.1 17.4-5.9 9.2-6.5 19-2 29.1.5 1.2 1.1 2 2.6 1.4 3.3-1.3 6.8-2 10.2-2.8.1 0 .2-.2.3-.3zm18.4 3.7c-3.7-.6-8.4.7-13.3 1.2-4 .4-8 1.4-11.9 2.6-2 .6-2.2 1.5-.7 2.9 1.8 1.7 3.5 3.5 5.5 5 7.2 5.6 15.6 8.1 24.5 7.3 9.4-.8 17.5-4.7 23.9-11.8 2.1-2.3 2.1-2.6-1-3.5-8.3-2.5-17-3.7-27-3.7zM289.8 374.8v.8c0 1 .2 2.4-1.2 2.6-1.7.3-1.7-1.4-1.9-2.4-.4-1.7-.8-3.3-1.8-4.9-2.7-4.2-9.5-2.8-11.5.5-1.3 2.2-2.5 4.4-4 6.5-2.3 3.3-4.7 6.4-9.4 6.2-2.9-.1-4.8-1.8-6.5-3.7-1.5-1.7-3.1-3.1-4.5-4.9-3.3-4.3-9.9-3.1-12.2 2.4-1.6 4-4.1 7-8.4 8.6-5.3 1.9-11.6-1-14.3-5-1-1.5-2-2.9-3.3-4.2-3.5-3.4-8.2-3.4-11.7-.1-2.4 2.3-4.6 4.8-5.4 8.3-.3 1.1-1.1 2.4-2.4 2-1.4-.4-2.1-1.6-1.8-3.1 1-5.2 2.3-10.2 5.6-14.5 5.5-7.2 16.3-7.2 21.7 0 .9 1.2 1.9 2.4 2.8 3.6 3.2 4.3 7.7 4.1 10.4-.6.6-1 1.1-2 1.6-3 3.9-8.6 16.4-10.2 23.2-1.6 1.4 1.7 2.8 3.5 4.2 5.1 1.1 1.2 2.1 1.2 3.3-.1 2.4-2.5 3.9-5.7 6.1-8.4 3.4-4.3 5.7-5.2 10.8-3.7 6.2 1.8 10.5 7.3 10.6 13.6z" fill="#492F91"/><path d="M215.7 320.7c-3.4.8-6.9 1.5-10.2 2.8-1.5.6-2.1-.2-2.6-1.4-4.5-10.1-3.9-19.9 2-29.1 8.1-12.7 19.9-18.9 35.1-17.4 16.8 1.7 28.7 15.4 31.3 28.8 1.2 6.3-.1 12.1-2.5 17.8-.7 1.8-1.7 2.1-3.5 1.4-2.5-1.1-5.2-1.7-7.8-2.3-.1-.1-.2-.3-.4-.4 0-13.1-14.5-22.9-27.3-18.1-1.4.5-1 1.3-.7 2.3.8 2.7.3 5.1-1.9 7-2.1 1.8-4.3 2.7-7 1.4-1.4-.6-2.3-.5-2.7 1.2-.4 1.9-.9 3.8-1.4 5.7-.1 0-.2.2-.4.3z" fill="#FFF"/><path d="M234.5 324c10.1 0 18.7 1.3 27.1 3.7 3.1.9 3 1.2 1 3.5-6.4 7.2-14.5 11.1-23.9 11.8-9 .7-17.3-1.7-24.5-7.3-2-1.5-3.7-3.3-5.5-5-1.5-1.4-1.3-2.3.7-2.9 3.9-1.2 7.9-2.2 11.9-2.6 4.8-.5 9.5-1.9 13.2-1.2zM216.2 320.3c.5-1.9 1-3.8 1.4-5.7.4-1.7 1.4-1.9 2.7-1.2 2.7 1.3 5 .4 7-1.4 2.1-1.9 2.7-4.3 1.9-7-.3-1-.7-1.7.7-2.3 12.8-4.8 27.3 5 27.3 18.1-2.7 0-5.4-.8-8.1-1.1-1-.1-1.2-.9-1.5-1.6-2.1-4.7-5.8-7.5-11-7.4-5 .1-8.6 2.8-10.6 7.4-.4.9-.9 1.6-1.9 1.5-2.7-.1-5.3 1-7.9.7z" fill="#5C57A5"/><path d="M215.7 320.7l.4-.4c-.1.1-.2.3-.4.4zM257.2 320.7c.1.1.2.3.4.4-.2-.1-.3-.2-.4-.4z" fill="#DF2026"/></g><path d="M224.2 319.6c1.1.1 1.6-.6 1.9-1.5 2-4.6 5.6-7.3 10.6-7.4 5.2-.1 8.8 2.6 11 7.4.3.7.5 1.5 1.5 1.6" fill="#11213C"/><g><path d="M871.4 297.9c-4.3-16.1-11.9-31.4-22.3-44.8-24.8-31.9-64-50-104.2-50.2-41.3-.2-81 19.7-105.6 52.8-15.8 21.1-24.2 47.1-24.3 73.4.2 40.7 20.6 78.5 53.5 102.2 33.6 24.2 77.8 30.7 117.2 18.5 39-12 70.8-42.8 83.8-81.4 7.8-23 8.1-47.6 1.9-70.5z" fill="#4A606B"/><radialGradient id="o" cx="780.386" cy="260.428" r="216.554" gradientUnits="userSpaceOnUse"><stop offset=".123" stop-color="#EBF7FD"/><stop offset=".716" stop-color="#89A1D3"/></radialGradient><path d="M870.2 328.3c0 67-56 121.4-125.2 121.4-69.1 0-125.2-54.3-125.2-121.4 0-67 56-121.4 125.2-121.4 69.1 0 125.2 54.3 125.2 121.4z" fill="url(#o)"/><radialGradient id="p" cx="780.386" cy="275.501" r="202.583" gradientUnits="userSpaceOnUse"><stop offset=".11" stop-color="#DBEAF7"/><stop offset=".681" stop-color="#9194C9"/></radialGradient><path d="M619.8 328.3c0 67 56 121.4 125.2 121.4 69.1 0 125.2-54.3 125.2-121.4 0-29-10.5-55.6-28-76.5 2.6 7.6 5.2 15.1 6.9 23 2.6 12.2-1.4 22.6-8.8 32.1-5.6 7.1-9.5 15.8-15.9 22.2-1.1 1.1-2.3 2-3.7 2.7-2.3-1.8-3.1 8.5-27.1 32.9-13.4 13.4-35 5.4-38.7 3.7-14.2-6.4-25.4-12.4-40.1-20.3-13-6.9-13.6-19.8-26.8-26.4-9.9-4.9-23.1-10.2-22.5-22.8.2-5.3-2.6-8.7-6.4-10.1-.1-1.3-.1-2.6-.1-4 .2-12.4 4.7-25.1 10.1-36.1 1.6-3.2 1.5-6.3.6-9 2.8-4.4 5.3-8.9 7.6-13.6-34.6 21.7-57.5 59.3-57.5 102.2z" fill="url(#p)"/><path d="M745 449.6c63.9 0 116.5-46.4 124.2-106.3-1.1 3-2.1 6.1-3.1 9.2-2.3 7.1-7.8 11.8-12.7 17.1-9.4 10.2-16.4 22.7-25.3 33.4-21.5 25.7-55.7 32.3-87.7 27.1-17.5-2.9-33.9-9.6-50.2-16.1-6.9-2.8-13.3-5.6-18.4-11.1-4.7-5.1-8.1-11.5-12.7-16.7-4-4.5-9.1-8.1-13.3-12.4-5.2-5.2-7.4-13.1-10.1-19.8-4.2-10.5-8.9-20.5-15.7-29.3 0 1.2-.1 2.4-.1 3.6-.1 67 55.9 121.3 125.1 121.3z" fill="#9779B6"/><radialGradient id="q" cx="846.883" cy="218.007" r="262.489" gradientTransform="matrix(1 0 0 1.0974 0 -45.9)" gradientUnits="userSpaceOnUse"><stop offset=".104" stop-color="#FFF"/><stop offset=".693" stop-color="#CED4EB"/></radialGradient><path d="M804.1 252.2c-21-16.4-61.4-22.4-84-7.8-7.8 5-8.4 14.1-5.2 20.9l-.6 1.5c-4.9 15.2 6.5 30.9 18.3 36.7 13 6.4 27.4 7.6 41.4 9.6 14.2 2 34.3-6.5 42.1-20.1 9.4-16.4.5-31-12-40.8z" fill="url(#q)"/><radialGradient id="r" cx="763.132" cy="250.306" r="161.74" gradientUnits="userSpaceOnUse"><stop offset=".27" stop-color="#A9D1EF"/><stop offset=".438" stop-color="#A6CCEC"/><stop offset=".637" stop-color="#9EBEE3"/><stop offset=".851" stop-color="#91A6D5"/><stop offset="1" stop-color="#8591C8"/></radialGradient><path d="M661.9 319.3s-.5-.1-.9-.2l-.2-1-.3-1.5c-1.1-5.8-5.5-8.6-11.1-12.2-5.5-3.5-14-3.6-19.8-3.2.3-.9.5-1.8.5-2.7 0-1.3-.3-2.6-.8-3.8-.7-1.7-2.1-2.9-3.8-3.4-3.8 11.7-5.9 24.1-5.9 37 0 7.3.7 14.5 2 21.5 0 0 .1 0 .1.1-.1-.1 1.4 1.3 1.8 1.7.5.7 2.6 4.1 3 16.2v.4c3.5 9.8 8.3 19.1 14.2 27.6 1.7.8 3.5 1.2 5.4.8 2.3-.5 6.3-2.5 6.5-10 .2-8.7 1.2-15.4 1.5-17.1.2-.6 1.5-3.4 6.1-8.2 14.9-15.7 15.5-22.3 16-28.2l.1-1.2.1-1c.2-8.5-9.7-10.6-14.5-11.6zm-34.5-13.9c.4-.4.5-.8.8-1.2-.2.4-.4.8-.8 1.2z" fill="url(#r)"/><radialGradient id="s" cx="763.132" cy="250.306" r="161.74" gradientUnits="userSpaceOnUse"><stop offset=".27" stop-color="#A9D1EF"/><stop offset=".438" stop-color="#A6CCEC"/><stop offset=".637" stop-color="#9EBEE3"/><stop offset=".851" stop-color="#91A6D5"/><stop offset="1" stop-color="#8591C8"/></radialGradient><path d="M638.4 291.8c1.8-1 3-2.8 3.3-4.8l.1-1.2c0-.8-.2-1.6-.4-2.4 2.8-1.2 4.2-4 5.1-5.8 0 .1 1-1.8 1.2-2.2 2-3.2 5.9-5.7 9.3-7.9 3.2-2.1 6.3-4.1 8.3-6.8 1.6-2.1 2.4-4.3 2.4-6.5 0-3.9-2.4-6.7-3.8-8.2l-.9-1c-1.1-2.2-2.5-3.7-4.2-4.6-14.6 13.4-25.9 30.2-32.4 49.1.6.4 1.4.9 1.4.9 2.1 1.2 6.2 3.9 10.6 1.4z" fill="url(#s)"/><radialGradient id="t" cx="763.132" cy="250.305" r="161.741" gradientUnits="userSpaceOnUse"><stop offset=".27" stop-color="#A9D1EF"/><stop offset=".438" stop-color="#A6CCEC"/><stop offset=".637" stop-color="#9EBEE3"/><stop offset=".851" stop-color="#91A6D5"/><stop offset="1" stop-color="#8591C8"/></radialGradient><path d="M799.2 237.4c-3 2.6-3.5 6.6-3.6 8.1v1c0 2.7.9 5.1 2.7 7 2.3 2.3 5.6 3.4 10.2 3.4.4.5.6 1.1 1.1 1.6 0 .3-.1 1-.1 1l-.1 2.9c0 2.5.4 5.1 1.1 7.9 1.4 5.1 5.7 8.8 11.9 10 5.8 1.2 15.7.4 19.2-4.1 1.4-1.8 2.2-3.8 2.2-5.9 0-.7-.1-1.4-.3-2.1 1.8 1.1 3.6 2.3 5.4 4l1.3 1.2c1.9 1.7 4.7 2 6.9.9-13.9-27.2-38.1-48.5-67.5-59.4-1.9 2.4-3 5.6-3 9.2v.4c.2 7.5 6.7 11.1 12.6 12.9z" fill="url(#t)"/><radialGradient id="u" cx="763.132" cy="250.306" r="161.741" gradientUnits="userSpaceOnUse"><stop offset=".27" stop-color="#A9D1EF"/><stop offset=".438" stop-color="#A6CCEC"/><stop offset=".637" stop-color="#9EBEE3"/><stop offset=".851" stop-color="#91A6D5"/><stop offset="1" stop-color="#8591C8"/></radialGradient><path d="M870.1 324.2c-.7-1.5-1.8-3-3.5-4.7-7.5-7.2-15.9-4.4-18-3.6-.2.1-3.7 1.1-7.7-.7.1 0 .1.1.2.2-.8-.5-1.9-1.1-3.4-1.9-3.1-2-5.2-2.7-13.7-2.9-6.5-.2-12.4 2.6-16.5 7.9-3.7 4.6-5.6 10.6-5.6 17.2 0 3 .4 6.1 1.2 9.3 5 19.3 20.9 16.7 22.6 16.4 3.5-.5 5.1 2.7 5.7 4.1.3 1.3.4 8.9-1.2 13.6-1.9 5.6-.6 10 .3 13.4.4 1.5.8 3 1.1 4.6.3 2.4 1.8 7.5 8.8 9.8 18.6-21.2 29.8-48.6 29.8-78.6 0-1.4-.1-2.7-.1-4.1z" fill="url(#u)"/><radialGradient id="v" cx="763.133" cy="250.305" r="161.742" gradientUnits="userSpaceOnUse"><stop offset=".27" stop-color="#A9D1EF"/><stop offset=".438" stop-color="#A6CCEC"/><stop offset=".637" stop-color="#9EBEE3"/><stop offset=".851" stop-color="#91A6D5"/><stop offset="1" stop-color="#8591C8"/></radialGradient><path d="M699.1 240.7c4.7-4 5.2-9.7 5.4-13.2l.1-1.1c.3-3.7-.5-6.7-2.5-8.9-.9-1-1.9-1.7-2.9-2.1-13.3 5.1-25.5 12.3-36.2 21.3-.7 1.2-1 2.3-1.1 3v.8c0 3.6 2.5 5.9 4 7.3-.1 0 .7.7.7.7 1.8 1.9 4.6 2.7 7.6 2 2.8-.6 6.1-2.7 7.8-5.8.1 0 .3-.1.5-.1 7.4.5 12.9-.8 16.6-3.9zm-16.6 3.2l-.1.1c.1-.3.3-.5.4-.8-.2.5.1.3-.3.7z" fill="url(#v)"/><radialGradient id="w" cx="763.133" cy="250.3" r="161.745" gradientUnits="userSpaceOnUse"><stop offset=".27" stop-color="#A9D1EF"/><stop offset=".438" stop-color="#A6CCEC"/><stop offset=".637" stop-color="#9EBEE3"/><stop offset=".851" stop-color="#91A6D5"/><stop offset="1" stop-color="#8591C8"/></radialGradient><path d="M805.4 419.9c.1 0-2.4-.8-2.4-.8.1 0 .3.1.4.2-4.6-2.3-22.7-1.7-28.6 1-3.1 1.4-15.2 2.1-21 2.5l-3.9.2c-9.2.6-13.5 3.4-18.2 8.2-3 3.1-3.8 3.9-13.3 3.9-7 0-11.8-2.4-15.4-4.2-1.7-.9-3.2-1.6-4.7-2-4.1-1-8.9.5-12.6 3.7-.6.5-1 1.1-1.3 1.8 18 9.7 38.7 15.2 60.7 15.2 27.2 0 52.3-8.4 72.9-22.7-.1-.2-.3-.5-.5-.7-3.2-3.5-8.4-5.1-12.1-6.3z" fill="url(#w)"/><path d="M776.1 423.4c-3.7 1.7-15.3 2.4-22.2 2.8l-3.9.2c-8.1.5-11.8 2.8-16 7.2-3.4 3.5-4.8 4.9-15.7 4.9-7.8 0-13.3-2.7-16.9-4.6-1.6-.8-2.9-1.4-4-1.7-3-.7-6.7.4-9.6 3-.6.6-1 1.4-.8 2.3.1.8.6 1.6 1.4 2 17.7 8.5 36.7 12.8 56.6 12.8 24.7 0 48.6-6.9 69.3-19.9.6-.4 1.1-1.1 1.2-1.8.1-.7-.1-1.5-.6-2-2.5-2.8-7.1-4.3-10.5-5.3l-2.5-.9c-3.5-1.8-20.5-1.4-25.8 1zM685.7 219.3c-1.3.5-2.6 1.1-3.6 1.3-.2.1-.5.1-.7.3-4.7 2.6-9.3 5.6-13.5 8.7-.7.5-1 1.2-1 2v.3c.1.9.7 1.7 1.6 2 .9.3 1.5.6 2 .8-.6.4-1.4 1-2.7 1.8-1.9 1.1-2.4 2.5-2.5 3.5v.4c0 2.1 1.7 3.7 2.9 4.8l.8.8c.6.7 2 1.7 4.5 1.1 2.4-.5 5.2-2.4 6.1-5 .2-.3 1.5-.8 2.7-.9 6.7.5 11.5-.5 14.6-3.1 3.6-3.1 4-7.6 4.2-10.8l.1-1.1c.3-2.7-.3-4.9-1.7-6.3-2.1-2.3-5.3-2.3-7.2-2.3-2.2-.2-4.4.8-6.6 1.7zM652.1 243.2c-11.2 11.5-19.9 24.8-25.9 39.5-.5 1.2.1 2.6 1.2 3.2l2.2 1.4c2 1.3 4.5 3 7.1 1.5.9-.5 1.5-1.4 1.7-2.4v-.6c0-1.8-1.3-3.4-2.6-4.9.7-.1 1.5-.1 2.4-.1 2.9 0 4.2-2.4 5.2-4.6l1.4-2.5c2.4-3.8 6.6-6.6 10.3-9 3-1.9 5.8-3.8 7.5-6 1.2-1.6 1.7-3.2 1.7-4.5 0-2.7-1.8-4.7-2.9-6-.6-.6-1.1-1.2-1.3-1.7-1.4-2.8-3.2-4-6.1-4-.7 0-1.4.2-1.9.7zm-28.3 51.2c-1.1.1-2 .8-2.3 1.9l-1.2 4.7c0 .2-.1.4-.1.5 0 .1.1.2.1.4-.2.3-.4.5-.5.8l-.9 4.9v.4c0 .5.2 1 .4 1.4 0 0 .2.4.4.6-.5.9-1 1.9-1.4 3-.1.2-.1.4-.1.6-.6 5.1-.9 9.9-.9 14.6 0 3.4.2 6.9.5 10.8 0 .3.1.6.2.9 1.7 3.6 4.1 5.6 6.1 7.2l2.2 2c1.3 1.5 3.4 5.9 3.9 18.4.3 7.6 2.9 13.9 4.5 17.1 0 .1 5.9 9.7 11.1 8.5 2.4-.5 3.7-2.8 3.8-6.8.3-9.7 1.4-17 1.6-18 .2-.5 1.6-3.9 6.9-9.6 14.1-14.8 14.6-20.8 15.1-26.2l.1-1.2v-.7c0-5.7-7.5-7.3-12-8.2-.9-.2-2.2-.5-2.6-.6-.6-.3-.8-1.1-1.2-3.4l-.2-1.5c-.8-4.3-4.3-6.5-9.5-9.8-5.9-3.7-17.3-3-22-2.1-.4-.8-.7-1.5-.7-2v-.1c1.2-1.3 1.9-2.8 1.9-4.5 0-.8-.2-1.7-.5-2.5-.6-.9-1.6-1.6-2.7-1.5zM794.1 215.2c-1.9 1.3-4.1 3.9-4.1 8.8v.4c.2 8.5 12.1 10.5 17.2 11.4l1.3.2c1 .2 1.3.3 1.3 3.6v.5c-.4-.1-.8-.2-1.1-.4l-.7-.3c-1.5-.5-4-1.3-6.1.1-2.2 1.4-2.6 4.2-2.8 6.2-.2 2.7.8 4.4 1.7 5.3 1.8 1.8 4.6 2.5 8.7 2.3h.7c.3.7.9 1.7 1.9 2.9.6.7.8 1.2.8 2 0 .4 0 .8-.1 1.4-.1.8-.1 1.6-.1 2.6 0 1.8.2 4 1 7 1.1 3.9 4.4 6.6 9.3 7.6 5.3 1.1 13.6 0 15.9-2.8.8-1 1.4-2.3 1.4-3.8 0-1.6-.7-3.4-2.9-5.3l-1.4-1c-1.1-.7-1.6-1-1.6-2.1v-.4c.4 0 1 .1 1.5.3.1.1.3.1.5.1 5.2 1 9.8 3.4 14.7 7.8l1.3 1.2c.9.9 2.3.9 3.3.1s1.3-2.2.6-3.2c-13.5-23.3-34.7-42.1-59.9-52.9-.6-.2-1.6-.2-2.3.4zM810.1 320.6c-4.7 5.9-6.1 14.5-3.7 23.4 4.2 16.1 16.8 14.3 18.7 13.9 4.9-.7 8.1 2.8 9.5 6.2.6 1.6.7 10.3-1.2 15.9-1.5 4.6-.6 8.1.4 11.4.4 1.6.9 3.2 1.2 5.1.3 2.4 2 6.6 9.3 7.7.9.1 1.8-.2 2.4-.9 15.5-19.7 24.5-43.2 25.9-68 .1-1.1-.8-2.2-1.8-2.6l-1.5-.6c-1.1-.6-1.1-.6-1.2-2-.1-1.9-.2-4.8-3.8-8.2-6.3-6-13.4-3.3-14.6-2.8-.2 0-4.8 1.5-10.1-.8l-3.6-1.9c-2.6-1.6-4-2.3-12.1-2.5-5.5 0-10.4 2.3-13.8 6.7z" fill="#4A606B"/><radialGradient id="x" cx="826.553" cy="227.145" r="417.848" gradientUnits="userSpaceOnUse"><stop offset=".092" stop-color="#A0AF7B"/><stop offset=".598" stop-color="#538763"/></radialGradient><path d="M800.7 424.6c-2.5-1.2-18.6-1.1-23.5 1.1-4.9 2.2-19.6 2.7-27 3.2-7.4.5-10.5 2.5-14.4 6.4-3.9 4-6 5.7-17.5 5.7-11.6 0-18.3-5.6-21.5-6.3-2.3-.5-5.1.5-7.3 2.4 16.7 8 35.5 12.6 55.5 12.6 25.1 0 48.4-7.2 68-19.5-2.9-3.3-10.2-4.6-12.3-5.6z" fill="url(#x)"/><radialGradient id="y" cx="826.552" cy="227.151" r="417.83" gradientUnits="userSpaceOnUse"><stop offset=".092" stop-color="#B5D88E"/><stop offset=".607" stop-color="#308F39"/></radialGradient><path d="M673.5 233.3c1.9 1.3-1.2 3.5-4.4 5.3-3.2 1.9.2 4 1.7 5.6 1.3 1.4 5.6-.5 6.4-2.9.8-2.4 5-2.7 5-2.7 16.5 1.3 15.9-7.2 16.5-12.8.5-5.6-3.2-5.9-6.4-5.9-2.9 0-6.6 2.4-9.7 3-4.6 2.6-9 5.4-13.2 8.5 1.8.8 3.4 1.5 4.1 1.9z" fill="url(#y)"/><radialGradient id="z" cx="826.552" cy="227.152" r="417.83" gradientUnits="userSpaceOnUse"><stop offset=".092" stop-color="#B5D88E"/><stop offset=".598" stop-color="#538763"/></radialGradient><path d="M657.5 324.3c-2.2-1.1-2.2-3.7-2.8-6.7-.6-3.1-3.1-4.8-8.4-8.1-5.3-3.4-16.5-2.5-20.4-1.7-.4.1-.9.3-1.3.6-.7-1-2.1-3.2-2.1-5l-.9 4.8c.4.7.8 1.4 1.1 2.1-.7 1-1.4 2.3-2 3.8-.6 4.7-.9 9.5-.9 14.3 0 3.6.2 7.1.5 10.6 2.2 4.6 5.8 6.3 7.9 8.7 3.1 3.7 4.2 12.1 4.5 19.9.3 7.9 3.4 14.3 4.2 16 .8 1.7 9.8 13.5 10.1 2.8.3-10.7 1.7-18.5 1.7-18.5s1.1-3.9 7.5-10.7c14.6-15.3 14-20.5 14.5-25.8.5-5.4-10.9-6-13.2-7.1zM624 297c-.4 1.5-.8 3-1.1 4.6l.3-.3c1.2-1.3 1.4-2.9.8-4.3zm11.4-10.4c2-1.1-2.8-5.1-3.4-6.5-.6-1.4 3.1-2 6.1-2 2 0 2.5-2.8 4.5-5.9 4.7-7.4 14.5-10.7 17.9-15.2 3.4-4.5-1.4-6.7-2.8-9.6-1-2-1.9-2.6-3.9-2.6-10.8 11.1-19.5 24.2-25.4 38.7 3 1.7 5.3 4.1 7 3.1z" fill="url(#z)"/><radialGradient id="A" cx="826.553" cy="227.152" r="417.832" gradientUnits="userSpaceOnUse"><stop offset=".092" stop-color="#A0AF7B"/><stop offset=".598" stop-color="#538763"/></radialGradient><path d="M836.9 259.4c5.4 1 10.3 3.4 15.9 8.4.5.4 1 .9 1.4 1.3-13.2-22.9-33.8-41.2-58.7-51.8-2.1 1.5-3.1 3.9-3 7.1.2 7.2 13.6 8.5 16.5 9.2 3 .6 3.3 2.5 3.3 6.5s-2.5 2.8-5.2 1.9c-2.7-.9-5.1-1.4-5.6 4.1-.4 4.3 3.5 5.1 7.7 4.9 4.2-.3 1.6.2 4.7 3.7 3.1 3.6-.2 5.4 2.2 14 2.4 8.7 18.7 6.4 20.7 3.8 2-2.5.3-4.3-1.1-5.6-1.4-1.3-4.1-1.9-3.8-5.7.4-3.7 5-1.8 5-1.8z" fill="url(#A)"/><radialGradient id="B" cx="826.548" cy="227.152" r="417.834" gradientUnits="userSpaceOnUse"><stop offset=".092" stop-color="#A0AF7B"/><stop offset=".598" stop-color="#538763"/></radialGradient><path d="M868 334.5c-5-2.5 0-5.3-5.6-10.6s-12-2.2-12-2.2-5.6 2-12-.8-3.6-3.9-14.7-4.2c-11.1-.3-18.9 11.7-15 26.8 3.9 15.1 15.9 12 15.9 12 5.8-.8 10.3 2.8 12.2 7.8.9 2.3.8 11.7-1.1 17.6-1.9 5.9.8 9.2 1.7 15.4.4 3.3 3.3 4.9 7.1 5.5 14.7-18.7 23.9-41.6 25.4-66.6-.6-.2-1.3-.4-1.9-.7z" fill="url(#B)"/><path d="M745 449.6c25.1 0 48.4-7.2 68-19.5-2.8-3.2-10.2-4.5-12.3-5.6-.3-.1-.8-.3-1.3-.4-17.4 7.5-37.4 9-56.7 6.2-2.6 1.1-4.6 2.6-6.7 4.9-3.9 4-6 5.7-17.5 5.7-11.6 0-18.3-5.6-21.5-6.3-2.3-.5-5.1.5-7.3 2.4 16.5 8.1 35.4 12.6 55.3 12.6zM647.6 375.6c-.7-.6-1.3-1.2-2-1.8-5.2-5.2-7.4-13.1-10.1-19.8-4.2-10.5-8.9-20.5-15.7-29.3 0 1.2-.1 2.4-.1 3.6 0 3.6.2 7.1.5 10.6 2.2 4.6 5.8 6.3 7.9 8.7 3.1 3.7 4.2 12.1 4.5 19.9.3 7.9 3.4 14.3 4.2 16 .8 1.7 9.8 13.5 10.1 2.8.1-4 .4-7.7.7-10.7zM844.6 401.8c13.1-16.6 21.8-36.6 24.6-58.5-1.1 3-2.1 6.1-3.1 9.2-2.3 7.1-7.8 11.8-12.7 17.1-6.3 6.8-11.5 14.6-16.9 22.2.4 1.3.7 2.8 1 4.4.4 3.3 3.3 5 7.1 5.6z" fill="#648248"/><g><path d="M789.8 374.8v.8c0 1 .2 2.4-1.2 2.6-1.7.3-1.7-1.4-1.9-2.4-.4-1.7-.8-3.3-1.8-4.9-2.7-4.2-9.5-2.8-11.5.5-1.3 2.2-2.5 4.4-4 6.5-2.3 3.3-4.7 6.4-9.4 6.2-2.9-.1-4.8-1.8-6.5-3.7-1.5-1.7-3.1-3.1-4.5-4.9-3.3-4.3-9.9-3.1-12.2 2.4-1.6 4-4.1 7-8.4 8.6-5.3 1.9-11.6-1-14.3-5-1-1.5-2-2.9-3.3-4.2-3.5-3.4-8.2-3.4-11.7-.1-2.4 2.3-4.6 4.8-5.4 8.3-.3 1.1-1.1 2.4-2.4 2-1.4-.4-2.1-1.6-1.8-3.1 1-5.2 2.3-10.2 5.6-14.5 5.5-7.2 16.3-7.2 21.7 0 .9 1.2 1.9 2.4 2.8 3.6 3.2 4.3 7.7 4.1 10.4-.6.6-1 1.1-2 1.6-3 3.9-8.6 16.4-10.2 23.2-1.6 1.4 1.7 2.8 3.5 4.2 5.1 1.1 1.2 2.1 1.2 3.3-.1 2.4-2.5 3.9-5.7 6.1-8.4 3.4-4.3 5.7-5.2 10.8-3.7 6.2 1.8 10.5 7.3 10.6 13.6z" fill="#492F91"/><path d="M715.7 320.7l.4-.4c-.1.1-.2.3-.4.4zM757.2 320.7c.1.1.2.3.4.4-.2-.1-.3-.2-.4-.4z" fill="#DF2026"/></g><path d="M902.4-357.7c.5-.8 1.2-1 2.1-.9-.4.8-1.1 1-1.9 1.1l-.2-.2zM789.4-357.7c-.3.3-.6.7-1 1 .4-.3.7-.6 1-1zM789.5-357.6c.1-.1.1-.3.2-.4-.1.1-.2.2-.2.4-.1-.1 0 0 0 0zM904.5-358.7l.4-.4c0 .1 0 .2-.1.3-.1 0-.2.1-.3.1z" fill="#CA000B"/><path d="M698.4 337.2c-2.5-9.7.4-18.1 6-25.6 10.1-13.3 23.6-18.8 40.3-16.8 17.3 2.1 28.9 11.3 35.1 27.3 2.4 6.2 2.7 12.6.1 19.7-6.3-19.5-19-31.2-39.2-32.4-20.3-1.2-33.9 9.7-42.3 27.8z" fill="#492F91"/></g><g><path d="M1371.4 297.9c-4.3-16.1-11.9-31.4-22.3-44.8-24.8-31.9-64-50-104.2-50.2-41.3-.2-81 19.7-105.6 52.8-15.8 21.1-24.2 47.1-24.3 73.4.2 40.7 20.6 78.5 53.5 102.2 33.6 24.2 77.8 30.7 117.2 18.5 39-12 70.8-42.8 83.8-81.4 7.8-23 8.1-47.6 1.9-70.5z" fill="#4A606B"/><radialGradient id="C" cx="1280.387" cy="260.428" r="216.554" gradientUnits="userSpaceOnUse"><stop offset=".123" stop-color="#EBF7FD"/><stop offset=".716" stop-color="#89A1D3"/></radialGradient><path d="M1370.2 328.3c0 67-56 121.4-125.2 121.4-69.1 0-125.2-54.3-125.2-121.4 0-67 56-121.4 125.2-121.4 69.1 0 125.2 54.3 125.2 121.4z" fill="url(#C)"/><radialGradient id="D" cx="1280.387" cy="275.501" r="202.583" gradientUnits="userSpaceOnUse"><stop offset=".11" stop-color="#DBEAF7"/><stop offset=".681" stop-color="#9194C9"/></radialGradient><path d="M1119.8 328.3c0 67 56 121.4 125.2 121.4 69.1 0 125.2-54.3 125.2-121.4 0-29-10.5-55.6-28-76.5 2.6 7.6 5.2 15.1 6.9 23 2.6 12.2-1.4 22.6-8.8 32.1-5.6 7.1-9.5 15.8-15.9 22.2-1.1 1.1-2.3 2-3.7 2.7-2.3-1.8-3.1 8.5-27.1 32.9-13.4 13.4-35 5.4-38.7 3.7-14.2-6.4-25.4-12.4-40.1-20.3-13-6.9-13.6-19.8-26.8-26.4-9.9-4.9-23.1-10.2-22.5-22.8.2-5.3-2.6-8.7-6.4-10.1-.1-1.3-.1-2.6-.1-4 .2-12.4 4.7-25.1 10.1-36.1 1.6-3.2 1.5-6.3.6-9 2.8-4.4 5.3-8.9 7.6-13.6-34.6 21.7-57.5 59.3-57.5 102.2z" fill="url(#D)"/><path d="M1245 449.6c63.9 0 116.5-46.4 124.2-106.3-1.1 3-2.1 6.1-3.1 9.2-2.3 7.1-7.8 11.8-12.7 17.1-9.4 10.2-16.4 22.7-25.3 33.4-21.5 25.7-55.7 32.3-87.7 27.1-17.5-2.9-33.9-9.6-50.2-16.1-6.9-2.8-13.3-5.6-18.4-11.1-4.7-5.1-8.1-11.5-12.7-16.7-4-4.5-9.1-8.1-13.3-12.4-5.2-5.2-7.4-13.1-10.1-19.8-4.2-10.5-8.9-20.5-15.7-29.3 0 1.2-.1 2.4-.1 3.6-.1 67 55.9 121.3 125.1 121.3z" fill="#9779B6"/><radialGradient id="E" cx="1346.883" cy="218.007" r="262.489" gradientTransform="matrix(1 0 0 1.0974 0 -45.9)" gradientUnits="userSpaceOnUse"><stop offset=".104" stop-color="#FFF"/><stop offset=".693" stop-color="#CED4EB"/></radialGradient><path d="M1304.1 252.2c-21-16.4-61.4-22.4-84-7.8-7.8 5-8.4 14.1-5.2 20.9l-.6 1.5c-4.9 15.2 6.5 30.9 18.3 36.7 13 6.4 27.4 7.6 41.4 9.6 14.2 2 34.3-6.5 42.1-20.1 9.4-16.4.5-31-12-40.8z" fill="url(#E)"/><radialGradient id="F" cx="1263.132" cy="250.306" r="161.74" gradientUnits="userSpaceOnUse"><stop offset=".27" stop-color="#A9D1EF"/><stop offset=".438" stop-color="#A6CCEC"/><stop offset=".637" stop-color="#9EBEE3"/><stop offset=".851" stop-color="#91A6D5"/><stop offset="1" stop-color="#8591C8"/></radialGradient><path d="M1161.9 319.3s-.5-.1-.9-.2l-.2-1-.3-1.5c-1.1-5.8-5.5-8.6-11.1-12.2-5.5-3.5-14-3.6-19.8-3.2.3-.9.5-1.8.5-2.7 0-1.3-.3-2.6-.8-3.8-.7-1.7-2.1-2.9-3.8-3.4-3.8 11.7-5.9 24.1-5.9 37 0 7.3.7 14.5 2 21.5 0 0 .1 0 .1.1-.1-.1 1.4 1.3 1.8 1.7.5.7 2.6 4.1 3 16.2v.4c3.5 9.8 8.3 19.1 14.2 27.6 1.7.8 3.5 1.2 5.4.8 2.3-.5 6.3-2.5 6.5-10 .2-8.7 1.2-15.4 1.5-17.1.2-.6 1.5-3.4 6.1-8.2 14.9-15.7 15.5-22.3 16-28.2l.1-1.2.1-1c.2-8.5-9.7-10.6-14.5-11.6zm-34.5-13.9c.4-.4.5-.8.8-1.2-.2.4-.4.8-.8 1.2z" fill="url(#F)"/><radialGradient id="G" cx="1263.132" cy="250.306" r="161.74" gradientUnits="userSpaceOnUse"><stop offset=".27" stop-color="#A9D1EF"/><stop offset=".438" stop-color="#A6CCEC"/><stop offset=".637" stop-color="#9EBEE3"/><stop offset=".851" stop-color="#91A6D5"/><stop offset="1" stop-color="#8591C8"/></radialGradient><path d="M1138.4 291.8c1.8-1 3-2.8 3.3-4.8l.1-1.2c0-.8-.2-1.6-.4-2.4 2.8-1.2 4.2-4 5.1-5.8 0 .1 1-1.8 1.2-2.2 2-3.2 5.9-5.7 9.3-7.9 3.2-2.1 6.3-4.1 8.3-6.8 1.6-2.1 2.4-4.3 2.4-6.5 0-3.9-2.4-6.7-3.8-8.2l-.9-1c-1.1-2.2-2.5-3.7-4.2-4.6-14.6 13.4-25.9 30.2-32.4 49.1.6.4 1.4.9 1.4.9 2.1 1.2 6.2 3.9 10.6 1.4z" fill="url(#G)"/><radialGradient id="H" cx="1263.132" cy="250.305" r="161.741" gradientUnits="userSpaceOnUse"><stop offset=".27" stop-color="#A9D1EF"/><stop offset=".438" stop-color="#A6CCEC"/><stop offset=".637" stop-color="#9EBEE3"/><stop offset=".851" stop-color="#91A6D5"/><stop offset="1" stop-color="#8591C8"/></radialGradient><path d="M1299.2 237.4c-3 2.6-3.5 6.6-3.6 8.1v1c0 2.7.9 5.1 2.7 7 2.3 2.3 5.6 3.4 10.2 3.4.4.5.6 1.1 1.1 1.6 0 .3-.1 1-.1 1l-.1 2.9c0 2.5.4 5.1 1.1 7.9 1.4 5.1 5.7 8.8 11.9 10 5.8 1.2 15.7.4 19.2-4.1 1.4-1.8 2.2-3.8 2.2-5.9 0-.7-.1-1.4-.3-2.1 1.8 1.1 3.6 2.3 5.4 4l1.3 1.2c1.9 1.7 4.7 2 6.9.9-13.9-27.2-38.1-48.5-67.5-59.4-1.9 2.4-3 5.6-3 9.2v.4c.2 7.5 6.7 11.1 12.6 12.9z" fill="url(#H)"/><radialGradient id="I" cx="1263.132" cy="250.306" r="161.741" gradientUnits="userSpaceOnUse"><stop offset=".27" stop-color="#A9D1EF"/><stop offset=".438" stop-color="#A6CCEC"/><stop offset=".637" stop-color="#9EBEE3"/><stop offset=".851" stop-color="#91A6D5"/><stop offset="1" stop-color="#8591C8"/></radialGradient><path d="M1370.1 324.2c-.7-1.5-1.8-3-3.5-4.7-7.5-7.2-15.9-4.4-18-3.6-.2.1-3.7 1.1-7.7-.7.1 0 .1.1.2.2-.8-.5-1.9-1.1-3.4-1.9-3.1-2-5.2-2.7-13.7-2.9-6.5-.2-12.4 2.6-16.5 7.9-3.7 4.6-5.6 10.6-5.6 17.2 0 3 .4 6.1 1.2 9.3 5 19.3 20.9 16.7 22.6 16.4 3.5-.5 5.1 2.7 5.7 4.1.3 1.3.4 8.9-1.2 13.6-1.9 5.6-.6 10 .3 13.4.4 1.5.8 3 1.1 4.6.3 2.4 1.8 7.5 8.8 9.8 18.6-21.2 29.8-48.6 29.8-78.6 0-1.4-.1-2.7-.1-4.1z" fill="url(#I)"/><radialGradient id="J" cx="1263.133" cy="250.305" r="161.742" gradientUnits="userSpaceOnUse"><stop offset=".27" stop-color="#A9D1EF"/><stop offset=".438" stop-color="#A6CCEC"/><stop offset=".637" stop-color="#9EBEE3"/><stop offset=".851" stop-color="#91A6D5"/><stop offset="1" stop-color="#8591C8"/></radialGradient><path d="M1199.1 240.7c4.7-4 5.2-9.7 5.4-13.2l.1-1.1c.3-3.7-.5-6.7-2.5-8.9-.9-1-1.9-1.7-2.9-2.1-13.3 5.1-25.5 12.3-36.2 21.3-.7 1.2-1 2.3-1.1 3v.8c0 3.6 2.5 5.9 4 7.3-.1 0 .7.7.7.7 1.8 1.9 4.6 2.7 7.6 2 2.8-.6 6.1-2.7 7.8-5.8.1 0 .3-.1.5-.1 7.4.5 12.9-.8 16.6-3.9zm-16.6 3.2l-.1.1c.1-.3.3-.5.4-.8-.2.5.1.3-.3.7z" fill="url(#J)"/><radialGradient id="K" cx="1263.133" cy="250.3" r="161.745" gradientUnits="userSpaceOnUse"><stop offset=".27" stop-color="#A9D1EF"/><stop offset=".438" stop-color="#A6CCEC"/><stop offset=".637" stop-color="#9EBEE3"/><stop offset=".851" stop-color="#91A6D5"/><stop offset="1" stop-color="#8591C8"/></radialGradient><path d="M1305.4 419.9c.1 0-2.4-.8-2.4-.8.1 0 .3.1.4.2-4.6-2.3-22.7-1.7-28.6 1-3.1 1.4-15.2 2.1-21 2.5l-3.9.2c-9.2.6-13.5 3.4-18.2 8.2-3 3.1-3.8 3.9-13.3 3.9-7 0-11.8-2.4-15.4-4.2-1.7-.9-3.2-1.6-4.7-2-4.1-1-8.9.5-12.6 3.7-.6.5-1 1.1-1.3 1.8 18 9.7 38.7 15.2 60.7 15.2 27.2 0 52.3-8.4 72.9-22.7-.1-.2-.3-.5-.5-.7-3.2-3.5-8.4-5.1-12.1-6.3z" fill="url(#K)"/><path d="M1276.1 423.4c-3.7 1.7-15.3 2.4-22.2 2.8l-3.9.2c-8.1.5-11.8 2.8-16 7.2-3.4 3.5-4.8 4.9-15.7 4.9-7.8 0-13.3-2.7-16.9-4.6-1.6-.8-2.9-1.4-4-1.7-3-.7-6.7.4-9.6 3-.6.6-1 1.4-.8 2.3.1.8.6 1.6 1.4 2 17.7 8.5 36.7 12.8 56.6 12.8 24.7 0 48.6-6.9 69.3-19.9.6-.4 1.1-1.1 1.2-1.8.1-.7-.1-1.5-.6-2-2.5-2.8-7.1-4.3-10.5-5.3l-2.5-.9c-3.5-1.8-20.5-1.4-25.8 1zM1185.7 219.3c-1.3.5-2.6 1.1-3.6 1.3-.2.1-.5.1-.7.3-4.7 2.6-9.3 5.6-13.5 8.7-.7.5-1 1.2-1 2v.3c.1.9.7 1.7 1.6 2 .9.3 1.5.6 2 .8-.6.4-1.4 1-2.7 1.8-1.9 1.1-2.4 2.5-2.5 3.5v.4c0 2.1 1.7 3.7 2.9 4.8l.8.8c.6.7 2 1.7 4.5 1.1 2.4-.5 5.2-2.4 6.1-5 .2-.3 1.5-.8 2.7-.9 6.7.5 11.5-.5 14.6-3.1 3.6-3.1 4-7.6 4.2-10.8l.1-1.1c.3-2.7-.3-4.9-1.7-6.3-2.1-2.3-5.3-2.3-7.2-2.3-2.2-.2-4.4.8-6.6 1.7zM1152.1 243.2c-11.2 11.5-19.9 24.8-25.9 39.5-.5 1.2.1 2.6 1.2 3.2l2.2 1.4c2 1.3 4.5 3 7.1 1.5.9-.5 1.5-1.4 1.7-2.4v-.6c0-1.8-1.3-3.4-2.6-4.9.7-.1 1.5-.1 2.4-.1 2.9 0 4.2-2.4 5.2-4.6l1.4-2.5c2.4-3.8 6.6-6.6 10.3-9 3-1.9 5.8-3.8 7.5-6 1.2-1.6 1.7-3.2 1.7-4.5 0-2.7-1.8-4.7-2.9-6-.6-.6-1.1-1.2-1.3-1.7-1.4-2.8-3.2-4-6.1-4-.7 0-1.4.2-1.9.7zm-28.3 51.2c-1.1.1-2 .8-2.3 1.9l-1.2 4.7c0 .2-.1.4-.1.5 0 .1.1.2.1.4-.2.3-.4.5-.5.8l-.9 4.9v.4c0 .5.2 1 .4 1.4 0 0 .2.4.4.6-.5.9-1 1.9-1.4 3-.1.2-.1.4-.1.6-.6 5.1-.9 9.9-.9 14.6 0 3.4.2 6.9.5 10.8 0 .3.1.6.2.9 1.7 3.6 4.1 5.6 6.1 7.2l2.2 2c1.3 1.5 3.4 5.9 3.9 18.4.3 7.6 2.9 13.9 4.5 17.1 0 .1 5.9 9.7 11.1 8.5 2.4-.5 3.7-2.8 3.8-6.8.3-9.7 1.4-17 1.6-18 .2-.5 1.6-3.9 6.9-9.6 14.1-14.8 14.6-20.8 15.1-26.2l.1-1.2v-.7c0-5.7-7.5-7.3-12-8.2-.9-.2-2.2-.5-2.6-.6-.6-.3-.8-1.1-1.2-3.4l-.2-1.5c-.8-4.3-4.3-6.5-9.5-9.8-5.9-3.7-17.3-3-22-2.1-.4-.8-.7-1.5-.7-2v-.1c1.2-1.3 1.9-2.8 1.9-4.5 0-.8-.2-1.7-.5-2.5-.6-.9-1.6-1.6-2.7-1.5zM1294.1 215.2c-1.9 1.3-4.1 3.9-4.1 8.8v.4c.2 8.5 12.1 10.5 17.2 11.4l1.3.2c1 .2 1.3.3 1.3 3.6v.5c-.4-.1-.8-.2-1.1-.4l-.7-.3c-1.5-.5-4-1.3-6.1.1-2.2 1.4-2.6 4.2-2.8 6.2-.2 2.7.8 4.4 1.7 5.3 1.8 1.8 4.6 2.5 8.7 2.3h.7c.3.7.9 1.7 1.9 2.9.6.7.8 1.2.8 2 0 .4 0 .8-.1 1.4-.1.8-.1 1.6-.1 2.6 0 1.8.2 4 1 7 1.1 3.9 4.4 6.6 9.3 7.6 5.3 1.1 13.6 0 15.9-2.8.8-1 1.4-2.3 1.4-3.8 0-1.6-.7-3.4-2.9-5.3l-1.4-1c-1.1-.7-1.6-1-1.6-2.1v-.4c.4 0 1 .1 1.5.3.1.1.3.1.5.1 5.2 1 9.8 3.4 14.7 7.8l1.3 1.2c.9.9 2.3.9 3.3.1s1.3-2.2.6-3.2c-13.5-23.3-34.7-42.1-59.9-52.9-.6-.2-1.6-.2-2.3.4zM1310.1 320.6c-4.7 5.9-6.1 14.5-3.7 23.4 4.2 16.1 16.8 14.3 18.7 13.9 4.9-.7 8.1 2.8 9.5 6.2.6 1.6.7 10.3-1.2 15.9-1.5 4.6-.6 8.1.4 11.4.4 1.6.9 3.2 1.2 5.1.3 2.4 2 6.6 9.3 7.7.9.1 1.8-.2 2.4-.9 15.5-19.7 24.5-43.2 25.9-68 .1-1.1-.8-2.2-1.8-2.6l-1.5-.6c-1.1-.6-1.1-.6-1.2-2-.1-1.9-.2-4.8-3.8-8.2-6.3-6-13.4-3.3-14.6-2.8-.2 0-4.8 1.5-10.1-.8l-3.6-1.9c-2.6-1.6-4-2.3-12.1-2.5-5.5 0-10.4 2.3-13.8 6.7z" fill="#4A606B"/><radialGradient id="L" cx="1326.554" cy="227.145" r="417.848" gradientUnits="userSpaceOnUse"><stop offset=".092" stop-color="#A0AF7B"/><stop offset=".598" stop-color="#538763"/></radialGradient><path d="M1300.7 424.6c-2.5-1.2-18.6-1.1-23.5 1.1-4.9 2.2-19.6 2.7-27 3.2-7.4.5-10.5 2.5-14.4 6.4-3.9 4-6 5.7-17.5 5.7-11.6 0-18.3-5.6-21.5-6.3-2.3-.5-5.1.5-7.3 2.4 16.7 8 35.5 12.6 55.5 12.6 25.1 0 48.4-7.2 68-19.5-2.9-3.3-10.2-4.6-12.3-5.6z" fill="url(#L)"/><radialGradient id="M" cx="1326.552" cy="227.151" r="417.83" gradientUnits="userSpaceOnUse"><stop offset=".092" stop-color="#B5D88E"/><stop offset=".607" stop-color="#308F39"/></radialGradient><path d="M1173.5 233.3c1.9 1.3-1.2 3.5-4.4 5.3-3.2 1.9.2 4 1.7 5.6 1.3 1.4 5.6-.5 6.4-2.9.8-2.4 5-2.7 5-2.7 16.5 1.3 15.9-7.2 16.5-12.8.5-5.6-3.2-5.9-6.4-5.9-2.9 0-6.6 2.4-9.7 3-4.6 2.6-9 5.4-13.2 8.5 1.8.8 3.4 1.5 4.1 1.9z" fill="url(#M)"/><radialGradient id="N" cx="1326.552" cy="227.152" r="417.83" gradientUnits="userSpaceOnUse"><stop offset=".092" stop-color="#B5D88E"/><stop offset=".598" stop-color="#538763"/></radialGradient><path d="M1157.5 324.3c-2.2-1.1-2.2-3.7-2.8-6.7-.6-3.1-3.1-4.8-8.4-8.1-5.3-3.4-16.5-2.5-20.4-1.7-.4.1-.9.3-1.3.6-.7-1-2.1-3.2-2.1-5l-.9 4.8c.4.7.8 1.4 1.1 2.1-.7 1-1.4 2.3-2 3.8-.6 4.7-.9 9.5-.9 14.3 0 3.6.2 7.1.5 10.6 2.2 4.6 5.8 6.3 7.9 8.7 3.1 3.7 4.2 12.1 4.5 19.9.3 7.9 3.4 14.3 4.2 16 .8 1.7 9.8 13.5 10.1 2.8.3-10.7 1.7-18.5 1.7-18.5s1.1-3.9 7.5-10.7c14.6-15.3 14-20.5 14.5-25.8.5-5.4-10.9-6-13.2-7.1zM1124 297c-.4 1.5-.8 3-1.1 4.6l.3-.3c1.2-1.3 1.4-2.9.8-4.3zm11.4-10.4c2-1.1-2.8-5.1-3.4-6.5-.6-1.4 3.1-2 6.1-2 2 0 2.5-2.8 4.5-5.9 4.7-7.4 14.5-10.7 17.9-15.2 3.4-4.5-1.4-6.7-2.8-9.6-1-2-1.9-2.6-3.9-2.6-10.8 11.1-19.5 24.2-25.4 38.7 3 1.7 5.3 4.1 7 3.1z" fill="url(#N)"/><radialGradient id="O" cx="1326.553" cy="227.152" r="417.832" gradientUnits="userSpaceOnUse"><stop offset=".092" stop-color="#A0AF7B"/><stop offset=".598" stop-color="#538763"/></radialGradient><path d="M1336.9 259.4c5.4 1 10.3 3.4 15.9 8.4.5.4 1 .9 1.4 1.3-13.2-22.9-33.8-41.2-58.7-51.8-2.1 1.5-3.1 3.9-3 7.1.2 7.2 13.6 8.5 16.5 9.2 3 .6 3.3 2.5 3.3 6.5s-2.5 2.8-5.2 1.9c-2.7-.9-5.1-1.4-5.6 4.1-.4 4.3 3.5 5.1 7.7 4.9 4.2-.3 1.6.2 4.7 3.7 3.1 3.6-.2 5.4 2.2 14 2.4 8.7 18.7 6.4 20.7 3.8 2-2.5.3-4.3-1.1-5.6-1.4-1.3-4.1-1.9-3.8-5.7.4-3.7 5-1.8 5-1.8z" fill="url(#O)"/><radialGradient id="P" cx="1326.548" cy="227.152" r="417.834" gradientUnits="userSpaceOnUse"><stop offset=".092" stop-color="#A0AF7B"/><stop offset=".598" stop-color="#538763"/></radialGradient><path d="M1368 334.5c-5-2.5 0-5.3-5.6-10.6s-12-2.2-12-2.2-5.6 2-12-.8-3.6-3.9-14.7-4.2c-11.1-.3-18.9 11.7-15 26.8 3.9 15.1 15.9 12 15.9 12 5.8-.8 10.3 2.8 12.2 7.8.9 2.3.8 11.7-1.1 17.6-1.9 5.9.8 9.2 1.7 15.4.4 3.3 3.3 4.9 7.1 5.5 14.7-18.7 23.9-41.6 25.4-66.6-.6-.2-1.3-.4-1.9-.7z" fill="url(#P)"/><path d="M1245 449.6c25.1 0 48.4-7.2 68-19.5-2.8-3.2-10.2-4.5-12.3-5.6-.3-.1-.8-.3-1.3-.4-17.4 7.5-37.4 9-56.7 6.2-2.6 1.1-4.6 2.6-6.7 4.9-3.9 4-6 5.7-17.5 5.7-11.6 0-18.3-5.6-21.5-6.3-2.3-.5-5.1.5-7.3 2.4 16.5 8.1 35.4 12.6 55.3 12.6zM1147.6 375.6c-.7-.6-1.3-1.2-2-1.8-5.2-5.2-7.4-13.1-10.1-19.8-4.2-10.5-8.9-20.5-15.7-29.3 0 1.2-.1 2.4-.1 3.6 0 3.6.2 7.1.5 10.6 2.2 4.6 5.8 6.3 7.9 8.7 3.1 3.7 4.2 12.1 4.5 19.9.3 7.9 3.4 14.3 4.2 16 .8 1.7 9.8 13.5 10.1 2.8.1-4 .4-7.7.7-10.7zM1344.6 401.8c13.1-16.6 21.8-36.6 24.6-58.5-1.1 3-2.1 6.1-3.1 9.2-2.3 7.1-7.8 11.8-12.7 17.1-6.3 6.8-11.5 14.6-16.9 22.2.4 1.3.7 2.8 1 4.4.4 3.3 3.3 5 7.1 5.6z" fill="#648248"/><g><path d="M1194.7 311c.6-16.3 8.9-27.9 22.6-36 6.3-3.8 13.4-5.3 20.6-5.3 11.2.1 21.3 3.6 29.7 11.5 7.4 7 12.4 15.2 13.7 25.4 1 7.9-.6 15.3-4.3 22.3-5.2 9.9-13 17.1-23.4 20.9-11.9 4.4-23.7 4-35.2-1.8-11-5.5-18-14.4-22.1-25.7-1.3-3.5-1.8-7.4-1.6-11.3zm21.4 9.3c2.7.3 5.3-.8 7.9-.7 1.1.1 1.6-.6 1.9-1.5 2-4.6 5.6-7.3 10.6-7.4 5.2-.1 8.8 2.6 11 7.4.3.7.5 1.5 1.5 1.6 2.7.3 5.3 1.1 8.1 1.1.1.1.2.3.4.4 2.7.6 5.3 1.2 7.9 2.3 1.7.8 2.7.4 3.5-1.4 2.4-5.7 3.7-11.5 2.5-17.8-2.6-13.3-14.5-27.1-31.3-28.8-15.1-1.5-26.9 4.7-35.1 17.4-5.9 9.2-6.5 19-2 29.1.5 1.2 1.1 2 2.6 1.4 3.3-1.3 6.8-2 10.2-2.8.1 0 .2-.2.3-.3zm18.4 3.7c-3.7-.6-8.4.7-13.3 1.2-4 .4-8 1.4-11.9 2.6-2 .6-2.2 1.5-.7 2.9 1.8 1.7 3.5 3.5 5.5 5 7.2 5.6 15.6 8.1 24.5 7.3 9.4-.8 17.5-4.7 23.9-11.8 2.1-2.3 2.1-2.6-1-3.5-8.3-2.5-17-3.7-27-3.7z" opacity=".35" fill="#492F91"/><path d="M1289.8 374.8v.8c0 1 .2 2.4-1.2 2.6-1.7.3-1.7-1.4-1.9-2.4-.4-1.7-.8-3.3-1.8-4.9-2.7-4.2-9.5-2.8-11.5.5-1.3 2.2-2.5 4.4-4 6.5-2.3 3.3-4.7 6.4-9.4 6.2-2.9-.1-4.8-1.8-6.5-3.7-1.5-1.7-3.1-3.1-4.5-4.9-3.3-4.3-9.9-3.1-12.2 2.4-1.6 4-4.1 7-8.4 8.6-5.3 1.9-11.6-1-14.3-5-1-1.5-2-2.9-3.3-4.2-3.5-3.4-8.2-3.4-11.7-.1-2.4 2.3-4.6 4.8-5.4 8.3-.3 1.1-1.1 2.4-2.4 2-1.4-.4-2.1-1.6-1.8-3.1 1-5.2 2.3-10.2 5.6-14.5 5.5-7.2 16.3-7.2 21.7 0 .9 1.2 1.9 2.4 2.8 3.6 3.2 4.3 7.7 4.1 10.4-.6.6-1 1.1-2 1.6-3 3.9-8.6 16.4-10.2 23.2-1.6 1.4 1.7 2.8 3.5 4.2 5.1 1.1 1.2 2.1 1.2 3.3-.1 2.4-2.5 3.9-5.7 6.1-8.4 3.4-4.3 5.7-5.2 10.8-3.7 6.2 1.8 10.5 7.3 10.6 13.6z" fill="#492F91"/><path d="M1215.7 320.7c-3.4.8-6.9 1.5-10.2 2.8-1.5.6-2.1-.2-2.6-1.4-4.5-10.1-3.9-19.9 2-29.1 8.1-12.7 19.9-18.9 35.1-17.4 16.8 1.7 28.7 15.4 31.3 28.8 1.2 6.3-.1 12.1-2.5 17.8-.7 1.8-1.7 2.1-3.5 1.4-2.5-1.1-5.2-1.7-7.8-2.3-.1-.1-.2-.3-.4-.4 0-13.1-14.5-22.9-27.3-18.1-1.4.5-1 1.3-.7 2.3.8 2.7.3 5.1-1.9 7-2.1 1.8-4.3 2.7-7 1.4-1.4-.6-2.3-.5-2.7 1.2-.4 1.9-.9 3.8-1.4 5.7-.1 0-.2.2-.4.3z" opacity=".35" fill="#FFF"/><path d="M1234.5 324c10.1 0 18.7 1.3 27.1 3.7 3.1.9 3 1.2 1 3.5-6.4 7.2-14.5 11.1-23.9 11.8-9 .7-17.3-1.7-24.5-7.3-2-1.5-3.7-3.3-5.5-5-1.5-1.4-1.3-2.3.7-2.9 3.9-1.2 7.9-2.2 11.9-2.6 4.8-.5 9.5-1.9 13.2-1.2zM1216.2 320.3c.5-1.9 1-3.8 1.4-5.7.4-1.7 1.4-1.9 2.7-1.2 2.7 1.3 5 .4 7-1.4 2.1-1.9 2.7-4.3 1.9-7-.3-1-.7-1.7.7-2.3 12.8-4.8 27.3 5 27.3 18.1-2.7 0-5.4-.8-8.1-1.1-1-.1-1.2-.9-1.5-1.6-2.1-4.7-5.8-7.5-11-7.4-5 .1-8.6 2.8-10.6 7.4-.4.9-.9 1.6-1.9 1.5-2.7-.1-5.3 1-7.9.7z" opacity=".35" fill="#5C57A5"/><path d="M1215.7 320.7l.4-.4c-.1.1-.2.3-.4.4zM1257.2 320.7c.1.1.2.3.4.4-.2-.1-.3-.2-.4-.4z" fill="#DF2026"/></g><path d="M1224.2 319.6c1.1.1 1.6-.6 1.9-1.5 2-4.6 5.6-7.3 10.6-7.4 5.2-.1 8.8 2.6 11 7.4.3.7.5 1.5 1.5 1.6" opacity=".35" fill="#11213C"/><path d="M1198.4 337.2c-2.5-9.7.4-18.1 6-25.6 10.1-13.3 23.6-18.8 40.3-16.8 17.3 2.1 28.9 11.3 35.1 27.3 2.4 6.2 2.7 12.6.1 19.7-6.3-19.5-19-31.2-39.2-32.4-20.3-1.2-33.9 9.7-42.3 27.8z" opacity=".85" fill="#492F91"/></g><g><path d="M1871.4 297.9c-4.3-16.1-11.9-31.4-22.3-44.8-24.8-31.9-64-50-104.2-50.2-41.3-.2-81 19.7-105.6 52.8-15.8 21.1-24.2 47.1-24.3 73.4.2 40.7 20.6 78.5 53.5 102.2 33.6 24.2 77.8 30.7 117.2 18.5 39-12 70.8-42.8 83.8-81.4 7.8-23 8.1-47.6 1.9-70.5z" fill="#4A606B"/><radialGradient id="Q" cx="1780.386" cy="260.428" r="216.554" gradientUnits="userSpaceOnUse"><stop offset=".123" stop-color="#EBF7FD"/><stop offset=".716" stop-color="#89A1D3"/></radialGradient><path d="M1870.2 328.3c0 67-56 121.4-125.2 121.4-69.1 0-125.2-54.3-125.2-121.4 0-67 56-121.4 125.2-121.4 69.1 0 125.2 54.3 125.2 121.4z" fill="url(#Q)"/><radialGradient id="R" cx="1780.386" cy="275.501" r="202.583" gradientUnits="userSpaceOnUse"><stop offset=".11" stop-color="#DBEAF7"/><stop offset=".681" stop-color="#9194C9"/></radialGradient><path d="M1619.8 328.3c0 67 56 121.4 125.2 121.4 69.1 0 125.2-54.3 125.2-121.4 0-29-10.5-55.6-28-76.5 2.6 7.6 5.2 15.1 6.9 23 2.6 12.2-1.4 22.6-8.8 32.1-5.6 7.1-9.5 15.8-15.9 22.2-1.1 1.1-2.3 2-3.7 2.7-2.3-1.8-3.1 8.5-27.1 32.9-13.4 13.4-35 5.4-38.7 3.7-14.2-6.4-25.4-12.4-40.1-20.3-13-6.9-13.6-19.8-26.8-26.4-9.9-4.9-23.1-10.2-22.5-22.8.2-5.3-2.6-8.7-6.4-10.1-.1-1.3-.1-2.6-.1-4 .2-12.4 4.7-25.1 10.1-36.1 1.6-3.2 1.5-6.3.6-9 2.8-4.4 5.3-8.9 7.6-13.6-34.6 21.7-57.5 59.3-57.5 102.2z" fill="url(#R)"/><path d="M1745 449.6c63.9 0 116.5-46.4 124.2-106.3-1.1 3-2.1 6.1-3.1 9.2-2.3 7.1-7.8 11.8-12.7 17.1-9.4 10.2-16.4 22.7-25.3 33.4-21.5 25.7-55.7 32.3-87.7 27.1-17.5-2.9-33.9-9.6-50.2-16.1-6.9-2.8-13.3-5.6-18.4-11.1-4.7-5.1-8.1-11.5-12.7-16.7-4-4.5-9.1-8.1-13.3-12.4-5.2-5.2-7.4-13.1-10.1-19.8-4.2-10.5-8.9-20.5-15.7-29.3 0 1.2-.1 2.4-.1 3.6-.1 67 55.9 121.3 125.1 121.3z" fill="#9779B6"/><radialGradient id="S" cx="1846.883" cy="218.007" r="262.489" gradientTransform="matrix(1 0 0 1.0974 0 -45.9)" gradientUnits="userSpaceOnUse"><stop offset=".104" stop-color="#FFF"/><stop offset=".693" stop-color="#CED4EB"/></radialGradient><path d="M1804.1 252.2c-21-16.4-61.4-22.4-84-7.8-7.8 5-8.4 14.1-5.2 20.9l-.6 1.5c-4.9 15.2 6.5 30.9 18.3 36.7 13 6.4 27.4 7.6 41.4 9.6 14.2 2 34.3-6.5 42.1-20.1 9.4-16.4.5-31-12-40.8z" fill="url(#S)"/><radialGradient id="T" cx="1763.132" cy="250.306" r="161.74" gradientUnits="userSpaceOnUse"><stop offset=".27" stop-color="#A9D1EF"/><stop offset=".438" stop-color="#A6CCEC"/><stop offset=".637" stop-color="#9EBEE3"/><stop offset=".851" stop-color="#91A6D5"/><stop offset="1" stop-color="#8591C8"/></radialGradient><path d="M1661.9 319.3s-.5-.1-.9-.2l-.2-1-.3-1.5c-1.1-5.8-5.5-8.6-11.1-12.2-5.5-3.5-14-3.6-19.8-3.2.3-.9.5-1.8.5-2.7 0-1.3-.3-2.6-.8-3.8-.7-1.7-2.1-2.9-3.8-3.4-3.8 11.7-5.9 24.1-5.9 37 0 7.3.7 14.5 2 21.5 0 0 .1 0 .1.1-.1-.1 1.4 1.3 1.8 1.7.5.7 2.6 4.1 3 16.2v.4c3.5 9.8 8.3 19.1 14.2 27.6 1.7.8 3.5 1.2 5.4.8 2.3-.5 6.3-2.5 6.5-10 .2-8.7 1.2-15.4 1.5-17.1.2-.6 1.5-3.4 6.1-8.2 14.9-15.7 15.5-22.3 16-28.2l.1-1.2.1-1c.2-8.5-9.7-10.6-14.5-11.6zm-34.5-13.9c.4-.4.5-.8.8-1.2-.2.4-.4.8-.8 1.2z" fill="url(#T)"/><radialGradient id="U" cx="1763.132" cy="250.306" r="161.74" gradientUnits="userSpaceOnUse"><stop offset=".27" stop-color="#A9D1EF"/><stop offset=".438" stop-color="#A6CCEC"/><stop offset=".637" stop-color="#9EBEE3"/><stop offset=".851" stop-color="#91A6D5"/><stop offset="1" stop-color="#8591C8"/></radialGradient><path d="M1638.4 291.8c1.8-1 3-2.8 3.3-4.8l.1-1.2c0-.8-.2-1.6-.4-2.4 2.8-1.2 4.2-4 5.1-5.8 0 .1 1-1.8 1.2-2.2 2-3.2 5.9-5.7 9.3-7.9 3.2-2.1 6.3-4.1 8.3-6.8 1.6-2.1 2.4-4.3 2.4-6.5 0-3.9-2.4-6.7-3.8-8.2l-.9-1c-1.1-2.2-2.5-3.7-4.2-4.6-14.6 13.4-25.9 30.2-32.4 49.1.6.4 1.4.9 1.4.9 2.1 1.2 6.2 3.9 10.6 1.4z" fill="url(#U)"/><radialGradient id="V" cx="1763.132" cy="250.305" r="161.741" gradientUnits="userSpaceOnUse"><stop offset=".27" stop-color="#A9D1EF"/><stop offset=".438" stop-color="#A6CCEC"/><stop offset=".637" stop-color="#9EBEE3"/><stop offset=".851" stop-color="#91A6D5"/><stop offset="1" stop-color="#8591C8"/></radialGradient><path d="M1799.2 237.4c-3 2.6-3.5 6.6-3.6 8.1v1c0 2.7.9 5.1 2.7 7 2.3 2.3 5.6 3.4 10.2 3.4.4.5.6 1.1 1.1 1.6 0 .3-.1 1-.1 1l-.1 2.9c0 2.5.4 5.1 1.1 7.9 1.4 5.1 5.7 8.8 11.9 10 5.8 1.2 15.7.4 19.2-4.1 1.4-1.8 2.2-3.8 2.2-5.9 0-.7-.1-1.4-.3-2.1 1.8 1.1 3.6 2.3 5.4 4l1.3 1.2c1.9 1.7 4.7 2 6.9.9-13.9-27.2-38.1-48.5-67.5-59.4-1.9 2.4-3 5.6-3 9.2v.4c.2 7.5 6.7 11.1 12.6 12.9z" fill="url(#V)"/><radialGradient id="W" cx="1763.132" cy="250.306" r="161.741" gradientUnits="userSpaceOnUse"><stop offset=".27" stop-color="#A9D1EF"/><stop offset=".438" stop-color="#A6CCEC"/><stop offset=".637" stop-color="#9EBEE3"/><stop offset=".851" stop-color="#91A6D5"/><stop offset="1" stop-color="#8591C8"/></radialGradient><path d="M1870.1 324.2c-.7-1.5-1.8-3-3.5-4.7-7.5-7.2-15.9-4.4-18-3.6-.2.1-3.7 1.1-7.7-.7.1 0 .1.1.2.2-.8-.5-1.9-1.1-3.4-1.9-3.1-2-5.2-2.7-13.7-2.9-6.5-.2-12.4 2.6-16.5 7.9-3.7 4.6-5.6 10.6-5.6 17.2 0 3 .4 6.1 1.2 9.3 5 19.3 20.9 16.7 22.6 16.4 3.5-.5 5.1 2.7 5.7 4.1.3 1.3.4 8.9-1.2 13.6-1.9 5.6-.6 10 .3 13.4.4 1.5.8 3 1.1 4.6.3 2.4 1.8 7.5 8.8 9.8 18.6-21.2 29.8-48.6 29.8-78.6 0-1.4-.1-2.7-.1-4.1z" fill="url(#W)"/><radialGradient id="X" cx="1763.133" cy="250.305" r="161.742" gradientUnits="userSpaceOnUse"><stop offset=".27" stop-color="#A9D1EF"/><stop offset=".438" stop-color="#A6CCEC"/><stop offset=".637" stop-color="#9EBEE3"/><stop offset=".851" stop-color="#91A6D5"/><stop offset="1" stop-color="#8591C8"/></radialGradient><path d="M1699.1 240.7c4.7-4 5.2-9.7 5.4-13.2l.1-1.1c.3-3.7-.5-6.7-2.5-8.9-.9-1-1.9-1.7-2.9-2.1-13.3 5.1-25.5 12.3-36.2 21.3-.7 1.2-1 2.3-1.1 3v.8c0 3.6 2.5 5.9 4 7.3-.1 0 .7.7.7.7 1.8 1.9 4.6 2.7 7.6 2 2.8-.6 6.1-2.7 7.8-5.8.1 0 .3-.1.5-.1 7.4.5 12.9-.8 16.6-3.9zm-16.6 3.2l-.1.1c.1-.3.3-.5.4-.8-.2.5.1.3-.3.7z" fill="url(#X)"/><radialGradient id="Y" cx="1763.133" cy="250.3" r="161.745" gradientUnits="userSpaceOnUse"><stop offset=".27" stop-color="#A9D1EF"/><stop offset=".438" stop-color="#A6CCEC"/><stop offset=".637" stop-color="#9EBEE3"/><stop offset=".851" stop-color="#91A6D5"/><stop offset="1" stop-color="#8591C8"/></radialGradient><path d="M1805.4 419.9c.1 0-2.4-.8-2.4-.8.1 0 .3.1.4.2-4.6-2.3-22.7-1.7-28.6 1-3.1 1.4-15.2 2.1-21 2.5l-3.9.2c-9.2.6-13.5 3.4-18.2 8.2-3 3.1-3.8 3.9-13.3 3.9-7 0-11.8-2.4-15.4-4.2-1.7-.9-3.2-1.6-4.7-2-4.1-1-8.9.5-12.6 3.7-.6.5-1 1.1-1.3 1.8 18 9.7 38.7 15.2 60.7 15.2 27.2 0 52.3-8.4 72.9-22.7-.1-.2-.3-.5-.5-.7-3.2-3.5-8.4-5.1-12.1-6.3z" fill="url(#Y)"/><path d="M1776.1 423.4c-3.7 1.7-15.3 2.4-22.2 2.8l-3.9.2c-8.1.5-11.8 2.8-16 7.2-3.4 3.5-4.8 4.9-15.7 4.9-7.8 0-13.3-2.7-16.9-4.6-1.6-.8-2.9-1.4-4-1.7-3-.7-6.7.4-9.6 3-.6.6-1 1.4-.8 2.3.1.8.6 1.6 1.4 2 17.7 8.5 36.7 12.8 56.6 12.8 24.7 0 48.6-6.9 69.3-19.9.6-.4 1.1-1.1 1.2-1.8.1-.7-.1-1.5-.6-2-2.5-2.8-7.1-4.3-10.5-5.3l-2.5-.9c-3.5-1.8-20.5-1.4-25.8 1zM1685.7 219.3c-1.3.5-2.6 1.1-3.6 1.3-.2.1-.5.1-.7.3-4.7 2.6-9.3 5.6-13.5 8.7-.7.5-1 1.2-1 2v.3c.1.9.7 1.7 1.6 2 .9.3 1.5.6 2 .8-.6.4-1.4 1-2.7 1.8-1.9 1.1-2.4 2.5-2.5 3.5v.4c0 2.1 1.7 3.7 2.9 4.8l.8.8c.6.7 2 1.7 4.5 1.1 2.4-.5 5.2-2.4 6.1-5 .2-.3 1.5-.8 2.7-.9 6.7.5 11.5-.5 14.6-3.1 3.6-3.1 4-7.6 4.2-10.8l.1-1.1c.3-2.7-.3-4.9-1.7-6.3-2.1-2.3-5.3-2.3-7.2-2.3-2.2-.2-4.4.8-6.6 1.7zM1652.1 243.2c-11.2 11.5-19.9 24.8-25.9 39.5-.5 1.2.1 2.6 1.2 3.2l2.2 1.4c2 1.3 4.5 3 7.1 1.5.9-.5 1.5-1.4 1.7-2.4v-.6c0-1.8-1.3-3.4-2.6-4.9.7-.1 1.5-.1 2.4-.1 2.9 0 4.2-2.4 5.2-4.6l1.4-2.5c2.4-3.8 6.6-6.6 10.3-9 3-1.9 5.8-3.8 7.5-6 1.2-1.6 1.7-3.2 1.7-4.5 0-2.7-1.8-4.7-2.9-6-.6-.6-1.1-1.2-1.3-1.7-1.4-2.8-3.2-4-6.1-4-.7 0-1.4.2-1.9.7zm-28.3 51.2c-1.1.1-2 .8-2.3 1.9l-1.2 4.7c0 .2-.1.4-.1.5 0 .1.1.2.1.4-.2.3-.4.5-.5.8l-.9 4.9v.4c0 .5.2 1 .4 1.4 0 0 .2.4.4.6-.5.9-1 1.9-1.4 3-.1.2-.1.4-.1.6-.6 5.1-.9 9.9-.9 14.6 0 3.4.2 6.9.5 10.8 0 .3.1.6.2.9 1.7 3.6 4.1 5.6 6.1 7.2l2.2 2c1.3 1.5 3.4 5.9 3.9 18.4.3 7.6 2.9 13.9 4.5 17.1 0 .1 5.9 9.7 11.1 8.5 2.4-.5 3.7-2.8 3.8-6.8.3-9.7 1.4-17 1.6-18 .2-.5 1.6-3.9 6.9-9.6 14.1-14.8 14.6-20.8 15.1-26.2l.1-1.2v-.7c0-5.7-7.5-7.3-12-8.2-.9-.2-2.2-.5-2.6-.6-.6-.3-.8-1.1-1.2-3.4l-.2-1.5c-.8-4.3-4.3-6.5-9.5-9.8-5.9-3.7-17.3-3-22-2.1-.4-.8-.7-1.5-.7-2v-.1c1.2-1.3 1.9-2.8 1.9-4.5 0-.8-.2-1.7-.5-2.5-.6-.9-1.6-1.6-2.7-1.5zM1794.1 215.2c-1.9 1.3-4.1 3.9-4.1 8.8v.4c.2 8.5 12.1 10.5 17.2 11.4l1.3.2c1 .2 1.3.3 1.3 3.6v.5c-.4-.1-.8-.2-1.1-.4l-.7-.3c-1.5-.5-4-1.3-6.1.1-2.2 1.4-2.6 4.2-2.8 6.2-.2 2.7.8 4.4 1.7 5.3 1.8 1.8 4.6 2.5 8.7 2.3h.7c.3.7.9 1.7 1.9 2.9.6.7.8 1.2.8 2 0 .4 0 .8-.1 1.4-.1.8-.1 1.6-.1 2.6 0 1.8.2 4 1 7 1.1 3.9 4.4 6.6 9.3 7.6 5.3 1.1 13.6 0 15.9-2.8.8-1 1.4-2.3 1.4-3.8 0-1.6-.7-3.4-2.9-5.3l-1.4-1c-1.1-.7-1.6-1-1.6-2.1v-.4c.4 0 1 .1 1.5.3.1.1.3.1.5.1 5.2 1 9.8 3.4 14.7 7.8l1.3 1.2c.9.9 2.3.9 3.3.1s1.3-2.2.6-3.2c-13.5-23.3-34.7-42.1-59.9-52.9-.6-.2-1.6-.2-2.3.4zM1810.1 320.6c-4.7 5.9-6.1 14.5-3.7 23.4 4.2 16.1 16.8 14.3 18.7 13.9 4.9-.7 8.1 2.8 9.5 6.2.6 1.6.7 10.3-1.2 15.9-1.5 4.6-.6 8.1.4 11.4.4 1.6.9 3.2 1.2 5.1.3 2.4 2 6.6 9.3 7.7.9.1 1.8-.2 2.4-.9 15.5-19.7 24.5-43.2 25.9-68 .1-1.1-.8-2.2-1.8-2.6l-1.5-.6c-1.1-.6-1.1-.6-1.2-2-.1-1.9-.2-4.8-3.8-8.2-6.3-6-13.4-3.3-14.6-2.8-.2 0-4.8 1.5-10.1-.8l-3.6-1.9c-2.6-1.6-4-2.3-12.1-2.5-5.5 0-10.4 2.3-13.8 6.7z" fill="#4A606B"/><radialGradient id="Z" cx="1826.553" cy="227.145" r="417.848" gradientUnits="userSpaceOnUse"><stop offset=".092" stop-color="#A0AF7B"/><stop offset=".598" stop-color="#538763"/></radialGradient><path d="M1800.7 424.6c-2.5-1.2-18.6-1.1-23.5 1.1-4.9 2.2-19.6 2.7-27 3.2-7.4.5-10.5 2.5-14.4 6.4-3.9 4-6 5.7-17.5 5.7-11.6 0-18.3-5.6-21.5-6.3-2.3-.5-5.1.5-7.3 2.4 16.7 8 35.5 12.6 55.5 12.6 25.1 0 48.4-7.2 68-19.5-2.9-3.3-10.2-4.6-12.3-5.6z" fill="url(#Z)"/><radialGradient id="aa" cx="1826.552" cy="227.151" r="417.83" gradientUnits="userSpaceOnUse"><stop offset=".092" stop-color="#B5D88E"/><stop offset=".607" stop-color="#308F39"/></radialGradient><path d="M1673.5 233.3c1.9 1.3-1.2 3.5-4.4 5.3-3.2 1.9.2 4 1.7 5.6 1.3 1.4 5.6-.5 6.4-2.9.8-2.4 5-2.7 5-2.7 16.5 1.3 15.9-7.2 16.5-12.8.5-5.6-3.2-5.9-6.4-5.9-2.9 0-6.6 2.4-9.7 3-4.6 2.6-9 5.4-13.2 8.5 1.8.8 3.4 1.5 4.1 1.9z" fill="url(#aa)"/><radialGradient id="ab" cx="1826.552" cy="227.152" r="417.83" gradientUnits="userSpaceOnUse"><stop offset=".092" stop-color="#B5D88E"/><stop offset=".598" stop-color="#538763"/></radialGradient><path d="M1657.5 324.3c-2.2-1.1-2.2-3.7-2.8-6.7-.6-3.1-3.1-4.8-8.4-8.1-5.3-3.4-16.5-2.5-20.4-1.7-.4.1-.9.3-1.3.6-.7-1-2.1-3.2-2.1-5l-.9 4.8c.4.7.8 1.4 1.1 2.1-.7 1-1.4 2.3-2 3.8-.6 4.7-.9 9.5-.9 14.3 0 3.6.2 7.1.5 10.6 2.2 4.6 5.8 6.3 7.9 8.7 3.1 3.7 4.2 12.1 4.5 19.9.3 7.9 3.4 14.3 4.2 16 .8 1.7 9.8 13.5 10.1 2.8.3-10.7 1.7-18.5 1.7-18.5s1.1-3.9 7.5-10.7c14.6-15.3 14-20.5 14.5-25.8.5-5.4-10.9-6-13.2-7.1zM1624 297c-.4 1.5-.8 3-1.1 4.6l.3-.3c1.2-1.3 1.4-2.9.8-4.3zm11.4-10.4c2-1.1-2.8-5.1-3.4-6.5-.6-1.4 3.1-2 6.1-2 2 0 2.5-2.8 4.5-5.9 4.7-7.4 14.5-10.7 17.9-15.2 3.4-4.5-1.4-6.7-2.8-9.6-1-2-1.9-2.6-3.9-2.6-10.8 11.1-19.5 24.2-25.4 38.7 3 1.7 5.3 4.1 7 3.1z" fill="url(#ab)"/><radialGradient id="ac" cx="1826.553" cy="227.152" r="417.832" gradientUnits="userSpaceOnUse"><stop offset=".092" stop-color="#A0AF7B"/><stop offset=".598" stop-color="#538763"/></radialGradient><path d="M1836.9 259.4c5.4 1 10.3 3.4 15.9 8.4.5.4 1 .9 1.4 1.3-13.2-22.9-33.8-41.2-58.7-51.8-2.1 1.5-3.1 3.9-3 7.1.2 7.2 13.6 8.5 16.5 9.2 3 .6 3.3 2.5 3.3 6.5s-2.5 2.8-5.2 1.9c-2.7-.9-5.1-1.4-5.6 4.1-.4 4.3 3.5 5.1 7.7 4.9 4.2-.3 1.6.2 4.7 3.7 3.1 3.6-.2 5.4 2.2 14s18.7 6.4 20.7 3.8c2-2.5.3-4.3-1.1-5.6-1.4-1.3-4.1-1.9-3.8-5.7.4-3.7 5-1.8 5-1.8z" fill="url(#ac)"/><radialGradient id="ad" cx="1826.548" cy="227.152" r="417.834" gradientUnits="userSpaceOnUse"><stop offset=".092" stop-color="#A0AF7B"/><stop offset=".598" stop-color="#538763"/></radialGradient><path d="M1868 334.5c-5-2.5 0-5.3-5.6-10.6s-12-2.2-12-2.2-5.6 2-12-.8-3.6-3.9-14.7-4.2c-11.1-.3-18.9 11.7-15 26.8 3.9 15.1 15.9 12 15.9 12 5.8-.8 10.3 2.8 12.2 7.8.9 2.3.8 11.7-1.1 17.6-1.9 5.9.8 9.2 1.7 15.4.4 3.3 3.3 4.9 7.1 5.5 14.7-18.7 23.9-41.6 25.4-66.6-.6-.2-1.3-.4-1.9-.7z" fill="url(#ad)"/><path d="M1745 449.6c25.1 0 48.4-7.2 68-19.5-2.8-3.2-10.2-4.5-12.3-5.6-.3-.1-.8-.3-1.3-.4-17.4 7.5-37.4 9-56.7 6.2-2.6 1.1-4.6 2.6-6.7 4.9-3.9 4-6 5.7-17.5 5.7-11.6 0-18.3-5.6-21.5-6.3-2.3-.5-5.1.5-7.3 2.4 16.5 8.1 35.4 12.6 55.3 12.6zM1647.6 375.6c-.7-.6-1.3-1.2-2-1.8-5.2-5.2-7.4-13.1-10.1-19.8-4.2-10.5-8.9-20.5-15.7-29.3 0 1.2-.1 2.4-.1 3.6 0 3.6.2 7.1.5 10.6 2.2 4.6 5.8 6.3 7.9 8.7 3.1 3.7 4.2 12.1 4.5 19.9.3 7.9 3.4 14.3 4.2 16 .8 1.7 9.8 13.5 10.1 2.8.1-4 .4-7.7.7-10.7zM1844.6 401.8c13.1-16.6 21.8-36.6 24.6-58.5-1.1 3-2.1 6.1-3.1 9.2-2.3 7.1-7.8 11.8-12.7 17.1-6.3 6.8-11.5 14.6-16.9 22.2.4 1.3.7 2.8 1 4.4.4 3.3 3.3 5 7.1 5.6z" fill="#648248"/><g><path d="M1694.7 311c.6-16.3 8.9-27.9 22.6-36 6.3-3.8 13.4-5.3 20.6-5.3 11.2.1 21.3 3.6 29.7 11.5 7.4 7 12.4 15.2 13.7 25.4 1 7.9-.6 15.3-4.3 22.3-5.2 9.9-13 17.1-23.4 20.9-11.9 4.4-23.7 4-35.2-1.8-11-5.5-18-14.4-22.1-25.7-1.3-3.5-1.8-7.4-1.6-11.3zm21.4 9.3c2.7.3 5.3-.8 7.9-.7 1.1.1 1.6-.6 1.9-1.5 2-4.6 5.6-7.3 10.6-7.4 5.2-.1 8.8 2.6 11 7.4.3.7.5 1.5 1.5 1.6 2.7.3 5.3 1.1 8.1 1.1.1.1.2.3.4.4 2.7.6 5.3 1.2 7.9 2.3 1.7.8 2.7.4 3.5-1.4 2.4-5.7 3.7-11.5 2.5-17.8-2.6-13.3-14.5-27.1-31.3-28.8-15.1-1.5-26.9 4.7-35.1 17.4-5.9 9.2-6.5 19-2 29.1.5 1.2 1.1 2 2.6 1.4 3.3-1.3 6.8-2 10.2-2.8.1 0 .2-.2.3-.3zm18.4 3.7c-3.7-.6-8.4.7-13.3 1.2-4 .4-8 1.4-11.9 2.6-2 .6-2.2 1.5-.7 2.9 1.8 1.7 3.5 3.5 5.5 5 7.2 5.6 15.6 8.1 24.5 7.3 9.4-.8 17.5-4.7 23.9-11.8 2.1-2.3 2.1-2.6-1-3.5-8.3-2.5-17-3.7-27-3.7z" opacity=".7" fill="#492F91"/><path d="M1789.8 374.8v.8c0 1 .2 2.4-1.2 2.6-1.7.3-1.7-1.4-1.9-2.4-.4-1.7-.8-3.3-1.8-4.9-2.7-4.2-9.5-2.8-11.5.5-1.3 2.2-2.5 4.4-4 6.5-2.3 3.3-4.7 6.4-9.4 6.2-2.9-.1-4.8-1.8-6.5-3.7-1.5-1.7-3.1-3.1-4.5-4.9-3.3-4.3-9.9-3.1-12.2 2.4-1.6 4-4.1 7-8.4 8.6-5.3 1.9-11.6-1-14.3-5-1-1.5-2-2.9-3.3-4.2-3.5-3.4-8.2-3.4-11.7-.1-2.4 2.3-4.6 4.8-5.4 8.3-.3 1.1-1.1 2.4-2.4 2-1.4-.4-2.1-1.6-1.8-3.1 1-5.2 2.3-10.2 5.6-14.5 5.5-7.2 16.3-7.2 21.7 0 .9 1.2 1.9 2.4 2.8 3.6 3.2 4.3 7.7 4.1 10.4-.6.6-1 1.1-2 1.6-3 3.9-8.6 16.4-10.2 23.2-1.6 1.4 1.7 2.8 3.5 4.2 5.1 1.1 1.2 2.1 1.2 3.3-.1 2.4-2.5 3.9-5.7 6.1-8.4 3.4-4.3 5.7-5.2 10.8-3.7 6.2 1.8 10.5 7.3 10.6 13.6z" fill="#492F91"/><path d="M1715.7 320.7c-3.4.8-6.9 1.5-10.2 2.8-1.5.6-2.1-.2-2.6-1.4-4.5-10.1-3.9-19.9 2-29.1 8.1-12.7 19.9-18.9 35.1-17.4 16.8 1.7 28.7 15.4 31.3 28.8 1.2 6.3-.1 12.1-2.5 17.8-.7 1.8-1.7 2.1-3.5 1.4-2.5-1.1-5.2-1.7-7.8-2.3-.1-.1-.2-.3-.4-.4 0-13.1-14.5-22.9-27.3-18.1-1.4.5-1 1.3-.7 2.3.8 2.7.3 5.1-1.9 7-2.1 1.8-4.3 2.7-7 1.4-1.4-.6-2.3-.5-2.7 1.2-.4 1.9-.9 3.8-1.4 5.7-.1 0-.2.2-.4.3z" opacity=".7" fill="#FFF"/><path d="M1734.5 324c10.1 0 18.7 1.3 27.1 3.7 3.1.9 3 1.2 1 3.5-6.4 7.2-14.5 11.1-23.9 11.8-9 .7-17.3-1.7-24.5-7.3-2-1.5-3.7-3.3-5.5-5-1.5-1.4-1.3-2.3.7-2.9 3.9-1.2 7.9-2.2 11.9-2.6 4.8-.5 9.5-1.9 13.2-1.2zM1716.2 320.3c.5-1.9 1-3.8 1.4-5.7.4-1.7 1.4-1.9 2.7-1.2 2.7 1.3 5 .4 7-1.4 2.1-1.9 2.7-4.3 1.9-7-.3-1-.7-1.7.7-2.3 12.8-4.8 27.3 5 27.3 18.1-2.7 0-5.4-.8-8.1-1.1-1-.1-1.2-.9-1.5-1.6-2.1-4.7-5.8-7.5-11-7.4-5 .1-8.6 2.8-10.6 7.4-.4.9-.9 1.6-1.9 1.5-2.7-.1-5.3 1-7.9.7z" opacity=".7" fill="#5C57A5"/><path d="M1715.7 320.7l.4-.4c-.1.1-.2.3-.4.4zM1757.2 320.7c.1.1.2.3.4.4-.2-.1-.3-.2-.4-.4z" fill="#DF2026"/></g><path d="M1724.2 319.6c1.1.1 1.6-.6 1.9-1.5 2-4.6 5.6-7.3 10.6-7.4 5.2-.1 8.8 2.6 11 7.4.3.7.5 1.5 1.5 1.6" opacity=".7" fill="#11213C"/><path d="M1698.4 337.2c-2.5-9.7.4-18.1 6-25.6 10.1-13.3 23.6-18.8 40.3-16.8 17.3 2.1 28.9 11.3 35.1 27.3 2.4 6.2 2.7 12.6.1 19.7-6.3-19.5-19-31.2-39.2-32.4-20.3-1.2-33.9 9.7-42.3 27.8z" opacity=".4" fill="#492F91"/></g></svg>